<svg xmlns="http://www.w3.org/2000/svg" xmlns:xlink="http://www.w3.org/1999/xlink" viewBox="0 0 1167.64 598.28"><defs><style>.cls-1{fill:#3fb9a2;}.cls-2{fill:#fff;}.cls-3{fill:none;}.cls-4{isolation:isolate;}.cls-5{clip-path:url(#clip-path);}.cls-6{mix-blend-mode:multiply;}.cls-7{clip-path:url(#clip-path-2);}.cls-8{clip-path:url(#clip-path-3);}.cls-9{clip-path:url(#clip-path-4);}.cls-10{fill:url(#linear-gradient);}.cls-11{clip-path:url(#clip-path-5);}.cls-12{clip-path:url(#clip-path-6);}.cls-13{fill:url(#linear-gradient-2);}</style><clipPath id="clip-path" transform="translate(-11.38 53.06)"><path class="cls-1" d="M407.45,92.15C400.73,135.46,353.78,159,353.78,159s47,22.66,53.67,66,38.88,83.85,64.41,83.85h586.06c25.53,0,57.69-40.33,64.41-83.65S1176,158.67,1176,158.67s-47-23.18-53.66-66.5S1083.45,7.8,1057.92,7.8H471.86c-25.53,0-57.69,41-64.41,84.35"/></clipPath><clipPath id="clip-path-2" transform="translate(-11.38 53.06)"><rect class="cls-2" x="11.38" y="4.55" width="394.37" height="506.47"/></clipPath><clipPath id="clip-path-3" transform="translate(-11.38 53.06)"><path class="cls-2" d="M153.27,229s10.28,41.61,49.86,38.09,47.92-45.63,47.92-45.63,6.61.35,9.62,4.76c0,0,73.22,14.5,85.24,30.78s31.56,42.31,40.59,95.82,19.24,192.37,19.24,192.37L11.38,542s26.74-214.36,35.4-235.47c4.37-10.66,5-39.54,43.1-51s54.62-16.2,63.39-26.54"/></clipPath><clipPath id="clip-path-4" transform="translate(-11.38 53.06)"><rect class="cls-3" x="12.29" y="174.56" width="392.79" height="289.77"/></clipPath><linearGradient id="linear-gradient" y1="-304.19" x2="1" y2="-304.19" gradientTransform="matrix(0, -602.44, -602.44, 0, -183059.61, 533.52)" gradientUnits="userSpaceOnUse"><stop offset="0" stop-color="#2e9b88"/><stop offset="0.22" stop-color="#37b8a2"/><stop offset="0.41" stop-color="#3dceb5"/><stop offset="0.97" stop-color="#3dceb5"/><stop offset="1" stop-color="#3dceb5"/></linearGradient><clipPath id="clip-path-5" transform="translate(-11.38 53.06)"><path class="cls-2" d="M274.31,111.66c6.16,61.5-22.07,96.37-25,98.11l-2.91,1.74s-1.15,38.9,50.51,40.64,54-45.86,40-59.21c0,0-7,14.32-19.35,10.83,0,0,17.61-5,11.81-20.12,0,0-7.36,9.67-16.45,2.33S354.13,16.78,215.67,4.85c0,0-107.19-10.83-113.39,99.07,0,0-3.29,16.17-17.51,12.38s-7.25-16-7.25-16-38.9,25-5.23,53.41c0,0-13.35,5.12-19.15-6.86,0,0-2.72,42.57,28.62,42.18,0,0-12,8.52-22.83,3.87,0,0,39.48,66.57,102.95,20.51,0,0-14.71-26.7-13.16-53.79s43.35-47.6,48-84c0,0,45.28,0,63.47,32.51,0,0-6.19-24.78-23.61-34.45,0,0,34.82,8.89,37.73,37.92"/></clipPath><clipPath id="clip-path-6" transform="translate(-11.38 53.06)"><rect class="cls-3" x="38.49" y="-53.06" width="315.58" height="265.04"/></clipPath><linearGradient id="linear-gradient-2" y1="-304.19" y2="-304.19" gradientTransform="matrix(0, -587.66, -587.66, 0, -178576.01, 525.66)" xlink:href="#linear-gradient"/></defs><title>original4</title><g class="cls-4"><g id="Layers"><path class="cls-1" d="M407.45,92.15C400.73,135.46,353.78,159,353.78,159s47,22.66,53.67,66,38.88,83.85,64.41,83.85h586.06c25.53,0,57.69-40.33,64.41-83.65S1176,158.67,1176,158.67s-47-23.18-53.66-66.5S1083.45,7.8,1057.92,7.8H471.86c-25.53,0-57.69,41-64.41,84.35" transform="translate(-11.38 53.06)"/><g class="cls-5"><rect class="cls-1" x="276.04" y="59.31" width="891.6" height="307.27"/></g><g id="Green_Barbara" data-name="Green Barbara"><g class="cls-6"><rect class="cls-2" y="57.61" width="394.37" height="506.47"/><g class="cls-7"><path class="cls-2" d="M153.27,229s10.28,41.61,49.86,38.09,47.92-45.63,47.92-45.63,6.61.35,9.62,4.76c0,0,73.22,14.5,85.24,30.78s31.56,42.31,40.59,95.82,19.24,192.37,19.24,192.37L11.38,542s26.74-214.36,35.4-235.47c4.37-10.66,5-39.54,43.1-51s54.62-16.2,63.39-26.54" transform="translate(-11.38 53.06)"/><g class="cls-8"><g class="cls-9"><rect class="cls-10" x="0.91" y="227.62" width="392.79" height="289.77"/></g></g><path class="cls-2" d="M274.31,111.66c6.16,61.5-22.07,96.37-25,98.11l-2.91,1.74s-1.15,38.9,50.51,40.64,54-45.86,40-59.21c0,0-7,14.32-19.35,10.83,0,0,17.61-5,11.81-20.12,0,0-7.36,9.67-16.45,2.33S354.13,16.78,215.67,4.85c0,0-107.19-10.83-113.39,99.07,0,0-3.29,16.17-17.51,12.38s-7.25-16-7.25-16-38.9,25-5.23,53.41c0,0-13.35,5.12-19.15-6.86,0,0-2.72,42.57,28.62,42.18,0,0-12,8.52-22.83,3.87,0,0,39.48,66.57,102.95,20.51,0,0-14.71-26.7-13.16-53.79s43.35-47.6,48-84c0,0,45.28,0,63.47,32.51,0,0-6.19-24.78-23.61-34.45,0,0,34.82,8.89,37.73,37.92" transform="translate(-11.38 53.06)"/><g class="cls-11"><g class="cls-12"><rect class="cls-13" x="27.11" width="315.58" height="265.04"/></g></g></g></g><path class="cls-2" d="M480.47,100H476.4V69.87h4.07Z" transform="translate(-11.38 53.06)"/><path class="cls-2" d="M511.68,100H510a2,2,0,0,1-.88-.17.93.93,0,0,1-.44-.71l-.42-2q-.84.76-1.64,1.35a9.44,9.44,0,0,1-1.68,1,8.72,8.72,0,0,1-1.88.62,10.8,10.8,0,0,1-2.22.21,7.55,7.55,0,0,1-2.32-.35,5.28,5.28,0,0,1-1.88-1,5,5,0,0,1-1.27-1.76,6.17,6.17,0,0,1-.47-2.52,4.71,4.71,0,0,1,.69-2.43,6.1,6.1,0,0,1,2.24-2.08,14.57,14.57,0,0,1,4-1.49,27.48,27.48,0,0,1,6.11-.58V86.39a5.79,5.79,0,0,0-1.06-3.77,3.84,3.84,0,0,0-3.14-1.28,6.64,6.64,0,0,0-2.3.35,8.73,8.73,0,0,0-1.62.78q-.68.43-1.18.78a1.69,1.69,0,0,1-1,.35,1.12,1.12,0,0,1-.66-.2,1.52,1.52,0,0,1-.45-.49l-.67-1.2a12.15,12.15,0,0,1,3.8-2.54,11.74,11.74,0,0,1,4.51-.84,8.07,8.07,0,0,1,3.17.59,6.5,6.5,0,0,1,2.33,1.64,6.94,6.94,0,0,1,1.43,2.54,10.59,10.59,0,0,1,.48,3.28ZM502,97.67a7.64,7.64,0,0,0,1.81-.2,7.11,7.11,0,0,0,1.54-.57,8.09,8.09,0,0,0,1.39-.89,11.94,11.94,0,0,0,1.29-1.2V90.43a25,25,0,0,0-4.39.33,12.3,12.3,0,0,0-2.94.86A4.09,4.09,0,0,0,499,92.86a2.69,2.69,0,0,0-.51,1.61,3.56,3.56,0,0,0,.27,1.46,2.76,2.76,0,0,0,.73,1,2.91,2.91,0,0,0,1.09.57A5,5,0,0,0,502,97.67Z" transform="translate(-11.38 53.06)"/><path class="cls-2" d="M517.34,107.16V78.69h2.23a1,1,0,0,1,1,.78l.32,2.52A11.35,11.35,0,0,1,524,79.32a8,8,0,0,1,4-1,7.68,7.68,0,0,1,3.32.7,6.84,6.84,0,0,1,2.54,2.08,10,10,0,0,1,1.62,3.41,17.52,17.52,0,0,1,.57,4.68,14.68,14.68,0,0,1-.63,4.38,10.64,10.64,0,0,1-1.81,3.51,8.43,8.43,0,0,1-2.89,2.33,8.54,8.54,0,0,1-3.85.85,7.93,7.93,0,0,1-3.37-.65,7.6,7.6,0,0,1-2.47-1.85v9.41Zm9.47-25.83a6,6,0,0,0-3.2.84,9.24,9.24,0,0,0-2.53,2.37V94.84a6,6,0,0,0,2.26,2,6.46,6.46,0,0,0,2.74.57,5.36,5.36,0,0,0,4.56-2.12,9.9,9.9,0,0,0,1.6-6,15.08,15.08,0,0,0-.37-3.57,7,7,0,0,0-1.06-2.45,4.13,4.13,0,0,0-1.7-1.4A5.66,5.66,0,0,0,526.82,81.33Z" transform="translate(-11.38 53.06)"/><path class="cls-2" d="M540.53,107.16V78.69h2.23a1,1,0,0,1,1,.78l.32,2.52a11.35,11.35,0,0,1,3.12-2.67,8,8,0,0,1,4-1,7.68,7.68,0,0,1,3.32.7,6.84,6.84,0,0,1,2.54,2.08,10,10,0,0,1,1.62,3.41,17.52,17.52,0,0,1,.57,4.68,14.68,14.68,0,0,1-.63,4.38,10.64,10.64,0,0,1-1.81,3.51A8.43,8.43,0,0,1,554,99.4a8.54,8.54,0,0,1-3.85.85,7.93,7.93,0,0,1-3.37-.65,7.6,7.6,0,0,1-2.47-1.85v9.41ZM550,81.33a6,6,0,0,0-3.2.84,9.24,9.24,0,0,0-2.53,2.37V94.84a6,6,0,0,0,2.26,2,6.46,6.46,0,0,0,2.74.57,5.36,5.36,0,0,0,4.56-2.12,9.9,9.9,0,0,0,1.6-6,15.08,15.08,0,0,0-.37-3.57A7,7,0,0,0,554,83.17a4.13,4.13,0,0,0-1.7-1.4A5.66,5.66,0,0,0,550,81.33Z" transform="translate(-11.38 53.06)"/><path class="cls-2" d="M567.87,69V100h-3.74V69Z" transform="translate(-11.38 53.06)"/><path class="cls-2" d="M579.46,72a2.37,2.37,0,0,1-.22,1,2.92,2.92,0,0,1-.59.84,2.72,2.72,0,0,1-.85.58,2.55,2.55,0,0,1-1,.21,2.47,2.47,0,0,1-1-.21A2.8,2.8,0,0,1,574.34,73a2.48,2.48,0,0,1-.21-1,2.64,2.64,0,0,1,.21-1,2.7,2.7,0,0,1,.58-.86,2.76,2.76,0,0,1,.84-.58,2.48,2.48,0,0,1,1-.21,2.56,2.56,0,0,1,1,.21,2.74,2.74,0,0,1,.85.58,2.84,2.84,0,0,1,.59.86A2.51,2.51,0,0,1,579.46,72Zm-.84,6.68V100h-3.74V78.69Z" transform="translate(-11.38 53.06)"/><path class="cls-2" d="M593.64,78.35a9.49,9.49,0,0,1,3.53.64A7.91,7.91,0,0,1,600,80.84a8.43,8.43,0,0,1,1.84,3,11.52,11.52,0,0,1,.66,4,2.45,2.45,0,0,1-.19,1.18.79.79,0,0,1-.71.29H587.4a11.72,11.72,0,0,0,.55,3.51,7.17,7.17,0,0,0,1.39,2.49,5.54,5.54,0,0,0,2.1,1.49,7.21,7.21,0,0,0,2.73.49,8,8,0,0,0,2.43-.33,11.54,11.54,0,0,0,1.75-.7,13.4,13.4,0,0,0,1.23-.7,1.63,1.63,0,0,1,.85-.33.82.82,0,0,1,.71.36L602.18,97a7.12,7.12,0,0,1-1.66,1.46,10.33,10.33,0,0,1-2.07,1,13.08,13.08,0,0,1-2.28.6,13.93,13.93,0,0,1-2.33.2,10.82,10.82,0,0,1-4.06-.75,8.92,8.92,0,0,1-3.21-2.18,10,10,0,0,1-2.11-3.56,14.48,14.48,0,0,1-.76-4.87,12.39,12.39,0,0,1,.68-4.16,9.8,9.8,0,0,1,2-3.35,9,9,0,0,1,3.13-2.23A10.26,10.26,0,0,1,593.64,78.35Zm.08,2.75a5.74,5.74,0,0,0-4.26,1.56A7.36,7.36,0,0,0,587.53,87H599.1a7.56,7.56,0,0,0-.36-2.38,5.31,5.31,0,0,0-1-1.87A4.71,4.71,0,0,0,596,81.53,5.72,5.72,0,0,0,593.72,81.1Z" transform="translate(-11.38 53.06)"/><path class="cls-2" d="M622.2,100a1,1,0,0,1-1-.78l-.34-2.58a11.21,11.21,0,0,1-3.12,2.66,8,8,0,0,1-4,1,7.68,7.68,0,0,1-3.32-.7,6.87,6.87,0,0,1-2.54-2.07,9.85,9.85,0,0,1-1.62-3.4,17.51,17.51,0,0,1-.57-4.68A14.68,14.68,0,0,1,606.3,85a10.66,10.66,0,0,1,1.82-3.52,8.33,8.33,0,0,1,6.75-3.19,7.69,7.69,0,0,1,3.34.66,8,8,0,0,1,2.48,1.86V69h3.74V100ZM615,97.23a6,6,0,0,0,3.2-.84A9.26,9.26,0,0,0,620.68,94V83.73a5.91,5.91,0,0,0-2.26-1.94,6.52,6.52,0,0,0-2.72-.56,5.38,5.38,0,0,0-4.58,2.12,9.91,9.91,0,0,0-1.6,6,15.37,15.37,0,0,0,.36,3.56,6.84,6.84,0,0,0,1,2.44,4.12,4.12,0,0,0,1.7,1.4A5.71,5.71,0,0,0,615,97.23Z" transform="translate(-11.38 53.06)"/><path class="cls-2" d="M639.65,100V81.88l-2.35-.27a1.87,1.87,0,0,1-.72-.33.76.76,0,0,1-.28-.64V79.11h3.36V77.05a9.46,9.46,0,0,1,.51-3.24,6.56,6.56,0,0,1,1.47-2.39,6.22,6.22,0,0,1,2.3-1.48,8.55,8.55,0,0,1,3-.5,8.06,8.06,0,0,1,2.65.42l-.08,1.87a.48.48,0,0,1-.36.5,4.1,4.1,0,0,1-.95.08h-.65a5.72,5.72,0,0,0-1.75.25,3.32,3.32,0,0,0-1.35.82,3.7,3.7,0,0,0-.87,1.49,7.4,7.4,0,0,0-.3,2.29v2h6.15v2.71h-6V100Z" transform="translate(-11.38 53.06)"/><path class="cls-2" d="M661.57,78.35a10.93,10.93,0,0,1,4.21.78A8.88,8.88,0,0,1,669,81.33a9.77,9.77,0,0,1,2,3.46,14.95,14.95,0,0,1,0,9.06,9.78,9.78,0,0,1-2,3.44,8.76,8.76,0,0,1-3.19,2.19,11.95,11.95,0,0,1-8.42,0,8.85,8.85,0,0,1-3.2-2.19,9.82,9.82,0,0,1-2-3.44,14.73,14.73,0,0,1,0-9.06,9.81,9.81,0,0,1,2-3.46,9,9,0,0,1,3.2-2.21A10.93,10.93,0,0,1,661.57,78.35Zm0,19a5.46,5.46,0,0,0,4.7-2.11,9.77,9.77,0,0,0,1.55-5.89,9.86,9.86,0,0,0-1.55-5.92,5.45,5.45,0,0,0-4.7-2.12,6.54,6.54,0,0,0-2.77.55,5.2,5.2,0,0,0-2,1.58,7,7,0,0,0-1.18,2.53,14.95,14.95,0,0,0,0,6.77,6.88,6.88,0,0,0,1.18,2.51,5.22,5.22,0,0,0,2,1.56A6.52,6.52,0,0,0,661.57,97.34Z" transform="translate(-11.38 53.06)"/><path class="cls-2" d="M676.31,100V78.69h2.14a1.18,1.18,0,0,1,.84.23,1.42,1.42,0,0,1,.32.8l.25,3.32a9.73,9.73,0,0,1,2.7-3.48,6.36,6.36,0,0,1,5.37-1.05,5.6,5.6,0,0,1,1.32.56l-.48,2.79a.63.63,0,0,1-.65.52,3.24,3.24,0,0,1-.9-.2,5.7,5.7,0,0,0-1.7-.2,4.82,4.82,0,0,0-3.27,1.13,8.51,8.51,0,0,0-2.19,3.3V100Z" transform="translate(-11.38 53.06)"/><path class="cls-2" d="M717.34,74.57a1.63,1.63,0,0,1-.4.47.89.89,0,0,1-.55.16,1.45,1.45,0,0,1-.83-.36,13.45,13.45,0,0,0-1.2-.79,9.75,9.75,0,0,0-1.74-.79,7.51,7.51,0,0,0-2.47-.36,7.31,7.31,0,0,0-2.42.37,5.13,5.13,0,0,0-1.75,1,4.08,4.08,0,0,0-1.06,1.48,4.69,4.69,0,0,0-.36,1.84,3.4,3.4,0,0,0,.62,2.09,5.32,5.32,0,0,0,1.64,1.42,12.59,12.59,0,0,0,2.31,1l2.65.89q1.35.46,2.65,1a9.31,9.31,0,0,1,2.31,1.46,6.67,6.67,0,0,1,1.64,2.16,7.2,7.2,0,0,1,.62,3.15,10.15,10.15,0,0,1-.67,3.71,8.55,8.55,0,0,1-2,3,9.2,9.2,0,0,1-3.17,2,11.68,11.68,0,0,1-4.27.73,13.05,13.05,0,0,1-5.32-1.06,12.47,12.47,0,0,1-4.11-2.87l1.18-1.93a1.54,1.54,0,0,1,.41-.39,1,1,0,0,1,.54-.16,1.67,1.67,0,0,1,1,.47,16.62,16.62,0,0,0,1.42,1,10.79,10.79,0,0,0,2.06,1,8.11,8.11,0,0,0,3,.47,7.77,7.77,0,0,0,2.58-.4,5.48,5.48,0,0,0,1.92-1.12,4.86,4.86,0,0,0,1.21-1.73,5.8,5.8,0,0,0,.42-2.25,3.77,3.77,0,0,0-.62-2.24,5.14,5.14,0,0,0-1.63-1.46,11.41,11.41,0,0,0-2.3-1L708,85.88a26.74,26.74,0,0,1-2.65-1,8.59,8.59,0,0,1-2.3-1.47,6.75,6.75,0,0,1-1.63-2.26,8.25,8.25,0,0,1,1.79-9.08,8.71,8.71,0,0,1,2.91-1.85,10.64,10.64,0,0,1,4-.69,12.73,12.73,0,0,1,4.6.8,10.59,10.59,0,0,1,3.63,2.31Z" transform="translate(-11.38 53.06)"/><path class="cls-2" d="M730,100.3a5.13,5.13,0,0,1-3.87-1.41,5.61,5.61,0,0,1-1.35-4.05v-13h-2.56a.84.84,0,0,1-.57-.2.78.78,0,0,1-.23-.62V79.51l3.49-.44.86-6.57a.79.79,0,0,1,.27-.51.87.87,0,0,1,.59-.2h1.89v7.33h6.09v2.71h-6.09V94.59a2.72,2.72,0,0,0,.65,2,2.27,2.27,0,0,0,1.68.65,3,3,0,0,0,1-.16,4.34,4.34,0,0,0,.75-.35c.21-.13.39-.24.54-.35a.7.7,0,0,1,.39-.16.64.64,0,0,1,.53.36l1.09,1.79a7,7,0,0,1-2.33,1.42A7.9,7.9,0,0,1,730,100.3Z" transform="translate(-11.38 53.06)"/><path class="cls-2" d="M754.89,100h-1.66a2,2,0,0,1-.88-.17.93.93,0,0,1-.44-.71l-.42-2q-.84.76-1.64,1.35a9.45,9.45,0,0,1-1.68,1,8.73,8.73,0,0,1-1.88.62,10.81,10.81,0,0,1-2.22.21,7.55,7.55,0,0,1-2.32-.35,5.27,5.27,0,0,1-1.88-1,5,5,0,0,1-1.27-1.76,6.17,6.17,0,0,1-.47-2.52,4.71,4.71,0,0,1,.69-2.43,6.09,6.09,0,0,1,2.24-2.08,14.56,14.56,0,0,1,4-1.49,27.47,27.47,0,0,1,6.11-.58V86.39a5.79,5.79,0,0,0-1.06-3.77A3.84,3.84,0,0,0,747,81.33a6.64,6.64,0,0,0-2.3.35,8.73,8.73,0,0,0-1.62.78q-.68.43-1.18.78a1.69,1.69,0,0,1-1,.35,1.12,1.12,0,0,1-.66-.2,1.52,1.52,0,0,1-.45-.49l-.67-1.2a12.15,12.15,0,0,1,3.8-2.54,11.75,11.75,0,0,1,4.52-.84,8.06,8.06,0,0,1,3.17.59A6.5,6.5,0,0,1,753,80.54a6.94,6.94,0,0,1,1.43,2.54,10.58,10.58,0,0,1,.48,3.28Zm-9.7-2.29a7.64,7.64,0,0,0,1.81-.2,7.13,7.13,0,0,0,1.54-.57,8.13,8.13,0,0,0,1.39-.89,12,12,0,0,0,1.29-1.2V90.43a25,25,0,0,0-4.39.33,12.32,12.32,0,0,0-2.94.86,4.1,4.1,0,0,0-1.65,1.25,2.69,2.69,0,0,0-.51,1.61,3.57,3.57,0,0,0,.27,1.46,2.76,2.76,0,0,0,.74,1,2.91,2.91,0,0,0,1.09.57A5,5,0,0,0,745.19,97.67Z" transform="translate(-11.38 53.06)"/><path class="cls-2" d="M761.4,100V81.88L759,81.61a1.87,1.87,0,0,1-.72-.33.76.76,0,0,1-.28-.64V79.11h3.36V77.05a9.46,9.46,0,0,1,.51-3.24,6.56,6.56,0,0,1,1.47-2.39,6.22,6.22,0,0,1,2.3-1.48,8.55,8.55,0,0,1,3-.5,8.06,8.06,0,0,1,2.65.42l-.08,1.87a.48.48,0,0,1-.36.5,4.1,4.1,0,0,1-.95.08h-.65a5.72,5.72,0,0,0-1.75.25,3.32,3.32,0,0,0-1.35.82,3.7,3.7,0,0,0-.87,1.49,7.4,7.4,0,0,0-.3,2.29v2h6.15v2.71h-6V100Z" transform="translate(-11.38 53.06)"/><path class="cls-2" d="M775.55,100V81.88l-2.35-.27a1.87,1.87,0,0,1-.72-.33.76.76,0,0,1-.28-.64V79.11h3.36V77.05a9.46,9.46,0,0,1,.51-3.24,6.56,6.56,0,0,1,1.47-2.39,6.22,6.22,0,0,1,2.3-1.48,8.55,8.55,0,0,1,3-.5,8.06,8.06,0,0,1,2.65.42l-.08,1.87a.48.48,0,0,1-.36.5,4.1,4.1,0,0,1-.95.08h-.65a5.72,5.72,0,0,0-1.75.25,3.32,3.32,0,0,0-1.35.82,3.7,3.7,0,0,0-.87,1.49,7.4,7.4,0,0,0-.3,2.29v2h6.15v2.71h-6V100Z" transform="translate(-11.38 53.06)"/><path class="cls-2" d="M822.32,100h-3.15a1.36,1.36,0,0,1-.88-.27,1.68,1.68,0,0,1-.5-.69L815,91.73h-13.5L798.65,99a1.65,1.65,0,0,1-.5.67,1.34,1.34,0,0,1-.88.29h-3.15l12-30.09h4.14ZM802.6,88.79h11.23l-4.72-12.24a22.77,22.77,0,0,1-.9-2.83q-.23.86-.45,1.59t-.43,1.27Z" transform="translate(-11.38 53.06)"/><path class="cls-2" d="M825.53,100V78.69h2.23a1,1,0,0,1,1,.78l.29,2.31a11.93,11.93,0,0,1,3.1-2.48,8.06,8.06,0,0,1,4-.94,7.69,7.69,0,0,1,3.08.58,6,6,0,0,1,2.23,1.64,7.22,7.22,0,0,1,1.35,2.55,11.08,11.08,0,0,1,.46,3.3V100H839.5V86.42a5.73,5.73,0,0,0-1.1-3.75A4.12,4.12,0,0,0,835,81.33a6.29,6.29,0,0,0-3.1.8,10.22,10.22,0,0,0-2.66,2.16V100Z" transform="translate(-11.38 53.06)"/><path class="cls-2" d="M864.51,100h-1.66a2,2,0,0,1-.88-.17.93.93,0,0,1-.44-.71l-.42-2q-.84.76-1.64,1.35a9.45,9.45,0,0,1-1.68,1,8.73,8.73,0,0,1-1.88.62,10.81,10.81,0,0,1-2.22.21,7.55,7.55,0,0,1-2.32-.35,5.27,5.27,0,0,1-1.88-1,5,5,0,0,1-1.27-1.76,6.17,6.17,0,0,1-.47-2.52,4.71,4.71,0,0,1,.69-2.43,6.09,6.09,0,0,1,2.24-2.08,14.56,14.56,0,0,1,4-1.49,27.47,27.47,0,0,1,6.11-.58V86.39a5.79,5.79,0,0,0-1.06-3.77,3.84,3.84,0,0,0-3.14-1.28,6.64,6.64,0,0,0-2.3.35,8.73,8.73,0,0,0-1.62.78q-.68.43-1.18.78a1.69,1.69,0,0,1-1,.35,1.12,1.12,0,0,1-.66-.2,1.52,1.52,0,0,1-.45-.49l-.67-1.2a12.15,12.15,0,0,1,3.8-2.54,11.75,11.75,0,0,1,4.52-.84,8.06,8.06,0,0,1,3.17.59,6.5,6.5,0,0,1,2.33,1.64A6.94,6.94,0,0,1,864,83.08a10.58,10.58,0,0,1,.48,3.28Zm-9.7-2.29a7.64,7.64,0,0,0,1.81-.2,7.13,7.13,0,0,0,1.54-.57,8.13,8.13,0,0,0,1.39-.89,12,12,0,0,0,1.29-1.2V90.43a25,25,0,0,0-4.39.33,12.32,12.32,0,0,0-2.94.86,4.1,4.1,0,0,0-1.65,1.25,2.69,2.69,0,0,0-.51,1.61,3.57,3.57,0,0,0,.27,1.46,2.76,2.76,0,0,0,.74,1,2.91,2.91,0,0,0,1.09.57A5,5,0,0,0,854.81,97.67Z" transform="translate(-11.38 53.06)"/><path class="cls-2" d="M874.34,69V100H870.6V69Z" transform="translate(-11.38 53.06)"/><path class="cls-2" d="M887.17,106.24a2,2,0,0,1-.47.67,1.28,1.28,0,0,1-.87.25h-2.77l3.89-8.44-8.78-20h3.23a1.11,1.11,0,0,1,.76.24,1.52,1.52,0,0,1,.4.54l5.69,13.4a9.65,9.65,0,0,1,.33.92q.14.46.24.95l.29-.95q.15-.46.34-.95L895,79.47a1.2,1.2,0,0,1,.43-.56,1.11,1.11,0,0,1,.66-.22h3Z" transform="translate(-11.38 53.06)"/><path class="cls-2" d="M914.61,82.2a.83.83,0,0,1-.78.46,1.46,1.46,0,0,1-.71-.23q-.4-.23-1-.51a9.15,9.15,0,0,0-1.37-.53,6.56,6.56,0,0,0-1.89-.24,5.58,5.58,0,0,0-1.7.24,4.1,4.1,0,0,0-1.29.66,2.94,2.94,0,0,0-.82,1,2.63,2.63,0,0,0-.28,1.21,2,2,0,0,0,.47,1.37,4.11,4.11,0,0,0,1.25.94,10.87,10.87,0,0,0,1.76.7l2,.65q1,.35,2,.77a7.35,7.35,0,0,1,1.76,1,4.8,4.8,0,0,1,1.25,1.54,4.73,4.73,0,0,1,.47,2.19,7,7,0,0,1-.53,2.72,5.94,5.94,0,0,1-1.55,2.16,7.5,7.5,0,0,1-2.52,1.44,10.36,10.36,0,0,1-3.44.52,10.74,10.74,0,0,1-4-.72,10.21,10.21,0,0,1-3.07-1.86l.88-1.43a1.28,1.28,0,0,1,.4-.42,1.13,1.13,0,0,1,.61-.15,1.41,1.41,0,0,1,.8.29q.42.29,1,.65a7.83,7.83,0,0,0,1.45.65,6.6,6.6,0,0,0,2.13.29,5.83,5.83,0,0,0,1.91-.28,4,4,0,0,0,1.37-.77,3.06,3.06,0,0,0,.81-1.11,3.46,3.46,0,0,0,.26-1.34,2.23,2.23,0,0,0-.47-1.46,4,4,0,0,0-1.25-1,10.22,10.22,0,0,0-1.77-.71l-2-.64q-1-.34-2-.77A7.14,7.14,0,0,1,903,88.45a4.88,4.88,0,0,1-1.25-1.61,5.19,5.19,0,0,1-.47-2.32,5.66,5.66,0,0,1,.5-2.34,5.75,5.75,0,0,1,1.47-2,7.24,7.24,0,0,1,2.37-1.35,9.49,9.49,0,0,1,3.21-.5,10.15,10.15,0,0,1,3.77.66,8.92,8.92,0,0,1,2.89,1.82Z" transform="translate(-11.38 53.06)"/><path class="cls-2" d="M927.11,100.3a5.13,5.13,0,0,1-3.87-1.41,5.61,5.61,0,0,1-1.35-4.05v-13h-2.56a.84.84,0,0,1-.57-.2.78.78,0,0,1-.23-.62V79.51l3.49-.44.86-6.57a.79.79,0,0,1,.27-.51.87.87,0,0,1,.59-.2h1.89v7.33h6.09v2.71h-6.09V94.59a2.72,2.72,0,0,0,.65,2,2.27,2.27,0,0,0,1.68.65,3,3,0,0,0,1-.16,4.34,4.34,0,0,0,.75-.35c.21-.13.39-.24.54-.35a.7.7,0,0,1,.39-.16.64.64,0,0,1,.53.36l1.09,1.79a7,7,0,0,1-2.33,1.42A7.9,7.9,0,0,1,927.11,100.3Z" transform="translate(-11.38 53.06)"/><path class="cls-2" d="M935.23,97.38a2.36,2.36,0,0,1,.18-.91,2.31,2.31,0,0,1,.5-.76,2.36,2.36,0,0,1,.79-.51,2.81,2.81,0,0,1,2.13,0,2.24,2.24,0,0,1,.82.64,2.9,2.9,0,0,1,.49.94,3.87,3.87,0,0,1,.17,1.17,7.58,7.58,0,0,1-.27,2,10.52,10.52,0,0,1-.78,2,11.59,11.59,0,0,1-1.25,1.94,12.06,12.06,0,0,1-1.69,1.74l-.63-.61a.78.78,0,0,1-.27-.59.83.83,0,0,1,.29-.57l.54-.62a10.36,10.36,0,0,0,.66-.89,8.34,8.34,0,0,0,.62-1.11,5.3,5.3,0,0,0,.41-1.3h-.27a2.48,2.48,0,0,1-1-.19,2.26,2.26,0,0,1-.77-.54,2.44,2.44,0,0,1-.5-.82A2.92,2.92,0,0,1,935.23,97.38Z" transform="translate(-11.38 53.06)"/><path class="cls-2" d="M953.46,100V69h3.76V81.75a10.87,10.87,0,0,1,3-2.47,8,8,0,0,1,3.92-.93,7.83,7.83,0,0,1,3.34.69,6.75,6.75,0,0,1,2.54,2.07,10,10,0,0,1,1.62,3.4,17.4,17.4,0,0,1,.57,4.67,14.68,14.68,0,0,1-.63,4.38,10.54,10.54,0,0,1-1.82,3.51,8.41,8.41,0,0,1-6.75,3.18,7.11,7.11,0,0,1-3.5-.8A8,8,0,0,1,957,97.23l-.19,1.93a.9.9,0,0,1-1,.8ZM963,81.33a6,6,0,0,0-3.2.84,9.24,9.24,0,0,0-2.53,2.37V94.84a5.86,5.86,0,0,0,2.24,2,6.46,6.46,0,0,0,2.74.57,5.38,5.38,0,0,0,4.58-2.12,9.91,9.91,0,0,0,1.6-6,15.09,15.09,0,0,0-.37-3.57,7,7,0,0,0-1.06-2.45,4.13,4.13,0,0,0-1.7-1.4A5.66,5.66,0,0,0,963,81.33Z" transform="translate(-11.38 53.06)"/><path class="cls-2" d="M980,78.69V92.25A5.64,5.64,0,0,0,981.16,96a4.14,4.14,0,0,0,3.36,1.32,6.43,6.43,0,0,0,3.09-.78,9.61,9.61,0,0,0,2.67-2.16V78.69H994V100h-2.23a1,1,0,0,1-1-.78l-.29-2.29a11.7,11.7,0,0,1-3.11,2.47,8.15,8.15,0,0,1-3.95.93,7.68,7.68,0,0,1-3.08-.58,6.09,6.09,0,0,1-2.24-1.63,6.89,6.89,0,0,1-1.35-2.54,11.31,11.31,0,0,1-.45-3.3V78.69Z" transform="translate(-11.38 53.06)"/><path class="cls-2" d="M1006.61,100.3a5.13,5.13,0,0,1-3.87-1.41,5.61,5.61,0,0,1-1.35-4.05v-13h-2.56a.84.84,0,0,1-.57-.2A.78.78,0,0,1,998,81V79.51l3.49-.44.86-6.57a.79.79,0,0,1,.27-.51.87.87,0,0,1,.59-.2h1.89v7.33h6.09v2.71h-6.09V94.59a2.72,2.72,0,0,0,.65,2,2.27,2.27,0,0,0,1.68.65,3,3,0,0,0,1-.16,4.34,4.34,0,0,0,.75-.35c.21-.13.39-.24.54-.35a.7.7,0,0,1,.39-.16.64.64,0,0,1,.53.36l1.09,1.79a7,7,0,0,1-2.33,1.42A7.9,7.9,0,0,1,1006.61,100.3Z" transform="translate(-11.38 53.06)"/><path class="cls-2" d="M1029.35,100h-4.07V69.87h4.07Z" transform="translate(-11.38 53.06)"/><path class="cls-2" d="M448,150.36a1,1,0,0,1-1-.78L446.7,147a11.18,11.18,0,0,1-3.12,2.66,8,8,0,0,1-4,1,7.67,7.67,0,0,1-3.32-.7,6.88,6.88,0,0,1-2.54-2.07,9.84,9.84,0,0,1-1.62-3.4,17.52,17.52,0,0,1-.57-4.68,14.68,14.68,0,0,1,.63-4.38A10.67,10.67,0,0,1,434,131.9a8.33,8.33,0,0,1,6.75-3.19,7.69,7.69,0,0,1,3.34.66,8,8,0,0,1,2.48,1.86v-11.8h3.74v30.93Zm-7.25-2.73a6,6,0,0,0,3.2-.84,9.22,9.22,0,0,0,2.53-2.37V134.13a5.92,5.92,0,0,0-2.26-1.94,6.51,6.51,0,0,0-2.72-.56,5.38,5.38,0,0,0-4.58,2.12,9.9,9.9,0,0,0-1.6,6,15.36,15.36,0,0,0,.36,3.56,6.84,6.84,0,0,0,1.05,2.44,4.13,4.13,0,0,0,1.7,1.4A5.71,5.71,0,0,0,440.8,147.63Z" transform="translate(-11.38 53.06)"/><path class="cls-2" d="M465.16,128.75a10.94,10.94,0,0,1,4.21.78,8.88,8.88,0,0,1,3.19,2.21,9.78,9.78,0,0,1,2,3.45,14.95,14.95,0,0,1,0,9.06,9.79,9.79,0,0,1-2,3.44,8.77,8.77,0,0,1-3.19,2.19,11.95,11.95,0,0,1-8.42,0,8.86,8.86,0,0,1-3.2-2.19,9.81,9.81,0,0,1-2-3.44,14.73,14.73,0,0,1,0-9.06,9.79,9.79,0,0,1,2-3.45,9,9,0,0,1,3.2-2.21A10.93,10.93,0,0,1,465.16,128.75Zm0,19a5.46,5.46,0,0,0,4.7-2.11,12,12,0,0,0,0-11.81,5.45,5.45,0,0,0-4.7-2.12,6.52,6.52,0,0,0-2.77.55,5.18,5.18,0,0,0-2,1.58,7,7,0,0,0-1.18,2.53,14.95,14.95,0,0,0,0,6.77,6.89,6.89,0,0,0,1.18,2.51,5.23,5.23,0,0,0,2,1.56A6.52,6.52,0,0,0,465.16,147.74Z" transform="translate(-11.38 53.06)"/><path class="cls-2" d="M479.9,150.36V129.09h2.23a1,1,0,0,1,1,.78l.29,2.31a12,12,0,0,1,3.1-2.48,8.06,8.06,0,0,1,4-.95,7.69,7.69,0,0,1,3.08.58,6,6,0,0,1,2.23,1.64,7.24,7.24,0,0,1,1.35,2.55,11.12,11.12,0,0,1,.46,3.3v13.54h-3.74V136.82a5.73,5.73,0,0,0-1.1-3.75,4.12,4.12,0,0,0-3.37-1.33,6.28,6.28,0,0,0-3.1.8,10.19,10.19,0,0,0-2.66,2.16v15.67Z" transform="translate(-11.38 53.06)"/><path class="cls-2" d="M504.37,118.69a7.91,7.91,0,0,1,.88,2,7.69,7.69,0,0,1,.27,2,7.57,7.57,0,0,1-.93,3.64,11.45,11.45,0,0,1-2.59,3.18l-1.15-.71a.52.52,0,0,1-.22-.23.65.65,0,0,1-.05-.25.69.69,0,0,1,.21-.5,9.67,9.67,0,0,0,.65-.87,8.56,8.56,0,0,0,.57-1,5.71,5.71,0,0,0,.4-1.08,4.75,4.75,0,0,0,.15-1.2,5.15,5.15,0,0,0-.2-1.39,6.18,6.18,0,0,0-.68-1.51.86.86,0,0,1-.15-.46.77.77,0,0,1,.57-.74Z" transform="translate(-11.38 53.06)"/><path class="cls-2" d="M517.09,150.7a5.13,5.13,0,0,1-3.87-1.41,5.61,5.61,0,0,1-1.35-4.05v-13H509.3a.84.84,0,0,1-.57-.2.77.77,0,0,1-.23-.62v-1.49l3.49-.44.86-6.57a.79.79,0,0,1,.27-.51.87.87,0,0,1,.59-.2h1.89v7.33h6.09v2.71H515.6V145a2.72,2.72,0,0,0,.65,2,2.28,2.28,0,0,0,1.68.65,3,3,0,0,0,1-.16,4.43,4.43,0,0,0,.75-.35q.31-.19.54-.35a.7.7,0,0,1,.39-.16.64.64,0,0,1,.53.36l1.09,1.78a7,7,0,0,1-2.33,1.42A7.92,7.92,0,0,1,517.09,150.7Z" transform="translate(-11.38 53.06)"/><path class="cls-2" d="M538.3,119.43v18.21h1a1.79,1.79,0,0,0,.69-.12,2,2,0,0,0,.61-.47l6.72-7.2a3.69,3.69,0,0,1,.63-.55,1.5,1.5,0,0,1,.84-.21h3.4l-7.83,8.34a7.32,7.32,0,0,1-.58.63,3.35,3.35,0,0,1-.64.48,3.85,3.85,0,0,1,.68.58,5.46,5.46,0,0,1,.58.75l8.32,10.5h-3.36a1.62,1.62,0,0,1-.79-.18,2.06,2.06,0,0,1-.62-.56l-7-8.71a1.63,1.63,0,0,0-.63-.58,2.5,2.5,0,0,0-.95-.14h-1v10.16h-3.76V119.43Z" transform="translate(-11.38 53.06)"/><path class="cls-2" d="M556.42,150.36V129.09h2.23a1,1,0,0,1,1,.78l.29,2.31a12,12,0,0,1,3.1-2.48,8.05,8.05,0,0,1,4-.95,7.69,7.69,0,0,1,3.08.58,6,6,0,0,1,2.23,1.64,7.23,7.23,0,0,1,1.35,2.55,11.12,11.12,0,0,1,.46,3.3v13.54h-3.74V136.82a5.73,5.73,0,0,0-1.1-3.75,4.12,4.12,0,0,0-3.37-1.33,6.28,6.28,0,0,0-3.1.8,10.19,10.19,0,0,0-2.66,2.16v15.67Z" transform="translate(-11.38 53.06)"/><path class="cls-2" d="M588.39,128.75a10.93,10.93,0,0,1,4.21.78,8.87,8.87,0,0,1,3.19,2.21,9.77,9.77,0,0,1,2,3.45,14.95,14.95,0,0,1,0,9.06,9.79,9.79,0,0,1-2,3.44,8.76,8.76,0,0,1-3.19,2.19,11.95,11.95,0,0,1-8.42,0,8.86,8.86,0,0,1-3.2-2.19,9.8,9.8,0,0,1-2-3.44,14.73,14.73,0,0,1,0-9.06,9.79,9.79,0,0,1,2-3.45,9,9,0,0,1,3.2-2.21A10.93,10.93,0,0,1,588.39,128.75Zm0,19a5.46,5.46,0,0,0,4.7-2.11,12,12,0,0,0,0-11.81,5.45,5.45,0,0,0-4.7-2.12,6.52,6.52,0,0,0-2.77.55,5.19,5.19,0,0,0-2,1.58,7,7,0,0,0-1.18,2.53,14.95,14.95,0,0,0,0,6.77,6.9,6.9,0,0,0,1.18,2.51,5.24,5.24,0,0,0,2,1.56A6.52,6.52,0,0,0,588.39,147.74Z" transform="translate(-11.38 53.06)"/><path class="cls-2" d="M600.36,129.09h2.94a1.19,1.19,0,0,1,.76.23,1.16,1.16,0,0,1,.4.55l4.07,13.69q.17.76.32,1.46t.25,1.42q.17-.71.38-1.42l.44-1.46,4.49-13.78a1.11,1.11,0,0,1,.37-.53,1,1,0,0,1,.66-.21h1.62a1.1,1.1,0,0,1,.69.21,1.08,1.08,0,0,1,.38.53l4.39,13.78q.23.74.41,1.45l.35,1.41c.07-.46.16-.95.27-1.45s.23-1,.36-1.41l4.16-13.69a1.09,1.09,0,0,1,.4-.56,1.12,1.12,0,0,1,.69-.22H632l-6.89,21.27h-3q-.55,0-.76-.71l-4.7-14.43a7.89,7.89,0,0,1-.27-1l-.21-1-.21,1a7.94,7.94,0,0,1-.27,1l-4.77,14.41a.88.88,0,0,1-.86.71h-2.81Z" transform="translate(-11.38 53.06)"/><path class="cls-2" d="M643.41,150.36V129.09h2.23a1,1,0,0,1,1,.78l.27,2.18a10.9,10.9,0,0,1,2.64-2.37,6.21,6.21,0,0,1,3.39-.92,5,5,0,0,1,3.5,1.2,6.73,6.73,0,0,1,1.92,3.23,6.64,6.64,0,0,1,1.17-2,6.76,6.76,0,0,1,1.63-1.39,6.93,6.93,0,0,1,1.92-.8,8.58,8.58,0,0,1,2.07-.25,7.88,7.88,0,0,1,3,.54,5.93,5.93,0,0,1,2.23,1.57,7,7,0,0,1,1.4,2.53,11.2,11.2,0,0,1,.48,3.43v13.54H668.5V136.82a5.74,5.74,0,0,0-1.09-3.79,3.92,3.92,0,0,0-3.17-1.29,4.76,4.76,0,0,0-1.75.33,4.23,4.23,0,0,0-1.46,1,4.49,4.49,0,0,0-1,1.59,6.15,6.15,0,0,0-.37,2.22v13.54h-3.74V136.82a6,6,0,0,0-1-3.82,3.65,3.65,0,0,0-3-1.26,4.74,4.74,0,0,0-2.57.75,8.43,8.43,0,0,0-2.17,2v15.86Z" transform="translate(-11.38 53.06)"/><path class="cls-2" d="M681.12,129.09v13.57a5.64,5.64,0,0,0,1.11,3.74,4.14,4.14,0,0,0,3.36,1.32,6.44,6.44,0,0,0,3.09-.78,9.62,9.62,0,0,0,2.67-2.16V129.09h3.74v21.27h-2.23a1,1,0,0,1-1-.78l-.29-2.29a11.7,11.7,0,0,1-3.11,2.47,8.15,8.15,0,0,1-3.95.93,7.67,7.67,0,0,1-3.08-.58,6.08,6.08,0,0,1-2.24-1.63,6.9,6.9,0,0,1-1.35-2.54,11.32,11.32,0,0,1-.45-3.3V129.09Z" transform="translate(-11.38 53.06)"/><path class="cls-2" d="M715.75,132.87a1.68,1.68,0,0,1-.34.36.79.79,0,0,1-.48.13,1.2,1.2,0,0,1-.68-.26,10,10,0,0,0-.93-.58,7.8,7.8,0,0,0-1.37-.58,7.29,7.29,0,0,0-4.74.29,5.34,5.34,0,0,0-2,1.61,7.26,7.26,0,0,0-1.22,2.54,12.59,12.59,0,0,0-.41,3.34,12.2,12.2,0,0,0,.44,3.43,7.44,7.44,0,0,0,1.24,2.52,5.29,5.29,0,0,0,1.94,1.55,6,6,0,0,0,2.57.54,6.58,6.58,0,0,0,2.25-.33,6.8,6.8,0,0,0,1.47-.72,10.49,10.49,0,0,0,1-.72,1.16,1.16,0,0,1,.76-.33.79.79,0,0,1,.71.36l1,1.37a8.08,8.08,0,0,1-3.46,2.49,12.28,12.28,0,0,1-4.39.79,9.29,9.29,0,0,1-3.71-.74,8.45,8.45,0,0,1-3-2.13,10.13,10.13,0,0,1-2-3.43,13.82,13.82,0,0,1-.72-4.64,14,14,0,0,1,.66-4.39,9.93,9.93,0,0,1,1.93-3.48,8.76,8.76,0,0,1,3.14-2.28,10.58,10.58,0,0,1,4.28-.82,10.09,10.09,0,0,1,3.95.72,9.45,9.45,0,0,1,3,2Z" transform="translate(-11.38 53.06)"/><path class="cls-2" d="M720.85,150.36V119.43h3.74v12.52a11.48,11.48,0,0,1,3-2.32,8.1,8.1,0,0,1,3.82-.87,7.69,7.69,0,0,1,3.08.58,6,6,0,0,1,2.23,1.64,7.22,7.22,0,0,1,1.35,2.55,11.08,11.08,0,0,1,.46,3.3v13.54h-3.74V136.82a5.73,5.73,0,0,0-1.1-3.75,4.12,4.12,0,0,0-3.37-1.33,6.28,6.28,0,0,0-3.1.8,10.2,10.2,0,0,0-2.66,2.16v15.67Z" transform="translate(-11.38 53.06)"/><path class="cls-2" d="M767.93,150.36h-1.66a2,2,0,0,1-.88-.17.93.93,0,0,1-.44-.71l-.42-2q-.84.76-1.64,1.35a9.33,9.33,0,0,1-1.68,1,8.67,8.67,0,0,1-1.88.62,10.81,10.81,0,0,1-2.22.21,7.55,7.55,0,0,1-2.32-.35,5.27,5.27,0,0,1-1.88-1,5,5,0,0,1-1.27-1.76,6.18,6.18,0,0,1-.47-2.52,4.71,4.71,0,0,1,.69-2.43,6.09,6.09,0,0,1,2.24-2.08,14.53,14.53,0,0,1,4-1.49,27.54,27.54,0,0,1,6.11-.58v-1.67A5.79,5.79,0,0,0,763.2,133a3.84,3.84,0,0,0-3.14-1.28,6.64,6.64,0,0,0-2.3.35,8.73,8.73,0,0,0-1.62.78q-.68.43-1.18.78a1.7,1.7,0,0,1-1,.35,1.11,1.11,0,0,1-.66-.2,1.51,1.51,0,0,1-.45-.49l-.67-1.2a12.16,12.16,0,0,1,3.8-2.54,11.75,11.75,0,0,1,4.52-.84,8.06,8.06,0,0,1,3.17.59,6.51,6.51,0,0,1,2.33,1.64,6.94,6.94,0,0,1,1.43,2.54,10.57,10.57,0,0,1,.48,3.28Zm-9.7-2.29a7.64,7.64,0,0,0,1.81-.2,7.18,7.18,0,0,0,1.54-.57,8.19,8.19,0,0,0,1.39-.89,12,12,0,0,0,1.29-1.2v-4.39a25.12,25.12,0,0,0-4.39.33,12.32,12.32,0,0,0-2.94.86,4.11,4.11,0,0,0-1.65,1.25,2.7,2.7,0,0,0-.51,1.61,3.57,3.57,0,0,0,.27,1.46,2.75,2.75,0,0,0,.74,1,2.88,2.88,0,0,0,1.09.57A5,5,0,0,0,758.23,148.07Z" transform="translate(-11.38 53.06)"/><path class="cls-2" d="M773.73,150.36V119.43h3.76v12.73a10.86,10.86,0,0,1,3-2.47,8,8,0,0,1,3.92-.93,7.83,7.83,0,0,1,3.34.69,6.74,6.74,0,0,1,2.54,2.07,10,10,0,0,1,1.62,3.4,17.4,17.4,0,0,1,.57,4.67,14.68,14.68,0,0,1-.63,4.38,10.55,10.55,0,0,1-1.82,3.51,8.41,8.41,0,0,1-6.75,3.18,7.12,7.12,0,0,1-3.5-.8,8,8,0,0,1-2.51-2.23l-.19,1.93a.9.9,0,0,1-1,.8Zm9.49-18.63a6,6,0,0,0-3.2.84,9.23,9.23,0,0,0-2.53,2.37v10.29a5.86,5.86,0,0,0,2.24,2,6.46,6.46,0,0,0,2.74.57,5.38,5.38,0,0,0,4.58-2.12,9.91,9.91,0,0,0,1.6-6,15.08,15.08,0,0,0-.37-3.57,7,7,0,0,0-1.06-2.45,4.13,4.13,0,0,0-1.7-1.4A5.66,5.66,0,0,0,783.22,131.73Z" transform="translate(-11.38 53.06)"/><path class="cls-2" d="M805.69,128.75a10.93,10.93,0,0,1,4.21.78,8.87,8.87,0,0,1,3.19,2.21,9.78,9.78,0,0,1,2,3.45,14.95,14.95,0,0,1,0,9.06,9.79,9.79,0,0,1-2,3.44,8.76,8.76,0,0,1-3.19,2.19,11.95,11.95,0,0,1-8.42,0,8.85,8.85,0,0,1-3.2-2.19,9.83,9.83,0,0,1-2-3.44,14.73,14.73,0,0,1,0-9.06,9.82,9.82,0,0,1,2-3.45,9,9,0,0,1,3.2-2.21A10.93,10.93,0,0,1,805.69,128.75Zm0,19a5.46,5.46,0,0,0,4.7-2.11,12,12,0,0,0,0-11.81,5.45,5.45,0,0,0-4.7-2.12,6.52,6.52,0,0,0-2.77.55,5.19,5.19,0,0,0-2,1.58,7,7,0,0,0-1.18,2.53,14.95,14.95,0,0,0,0,6.77,6.89,6.89,0,0,0,1.18,2.51,5.24,5.24,0,0,0,2,1.56A6.52,6.52,0,0,0,805.69,147.74Z" transform="translate(-11.38 53.06)"/><path class="cls-2" d="M823.67,129.09v13.57a5.64,5.64,0,0,0,1.11,3.74,4.14,4.14,0,0,0,3.36,1.32,6.44,6.44,0,0,0,3.09-.78,9.62,9.62,0,0,0,2.67-2.16V129.09h3.74v21.27h-2.23a1,1,0,0,1-1-.78l-.29-2.29a11.7,11.7,0,0,1-3.11,2.47,8.15,8.15,0,0,1-3.95.93,7.67,7.67,0,0,1-3.08-.58,6.08,6.08,0,0,1-2.24-1.63,6.9,6.9,0,0,1-1.35-2.54,11.32,11.32,0,0,1-.45-3.3V129.09Z" transform="translate(-11.38 53.06)"/><path class="cls-2" d="M850.23,150.7a5.12,5.12,0,0,1-3.87-1.41,5.61,5.61,0,0,1-1.35-4.05v-13h-2.56a.84.84,0,0,1-.57-.2.77.77,0,0,1-.23-.62v-1.49l3.49-.44.86-6.57a.79.79,0,0,1,.27-.51.87.87,0,0,1,.59-.2h1.89v7.33h6.09v2.71h-6.09V145a2.72,2.72,0,0,0,.65,2,2.27,2.27,0,0,0,1.68.65,3,3,0,0,0,1-.16,4.41,4.41,0,0,0,.75-.35q.31-.19.54-.35a.7.7,0,0,1,.39-.16.64.64,0,0,1,.53.36l1.09,1.78a7,7,0,0,1-2.33,1.42A7.92,7.92,0,0,1,850.23,150.7Z" transform="translate(-11.38 53.06)"/><path class="cls-2" d="M874,150.7a5.12,5.12,0,0,1-3.87-1.41,5.61,5.61,0,0,1-1.35-4.05v-13h-2.56a.84.84,0,0,1-.57-.2.77.77,0,0,1-.23-.62v-1.49l3.49-.44.86-6.57a.79.79,0,0,1,.27-.51.87.87,0,0,1,.59-.2h1.89v7.33h6.09v2.71h-6.09V145a2.72,2.72,0,0,0,.65,2,2.27,2.27,0,0,0,1.68.65,3,3,0,0,0,1-.16,4.41,4.41,0,0,0,.75-.35q.31-.19.54-.35a.7.7,0,0,1,.39-.16.64.64,0,0,1,.53.36l1.09,1.78a7,7,0,0,1-2.33,1.42A7.92,7.92,0,0,1,874,150.7Z" transform="translate(-11.38 53.06)"/><path class="cls-2" d="M883.22,150.36V119.43H887v12.52a11.48,11.48,0,0,1,3-2.32,8.1,8.1,0,0,1,3.82-.87,7.69,7.69,0,0,1,3.08.58,6,6,0,0,1,2.23,1.64,7.22,7.22,0,0,1,1.35,2.55,11.08,11.08,0,0,1,.46,3.3v13.54h-3.74V136.82a5.73,5.73,0,0,0-1.1-3.75,4.12,4.12,0,0,0-3.37-1.33,6.28,6.28,0,0,0-3.1.8A10.2,10.2,0,0,0,887,134.7v15.67Z" transform="translate(-11.38 53.06)"/><path class="cls-2" d="M915,128.75a9.5,9.5,0,0,1,3.53.64,7.92,7.92,0,0,1,2.79,1.85,8.44,8.44,0,0,1,1.84,3,11.51,11.51,0,0,1,.66,4,2.44,2.44,0,0,1-.19,1.18.78.78,0,0,1-.71.29H908.76a11.76,11.76,0,0,0,.55,3.51,7.17,7.17,0,0,0,1.39,2.49,5.55,5.55,0,0,0,2.1,1.49,7.21,7.21,0,0,0,2.73.49,8,8,0,0,0,2.43-.33,11.55,11.55,0,0,0,1.75-.7,13.29,13.29,0,0,0,1.23-.7,1.63,1.63,0,0,1,.85-.33.82.82,0,0,1,.71.36l1,1.37a7.1,7.1,0,0,1-1.66,1.46,10.39,10.39,0,0,1-2.07,1,13.27,13.27,0,0,1-2.28.6,13.94,13.94,0,0,1-2.33.2,10.81,10.81,0,0,1-4.06-.75,8.9,8.9,0,0,1-3.21-2.18,10,10,0,0,1-2.11-3.56,14.48,14.48,0,0,1-.76-4.87,12.4,12.4,0,0,1,.68-4.16,9.81,9.81,0,0,1,2-3.35,9,9,0,0,1,3.13-2.23A10.27,10.27,0,0,1,915,128.75Zm.08,2.75a5.74,5.74,0,0,0-4.26,1.56,7.36,7.36,0,0,0-1.93,4.34h11.57a7.56,7.56,0,0,0-.36-2.38,5.32,5.32,0,0,0-1-1.87,4.71,4.71,0,0,0-1.69-1.22A5.7,5.7,0,0,0,915.08,131.5Z" transform="translate(-11.38 53.06)"/><path class="cls-2" d="M958.48,144.15a.84.84,0,0,1,.61.27l1.6,1.74a12.89,12.89,0,0,1-4.48,3.34,15.29,15.29,0,0,1-6.35,1.2,15,15,0,0,1-5.9-1.12,12.92,12.92,0,0,1-4.51-3.15,14.22,14.22,0,0,1-2.9-4.86,18.15,18.15,0,0,1-1-6.24,17.08,17.08,0,0,1,1.1-6.24,14.26,14.26,0,0,1,3.1-4.87,13.87,13.87,0,0,1,4.78-3.16,16.26,16.26,0,0,1,6.14-1.12,13.71,13.71,0,0,1,10,3.82l-1.32,1.87a1.42,1.42,0,0,1-.34.35.92.92,0,0,1-.55.14,1.06,1.06,0,0,1-.58-.2l-.72-.49q-.42-.29-1-.63a8.72,8.72,0,0,0-1.34-.63,11.18,11.18,0,0,0-1.81-.49,12.6,12.6,0,0,0-2.37-.2,11.44,11.44,0,0,0-4.42.83,9.89,9.89,0,0,0-3.45,2.36,10.75,10.75,0,0,0-2.26,3.74,14.26,14.26,0,0,0-.81,4.94,14.51,14.51,0,0,0,.81,5,11.06,11.06,0,0,0,2.21,3.73,9.27,9.27,0,0,0,3.31,2.32,10.57,10.57,0,0,0,4.12.8,16.65,16.65,0,0,0,2.42-.16,9.85,9.85,0,0,0,2-.49,8.37,8.37,0,0,0,1.7-.85,13.28,13.28,0,0,0,1.58-1.23A1.07,1.07,0,0,1,958.48,144.15Z" transform="translate(-11.38 53.06)"/><path class="cls-2" d="M974.06,128.75a10.93,10.93,0,0,1,4.21.78,8.87,8.87,0,0,1,3.19,2.21,9.78,9.78,0,0,1,2,3.45,14.95,14.95,0,0,1,0,9.06,9.79,9.79,0,0,1-2,3.44,8.76,8.76,0,0,1-3.19,2.19,11.95,11.95,0,0,1-8.42,0,8.85,8.85,0,0,1-3.2-2.19,9.83,9.83,0,0,1-2-3.44,14.73,14.73,0,0,1,0-9.06,9.82,9.82,0,0,1,2-3.45,9,9,0,0,1,3.2-2.21A10.93,10.93,0,0,1,974.06,128.75Zm0,19a5.46,5.46,0,0,0,4.7-2.11,12,12,0,0,0,0-11.81,5.45,5.45,0,0,0-4.7-2.12,6.52,6.52,0,0,0-2.77.55,5.19,5.19,0,0,0-2,1.58,7,7,0,0,0-1.18,2.53,14.95,14.95,0,0,0,0,6.77,6.89,6.89,0,0,0,1.18,2.51,5.24,5.24,0,0,0,2,1.56A6.52,6.52,0,0,0,974.06,147.74Z" transform="translate(-11.38 53.06)"/><path class="cls-2" d="M992,129.09v13.57a5.64,5.64,0,0,0,1.11,3.74,4.14,4.14,0,0,0,3.36,1.32,6.44,6.44,0,0,0,3.09-.78,9.62,9.62,0,0,0,2.67-2.16V129.09H1006v21.27h-2.23a1,1,0,0,1-1-.78l-.29-2.29a11.7,11.7,0,0,1-3.11,2.47,8.15,8.15,0,0,1-3.95.93,7.67,7.67,0,0,1-3.08-.58,6.08,6.08,0,0,1-2.24-1.63,6.9,6.9,0,0,1-1.35-2.54,11.32,11.32,0,0,1-.45-3.3V129.09Z" transform="translate(-11.38 53.06)"/><path class="cls-2" d="M1012.16,150.36V129.09h2.23a1,1,0,0,1,1,.78l.29,2.31a12,12,0,0,1,3.1-2.48,8.06,8.06,0,0,1,4-.95,7.69,7.69,0,0,1,3.08.58A6,6,0,0,1,1028,131a7.22,7.22,0,0,1,1.35,2.55,11.08,11.08,0,0,1,.46,3.3v13.54h-3.74V136.82a5.73,5.73,0,0,0-1.1-3.75,4.12,4.12,0,0,0-3.37-1.33,6.28,6.28,0,0,0-3.1.8,10.2,10.2,0,0,0-2.66,2.16v15.67Z" transform="translate(-11.38 53.06)"/><path class="cls-2" d="M1042,150.7a5.12,5.12,0,0,1-3.87-1.41,5.61,5.61,0,0,1-1.35-4.05v-13h-2.56a.84.84,0,0,1-.57-.2.77.77,0,0,1-.23-.62v-1.49l3.49-.44.86-6.57a.79.79,0,0,1,.27-.51.87.87,0,0,1,.59-.2h1.89v7.33h6.09v2.71h-6.09V145a2.72,2.72,0,0,0,.65,2,2.27,2.27,0,0,0,1.68.65,3,3,0,0,0,1-.16,4.41,4.41,0,0,0,.75-.35q.31-.19.54-.35a.7.7,0,0,1,.39-.16.64.64,0,0,1,.53.36l1.09,1.78a7,7,0,0,1-2.33,1.42A7.92,7.92,0,0,1,1042,150.7Z" transform="translate(-11.38 53.06)"/><path class="cls-2" d="M1057.41,156.64a2,2,0,0,1-.47.67,1.28,1.28,0,0,1-.87.25h-2.77l3.89-8.44-8.78-20h3.23a1.11,1.11,0,0,1,.76.24,1.51,1.51,0,0,1,.4.54l5.69,13.4a9.66,9.66,0,0,1,.33.92q.14.46.24.94l.29-.94q.15-.46.34-.95l5.52-13.38a1.2,1.2,0,0,1,.43-.56,1.1,1.1,0,0,1,.66-.22h3Z" transform="translate(-11.38 53.06)"/><path class="cls-2" d="M1068.69,148.05a2.69,2.69,0,0,1,.75-1.87,2.62,2.62,0,0,1,2.89-.57,2.71,2.71,0,0,1,.84.57,2.58,2.58,0,0,1,.56.84,2.78,2.78,0,0,1,0,2.07,2.6,2.6,0,0,1-.56.83,2.55,2.55,0,0,1-.84.56,2.76,2.76,0,0,1-2.06,0,2.42,2.42,0,0,1-.83-.56,2.63,2.63,0,0,1-.75-1.87Z" transform="translate(-11.38 53.06)"/><path class="cls-2" d="M456,170.67h3.38a1.44,1.44,0,0,1,.9.27,1.34,1.34,0,0,1,.48.69L467,192.55q.17.57.3,1.22t.26,1.37q.15-.71.29-1.37a10.92,10.92,0,0,1,.34-1.21l7.08-20.92a1.54,1.54,0,0,1,.49-.66,1.35,1.35,0,0,1,.89-.3h1.18a1.4,1.4,0,0,1,.89.27,1.49,1.49,0,0,1,.49.69l7,20.92a20.62,20.62,0,0,1,.67,2.5q.13-.69.23-1.32a9,9,0,0,1,.27-1.18l6.24-20.92a1.32,1.32,0,0,1,.47-.67,1.38,1.38,0,0,1,.89-.29h3.17l-9.39,30.09h-3.65l-7.62-23a12.6,12.6,0,0,1-.42-1.51l-.2.81q-.09.39-.2.7l-7.67,23h-3.65Z" transform="translate(-11.38 53.06)"/><path class="cls-2" d="M501.57,200.76V169.83h3.74v12.52a11.47,11.47,0,0,1,3-2.32,8.1,8.1,0,0,1,3.82-.87,7.69,7.69,0,0,1,3.08.58,6,6,0,0,1,2.23,1.64,7.23,7.23,0,0,1,1.35,2.55,11.12,11.12,0,0,1,.46,3.3v13.54h-3.74V187.22a5.73,5.73,0,0,0-1.1-3.75,4.12,4.12,0,0,0-3.37-1.33,6.29,6.29,0,0,0-3.1.8,10.21,10.21,0,0,0-2.66,2.16v15.67Z" transform="translate(-11.38 53.06)"/><path class="cls-2" d="M540.55,200.76h-1.66a2,2,0,0,1-.88-.17.93.93,0,0,1-.44-.71l-.42-2q-.84.76-1.64,1.35a9.44,9.44,0,0,1-1.68,1,8.73,8.73,0,0,1-1.88.62,10.8,10.8,0,0,1-2.22.21,7.55,7.55,0,0,1-2.32-.35,5.28,5.28,0,0,1-1.88-1,5,5,0,0,1-1.27-1.76,6.17,6.17,0,0,1-.47-2.52,4.71,4.71,0,0,1,.69-2.43,6.1,6.1,0,0,1,2.24-2.08,14.58,14.58,0,0,1,4-1.49,27.48,27.48,0,0,1,6.11-.58v-1.67a5.79,5.79,0,0,0-1.06-3.77,3.85,3.85,0,0,0-3.14-1.28,6.65,6.65,0,0,0-2.3.35,8.73,8.73,0,0,0-1.62.78q-.68.43-1.18.78a1.69,1.69,0,0,1-1,.35,1.12,1.12,0,0,1-.66-.2,1.52,1.52,0,0,1-.45-.49l-.67-1.2a12.15,12.15,0,0,1,3.8-2.54,11.74,11.74,0,0,1,4.51-.84,8.06,8.06,0,0,1,3.17.59,6.5,6.5,0,0,1,2.33,1.64,6.94,6.94,0,0,1,1.43,2.54,10.58,10.58,0,0,1,.48,3.28Zm-9.7-2.29a7.64,7.64,0,0,0,1.81-.2,7.13,7.13,0,0,0,1.54-.57,8.09,8.09,0,0,0,1.39-.89,11.89,11.89,0,0,0,1.29-1.2v-4.39a25,25,0,0,0-4.39.33,12.29,12.29,0,0,0-2.94.86,4.09,4.09,0,0,0-1.65,1.25,2.69,2.69,0,0,0-.51,1.61,3.57,3.57,0,0,0,.27,1.46,2.76,2.76,0,0,0,.74,1,2.91,2.91,0,0,0,1.09.57A5,5,0,0,0,530.85,198.47Z" transform="translate(-11.38 53.06)"/><path class="cls-2" d="M552.67,201.1a5.13,5.13,0,0,1-3.87-1.41,5.61,5.61,0,0,1-1.35-4.05v-13h-2.56a.84.84,0,0,1-.57-.2.78.78,0,0,1-.23-.62v-1.49l3.49-.44.86-6.57a.8.8,0,0,1,.27-.51.87.87,0,0,1,.59-.2h1.89v7.33h6.09v2.71h-6.09v12.77a2.71,2.71,0,0,0,.65,2,2.27,2.27,0,0,0,1.68.65,3,3,0,0,0,1-.16,4.34,4.34,0,0,0,.75-.35c.21-.13.39-.24.54-.35a.69.69,0,0,1,.39-.16.64.64,0,0,1,.52.36l1.09,1.79a7,7,0,0,1-2.33,1.42A7.9,7.9,0,0,1,552.67,201.1Z" transform="translate(-11.38 53.06)"/><path class="cls-2" d="M570,208V179.49h2.23a1,1,0,0,1,1,.78l.32,2.52a11.37,11.37,0,0,1,3.12-2.67,8,8,0,0,1,4-1,7.69,7.69,0,0,1,3.32.7,6.84,6.84,0,0,1,2.54,2.08,10,10,0,0,1,1.62,3.41,17.52,17.52,0,0,1,.57,4.68,14.68,14.68,0,0,1-.63,4.38,10.65,10.65,0,0,1-1.81,3.51,8.43,8.43,0,0,1-2.89,2.33,8.54,8.54,0,0,1-3.85.85,7.94,7.94,0,0,1-3.37-.65,7.61,7.61,0,0,1-2.47-1.85V208Zm9.47-25.83a6,6,0,0,0-3.2.84,9.24,9.24,0,0,0-2.53,2.37v10.29a6,6,0,0,0,2.26,2,6.46,6.46,0,0,0,2.74.57,5.36,5.36,0,0,0,4.56-2.12,9.91,9.91,0,0,0,1.6-6,15.09,15.09,0,0,0-.37-3.57,7,7,0,0,0-1.06-2.45,4.13,4.13,0,0,0-1.7-1.4A5.66,5.66,0,0,0,579.46,182.13Z" transform="translate(-11.38 53.06)"/><path class="cls-2" d="M601.78,179.15a10.93,10.93,0,0,1,4.21.78,8.88,8.88,0,0,1,3.19,2.21,9.77,9.77,0,0,1,2,3.46,14.95,14.95,0,0,1,0,9.06,9.78,9.78,0,0,1-2,3.44,8.76,8.76,0,0,1-3.19,2.19,11.95,11.95,0,0,1-8.42,0,8.86,8.86,0,0,1-3.2-2.19,9.79,9.79,0,0,1-2-3.44,14.73,14.73,0,0,1,0-9.06,9.78,9.78,0,0,1,2-3.46,9,9,0,0,1,3.2-2.21A10.93,10.93,0,0,1,601.78,179.15Zm0,19a5.46,5.46,0,0,0,4.7-2.11,12,12,0,0,0,0-11.81,5.45,5.45,0,0,0-4.7-2.12,6.54,6.54,0,0,0-2.77.55,5.2,5.2,0,0,0-2,1.58,7,7,0,0,0-1.18,2.53,14.95,14.95,0,0,0,0,6.77A6.9,6.9,0,0,0,597,196a5.22,5.22,0,0,0,2,1.56A6.52,6.52,0,0,0,601.78,198.14Z" transform="translate(-11.38 53.06)"/><path class="cls-2" d="M628.71,183a.83.83,0,0,1-.78.46,1.46,1.46,0,0,1-.71-.23q-.4-.23-1-.51a9.15,9.15,0,0,0-1.37-.53,6.56,6.56,0,0,0-1.89-.24,5.58,5.58,0,0,0-1.7.24,4.1,4.1,0,0,0-1.29.66,2.94,2.94,0,0,0-.82,1,2.63,2.63,0,0,0-.28,1.21,2,2,0,0,0,.47,1.37,4.11,4.11,0,0,0,1.25.94,10.87,10.87,0,0,0,1.76.7l2,.65q1,.35,2,.77a7.35,7.35,0,0,1,1.76,1,4.8,4.8,0,0,1,1.25,1.54,4.73,4.73,0,0,1,.47,2.19,7,7,0,0,1-.53,2.72,5.94,5.94,0,0,1-1.55,2.16,7.5,7.5,0,0,1-2.52,1.44,10.36,10.36,0,0,1-3.44.52,10.74,10.74,0,0,1-4-.72,10.21,10.21,0,0,1-3.07-1.86l.88-1.43a1.28,1.28,0,0,1,.4-.42,1.13,1.13,0,0,1,.61-.15,1.41,1.41,0,0,1,.8.29q.42.29,1,.65a7.83,7.83,0,0,0,1.45.65,6.6,6.6,0,0,0,2.13.29,5.83,5.83,0,0,0,1.91-.28,4,4,0,0,0,1.37-.77,3.06,3.06,0,0,0,.81-1.11,3.46,3.46,0,0,0,.26-1.34,2.23,2.23,0,0,0-.47-1.46,4,4,0,0,0-1.25-1,10.22,10.22,0,0,0-1.77-.71l-2-.64q-1-.34-2-.77a7.14,7.14,0,0,1-1.77-1.08,4.88,4.88,0,0,1-1.25-1.61,5.19,5.19,0,0,1-.47-2.32,5.66,5.66,0,0,1,.5-2.34,5.74,5.74,0,0,1,1.47-2,7.23,7.23,0,0,1,2.37-1.35,9.49,9.49,0,0,1,3.21-.5,10.15,10.15,0,0,1,3.77.66,8.94,8.94,0,0,1,2.89,1.82Z" transform="translate(-11.38 53.06)"/><path class="cls-2" d="M639.75,172.81a2.38,2.38,0,0,1-.22,1,3,3,0,0,1-.59.84,2.73,2.73,0,0,1-.85.58,2.56,2.56,0,0,1-1,.21,2.49,2.49,0,0,1-1-.21,2.79,2.79,0,0,1-1.42-1.42,2.47,2.47,0,0,1-.21-1,2.62,2.62,0,0,1,.21-1,2.69,2.69,0,0,1,.58-.86,2.78,2.78,0,0,1,.84-.58,2.49,2.49,0,0,1,1-.21,2.56,2.56,0,0,1,1,.21,2.75,2.75,0,0,1,.85.58,2.87,2.87,0,0,1,.59.86A2.53,2.53,0,0,1,639.75,172.81Zm-.84,6.68v21.27h-3.74V179.49Z" transform="translate(-11.38 53.06)"/><path class="cls-2" d="M652,201.1a5.13,5.13,0,0,1-3.87-1.41,5.61,5.61,0,0,1-1.35-4.05v-13h-2.56a.84.84,0,0,1-.57-.2.78.78,0,0,1-.23-.62v-1.49l3.49-.44.86-6.57a.79.79,0,0,1,.27-.51.87.87,0,0,1,.59-.2h1.89v7.33h6.09v2.71h-6.09v12.77a2.72,2.72,0,0,0,.65,2,2.27,2.27,0,0,0,1.68.65,3,3,0,0,0,1-.16,4.34,4.34,0,0,0,.75-.35c.21-.13.39-.24.54-.35a.7.7,0,0,1,.39-.16.64.64,0,0,1,.53.36l1.09,1.79a7,7,0,0,1-2.33,1.42A7.9,7.9,0,0,1,652,201.1Z" transform="translate(-11.38 53.06)"/><path class="cls-2" d="M666.17,172.81a2.38,2.38,0,0,1-.22,1,3,3,0,0,1-.59.84,2.73,2.73,0,0,1-.85.58,2.56,2.56,0,0,1-1,.21,2.49,2.49,0,0,1-1-.21,2.79,2.79,0,0,1-1.42-1.42,2.47,2.47,0,0,1-.21-1,2.62,2.62,0,0,1,.21-1,2.69,2.69,0,0,1,.58-.86,2.78,2.78,0,0,1,.84-.58,2.49,2.49,0,0,1,1-.21,2.56,2.56,0,0,1,1,.21,2.75,2.75,0,0,1,.85.58,2.87,2.87,0,0,1,.59.86A2.53,2.53,0,0,1,666.17,172.81Zm-.84,6.68v21.27h-3.74V179.49Z" transform="translate(-11.38 53.06)"/><path class="cls-2" d="M680.53,179.15a10.93,10.93,0,0,1,4.21.78,8.88,8.88,0,0,1,3.19,2.21,9.77,9.77,0,0,1,2,3.46,14.95,14.95,0,0,1,0,9.06,9.78,9.78,0,0,1-2,3.44,8.76,8.76,0,0,1-3.19,2.19,11.95,11.95,0,0,1-8.42,0,8.85,8.85,0,0,1-3.2-2.19,9.82,9.82,0,0,1-2-3.44,14.73,14.73,0,0,1,0-9.06,9.81,9.81,0,0,1,2-3.46,9,9,0,0,1,3.2-2.21A10.93,10.93,0,0,1,680.53,179.15Zm0,19a5.46,5.46,0,0,0,4.7-2.11,12,12,0,0,0,0-11.81,5.45,5.45,0,0,0-4.7-2.12,6.54,6.54,0,0,0-2.77.55,5.2,5.2,0,0,0-2,1.58,7,7,0,0,0-1.18,2.53,14.95,14.95,0,0,0,0,6.77A6.88,6.88,0,0,0,675.8,196a5.22,5.22,0,0,0,2,1.56A6.52,6.52,0,0,0,680.53,198.14Z" transform="translate(-11.38 53.06)"/><path class="cls-2" d="M695.27,200.76V179.49h2.23a1,1,0,0,1,1,.78l.29,2.31a11.93,11.93,0,0,1,3.1-2.48,8.06,8.06,0,0,1,4-.94,7.69,7.69,0,0,1,3.08.58,6,6,0,0,1,2.23,1.64,7.22,7.22,0,0,1,1.35,2.55,11.08,11.08,0,0,1,.46,3.3v13.54h-3.74V187.22a5.73,5.73,0,0,0-1.1-3.75,4.12,4.12,0,0,0-3.37-1.33,6.29,6.29,0,0,0-3.1.8A10.22,10.22,0,0,0,699,185.1v15.67Z" transform="translate(-11.38 53.06)"/><path class="cls-2" d="M730.81,183a.83.83,0,0,1-.78.46,1.46,1.46,0,0,1-.71-.23q-.4-.23-1-.51a9.15,9.15,0,0,0-1.37-.53,6.56,6.56,0,0,0-1.89-.24,5.58,5.58,0,0,0-1.7.24,4.1,4.1,0,0,0-1.29.66,2.94,2.94,0,0,0-.82,1A2.63,2.63,0,0,0,721,185a2,2,0,0,0,.47,1.37,4.11,4.11,0,0,0,1.25.94,10.87,10.87,0,0,0,1.76.7l2,.65q1,.35,2,.77a7.35,7.35,0,0,1,1.76,1,4.8,4.8,0,0,1,1.25,1.54,4.73,4.73,0,0,1,.47,2.19,7,7,0,0,1-.53,2.72,5.94,5.94,0,0,1-1.55,2.16,7.5,7.5,0,0,1-2.52,1.44,10.36,10.36,0,0,1-3.44.52,10.74,10.74,0,0,1-4-.72,10.21,10.21,0,0,1-3.07-1.86l.88-1.43a1.28,1.28,0,0,1,.4-.42,1.13,1.13,0,0,1,.61-.15,1.41,1.41,0,0,1,.8.29q.42.29,1,.65a7.83,7.83,0,0,0,1.45.65,6.6,6.6,0,0,0,2.13.29,5.83,5.83,0,0,0,1.91-.28,4,4,0,0,0,1.37-.77,3.06,3.06,0,0,0,.81-1.11,3.46,3.46,0,0,0,.26-1.34,2.23,2.23,0,0,0-.47-1.46,4,4,0,0,0-1.25-1,10.22,10.22,0,0,0-1.77-.71l-2-.64q-1-.34-2-.77a7.14,7.14,0,0,1-1.77-1.08,4.88,4.88,0,0,1-1.25-1.61,5.19,5.19,0,0,1-.47-2.32,5.66,5.66,0,0,1,.5-2.34,5.74,5.74,0,0,1,1.47-2,7.23,7.23,0,0,1,2.37-1.35,9.49,9.49,0,0,1,3.21-.5,10.15,10.15,0,0,1,3.77.66,8.94,8.94,0,0,1,2.89,1.82Z" transform="translate(-11.38 53.06)"/><path class="cls-2" d="M759.93,200.76a1,1,0,0,1-1-.78l-.34-2.58a11.21,11.21,0,0,1-3.12,2.66,8,8,0,0,1-4,1,7.68,7.68,0,0,1-3.32-.7,6.87,6.87,0,0,1-2.54-2.07,9.85,9.85,0,0,1-1.62-3.4,17.51,17.51,0,0,1-.57-4.68,14.68,14.68,0,0,1,.63-4.38,10.66,10.66,0,0,1,1.82-3.52,8.33,8.33,0,0,1,6.75-3.19,7.69,7.69,0,0,1,3.34.66,8,8,0,0,1,2.48,1.86v-11.8h3.74v30.93ZM752.69,198a6,6,0,0,0,3.2-.84,9.26,9.26,0,0,0,2.53-2.37V184.53a5.91,5.91,0,0,0-2.26-1.94,6.52,6.52,0,0,0-2.72-.56,5.38,5.38,0,0,0-4.58,2.12,9.91,9.91,0,0,0-1.6,6,15.37,15.37,0,0,0,.36,3.56,6.84,6.84,0,0,0,1,2.44,4.12,4.12,0,0,0,1.7,1.4A5.71,5.71,0,0,0,752.69,198Z" transform="translate(-11.38 53.06)"/><path class="cls-2" d="M777,179.15a10.93,10.93,0,0,1,4.21.78,8.88,8.88,0,0,1,3.19,2.21,9.77,9.77,0,0,1,2,3.46,14.95,14.95,0,0,1,0,9.06,9.78,9.78,0,0,1-2,3.44,8.76,8.76,0,0,1-3.19,2.19,11.95,11.95,0,0,1-8.42,0,8.85,8.85,0,0,1-3.2-2.19,9.82,9.82,0,0,1-2-3.44,14.73,14.73,0,0,1,0-9.06,9.81,9.81,0,0,1,2-3.46,9,9,0,0,1,3.2-2.21A10.93,10.93,0,0,1,777,179.15Zm0,19a5.46,5.46,0,0,0,4.7-2.11,12,12,0,0,0,0-11.81,5.45,5.45,0,0,0-4.7-2.12,6.54,6.54,0,0,0-2.77.55,5.2,5.2,0,0,0-2,1.58,7,7,0,0,0-1.18,2.53,14.95,14.95,0,0,0,0,6.77,6.88,6.88,0,0,0,1.18,2.51,5.22,5.22,0,0,0,2,1.56A6.52,6.52,0,0,0,777,198.14Z" transform="translate(-11.38 53.06)"/><path class="cls-2" d="M815.9,175.37a1.64,1.64,0,0,1-.4.47.89.89,0,0,1-.55.16,1.45,1.45,0,0,1-.83-.36,13.56,13.56,0,0,0-1.2-.79,9.75,9.75,0,0,0-1.74-.79,7.5,7.5,0,0,0-2.47-.36,7.32,7.32,0,0,0-2.42.37,5.13,5.13,0,0,0-1.75,1,4.07,4.07,0,0,0-1.06,1.48,4.69,4.69,0,0,0-.36,1.84,3.39,3.39,0,0,0,.62,2.09,5.32,5.32,0,0,0,1.64,1.42,12.59,12.59,0,0,0,2.31,1l2.65.89q1.35.46,2.65,1a9.31,9.31,0,0,1,2.31,1.46,6.67,6.67,0,0,1,1.64,2.16,7.2,7.2,0,0,1,.62,3.15,10.15,10.15,0,0,1-.67,3.71,8.55,8.55,0,0,1-2,3,9.2,9.2,0,0,1-3.17,2,11.68,11.68,0,0,1-4.27.73,13.05,13.05,0,0,1-5.32-1.06,12.47,12.47,0,0,1-4.11-2.87l1.18-1.93a1.54,1.54,0,0,1,.41-.39,1,1,0,0,1,.54-.16,1.67,1.67,0,0,1,1,.47,16.62,16.62,0,0,0,1.42,1,10.79,10.79,0,0,0,2.06,1,8.11,8.11,0,0,0,3,.47,7.77,7.77,0,0,0,2.58-.4,5.48,5.48,0,0,0,1.92-1.12,4.86,4.86,0,0,0,1.21-1.73,5.8,5.8,0,0,0,.42-2.25,3.77,3.77,0,0,0-.62-2.24,5.14,5.14,0,0,0-1.63-1.46,11.41,11.41,0,0,0-2.3-1l-2.65-.84a26.74,26.74,0,0,1-2.65-1,8.59,8.59,0,0,1-2.3-1.47A6.75,6.75,0,0,1,800,182a8.24,8.24,0,0,1,1.79-9.08,8.71,8.71,0,0,1,2.91-1.85,10.63,10.63,0,0,1,4-.69,12.73,12.73,0,0,1,4.6.8,10.59,10.59,0,0,1,3.63,2.31Z" transform="translate(-11.38 53.06)"/><path class="cls-2" d="M828.6,201.1a5.13,5.13,0,0,1-3.87-1.41,5.61,5.61,0,0,1-1.35-4.05v-13h-2.56a.84.84,0,0,1-.57-.2.78.78,0,0,1-.23-.62v-1.49l3.49-.44.86-6.57a.79.79,0,0,1,.27-.51.87.87,0,0,1,.59-.2h1.89v7.33h6.09v2.71h-6.09v12.77a2.72,2.72,0,0,0,.65,2,2.27,2.27,0,0,0,1.68.65,3,3,0,0,0,1-.16,4.34,4.34,0,0,0,.75-.35c.21-.13.39-.24.54-.35a.7.7,0,0,1,.39-.16.64.64,0,0,1,.53.36l1.09,1.79a7,7,0,0,1-2.33,1.42A7.9,7.9,0,0,1,828.6,201.1Z" transform="translate(-11.38 53.06)"/><path class="cls-2" d="M853.44,200.76h-1.66a2,2,0,0,1-.88-.17.93.93,0,0,1-.44-.71l-.42-2q-.84.76-1.64,1.35a9.45,9.45,0,0,1-1.68,1,8.73,8.73,0,0,1-1.88.62,10.81,10.81,0,0,1-2.22.21,7.55,7.55,0,0,1-2.32-.35,5.27,5.27,0,0,1-1.88-1,5,5,0,0,1-1.27-1.76,6.17,6.17,0,0,1-.47-2.52,4.71,4.71,0,0,1,.69-2.43,6.09,6.09,0,0,1,2.24-2.08,14.56,14.56,0,0,1,4-1.49,27.47,27.47,0,0,1,6.11-.58v-1.67a5.79,5.79,0,0,0-1.06-3.77,3.84,3.84,0,0,0-3.14-1.28,6.64,6.64,0,0,0-2.3.35,8.73,8.73,0,0,0-1.62.78q-.68.43-1.18.78a1.69,1.69,0,0,1-1,.35,1.12,1.12,0,0,1-.66-.2,1.52,1.52,0,0,1-.45-.49l-.67-1.2a12.15,12.15,0,0,1,3.8-2.54,11.75,11.75,0,0,1,4.52-.84,8.06,8.06,0,0,1,3.17.59,6.5,6.5,0,0,1,2.33,1.64,6.94,6.94,0,0,1,1.43,2.54,10.58,10.58,0,0,1,.48,3.28Zm-9.7-2.29a7.64,7.64,0,0,0,1.81-.2,7.13,7.13,0,0,0,1.54-.57,8.13,8.13,0,0,0,1.39-.89,12,12,0,0,0,1.29-1.2v-4.39a25,25,0,0,0-4.39.33,12.32,12.32,0,0,0-2.94.86,4.1,4.1,0,0,0-1.65,1.25,2.69,2.69,0,0,0-.51,1.61,3.57,3.57,0,0,0,.27,1.46,2.76,2.76,0,0,0,.74,1,2.91,2.91,0,0,0,1.09.57A5,5,0,0,0,843.74,198.47Z" transform="translate(-11.38 53.06)"/><path class="cls-2" d="M860,200.76V182.68l-2.35-.27a1.87,1.87,0,0,1-.72-.33.76.76,0,0,1-.28-.64v-1.53H860v-2.06a9.46,9.46,0,0,1,.51-3.24,6.55,6.55,0,0,1,1.47-2.39,6.22,6.22,0,0,1,2.3-1.48,8.54,8.54,0,0,1,3-.5,8.06,8.06,0,0,1,2.65.42l-.08,1.87a.48.48,0,0,1-.36.5,4.07,4.07,0,0,1-.95.08h-.65a5.71,5.71,0,0,0-1.75.25,3.32,3.32,0,0,0-1.35.82,3.7,3.7,0,0,0-.87,1.49,7.39,7.39,0,0,0-.3,2.29v2h6.15v2.71h-6v18.14Z" transform="translate(-11.38 53.06)"/><path class="cls-2" d="M874.11,200.76V182.68l-2.35-.27a1.87,1.87,0,0,1-.72-.33.76.76,0,0,1-.28-.64v-1.53h3.36v-2.06a9.46,9.46,0,0,1,.51-3.24,6.55,6.55,0,0,1,1.47-2.39,6.22,6.22,0,0,1,2.3-1.48,8.54,8.54,0,0,1,3-.5,8.06,8.06,0,0,1,2.65.42l-.08,1.87a.48.48,0,0,1-.36.5,4.07,4.07,0,0,1-.95.08H882a5.71,5.71,0,0,0-1.75.25,3.32,3.32,0,0,0-1.35.82,3.7,3.7,0,0,0-.87,1.49,7.39,7.39,0,0,0-.3,2.29v2h6.15v2.71h-6v18.14Z" transform="translate(-11.38 53.06)"/><path class="cls-2" d="M920.87,200.76h-3.15a1.36,1.36,0,0,1-.88-.27,1.68,1.68,0,0,1-.5-.69l-2.81-7.27H900l-2.81,7.27a1.65,1.65,0,0,1-.5.67,1.34,1.34,0,0,1-.88.29h-3.15l12-30.09h4.14Zm-19.72-11.17h11.23l-4.72-12.24a22.77,22.77,0,0,1-.9-2.83q-.23.86-.45,1.59t-.43,1.27Z" transform="translate(-11.38 53.06)"/><path class="cls-2" d="M924.08,200.76V179.49h2.23a1,1,0,0,1,1,.78l.29,2.31a11.93,11.93,0,0,1,3.1-2.48,8.06,8.06,0,0,1,4-.94,7.69,7.69,0,0,1,3.08.58,6,6,0,0,1,2.23,1.64,7.22,7.22,0,0,1,1.35,2.55,11.08,11.08,0,0,1,.46,3.3v13.54H938V187.22a5.73,5.73,0,0,0-1.1-3.75,4.12,4.12,0,0,0-3.37-1.33,6.29,6.29,0,0,0-3.1.8,10.22,10.22,0,0,0-2.66,2.16v15.67Z" transform="translate(-11.38 53.06)"/><path class="cls-2" d="M963.06,200.76H961.4a2,2,0,0,1-.88-.17.93.93,0,0,1-.44-.71l-.42-2q-.84.76-1.64,1.35a9.45,9.45,0,0,1-1.68,1,8.73,8.73,0,0,1-1.88.62,10.81,10.81,0,0,1-2.22.21,7.55,7.55,0,0,1-2.32-.35,5.27,5.27,0,0,1-1.88-1,5,5,0,0,1-1.27-1.76,6.17,6.17,0,0,1-.47-2.52A4.71,4.71,0,0,1,947,193a6.09,6.09,0,0,1,2.24-2.08,14.56,14.56,0,0,1,4-1.49,27.47,27.47,0,0,1,6.11-.58v-1.67a5.79,5.79,0,0,0-1.06-3.77,3.84,3.84,0,0,0-3.14-1.28,6.64,6.64,0,0,0-2.3.35,8.73,8.73,0,0,0-1.62.78q-.68.43-1.18.78a1.69,1.69,0,0,1-1,.35,1.12,1.12,0,0,1-.66-.2,1.52,1.52,0,0,1-.45-.49l-.67-1.2a12.15,12.15,0,0,1,3.8-2.54,11.75,11.75,0,0,1,4.52-.84,8.06,8.06,0,0,1,3.17.59,6.5,6.5,0,0,1,2.33,1.64,6.94,6.94,0,0,1,1.43,2.54,10.58,10.58,0,0,1,.48,3.28Zm-9.7-2.29a7.64,7.64,0,0,0,1.81-.2,7.13,7.13,0,0,0,1.54-.57,8.13,8.13,0,0,0,1.39-.89,12,12,0,0,0,1.29-1.2v-4.39a25,25,0,0,0-4.39.33,12.32,12.32,0,0,0-2.94.86,4.1,4.1,0,0,0-1.65,1.25,2.69,2.69,0,0,0-.51,1.61,3.57,3.57,0,0,0,.27,1.46,2.76,2.76,0,0,0,.74,1,2.91,2.91,0,0,0,1.09.57A5,5,0,0,0,953.36,198.47Z" transform="translate(-11.38 53.06)"/><path class="cls-2" d="M972.89,169.83v30.93h-3.74V169.83Z" transform="translate(-11.38 53.06)"/><path class="cls-2" d="M985.72,207a2,2,0,0,1-.47.67,1.28,1.28,0,0,1-.87.25H981.6l3.89-8.44-8.78-20h3.23a1.1,1.1,0,0,1,.76.24,1.52,1.52,0,0,1,.4.54l5.69,13.4a9.65,9.65,0,0,1,.33.92q.14.46.24.95l.29-.95q.15-.46.34-.95l5.52-13.38a1.2,1.2,0,0,1,.43-.56,1.11,1.11,0,0,1,.66-.22h3Z" transform="translate(-11.38 53.06)"/><path class="cls-2" d="M1013.17,183a.83.83,0,0,1-.78.46,1.46,1.46,0,0,1-.71-.23q-.4-.23-1-.51a9.15,9.15,0,0,0-1.37-.53,6.56,6.56,0,0,0-1.89-.24,5.58,5.58,0,0,0-1.7.24,4.1,4.1,0,0,0-1.29.66,2.94,2.94,0,0,0-.82,1,2.63,2.63,0,0,0-.28,1.21,2,2,0,0,0,.47,1.37,4.11,4.11,0,0,0,1.25.94,10.87,10.87,0,0,0,1.76.7l2,.65q1,.35,2,.77a7.35,7.35,0,0,1,1.76,1,4.8,4.8,0,0,1,1.25,1.54,4.73,4.73,0,0,1,.47,2.19,7,7,0,0,1-.53,2.72,5.94,5.94,0,0,1-1.55,2.16,7.5,7.5,0,0,1-2.52,1.44,10.36,10.36,0,0,1-3.44.52,10.74,10.74,0,0,1-4-.72,10.21,10.21,0,0,1-3.07-1.86l.88-1.43a1.28,1.28,0,0,1,.4-.42,1.13,1.13,0,0,1,.61-.15,1.41,1.41,0,0,1,.8.29q.42.29,1,.65a7.83,7.83,0,0,0,1.45.65,6.6,6.6,0,0,0,2.13.29,5.83,5.83,0,0,0,1.91-.28,4,4,0,0,0,1.37-.77,3.06,3.06,0,0,0,.81-1.11,3.46,3.46,0,0,0,.26-1.34,2.23,2.23,0,0,0-.47-1.46,4,4,0,0,0-1.25-1,10.22,10.22,0,0,0-1.77-.71l-2-.64q-1-.34-2-.77a7.14,7.14,0,0,1-1.77-1.08,4.88,4.88,0,0,1-1.25-1.61,5.19,5.19,0,0,1-.47-2.32,5.66,5.66,0,0,1,.5-2.34,5.74,5.74,0,0,1,1.47-2,7.23,7.23,0,0,1,2.37-1.35,9.49,9.49,0,0,1,3.21-.5,10.15,10.15,0,0,1,3.77.66,8.94,8.94,0,0,1,2.89,1.82Z" transform="translate(-11.38 53.06)"/><path class="cls-2" d="M1025.66,201.1a5.13,5.13,0,0,1-3.87-1.41,5.61,5.61,0,0,1-1.35-4.05v-13h-2.56a.84.84,0,0,1-.57-.2.78.78,0,0,1-.23-.62v-1.49l3.49-.44.86-6.57a.79.79,0,0,1,.27-.51.87.87,0,0,1,.59-.2h1.89v7.33h6.09v2.71h-6.09v12.77a2.72,2.72,0,0,0,.65,2,2.27,2.27,0,0,0,1.68.65,3,3,0,0,0,1-.16,4.34,4.34,0,0,0,.75-.35c.21-.13.39-.24.54-.35a.7.7,0,0,1,.39-.16.64.64,0,0,1,.53.36l1.09,1.79a7,7,0,0,1-2.33,1.42A7.9,7.9,0,0,1,1025.66,201.1Z" transform="translate(-11.38 53.06)"/><path class="cls-2" d="M1047.06,183a.83.83,0,0,1-.78.46,1.46,1.46,0,0,1-.71-.23q-.4-.23-1-.51a9.15,9.15,0,0,0-1.37-.53,6.56,6.56,0,0,0-1.89-.24,5.58,5.58,0,0,0-1.7.24,4.1,4.1,0,0,0-1.29.66,2.94,2.94,0,0,0-.82,1,2.63,2.63,0,0,0-.28,1.21,2,2,0,0,0,.47,1.37,4.11,4.11,0,0,0,1.25.94,10.87,10.87,0,0,0,1.76.7l2,.65q1,.35,2,.77a7.35,7.35,0,0,1,1.76,1,4.8,4.8,0,0,1,1.25,1.54,4.73,4.73,0,0,1,.47,2.19,7,7,0,0,1-.53,2.72,5.94,5.94,0,0,1-1.55,2.16,7.5,7.5,0,0,1-2.52,1.44,10.36,10.36,0,0,1-3.44.52,10.74,10.74,0,0,1-4-.72,10.21,10.21,0,0,1-3.07-1.86l.88-1.43a1.28,1.28,0,0,1,.4-.42,1.13,1.13,0,0,1,.61-.15,1.41,1.41,0,0,1,.8.29q.42.29,1,.65a7.83,7.83,0,0,0,1.45.65,6.6,6.6,0,0,0,2.13.29,5.83,5.83,0,0,0,1.91-.28,4,4,0,0,0,1.37-.77,3.06,3.06,0,0,0,.81-1.11,3.46,3.46,0,0,0,.26-1.34,2.23,2.23,0,0,0-.47-1.46,4,4,0,0,0-1.25-1,10.22,10.22,0,0,0-1.77-.71l-2-.64q-1-.34-2-.77a7.14,7.14,0,0,1-1.77-1.08,4.88,4.88,0,0,1-1.25-1.61,5.19,5.19,0,0,1-.47-2.32,5.66,5.66,0,0,1,.5-2.34,5.74,5.74,0,0,1,1.47-2,7.23,7.23,0,0,1,2.37-1.35,9.49,9.49,0,0,1,3.21-.5,10.15,10.15,0,0,1,3.77.66,8.94,8.94,0,0,1,2.89,1.82Z" transform="translate(-11.38 53.06)"/><path class="cls-2" d="M569.42,251.5a5.12,5.12,0,0,1-3.87-1.41A5.61,5.61,0,0,1,564.2,246V233h-2.56a.84.84,0,0,1-.57-.2.78.78,0,0,1-.23-.62v-1.49l3.49-.44.86-6.57a.79.79,0,0,1,.27-.51.87.87,0,0,1,.59-.2h1.89v7.33H574V233h-6.09v12.77a2.72,2.72,0,0,0,.65,2,2.27,2.27,0,0,0,1.68.65,3,3,0,0,0,1-.16,4.41,4.41,0,0,0,.75-.35c.21-.13.39-.24.54-.35a.7.7,0,0,1,.39-.16.64.64,0,0,1,.52.36l1.09,1.78a7,7,0,0,1-2.33,1.42A7.92,7.92,0,0,1,569.42,251.5Z" transform="translate(-11.38 53.06)"/><path class="cls-2" d="M584.88,257.44a2,2,0,0,1-.47.67,1.29,1.29,0,0,1-.87.25h-2.77l3.88-8.44-8.78-20h3.23a1.1,1.1,0,0,1,.76.24,1.52,1.52,0,0,1,.4.54l5.69,13.4q.19.46.33.92t.24.94l.29-.94q.15-.46.34-.95l5.52-13.38a1.2,1.2,0,0,1,.43-.56,1.1,1.1,0,0,1,.66-.22h3Z" transform="translate(-11.38 53.06)"/><path class="cls-2" d="M600.15,258.36V229.89h2.23a1,1,0,0,1,1,.78l.32,2.52a11.35,11.35,0,0,1,3.12-2.67,8,8,0,0,1,4-1,7.67,7.67,0,0,1,3.32.7,6.85,6.85,0,0,1,2.54,2.08,10,10,0,0,1,1.62,3.41,17.52,17.52,0,0,1,.57,4.68,14.68,14.68,0,0,1-.63,4.38,10.68,10.68,0,0,1-1.81,3.51,8.43,8.43,0,0,1-2.89,2.33,8.53,8.53,0,0,1-3.85.85,7.94,7.94,0,0,1-3.37-.65,7.58,7.58,0,0,1-2.47-1.85v9.41Zm9.47-25.83a6,6,0,0,0-3.2.84,9.23,9.23,0,0,0-2.53,2.37V246a6,6,0,0,0,2.26,2,6.46,6.46,0,0,0,2.74.57,5.36,5.36,0,0,0,4.56-2.12,9.91,9.91,0,0,0,1.6-6,15.13,15.13,0,0,0-.37-3.57,7,7,0,0,0-1.06-2.45,4.13,4.13,0,0,0-1.7-1.4A5.66,5.66,0,0,0,609.62,232.53Z" transform="translate(-11.38 53.06)"/><path class="cls-2" d="M628.33,223.21a2.39,2.39,0,0,1-.22,1,3,3,0,0,1-.59.84,2.73,2.73,0,0,1-.85.58,2.54,2.54,0,0,1-1,.21,2.47,2.47,0,0,1-1-.21,2.8,2.8,0,0,1-1.42-1.42,2.47,2.47,0,0,1-.21-1,2.62,2.62,0,0,1,.21-1,2.7,2.7,0,0,1,.58-.86,2.79,2.79,0,0,1,.84-.58,2.49,2.49,0,0,1,1-.21,2.56,2.56,0,0,1,1,.21,2.75,2.75,0,0,1,.85.58,2.88,2.88,0,0,1,.59.86A2.53,2.53,0,0,1,628.33,223.21Zm-.84,6.68v21.27h-3.74V229.89Z" transform="translate(-11.38 53.06)"/><path class="cls-2" d="M648.59,233.67a1.68,1.68,0,0,1-.34.36.79.79,0,0,1-.48.13,1.2,1.2,0,0,1-.68-.26,10,10,0,0,0-.93-.58,7.8,7.8,0,0,0-1.37-.58A7.29,7.29,0,0,0,640,233a5.34,5.34,0,0,0-2,1.61,7.26,7.26,0,0,0-1.22,2.54,12.59,12.59,0,0,0-.41,3.34,12.2,12.2,0,0,0,.44,3.43,7.44,7.44,0,0,0,1.24,2.52A5.29,5.29,0,0,0,640,248a6,6,0,0,0,2.57.54,6.58,6.58,0,0,0,2.25-.33,6.8,6.8,0,0,0,1.47-.72,10.49,10.49,0,0,0,1-.72,1.16,1.16,0,0,1,.76-.33.79.79,0,0,1,.71.36l1,1.37a8.08,8.08,0,0,1-3.46,2.49,12.28,12.28,0,0,1-4.39.79,9.29,9.29,0,0,1-3.71-.74,8.45,8.45,0,0,1-3-2.13,10.13,10.13,0,0,1-2-3.43,13.82,13.82,0,0,1-.72-4.64,14,14,0,0,1,.66-4.39,9.93,9.93,0,0,1,1.93-3.48,8.76,8.76,0,0,1,3.14-2.28,10.58,10.58,0,0,1,4.28-.82,10.09,10.09,0,0,1,3.95.72,9.45,9.45,0,0,1,3,2Z" transform="translate(-11.38 53.06)"/><path class="cls-2" d="M669.32,251.16h-1.66a2,2,0,0,1-.88-.17.93.93,0,0,1-.44-.71l-.42-2q-.84.76-1.64,1.35a9.33,9.33,0,0,1-1.68,1,8.67,8.67,0,0,1-1.88.62,10.81,10.81,0,0,1-2.22.21,7.55,7.55,0,0,1-2.32-.35,5.27,5.27,0,0,1-1.88-1,5,5,0,0,1-1.27-1.76,6.18,6.18,0,0,1-.47-2.52,4.71,4.71,0,0,1,.69-2.43,6.09,6.09,0,0,1,2.24-2.08,14.53,14.53,0,0,1,4-1.49,27.54,27.54,0,0,1,6.11-.58v-1.67a5.79,5.79,0,0,0-1.06-3.77,3.84,3.84,0,0,0-3.14-1.28,6.64,6.64,0,0,0-2.3.35,8.73,8.73,0,0,0-1.62.78q-.68.43-1.18.78a1.7,1.7,0,0,1-1,.35,1.11,1.11,0,0,1-.66-.2,1.51,1.51,0,0,1-.45-.49l-.67-1.2a12.16,12.16,0,0,1,3.8-2.54,11.75,11.75,0,0,1,4.52-.84,8.06,8.06,0,0,1,3.17.59,6.51,6.51,0,0,1,2.33,1.64,6.94,6.94,0,0,1,1.43,2.54,10.57,10.57,0,0,1,.48,3.28Zm-9.7-2.29a7.64,7.64,0,0,0,1.81-.2,7.18,7.18,0,0,0,1.54-.57,8.19,8.19,0,0,0,1.39-.89,12,12,0,0,0,1.29-1.2v-4.39a25.12,25.12,0,0,0-4.39.33,12.32,12.32,0,0,0-2.94.86,4.11,4.11,0,0,0-1.65,1.25,2.7,2.7,0,0,0-.51,1.61,3.57,3.57,0,0,0,.27,1.46,2.75,2.75,0,0,0,.74,1,2.88,2.88,0,0,0,1.09.57A5,5,0,0,0,659.62,248.87Z" transform="translate(-11.38 53.06)"/><path class="cls-2" d="M679.15,220.23v30.93h-3.74V220.23Z" transform="translate(-11.38 53.06)"/><path class="cls-2" d="M689.9,220.23v30.93h-3.74V220.23Z" transform="translate(-11.38 53.06)"/><path class="cls-2" d="M702.73,257.44a2,2,0,0,1-.47.67,1.28,1.28,0,0,1-.87.25h-2.77l3.89-8.44-8.78-20H697a1.11,1.11,0,0,1,.76.24,1.51,1.51,0,0,1,.4.54l5.69,13.4a9.66,9.66,0,0,1,.33.92q.14.46.24.94l.29-.94q.15-.46.34-.95l5.52-13.38a1.2,1.2,0,0,1,.43-.56,1.1,1.1,0,0,1,.66-.22h3Z" transform="translate(-11.38 53.06)"/><path class="cls-2" d="M726.1,258.36V229.89h2.23a1,1,0,0,1,1,.78l.32,2.52a11.35,11.35,0,0,1,3.12-2.67,8,8,0,0,1,4-1,7.67,7.67,0,0,1,3.32.7,6.85,6.85,0,0,1,2.54,2.08,10,10,0,0,1,1.62,3.41,17.52,17.52,0,0,1,.57,4.68,14.68,14.68,0,0,1-.63,4.38,10.68,10.68,0,0,1-1.81,3.51,8.43,8.43,0,0,1-2.89,2.33,8.53,8.53,0,0,1-3.85.85,7.94,7.94,0,0,1-3.37-.65,7.58,7.58,0,0,1-2.47-1.85v9.41Zm9.47-25.83a6,6,0,0,0-3.2.84,9.23,9.23,0,0,0-2.53,2.37V246a6,6,0,0,0,2.26,2,6.46,6.46,0,0,0,2.74.57,5.36,5.36,0,0,0,4.56-2.12,9.91,9.91,0,0,0,1.6-6,15.13,15.13,0,0,0-.37-3.57,7,7,0,0,0-1.06-2.45,4.13,4.13,0,0,0-1.7-1.4A5.66,5.66,0,0,0,735.57,232.53Z" transform="translate(-11.38 53.06)"/><path class="cls-2" d="M749.29,251.16V229.89h2.14a1.18,1.18,0,0,1,.84.23,1.42,1.42,0,0,1,.32.8l.25,3.32a9.72,9.72,0,0,1,2.7-3.48,6.36,6.36,0,0,1,5.37-1.05,5.64,5.64,0,0,1,1.32.56l-.48,2.79a.63.63,0,0,1-.65.53,3.27,3.27,0,0,1-.9-.2,5.7,5.7,0,0,0-1.7-.2,4.82,4.82,0,0,0-3.27,1.13,8.51,8.51,0,0,0-2.19,3.3v13.54Z" transform="translate(-11.38 53.06)"/><path class="cls-2" d="M774.82,229.55a10.93,10.93,0,0,1,4.21.78,8.87,8.87,0,0,1,3.19,2.21,9.78,9.78,0,0,1,2,3.45,14.95,14.95,0,0,1,0,9.06,9.79,9.79,0,0,1-2,3.44,8.76,8.76,0,0,1-3.19,2.19,11.95,11.95,0,0,1-8.42,0,8.85,8.85,0,0,1-3.2-2.19,9.83,9.83,0,0,1-2-3.44,14.73,14.73,0,0,1,0-9.06,9.82,9.82,0,0,1,2-3.45,9,9,0,0,1,3.2-2.21A10.93,10.93,0,0,1,774.82,229.55Zm0,19a5.46,5.46,0,0,0,4.7-2.11,12,12,0,0,0,0-11.81,5.45,5.45,0,0,0-4.7-2.12,6.52,6.52,0,0,0-2.77.55,5.19,5.19,0,0,0-2,1.58,7,7,0,0,0-1.18,2.53,14.95,14.95,0,0,0,0,6.77,6.89,6.89,0,0,0,1.18,2.51,5.24,5.24,0,0,0,2,1.56A6.52,6.52,0,0,0,774.82,248.54Z" transform="translate(-11.38 53.06)"/><path class="cls-2" d="M789.56,251.16V229.89h2.23a1,1,0,0,1,1,.78l.27,2.18a10.9,10.9,0,0,1,2.64-2.37,6.21,6.21,0,0,1,3.39-.92,5,5,0,0,1,3.5,1.2,6.73,6.73,0,0,1,1.92,3.23,6.64,6.64,0,0,1,1.17-2,6.76,6.76,0,0,1,1.63-1.39,6.93,6.93,0,0,1,1.92-.8,8.58,8.58,0,0,1,2.07-.25,7.88,7.88,0,0,1,3,.54,5.93,5.93,0,0,1,2.23,1.57,7,7,0,0,1,1.4,2.53,11.2,11.2,0,0,1,.48,3.43v13.54h-3.74V237.62a5.74,5.74,0,0,0-1.09-3.79,3.92,3.92,0,0,0-3.17-1.29,4.76,4.76,0,0,0-1.75.33,4.23,4.23,0,0,0-1.46,1,4.49,4.49,0,0,0-1,1.59,6.15,6.15,0,0,0-.37,2.22v13.54h-3.74V237.62a6,6,0,0,0-1-3.82,3.65,3.65,0,0,0-3-1.26,4.74,4.74,0,0,0-2.57.75,8.43,8.43,0,0,0-2.17,2v15.86Z" transform="translate(-11.38 53.06)"/><path class="cls-2" d="M832.66,229.55a10.93,10.93,0,0,1,4.21.78,8.87,8.87,0,0,1,3.19,2.21,9.78,9.78,0,0,1,2,3.45,14.95,14.95,0,0,1,0,9.06,9.79,9.79,0,0,1-2,3.44,8.76,8.76,0,0,1-3.19,2.19,11.95,11.95,0,0,1-8.42,0,8.85,8.85,0,0,1-3.2-2.19,9.83,9.83,0,0,1-2-3.44,14.73,14.73,0,0,1,0-9.06,9.82,9.82,0,0,1,2-3.45,9,9,0,0,1,3.2-2.21A10.93,10.93,0,0,1,832.66,229.55Zm0,19a5.46,5.46,0,0,0,4.7-2.11,12,12,0,0,0,0-11.81,5.45,5.45,0,0,0-4.7-2.12,6.52,6.52,0,0,0-2.77.55,5.19,5.19,0,0,0-2,1.58,7,7,0,0,0-1.18,2.53,14.95,14.95,0,0,0,0,6.77,6.89,6.89,0,0,0,1.18,2.51,5.24,5.24,0,0,0,2,1.56A6.52,6.52,0,0,0,832.66,248.54Z" transform="translate(-11.38 53.06)"/><path class="cls-2" d="M853.84,251.5a5.12,5.12,0,0,1-3.87-1.41,5.61,5.61,0,0,1-1.35-4.05V233h-2.56a.84.84,0,0,1-.57-.2.77.77,0,0,1-.23-.62v-1.49l3.49-.44.86-6.57a.79.79,0,0,1,.27-.51.87.87,0,0,1,.59-.2h1.89v7.33h6.09V233h-6.09v12.77a2.72,2.72,0,0,0,.65,2,2.27,2.27,0,0,0,1.68.65,3,3,0,0,0,1-.16,4.41,4.41,0,0,0,.75-.35q.31-.19.54-.35a.7.7,0,0,1,.39-.16.64.64,0,0,1,.53.36l1.09,1.78a7,7,0,0,1-2.33,1.42A7.92,7.92,0,0,1,853.84,251.5Z" transform="translate(-11.38 53.06)"/><path class="cls-2" d="M871.48,229.55a9.5,9.5,0,0,1,3.53.64A7.92,7.92,0,0,1,877.8,232a8.44,8.44,0,0,1,1.84,3,11.51,11.51,0,0,1,.66,4,2.44,2.44,0,0,1-.19,1.18.78.78,0,0,1-.71.29H865.25a11.76,11.76,0,0,0,.55,3.51,7.17,7.17,0,0,0,1.39,2.49,5.55,5.55,0,0,0,2.1,1.49,7.21,7.21,0,0,0,2.73.49,8,8,0,0,0,2.43-.33,11.55,11.55,0,0,0,1.75-.7,13.29,13.29,0,0,0,1.23-.7,1.63,1.63,0,0,1,.85-.33.82.82,0,0,1,.71.36l1,1.37a7.1,7.1,0,0,1-1.66,1.46,10.39,10.39,0,0,1-2.07,1,13.27,13.27,0,0,1-2.28.6,13.94,13.94,0,0,1-2.33.2,10.81,10.81,0,0,1-4.06-.75,8.9,8.9,0,0,1-3.21-2.18,10,10,0,0,1-2.11-3.56,14.48,14.48,0,0,1-.76-4.87,12.4,12.4,0,0,1,.68-4.16,9.81,9.81,0,0,1,2-3.35,9,9,0,0,1,3.13-2.23A10.27,10.27,0,0,1,871.48,229.55Zm.08,2.75a5.74,5.74,0,0,0-4.26,1.56,7.36,7.36,0,0,0-1.93,4.34h11.57a7.56,7.56,0,0,0-.36-2.38,5.32,5.32,0,0,0-1-1.87,4.71,4.71,0,0,0-1.69-1.22A5.7,5.7,0,0,0,871.57,232.3Z" transform="translate(-11.38 53.06)"/><path class="cls-2" d="M899.62,251.5a5.12,5.12,0,0,1-3.87-1.41,5.61,5.61,0,0,1-1.35-4.05V233h-2.56a.84.84,0,0,1-.57-.2.77.77,0,0,1-.23-.62v-1.49l3.49-.44.86-6.57a.79.79,0,0,1,.27-.51.87.87,0,0,1,.59-.2h1.89v7.33h6.09V233h-6.09v12.77a2.72,2.72,0,0,0,.65,2,2.27,2.27,0,0,0,1.68.65,3,3,0,0,0,1-.16,4.41,4.41,0,0,0,.75-.35q.31-.19.54-.35a.7.7,0,0,1,.39-.16.64.64,0,0,1,.53.36l1.09,1.78a7,7,0,0,1-2.33,1.42A7.92,7.92,0,0,1,899.62,251.5Z" transform="translate(-11.38 53.06)"/><path class="cls-2" d="M917.45,229.55a10.93,10.93,0,0,1,4.21.78,8.87,8.87,0,0,1,3.19,2.21,9.78,9.78,0,0,1,2,3.45,14.95,14.95,0,0,1,0,9.06,9.79,9.79,0,0,1-2,3.44,8.76,8.76,0,0,1-3.19,2.19,11.95,11.95,0,0,1-8.42,0,8.85,8.85,0,0,1-3.2-2.19,9.83,9.83,0,0,1-2-3.44,14.73,14.73,0,0,1,0-9.06,9.82,9.82,0,0,1,2-3.45,9,9,0,0,1,3.2-2.21A10.93,10.93,0,0,1,917.45,229.55Zm0,19a5.46,5.46,0,0,0,4.7-2.11,12,12,0,0,0,0-11.81,5.45,5.45,0,0,0-4.7-2.12,6.52,6.52,0,0,0-2.77.55,5.19,5.19,0,0,0-2,1.58,7,7,0,0,0-1.18,2.53,14.95,14.95,0,0,0,0,6.77,6.89,6.89,0,0,0,1.18,2.51,5.24,5.24,0,0,0,2,1.56A6.52,6.52,0,0,0,917.45,248.54Z" transform="translate(-11.38 53.06)"/><path class="cls-2" d="M929.84,223.76a12.67,12.67,0,0,1,1.44-1.16,10.83,10.83,0,0,1,1.72-1,10.52,10.52,0,0,1,2-.66,10.72,10.72,0,0,1,2.34-.24,9.48,9.48,0,0,1,3.08.48,7.36,7.36,0,0,1,2.45,1.37,6.3,6.3,0,0,1,1.62,2.14,6.63,6.63,0,0,1,.59,2.83,7.24,7.24,0,0,1-.47,2.75,7.66,7.66,0,0,1-1.2,2,9.17,9.17,0,0,1-1.58,1.51l-1.61,1.21a10.54,10.54,0,0,0-1.28,1.13,2.2,2.2,0,0,0-.62,1.26l-.38,3.21h-2.56l-.25-3.49v-.23a2.68,2.68,0,0,1,.47-1.57,6.4,6.4,0,0,1,1.2-1.28q.72-.6,1.55-1.2a12.7,12.7,0,0,0,1.55-1.32,6.49,6.49,0,0,0,1.2-1.65,4.73,4.73,0,0,0,.47-2.18,3.7,3.7,0,0,0-.36-1.64,3.78,3.78,0,0,0-1-1.25,4.27,4.27,0,0,0-1.44-.79,5.62,5.62,0,0,0-1.77-.27,6.76,6.76,0,0,0-2.19.32,8.22,8.22,0,0,0-1.54.69,9,9,0,0,0-1,.69,1.13,1.13,0,0,1-.64.31.91.91,0,0,1-.82-.48ZM934,248.85a2.68,2.68,0,0,1,.75-1.87,2.62,2.62,0,0,1,2.89-.57,2.7,2.7,0,0,1,.84.57,2.55,2.55,0,0,1,.56.84,2.78,2.78,0,0,1,0,2.07,2.57,2.57,0,0,1-.56.83,2.54,2.54,0,0,1-.84.56,2.76,2.76,0,0,1-2.06,0,2.44,2.44,0,0,1-.83-.56,2.63,2.63,0,0,1-.75-1.87Z" transform="translate(-11.38 53.06)"/></g></g></g></svg>