<svg xmlns="http://www.w3.org/2000/svg" xmlns:xlink="http://www.w3.org/1999/xlink" viewBox="0 0 1176.32 532.34"><defs><style>.cls-1{fill:none;}.cls-2{isolation:isolate;}.cls-3{clip-path:url(#clip-path);}.cls-4{fill:#f88e12;}.cls-5{fill:#fff;}.cls-6{clip-path:url(#clip-path-2);}.cls-7{mix-blend-mode:multiply;}.cls-8{clip-path:url(#clip-path-3);}.cls-9{clip-path:url(#clip-path-4);}.cls-10{clip-path:url(#clip-path-5);}.cls-11{fill:url(#linear-gradient);}.cls-12{clip-path:url(#clip-path-6);}.cls-13{clip-path:url(#clip-path-7);}.cls-14{fill:url(#linear-gradient-2);}.cls-15{clip-path:url(#clip-path-8);}.cls-16{clip-path:url(#clip-path-9);}.cls-17{fill:url(#linear-gradient-3);}.cls-18{clip-path:url(#clip-path-10);}.cls-19{clip-path:url(#clip-path-11);}.cls-20{fill:url(#linear-gradient-4);}.cls-21{clip-path:url(#clip-path-12);}.cls-22{clip-path:url(#clip-path-13);}.cls-23{fill:url(#linear-gradient-5);}.cls-24{clip-path:url(#clip-path-14);}.cls-25{clip-path:url(#clip-path-15);}.cls-26{fill:url(#linear-gradient-6);}</style><clipPath id="clip-path" transform="translate(-2.7 44.45)"><path class="cls-1" d="M407.45,92.15C400.73,135.46,353.78,159,353.78,159s47,22.66,53.67,66,38.88,83.85,64.41,83.85h586.06c25.53,0,57.69-40.33,64.41-83.65S1176,158.67,1176,158.67s-47-23.18-53.66-66.5S1083.45,7.8,1057.92,7.8H471.86c-25.53,0-57.69,41-64.41,84.35"/></clipPath><clipPath id="clip-path-2" transform="translate(-2.7 44.45)"><rect class="cls-1" x="2.61" y="15" width="435.72" height="464.62"/></clipPath><clipPath id="clip-path-3" transform="translate(-2.7 44.45)"><rect class="cls-1" x="1" y="2.3" width="420.81" height="533.45"/></clipPath><clipPath id="clip-path-4" transform="translate(-2.7 44.45)"><path class="cls-1" d="M199.46,14.62S244.07,19.17,268,46.34s14,61.84,8,84.92c0,0-15.31,41.73-15.56,44.23s-1.82-33.89-6.5-44.44,3.47-40-14-51.75-42.83-7.21-42.83-7.21-36.14-11-53.73,8.45-8,34.86-10.76,50-4.53,34.56-4.53,34.56-6.34-42.83-7.29-59.32-15.48-76.18,78.63-91.19"/></clipPath><clipPath id="clip-path-5" transform="translate(-2.7 44.45)"><rect class="cls-1" x="103.99" y="-36.48" width="186.22" height="163.1"/></clipPath><linearGradient id="linear-gradient" y1="-304.19" x2="1" y2="-304.19" gradientTransform="matrix(0, -624.89, -624.89, 0, -189889.4, 560.19)" gradientUnits="userSpaceOnUse"><stop offset="0" stop-color="#ba6b0e"/><stop offset="0.04" stop-color="#ba6b0e"/><stop offset="0.08" stop-color="#cb740f"/><stop offset="0.14" stop-color="#df8010"/><stop offset="0.21" stop-color="#ed8811"/><stop offset="0.29" stop-color="#f58d12"/><stop offset="0.42" stop-color="#f88e12"/><stop offset="1" stop-color="#f88e12"/></linearGradient><clipPath id="clip-path-6" transform="translate(-2.7 44.45)"><path class="cls-1" d="M144.66,249.07s45.45,77.69,58.52,81c7.53,1.88,56.12-91,56.12-91s7.75.48,11.28,6.35c0,0,85.84,19.34,99.94,41.08s34.1,112.66,44.69,184,5.31,88.86,5.31,88.86H1s17.63-193.77,18.8-209,5.87-51.65,50.53-66.92,64-20.51,74.33-34.31"/></clipPath><clipPath id="clip-path-7" transform="translate(-2.7 44.45)"><rect class="cls-1" x="2.7" y="191.29" width="424.6" height="296.6"/></clipPath><linearGradient id="linear-gradient-2" y1="-304.19" y2="-304.19" gradientTransform="matrix(0, -624.41, -624.41, 0, -189732.41, 563.44)" xlink:href="#linear-gradient"/><clipPath id="clip-path-8" transform="translate(-2.7 44.45)"><path class="cls-1" d="M153.17,73.1a56.25,56.25,0,0,1,44.06.89c23.51,10.57,34.38,58.75,60.81,61.39,0,0,25-62-34.37-79.32S166.32,46,153.17,73.1"/></clipPath><clipPath id="clip-path-9" transform="translate(-2.7 44.45)"><rect class="cls-1" x="151.89" y="-12.47" width="128.73" height="96.86"/></clipPath><linearGradient id="linear-gradient-3" y1="-304.19" y2="-304.19" gradientTransform="matrix(0, -624.89, -624.89, 0, -189885.24, 560.65)" xlink:href="#linear-gradient"/><clipPath id="clip-path-10" transform="translate(-2.7 44.45)"><path class="cls-1" d="M199.46,14.62s-15.15-2.92-24.54-3.81A16.19,16.19,0,0,1,162,2.3s-13.51,20,1.47,31.73S211,32.85,211,32.85Z"/></clipPath><clipPath id="clip-path-11" transform="translate(-2.7 44.45)"><rect class="cls-1" x="151.93" y="-44.45" width="63.12" height="42.49"/></clipPath><linearGradient id="linear-gradient-4" y1="-304.19" y2="-304.19" gradientTransform="matrix(0, -624.91, -624.91, 0, -189909.2, 564.61)" xlink:href="#linear-gradient"/><clipPath id="clip-path-12" transform="translate(-2.7 44.45)"><path class="cls-1" d="M250.93,136.86c-4.2-.22-12.14-1.71-23.36-1.48s-14.8,1.14-23.88,4-11,2.39-11,2.39v6.69s5.06-1.25,7.45,7.6,10.18,22.67,30.92,21.2,20.85-18,22.1-25.28,4-6.92,4-6.92l.93-7.37a61.74,61.74,0,0,0-7.23-.79m-1.71,17.46c-.67,13.38-9.29,22-24,20.18s-18-11.12-19.62-17.69-1.24-10.42,3.07-13.94,14.51-3.74,14.51-3.74c20.22-.91,26.76,1.81,26.07,15.19"/></clipPath><clipPath id="clip-path-13" transform="translate(-2.7 44.45)"><rect class="cls-1" x="195.88" y="86.51" width="64.99" height="43.12"/></clipPath><linearGradient id="linear-gradient-5" y1="-304.19" y2="-304.19" gradientTransform="matrix(0, -624.88, -624.88, 0, -189859.04, 562.44)" xlink:href="#linear-gradient"/><clipPath id="clip-path-14" transform="translate(-2.7 44.45)"><path class="cls-1" d="M129.61,137.65l.9,7.37s2.73-.34,4,6.92,1.24,23.8,22,25.28,29.28-12.36,31.66-21.2,8-7.6,8-7.6v-6.69s-2.4.45-11.49-2.39-12.7-3.74-23.93-4-19.39,1.25-23.59,1.48a71.84,71.84,0,0,0-7.49.79m35,1.48s10.21.22,14.51,3.74,4.65,7.37,3.07,13.94-4.88,15.87-19.62,17.69-23.35-6.8-24-20.18,5.86-16.1,26.08-15.19"/></clipPath><clipPath id="clip-path-15" transform="translate(-2.7 44.45)"><rect class="cls-1" x="128.67" y="86.51" width="64.99" height="43.12"/></clipPath><linearGradient id="linear-gradient-6" y1="-304.19" y2="-304.19" gradientTransform="matrix(0, -624.88, -624.88, 0, -189925.88, 562.44)" xlink:href="#linear-gradient"/></defs><title>original1</title><g class="cls-2"><g id="Layers"><g class="cls-3"><rect class="cls-4" x="284.72" y="50.7" width="891.6" height="307.27"/></g><g id="Yellow_Parker" data-name="Yellow Parker"><path class="cls-5" d="M453.19,113.27h-4.07V83.18h4.07Z" transform="translate(-2.7 44.45)"/><path class="cls-5" d="M466,92h2.94a1.19,1.19,0,0,1,.76.23,1.16,1.16,0,0,1,.4.55l4.07,13.69q.17.76.31,1.46t.25,1.42q.17-.71.38-1.42l.44-1.46L480,92.69a1.11,1.11,0,0,1,.37-.53,1,1,0,0,1,.66-.21h1.62a1.11,1.11,0,0,1,.69.21,1.09,1.09,0,0,1,.38.53l4.39,13.78q.23.74.41,1.45l.35,1.41q.1-.69.27-1.45t.36-1.41l4.16-13.69a1.09,1.09,0,0,1,.4-.56,1.12,1.12,0,0,1,.69-.22h2.81l-6.89,21.27h-3q-.55,0-.76-.71l-4.7-14.43a8,8,0,0,1-.27-1l-.21-1-.21,1a8,8,0,0,1-.27,1l-4.77,14.41a.88.88,0,0,1-.86.71h-2.81Z" transform="translate(-2.7 44.45)"/><path class="cls-5" d="M516.57,113.27h-1.66a2,2,0,0,1-.88-.17.93.93,0,0,1-.44-.71l-.42-2q-.84.76-1.64,1.35a9.33,9.33,0,0,1-1.68,1,8.67,8.67,0,0,1-1.88.62,10.8,10.8,0,0,1-2.22.21,7.55,7.55,0,0,1-2.32-.35,5.28,5.28,0,0,1-1.88-1,5,5,0,0,1-1.27-1.76,6.17,6.17,0,0,1-.47-2.52,4.71,4.71,0,0,1,.69-2.43,6.1,6.1,0,0,1,2.24-2.08,14.54,14.54,0,0,1,4-1.49,27.55,27.55,0,0,1,6.11-.58V99.69a5.79,5.79,0,0,0-1.06-3.77,3.84,3.84,0,0,0-3.14-1.28,6.64,6.64,0,0,0-2.3.35,8.73,8.73,0,0,0-1.62.78q-.68.43-1.18.78a1.7,1.7,0,0,1-1,.35,1.12,1.12,0,0,1-.66-.2,1.52,1.52,0,0,1-.45-.49l-.67-1.2a12.16,12.16,0,0,1,3.8-2.54,11.74,11.74,0,0,1,4.51-.84,8.07,8.07,0,0,1,3.17.59,6.5,6.5,0,0,1,2.33,1.64,6.93,6.93,0,0,1,1.43,2.54,10.6,10.6,0,0,1,.48,3.28Zm-9.7-2.29a7.64,7.64,0,0,0,1.81-.2,7.16,7.16,0,0,0,1.54-.57,8.15,8.15,0,0,0,1.39-.89,12,12,0,0,0,1.29-1.2v-4.39a25.12,25.12,0,0,0-4.39.33,12.3,12.3,0,0,0-2.94.86,4.1,4.1,0,0,0-1.65,1.25,2.69,2.69,0,0,0-.51,1.61,3.56,3.56,0,0,0,.27,1.46,2.76,2.76,0,0,0,.73,1,2.89,2.89,0,0,0,1.09.57A4.94,4.94,0,0,0,506.86,111Z" transform="translate(-2.7 44.45)"/><path class="cls-5" d="M522.24,113.27V92h2.23a1,1,0,0,1,1,.78l.29,2.31a12,12,0,0,1,3.1-2.48,8.06,8.06,0,0,1,4-.95,7.68,7.68,0,0,1,3.08.58,6,6,0,0,1,2.23,1.64,7.25,7.25,0,0,1,1.35,2.55,11.12,11.12,0,0,1,.46,3.3v13.54H536.2V99.72A5.73,5.73,0,0,0,535.1,96a4.12,4.12,0,0,0-3.37-1.33,6.28,6.28,0,0,0-3.1.8A10.19,10.19,0,0,0,526,97.6v15.67Z" transform="translate(-2.7 44.45)"/><path class="cls-5" d="M552,113.61a5.12,5.12,0,0,1-3.87-1.41,5.61,5.61,0,0,1-1.35-4.05v-13h-2.56a.84.84,0,0,1-.57-.2.78.78,0,0,1-.23-.62V92.82l3.49-.44.86-6.57a.79.79,0,0,1,.27-.51.87.87,0,0,1,.59-.2h1.89v7.33h6.09v2.71h-6.09v12.77a2.72,2.72,0,0,0,.65,2,2.27,2.27,0,0,0,1.68.65,3,3,0,0,0,1-.16,4.41,4.41,0,0,0,.75-.35c.21-.13.39-.24.54-.35a.7.7,0,0,1,.39-.16.64.64,0,0,1,.52.36l1.09,1.78a7,7,0,0,1-2.33,1.42A7.92,7.92,0,0,1,552,113.61Z" transform="translate(-2.7 44.45)"/><path class="cls-5" d="M575.81,113.61a5.12,5.12,0,0,1-3.87-1.41,5.61,5.61,0,0,1-1.35-4.05v-13H568a.84.84,0,0,1-.57-.2.78.78,0,0,1-.23-.62V92.82l3.49-.44.86-6.57a.79.79,0,0,1,.27-.51.87.87,0,0,1,.59-.2h1.89v7.33h6.09v2.71h-6.09v12.77a2.72,2.72,0,0,0,.65,2,2.27,2.27,0,0,0,1.68.65,3,3,0,0,0,1-.16,4.41,4.41,0,0,0,.75-.35c.21-.13.39-.24.54-.35a.7.7,0,0,1,.39-.16.64.64,0,0,1,.52.36l1.09,1.78a7,7,0,0,1-2.33,1.42A7.92,7.92,0,0,1,575.81,113.61Z" transform="translate(-2.7 44.45)"/><path class="cls-5" d="M593.63,91.66a10.93,10.93,0,0,1,4.21.78A8.87,8.87,0,0,1,601,94.64a9.77,9.77,0,0,1,2,3.45,14.95,14.95,0,0,1,0,9.06,9.79,9.79,0,0,1-2,3.44,8.76,8.76,0,0,1-3.19,2.19,11.95,11.95,0,0,1-8.42,0,8.86,8.86,0,0,1-3.2-2.19,9.8,9.8,0,0,1-2-3.44,14.73,14.73,0,0,1,0-9.06,9.79,9.79,0,0,1,2-3.45,9,9,0,0,1,3.2-2.21A10.93,10.93,0,0,1,593.63,91.66Zm0,19a5.46,5.46,0,0,0,4.7-2.11,9.77,9.77,0,0,0,1.55-5.89,9.86,9.86,0,0,0-1.55-5.92,5.45,5.45,0,0,0-4.7-2.12,6.52,6.52,0,0,0-2.77.55,5.19,5.19,0,0,0-2,1.58,7,7,0,0,0-1.18,2.53,14.95,14.95,0,0,0,0,6.77,6.9,6.9,0,0,0,1.18,2.51,5.24,5.24,0,0,0,2,1.56A6.52,6.52,0,0,0,593.63,110.64Z" transform="translate(-2.7 44.45)"/><path class="cls-5" d="M616.61,113.27V82.34h3.76V95.06a10.85,10.85,0,0,1,3-2.47,8,8,0,0,1,3.92-.93,7.84,7.84,0,0,1,3.34.69,6.76,6.76,0,0,1,2.54,2.07,10,10,0,0,1,1.62,3.4,17.39,17.39,0,0,1,.57,4.67,14.68,14.68,0,0,1-.63,4.38,10.57,10.57,0,0,1-1.82,3.51,8.41,8.41,0,0,1-6.75,3.18,7.12,7.12,0,0,1-3.5-.8,8,8,0,0,1-2.51-2.23l-.19,1.93a.9.9,0,0,1-1,.8Zm9.49-18.63a6,6,0,0,0-3.2.84,9.23,9.23,0,0,0-2.53,2.37v10.29a5.86,5.86,0,0,0,2.24,2,6.46,6.46,0,0,0,2.74.57,5.38,5.38,0,0,0,4.58-2.12,9.91,9.91,0,0,0,1.6-6,15.08,15.08,0,0,0-.37-3.57,7,7,0,0,0-1.06-2.45,4.13,4.13,0,0,0-1.7-1.4A5.66,5.66,0,0,0,626.1,94.64Z" transform="translate(-2.7 44.45)"/><path class="cls-5" d="M648.38,91.66a9.5,9.5,0,0,1,3.53.64,7.92,7.92,0,0,1,2.79,1.85,8.44,8.44,0,0,1,1.84,3,11.51,11.51,0,0,1,.66,4,2.44,2.44,0,0,1-.19,1.18.78.78,0,0,1-.71.29H642.14a11.73,11.73,0,0,0,.55,3.51,7.17,7.17,0,0,0,1.39,2.49,5.55,5.55,0,0,0,2.1,1.49,7.21,7.21,0,0,0,2.73.49,8,8,0,0,0,2.43-.33,11.55,11.55,0,0,0,1.75-.7,13.29,13.29,0,0,0,1.23-.7,1.63,1.63,0,0,1,.85-.33.82.82,0,0,1,.71.36l1,1.37a7.1,7.1,0,0,1-1.66,1.46,10.39,10.39,0,0,1-2.07,1,13.26,13.26,0,0,1-2.28.6,13.93,13.93,0,0,1-2.33.2,10.82,10.82,0,0,1-4.06-.75,8.91,8.91,0,0,1-3.21-2.18,10,10,0,0,1-2.11-3.56,14.48,14.48,0,0,1-.76-4.87,12.4,12.4,0,0,1,.68-4.16,9.81,9.81,0,0,1,2-3.35,9,9,0,0,1,3.13-2.23A10.26,10.26,0,0,1,648.38,91.66Zm.08,2.75A5.74,5.74,0,0,0,644.2,96a7.36,7.36,0,0,0-1.93,4.34h11.57a7.56,7.56,0,0,0-.36-2.38,5.32,5.32,0,0,0-1-1.87,4.71,4.71,0,0,0-1.69-1.22A5.7,5.7,0,0,0,648.46,94.41Z" transform="translate(-2.7 44.45)"/><path class="cls-5" d="M685.7,113.27H684a2,2,0,0,1-.88-.17.93.93,0,0,1-.44-.71l-.42-2q-.84.76-1.64,1.35a9.33,9.33,0,0,1-1.68,1,8.67,8.67,0,0,1-1.88.62,10.81,10.81,0,0,1-2.22.21,7.55,7.55,0,0,1-2.32-.35,5.27,5.27,0,0,1-1.88-1,5,5,0,0,1-1.27-1.76,6.18,6.18,0,0,1-.47-2.52,4.71,4.71,0,0,1,.69-2.43,6.09,6.09,0,0,1,2.24-2.08,14.53,14.53,0,0,1,4-1.49,27.54,27.54,0,0,1,6.11-.58V99.69A5.79,5.79,0,0,0,681,95.92a3.84,3.84,0,0,0-3.14-1.28,6.64,6.64,0,0,0-2.3.35,8.73,8.73,0,0,0-1.62.78q-.68.43-1.18.78a1.7,1.7,0,0,1-1,.35,1.11,1.11,0,0,1-.66-.2,1.51,1.51,0,0,1-.45-.49L670,95a12.16,12.16,0,0,1,3.8-2.54,11.75,11.75,0,0,1,4.52-.84,8.06,8.06,0,0,1,3.17.59,6.51,6.51,0,0,1,2.33,1.64,6.94,6.94,0,0,1,1.43,2.54,10.57,10.57,0,0,1,.48,3.28ZM676,111a7.64,7.64,0,0,0,1.81-.2,7.18,7.18,0,0,0,1.54-.57,8.19,8.19,0,0,0,1.39-.89,12,12,0,0,0,1.29-1.2v-4.39a25.12,25.12,0,0,0-4.39.33,12.32,12.32,0,0,0-2.94.86,4.11,4.11,0,0,0-1.65,1.25,2.7,2.7,0,0,0-.51,1.61,3.57,3.57,0,0,0,.27,1.46,2.75,2.75,0,0,0,.74,1,2.88,2.88,0,0,0,1.09.57A5,5,0,0,0,676,111Z" transform="translate(-2.7 44.45)"/><path class="cls-5" d="M691.37,113.27V92h2.23a1,1,0,0,1,1,.78l.29,2.31a12,12,0,0,1,3.1-2.48,8.06,8.06,0,0,1,4-.95,7.69,7.69,0,0,1,3.08.58,6,6,0,0,1,2.23,1.64,7.22,7.22,0,0,1,1.35,2.55,11.08,11.08,0,0,1,.46,3.3v13.54h-3.74V99.72a5.73,5.73,0,0,0-1.1-3.75,4.12,4.12,0,0,0-3.37-1.33,6.28,6.28,0,0,0-3.1.8,10.2,10.2,0,0,0-2.66,2.16v15.67Z" transform="translate(-2.7 44.45)"/><path class="cls-5" d="M728.24,113.27h-4.07V83.18h4.07Z" transform="translate(-2.7 44.45)"/><path class="cls-5" d="M756.8,83.18V86.6h-9.72v26.67H743V86.6h-9.76V83.18Z" transform="translate(-2.7 44.45)"/><path class="cls-5" d="M784.51,103.45q.22.56.43,1.12.21-.59.44-1.12t.53-1.08l10.18-18.5a1.21,1.21,0,0,1,.57-.59,2.6,2.6,0,0,1,.84-.1h3v30.09h-3.57V91.16c0-.29,0-.61,0-.95s0-.68.06-1L786.71,108a1.62,1.62,0,0,1-1.47.95h-.59a1.62,1.62,0,0,1-1.47-.95L772.64,89.12c0,.36.07.72.09,1.07s0,.67,0,1v22.11h-3.57V83.18h3a2.61,2.61,0,0,1,.84.1,1.21,1.21,0,0,1,.57.59L784,102.39A7.83,7.83,0,0,1,784.51,103.45Z" transform="translate(-2.7 44.45)"/><path class="cls-5" d="M822.87,113.27h-1.66a2,2,0,0,1-.88-.17.93.93,0,0,1-.44-.71l-.42-2q-.84.76-1.64,1.35a9.33,9.33,0,0,1-1.68,1,8.67,8.67,0,0,1-1.88.62,10.81,10.81,0,0,1-2.22.21,7.55,7.55,0,0,1-2.32-.35,5.27,5.27,0,0,1-1.88-1,5,5,0,0,1-1.27-1.76,6.18,6.18,0,0,1-.47-2.52,4.71,4.71,0,0,1,.69-2.43,6.09,6.09,0,0,1,2.24-2.08,14.53,14.53,0,0,1,4-1.49,27.54,27.54,0,0,1,6.11-.58V99.69a5.79,5.79,0,0,0-1.06-3.77A3.84,3.84,0,0,0,815,94.64a6.64,6.64,0,0,0-2.3.35,8.73,8.73,0,0,0-1.62.78q-.68.43-1.18.78a1.7,1.7,0,0,1-1,.35,1.11,1.11,0,0,1-.66-.2,1.51,1.51,0,0,1-.45-.49l-.67-1.2a12.16,12.16,0,0,1,3.8-2.54,11.75,11.75,0,0,1,4.52-.84,8.06,8.06,0,0,1,3.17.59A6.51,6.51,0,0,1,821,93.85a6.94,6.94,0,0,1,1.43,2.54,10.57,10.57,0,0,1,.48,3.28Zm-9.7-2.29a7.64,7.64,0,0,0,1.81-.2,7.18,7.18,0,0,0,1.54-.57,8.19,8.19,0,0,0,1.39-.89,12,12,0,0,0,1.29-1.2v-4.39a25.12,25.12,0,0,0-4.39.33,12.32,12.32,0,0,0-2.94.86,4.11,4.11,0,0,0-1.65,1.25,2.7,2.7,0,0,0-.51,1.61,3.57,3.57,0,0,0,.27,1.46,2.75,2.75,0,0,0,.74,1,2.88,2.88,0,0,0,1.09.57A5,5,0,0,0,813.17,111Z" transform="translate(-2.7 44.45)"/><path class="cls-5" d="M828.54,113.27V92h2.23a1,1,0,0,1,1,.78l.29,2.31a12,12,0,0,1,3.1-2.48,8.06,8.06,0,0,1,4-.95,7.69,7.69,0,0,1,3.08.58,6,6,0,0,1,2.23,1.64,7.22,7.22,0,0,1,1.35,2.55,11.08,11.08,0,0,1,.46,3.3v13.54H842.5V99.72A5.73,5.73,0,0,0,841.4,96,4.12,4.12,0,0,0,838,94.64a6.28,6.28,0,0,0-3.1.8,10.2,10.2,0,0,0-2.66,2.16v15.67Z" transform="translate(-2.7 44.45)"/><path class="cls-5" d="M867.51,113.27h-1.66a2,2,0,0,1-.88-.17.93.93,0,0,1-.44-.71l-.42-2q-.84.76-1.64,1.35a9.33,9.33,0,0,1-1.68,1,8.67,8.67,0,0,1-1.88.62,10.81,10.81,0,0,1-2.22.21,7.55,7.55,0,0,1-2.32-.35,5.27,5.27,0,0,1-1.88-1,5,5,0,0,1-1.27-1.76,6.18,6.18,0,0,1-.47-2.52,4.71,4.71,0,0,1,.69-2.43,6.09,6.09,0,0,1,2.24-2.08,14.53,14.53,0,0,1,4-1.49,27.54,27.54,0,0,1,6.11-.58V99.69a5.79,5.79,0,0,0-1.06-3.77,3.84,3.84,0,0,0-3.14-1.28,6.64,6.64,0,0,0-2.3.35,8.73,8.73,0,0,0-1.62.78q-.68.43-1.18.78a1.7,1.7,0,0,1-1,.35,1.11,1.11,0,0,1-.66-.2,1.51,1.51,0,0,1-.45-.49l-.67-1.2a12.16,12.16,0,0,1,3.8-2.54,11.75,11.75,0,0,1,4.52-.84,8.06,8.06,0,0,1,3.17.59,6.51,6.51,0,0,1,2.33,1.64A6.94,6.94,0,0,1,867,96.39a10.57,10.57,0,0,1,.48,3.28Zm-9.7-2.29a7.64,7.64,0,0,0,1.81-.2,7.18,7.18,0,0,0,1.54-.57,8.19,8.19,0,0,0,1.39-.89,12,12,0,0,0,1.29-1.2v-4.39a25.12,25.12,0,0,0-4.39.33,12.32,12.32,0,0,0-2.94.86,4.11,4.11,0,0,0-1.65,1.25,2.7,2.7,0,0,0-.51,1.61,3.57,3.57,0,0,0,.27,1.46,2.75,2.75,0,0,0,.74,1,2.88,2.88,0,0,0,1.09.57A5,5,0,0,0,857.81,111Z" transform="translate(-2.7 44.45)"/><path class="cls-5" d="M880.34,91.64a10.62,10.62,0,0,1,2.59.3,8.18,8.18,0,0,1,2.19.89h5.78v1.39q0,.69-.88.88l-2.42.34a6.9,6.9,0,0,1,.12,5.87,6.39,6.39,0,0,1-1.66,2.17,7.44,7.44,0,0,1-2.52,1.39,10.14,10.14,0,0,1-3.2.48,10.74,10.74,0,0,1-2.81-.36,3.59,3.59,0,0,0-1,.93,1.71,1.71,0,0,0-.35,1,1.33,1.33,0,0,0,.61,1.18,4.24,4.24,0,0,0,1.62.58,13.63,13.63,0,0,0,2.29.17h2.61a14.5,14.5,0,0,1,2.61.23,7.94,7.94,0,0,1,2.29.77,4.27,4.27,0,0,1,1.62,1.47,4.37,4.37,0,0,1,.61,2.42,5.68,5.68,0,0,1-.68,2.68,7.24,7.24,0,0,1-2,2.31,10.08,10.08,0,0,1-3.13,1.62,13.38,13.38,0,0,1-4.18.61,16.09,16.09,0,0,1-4.08-.46,9.55,9.55,0,0,1-2.91-1.24,5.4,5.4,0,0,1-1.73-1.8,4.27,4.27,0,0,1-.58-2.13,3.85,3.85,0,0,1,1-2.68,6.83,6.83,0,0,1,2.74-1.75,3.75,3.75,0,0,1-1.44-1.12,3,3,0,0,1-.54-1.88,3,3,0,0,1,.17-1,3.74,3.74,0,0,1,.51-1,5.48,5.48,0,0,1,2-1.7,6.61,6.61,0,0,1-2.47-2.34,6.4,6.4,0,0,1-.89-3.41,6.54,6.54,0,0,1,.6-2.82,6.23,6.23,0,0,1,1.67-2.16,7.64,7.64,0,0,1,2.55-1.38A10.43,10.43,0,0,1,880.34,91.64ZM887,114.35a1.88,1.88,0,0,0-.44-1.31,2.84,2.84,0,0,0-1.2-.76,8.55,8.55,0,0,0-1.74-.4,16.07,16.07,0,0,0-2.08-.13h-2.23a8.09,8.09,0,0,1-2.16-.28,6.15,6.15,0,0,0-1.94,1.39,2.81,2.81,0,0,0-.75,2,2.57,2.57,0,0,0,.37,1.33,3.14,3.14,0,0,0,1.12,1.07,6.6,6.6,0,0,0,1.9.71,12.2,12.2,0,0,0,2.7.26,12,12,0,0,0,2.71-.28,6.74,6.74,0,0,0,2-.79,3.86,3.86,0,0,0,1.27-1.22A2.9,2.9,0,0,0,887,114.35Zm-6.64-11.47a5.88,5.88,0,0,0,2-.31,4.06,4.06,0,0,0,1.46-.88,3.63,3.63,0,0,0,.88-1.35,4.94,4.94,0,0,0,.29-1.73,4.14,4.14,0,0,0-1.19-3.11,5.71,5.71,0,0,0-6.89,0,4.13,4.13,0,0,0-1.19,3.11,4.77,4.77,0,0,0,.3,1.73,3.74,3.74,0,0,0,.89,1.35,4.06,4.06,0,0,0,1.45.88A5.72,5.72,0,0,0,880.34,102.87Z" transform="translate(-2.7 44.45)"/><path class="cls-5" d="M903.07,91.66a9.5,9.5,0,0,1,3.53.64,7.92,7.92,0,0,1,2.79,1.85,8.44,8.44,0,0,1,1.84,3,11.51,11.51,0,0,1,.66,4,2.44,2.44,0,0,1-.19,1.18.78.78,0,0,1-.71.29H896.83a11.76,11.76,0,0,0,.55,3.51,7.17,7.17,0,0,0,1.39,2.49,5.55,5.55,0,0,0,2.1,1.49,7.21,7.21,0,0,0,2.73.49,8,8,0,0,0,2.43-.33,11.55,11.55,0,0,0,1.75-.7,13.29,13.29,0,0,0,1.23-.7,1.63,1.63,0,0,1,.85-.33.82.82,0,0,1,.71.36l1,1.37a7.1,7.1,0,0,1-1.66,1.46,10.39,10.39,0,0,1-2.07,1,13.27,13.27,0,0,1-2.28.6,13.94,13.94,0,0,1-2.33.2,10.81,10.81,0,0,1-4.06-.75,8.9,8.9,0,0,1-3.21-2.18,10,10,0,0,1-2.11-3.56,14.48,14.48,0,0,1-.76-4.87,12.4,12.4,0,0,1,.68-4.16,9.81,9.81,0,0,1,2-3.35,9,9,0,0,1,3.13-2.23A10.27,10.27,0,0,1,903.07,91.66Zm.08,2.75A5.74,5.74,0,0,0,898.89,96a7.36,7.36,0,0,0-1.93,4.34h11.57a7.56,7.56,0,0,0-.36-2.38,5.32,5.32,0,0,0-1-1.87,4.71,4.71,0,0,0-1.69-1.22A5.7,5.7,0,0,0,903.15,94.41Z" transform="translate(-2.7 44.45)"/><path class="cls-5" d="M916.65,113.27V92h2.14a1.18,1.18,0,0,1,.84.23,1.42,1.42,0,0,1,.32.8l.25,3.32a9.72,9.72,0,0,1,2.7-3.48,6.36,6.36,0,0,1,5.37-1.05,5.64,5.64,0,0,1,1.32.56l-.48,2.79a.63.63,0,0,1-.65.53,3.27,3.27,0,0,1-.9-.2,5.7,5.7,0,0,0-1.7-.2,4.82,4.82,0,0,0-3.27,1.13,8.51,8.51,0,0,0-2.19,3.3v13.54Z" transform="translate(-2.7 44.45)"/><path class="cls-5" d="M957.31,113.27h-1.66a2,2,0,0,1-.88-.17.93.93,0,0,1-.44-.71l-.42-2q-.84.76-1.64,1.35a9.33,9.33,0,0,1-1.68,1,8.67,8.67,0,0,1-1.88.62,10.81,10.81,0,0,1-2.22.21,7.55,7.55,0,0,1-2.32-.35,5.27,5.27,0,0,1-1.88-1,5,5,0,0,1-1.27-1.76,6.18,6.18,0,0,1-.47-2.52,4.71,4.71,0,0,1,.69-2.43,6.09,6.09,0,0,1,2.24-2.08,14.53,14.53,0,0,1,4-1.49,27.54,27.54,0,0,1,6.11-.58V99.69a5.79,5.79,0,0,0-1.06-3.77,3.84,3.84,0,0,0-3.14-1.28,6.64,6.64,0,0,0-2.3.35,8.73,8.73,0,0,0-1.62.78q-.68.43-1.18.78a1.7,1.7,0,0,1-1,.35,1.11,1.11,0,0,1-.66-.2,1.51,1.51,0,0,1-.45-.49l-.67-1.2a12.16,12.16,0,0,1,3.8-2.54,11.75,11.75,0,0,1,4.52-.84,8.06,8.06,0,0,1,3.17.59,6.51,6.51,0,0,1,2.33,1.64,6.94,6.94,0,0,1,1.43,2.54,10.57,10.57,0,0,1,.48,3.28Zm-9.7-2.29a7.64,7.64,0,0,0,1.81-.2,7.18,7.18,0,0,0,1.54-.57,8.19,8.19,0,0,0,1.39-.89,12,12,0,0,0,1.29-1.2v-4.39a25.12,25.12,0,0,0-4.39.33,12.32,12.32,0,0,0-2.94.86,4.11,4.11,0,0,0-1.65,1.25,2.7,2.7,0,0,0-.51,1.61,3.57,3.57,0,0,0,.27,1.46,2.75,2.75,0,0,0,.74,1,2.88,2.88,0,0,0,1.09.57A5,5,0,0,0,947.61,111Z" transform="translate(-2.7 44.45)"/><path class="cls-5" d="M969.42,113.61a5.12,5.12,0,0,1-3.87-1.41,5.61,5.61,0,0,1-1.35-4.05v-13h-2.56a.84.84,0,0,1-.57-.2.77.77,0,0,1-.23-.62V92.82l3.49-.44.86-6.57a.79.79,0,0,1,.27-.51.87.87,0,0,1,.59-.2h1.89v7.33H974v2.71h-6.09v12.77a2.72,2.72,0,0,0,.65,2,2.27,2.27,0,0,0,1.68.65,3,3,0,0,0,1-.16A4.41,4.41,0,0,0,972,110q.31-.19.54-.35a.7.7,0,0,1,.39-.16.64.64,0,0,1,.53.36l1.09,1.78a7,7,0,0,1-2.33,1.42A7.92,7.92,0,0,1,969.42,113.61Z" transform="translate(-2.7 44.45)"/><path class="cls-5" d="M998.93,95.5a.83.83,0,0,1-.78.46,1.46,1.46,0,0,1-.71-.23q-.4-.23-1-.51a9.26,9.26,0,0,0-1.37-.53,6.59,6.59,0,0,0-1.89-.24,5.61,5.61,0,0,0-1.7.24,4.09,4.09,0,0,0-1.29.66,2.93,2.93,0,0,0-.82,1,2.63,2.63,0,0,0-.28,1.21,2,2,0,0,0,.47,1.37,4.09,4.09,0,0,0,1.25.95,11,11,0,0,0,1.76.7l2,.65q1,.35,2,.77a7.35,7.35,0,0,1,1.76,1,4.81,4.81,0,0,1,1.25,1.54,4.73,4.73,0,0,1,.47,2.2,7,7,0,0,1-.53,2.72,5.93,5.93,0,0,1-1.55,2.16,7.49,7.49,0,0,1-2.52,1.44,10.36,10.36,0,0,1-3.44.53,10.74,10.74,0,0,1-4-.72A10.23,10.23,0,0,1,985,111l.88-1.43a1.29,1.29,0,0,1,.4-.42,1.13,1.13,0,0,1,.61-.15,1.41,1.41,0,0,1,.8.29q.42.29,1,.65a7.77,7.77,0,0,0,1.45.65,6.6,6.6,0,0,0,2.13.29,5.83,5.83,0,0,0,1.91-.28,4,4,0,0,0,1.37-.77,3.06,3.06,0,0,0,.81-1.11,3.46,3.46,0,0,0,.26-1.34,2.23,2.23,0,0,0-.47-1.46,4,4,0,0,0-1.25-1,10.14,10.14,0,0,0-1.77-.71l-2-.64q-1-.34-2-.77a7.17,7.17,0,0,1-1.77-1.08,4.91,4.91,0,0,1-1.25-1.61,5.19,5.19,0,0,1-.47-2.32,5.66,5.66,0,0,1,.5-2.34,5.75,5.75,0,0,1,1.47-2,7.25,7.25,0,0,1,2.37-1.35,9.49,9.49,0,0,1,3.21-.5,10.15,10.15,0,0,1,3.77.66,8.91,8.91,0,0,1,2.89,1.82Z" transform="translate(-2.7 44.45)"/><path class="cls-5" d="M1013.59,91.66a10.93,10.93,0,0,1,4.21.78,8.87,8.87,0,0,1,3.19,2.21,9.78,9.78,0,0,1,2,3.45,14.95,14.95,0,0,1,0,9.06,9.79,9.79,0,0,1-2,3.44,8.76,8.76,0,0,1-3.19,2.19,11.95,11.95,0,0,1-8.42,0,8.85,8.85,0,0,1-3.2-2.19,9.83,9.83,0,0,1-2-3.44,14.73,14.73,0,0,1,0-9.06,9.82,9.82,0,0,1,2-3.45,9,9,0,0,1,3.2-2.21A10.93,10.93,0,0,1,1013.59,91.66Zm0,19a5.46,5.46,0,0,0,4.7-2.11,9.77,9.77,0,0,0,1.55-5.89,9.86,9.86,0,0,0-1.55-5.92,5.45,5.45,0,0,0-4.7-2.12,6.52,6.52,0,0,0-2.77.55,5.19,5.19,0,0,0-2,1.58,7,7,0,0,0-1.18,2.53,14.95,14.95,0,0,0,0,6.77,6.89,6.89,0,0,0,1.18,2.51,5.24,5.24,0,0,0,2,1.56A6.52,6.52,0,0,0,1013.59,110.64Z" transform="translate(-2.7 44.45)"/><path class="cls-5" d="M1028.33,113.27V92h2.23a1,1,0,0,1,1,.78l.27,2.18a10.9,10.9,0,0,1,2.64-2.37,6.21,6.21,0,0,1,3.39-.92,5,5,0,0,1,3.5,1.2,6.73,6.73,0,0,1,1.92,3.23,6.64,6.64,0,0,1,1.17-2,6.76,6.76,0,0,1,1.63-1.39,6.93,6.93,0,0,1,1.92-.8,8.58,8.58,0,0,1,2.07-.25,7.88,7.88,0,0,1,3,.54,5.93,5.93,0,0,1,2.23,1.57,7,7,0,0,1,1.4,2.53,11.2,11.2,0,0,1,.48,3.43v13.54h-3.74V99.72a5.74,5.74,0,0,0-1.09-3.79,3.92,3.92,0,0,0-3.17-1.29,4.76,4.76,0,0,0-1.75.33,4.23,4.23,0,0,0-1.46,1,4.49,4.49,0,0,0-1,1.59,6.15,6.15,0,0,0-.37,2.22v13.54h-3.74V99.72a6,6,0,0,0-1-3.82,3.65,3.65,0,0,0-3-1.26,4.74,4.74,0,0,0-2.57.75,8.43,8.43,0,0,0-2.17,2v15.86Z" transform="translate(-2.7 44.45)"/><path class="cls-5" d="M1071.23,91.66a9.5,9.5,0,0,1,3.53.64,7.92,7.92,0,0,1,2.79,1.85,8.44,8.44,0,0,1,1.84,3,11.51,11.51,0,0,1,.66,4,2.44,2.44,0,0,1-.19,1.18.78.78,0,0,1-.71.29H1065a11.76,11.76,0,0,0,.55,3.51,7.17,7.17,0,0,0,1.39,2.49,5.55,5.55,0,0,0,2.1,1.49,7.21,7.21,0,0,0,2.73.49,8,8,0,0,0,2.43-.33,11.55,11.55,0,0,0,1.75-.7,13.29,13.29,0,0,0,1.23-.7,1.63,1.63,0,0,1,.85-.33.82.82,0,0,1,.71.36l1,1.37a7.1,7.1,0,0,1-1.66,1.46,10.39,10.39,0,0,1-2.07,1,13.27,13.27,0,0,1-2.28.6,13.94,13.94,0,0,1-2.33.2,10.81,10.81,0,0,1-4.06-.75,8.9,8.9,0,0,1-3.21-2.18,10,10,0,0,1-2.11-3.56,14.48,14.48,0,0,1-.76-4.87A12.4,12.4,0,0,1,1062,98a9.81,9.81,0,0,1,2-3.35,9,9,0,0,1,3.13-2.23A10.27,10.27,0,0,1,1071.23,91.66Zm.08,2.75a5.74,5.74,0,0,0-4.26,1.56,7.36,7.36,0,0,0-1.93,4.34h11.57a7.56,7.56,0,0,0-.36-2.38,5.32,5.32,0,0,0-1-1.87,4.71,4.71,0,0,0-1.69-1.22A5.7,5.7,0,0,0,1071.32,94.41Z" transform="translate(-2.7 44.45)"/><path class="cls-5" d="M401,170.87V142.4h2.23a1,1,0,0,1,1,.78l.32,2.52a11.36,11.36,0,0,1,3.12-2.67,8,8,0,0,1,4-1,7.69,7.69,0,0,1,3.32.7,6.84,6.84,0,0,1,2.54,2.08,10,10,0,0,1,1.62,3.41,17.52,17.52,0,0,1,.57,4.68,14.68,14.68,0,0,1-.63,4.38,10.64,10.64,0,0,1-1.81,3.51,8.43,8.43,0,0,1-2.89,2.33,8.54,8.54,0,0,1-3.85.85,7.94,7.94,0,0,1-3.37-.65,7.6,7.6,0,0,1-2.47-1.85v9.41ZM410.52,145a6,6,0,0,0-3.2.84,9.24,9.24,0,0,0-2.53,2.37v10.29a6,6,0,0,0,2.26,2,6.46,6.46,0,0,0,2.74.57,5.36,5.36,0,0,0,4.56-2.12,9.91,9.91,0,0,0,1.6-6,15.08,15.08,0,0,0-.37-3.57,7,7,0,0,0-1.06-2.45,4.13,4.13,0,0,0-1.7-1.4A5.66,5.66,0,0,0,410.52,145Z" transform="translate(-2.7 44.45)"/><path class="cls-5" d="M432.84,142.06a10.94,10.94,0,0,1,4.21.78,8.89,8.89,0,0,1,3.19,2.21,9.77,9.77,0,0,1,2,3.46,14.95,14.95,0,0,1,0,9.06,9.78,9.78,0,0,1-2,3.44,8.77,8.77,0,0,1-3.19,2.19,11.95,11.95,0,0,1-8.42,0,8.86,8.86,0,0,1-3.2-2.19,9.8,9.8,0,0,1-2-3.44,14.73,14.73,0,0,1,0-9.06,9.79,9.79,0,0,1,2-3.46,9,9,0,0,1,3.2-2.21A10.93,10.93,0,0,1,432.84,142.06Zm0,19a5.46,5.46,0,0,0,4.7-2.11,12,12,0,0,0,0-11.81,5.45,5.45,0,0,0-4.7-2.12,6.54,6.54,0,0,0-2.77.55,5.19,5.19,0,0,0-2,1.58,7,7,0,0,0-1.18,2.53,14.95,14.95,0,0,0,0,6.77,6.89,6.89,0,0,0,1.18,2.51,5.21,5.21,0,0,0,2,1.56A6.52,6.52,0,0,0,432.84,161Z" transform="translate(-2.7 44.45)"/><path class="cls-5" d="M452.58,135.72a2.37,2.37,0,0,1-.22,1,2.93,2.93,0,0,1-.59.84,2.72,2.72,0,0,1-.85.58,2.56,2.56,0,0,1-1,.21,2.48,2.48,0,0,1-1-.21,2.8,2.8,0,0,1-1.42-1.42,2.47,2.47,0,0,1-.21-1,2.63,2.63,0,0,1,.21-1,2.69,2.69,0,0,1,.58-.86,2.77,2.77,0,0,1,.84-.58,2.48,2.48,0,0,1,1-.21,2.56,2.56,0,0,1,1,.21,2.74,2.74,0,0,1,.85.58,2.85,2.85,0,0,1,.59.86A2.51,2.51,0,0,1,452.58,135.72Zm-.84,6.68v21.27H448V142.4Z" transform="translate(-2.7 44.45)"/><path class="cls-5" d="M458.33,163.67V142.4h2.23a1,1,0,0,1,1,.78l.29,2.31A11.94,11.94,0,0,1,465,143a8.06,8.06,0,0,1,4-.94,7.69,7.69,0,0,1,3.08.58,6,6,0,0,1,2.23,1.64,7.24,7.24,0,0,1,1.35,2.55,11.12,11.12,0,0,1,.46,3.3v13.54H472.3V150.12a5.73,5.73,0,0,0-1.1-3.75,4.12,4.12,0,0,0-3.37-1.33,6.29,6.29,0,0,0-3.1.8,10.21,10.21,0,0,0-2.66,2.16v15.67Z" transform="translate(-2.7 44.45)"/><path class="cls-5" d="M488.13,164a5.13,5.13,0,0,1-3.87-1.41,5.61,5.61,0,0,1-1.35-4.05v-13h-2.56a.84.84,0,0,1-.57-.2.78.78,0,0,1-.23-.62v-1.49l3.49-.44.86-6.57a.79.79,0,0,1,.27-.51.87.87,0,0,1,.59-.2h1.89v7.33h6.09v2.71h-6.09v12.77a2.71,2.71,0,0,0,.65,2,2.27,2.27,0,0,0,1.68.65,3,3,0,0,0,1-.16,4.35,4.35,0,0,0,.75-.35c.21-.13.39-.24.54-.35a.7.7,0,0,1,.39-.16.64.64,0,0,1,.52.36l1.09,1.79a7,7,0,0,1-2.33,1.42A7.9,7.9,0,0,1,488.13,164Z" transform="translate(-2.7 44.45)"/><path class="cls-5" d="M510.46,135.72a2.37,2.37,0,0,1-.22,1,2.93,2.93,0,0,1-.59.84,2.72,2.72,0,0,1-.85.58,2.56,2.56,0,0,1-1,.21,2.48,2.48,0,0,1-1-.21,2.8,2.8,0,0,1-1.42-1.42,2.47,2.47,0,0,1-.21-1,2.63,2.63,0,0,1,.21-1,2.69,2.69,0,0,1,.58-.86,2.77,2.77,0,0,1,.84-.58,2.48,2.48,0,0,1,1-.21,2.56,2.56,0,0,1,1,.21,2.74,2.74,0,0,1,.85.58,2.85,2.85,0,0,1,.59.86A2.51,2.51,0,0,1,510.46,135.72Zm-.84,6.68v21.27h-3.74V142.4Z" transform="translate(-2.7 44.45)"/><path class="cls-5" d="M516.21,163.67V142.4h2.23a1,1,0,0,1,1,.78l.29,2.31a11.93,11.93,0,0,1,3.1-2.48,8.05,8.05,0,0,1,4-.94,7.69,7.69,0,0,1,3.08.58,6,6,0,0,1,2.23,1.64,7.23,7.23,0,0,1,1.35,2.55,11.12,11.12,0,0,1,.46,3.3v13.54h-3.74V150.12a5.73,5.73,0,0,0-1.1-3.75A4.12,4.12,0,0,0,525.7,145a6.29,6.29,0,0,0-3.1.8,10.21,10.21,0,0,0-2.66,2.16v15.67Z" transform="translate(-2.7 44.45)"/><path class="cls-5" d="M547.67,163.67V142.4h2.23a1,1,0,0,1,1,.78l.27,2.18a10.91,10.91,0,0,1,2.63-2.37,6.2,6.2,0,0,1,3.39-.92,5,5,0,0,1,3.5,1.2,6.74,6.74,0,0,1,1.92,3.23,6.66,6.66,0,0,1,1.17-2,6.78,6.78,0,0,1,1.63-1.39,6.87,6.87,0,0,1,1.92-.8,8.58,8.58,0,0,1,2.07-.25,7.86,7.86,0,0,1,3,.54,5.94,5.94,0,0,1,2.23,1.56,7,7,0,0,1,1.4,2.53,11.23,11.23,0,0,1,.48,3.43v13.54h-3.74V150.12a5.73,5.73,0,0,0-1.09-3.79A3.92,3.92,0,0,0,568.5,145a4.74,4.74,0,0,0-1.75.33,4.22,4.22,0,0,0-1.46,1,4.47,4.47,0,0,0-1,1.58,6.15,6.15,0,0,0-.37,2.22v13.54h-3.74V150.12a6,6,0,0,0-1-3.82,3.65,3.65,0,0,0-3-1.26,4.74,4.74,0,0,0-2.57.75,8.42,8.42,0,0,0-2.17,2v15.85Z" transform="translate(-2.7 44.45)"/><path class="cls-5" d="M587.71,169.95a2,2,0,0,1-.47.67,1.28,1.28,0,0,1-.87.25H583.6l3.88-8.44-8.78-20h3.23a1.1,1.1,0,0,1,.76.24,1.52,1.52,0,0,1,.4.54l5.69,13.4a9.65,9.65,0,0,1,.33.92q.14.46.24.95l.29-.95q.15-.46.34-.95l5.52-13.38a1.2,1.2,0,0,1,.43-.56,1.1,1.1,0,0,1,.66-.22h3Z" transform="translate(-2.7 44.45)"/><path class="cls-5" d="M625.6,146.18a1.69,1.69,0,0,1-.34.36.8.8,0,0,1-.48.13,1.2,1.2,0,0,1-.68-.26,10,10,0,0,0-.93-.58,7.91,7.91,0,0,0-1.37-.58,7.31,7.31,0,0,0-4.74.29,5.33,5.33,0,0,0-2,1.61,7.26,7.26,0,0,0-1.22,2.54,12.59,12.59,0,0,0-.41,3.34,12.2,12.2,0,0,0,.44,3.43A7.43,7.43,0,0,0,615.1,159a5.26,5.26,0,0,0,1.94,1.55,6,6,0,0,0,2.57.54,6.55,6.55,0,0,0,2.25-.33,6.84,6.84,0,0,0,1.47-.72,11,11,0,0,0,1-.72,1.17,1.17,0,0,1,.76-.33.79.79,0,0,1,.71.36l1,1.37a8.09,8.09,0,0,1-3.46,2.49A12.28,12.28,0,0,1,619,164a9.3,9.3,0,0,1-3.71-.73,8.44,8.44,0,0,1-3-2.13,10.12,10.12,0,0,1-2-3.43,13.79,13.79,0,0,1-.72-4.64,14,14,0,0,1,.66-4.39,10,10,0,0,1,1.93-3.48,8.76,8.76,0,0,1,3.14-2.28,10.58,10.58,0,0,1,4.28-.82,10.1,10.1,0,0,1,3.95.72,9.43,9.43,0,0,1,3,2Z" transform="translate(-2.7 44.45)"/><path class="cls-5" d="M646.33,163.67h-1.66a2,2,0,0,1-.88-.17.93.93,0,0,1-.44-.71l-.42-2q-.84.76-1.64,1.35a9.44,9.44,0,0,1-1.68,1,8.72,8.72,0,0,1-1.88.62,10.8,10.8,0,0,1-2.21.21,7.55,7.55,0,0,1-2.32-.35,5.27,5.27,0,0,1-1.88-1,5,5,0,0,1-1.27-1.76,6.16,6.16,0,0,1-.47-2.52,4.71,4.71,0,0,1,.69-2.43,6.09,6.09,0,0,1,2.24-2.08,14.57,14.57,0,0,1,4-1.49,27.48,27.48,0,0,1,6.11-.58v-1.67a5.79,5.79,0,0,0-1.06-3.77,3.84,3.84,0,0,0-3.14-1.28,6.64,6.64,0,0,0-2.3.35,8.73,8.73,0,0,0-1.62.78q-.68.43-1.18.78a1.7,1.7,0,0,1-1,.35,1.12,1.12,0,0,1-.66-.2,1.53,1.53,0,0,1-.45-.49l-.67-1.2a12.14,12.14,0,0,1,3.8-2.54,11.74,11.74,0,0,1,4.51-.84,8.07,8.07,0,0,1,3.17.59,6.49,6.49,0,0,1,2.33,1.64,6.93,6.93,0,0,1,1.43,2.54,10.61,10.61,0,0,1,.48,3.28Zm-9.7-2.29a7.65,7.65,0,0,0,1.81-.2,7.1,7.1,0,0,0,1.54-.57,8.1,8.1,0,0,0,1.39-.89,12,12,0,0,0,1.29-1.2v-4.39a25,25,0,0,0-4.39.33,12.3,12.3,0,0,0-2.94.86,4.09,4.09,0,0,0-1.65,1.25,2.69,2.69,0,0,0-.51,1.61,3.55,3.55,0,0,0,.27,1.46,2.77,2.77,0,0,0,.73,1,2.92,2.92,0,0,0,1.09.57A5,5,0,0,0,636.62,161.38Z" transform="translate(-2.7 44.45)"/><path class="cls-5" d="M652,163.67V142.4h2.14a1.19,1.19,0,0,1,.84.23,1.42,1.42,0,0,1,.32.8l.25,3.32a9.73,9.73,0,0,1,2.7-3.48,6.36,6.36,0,0,1,5.37-1,5.56,5.56,0,0,1,1.32.56l-.48,2.79a.63.63,0,0,1-.65.52,3.24,3.24,0,0,1-.9-.2,5.7,5.7,0,0,0-1.7-.2,4.82,4.82,0,0,0-3.27,1.13,8.51,8.51,0,0,0-2.19,3.3v13.54Z" transform="translate(-2.7 44.45)"/><path class="cls-5" d="M677.34,142.06a9.48,9.48,0,0,1,3.53.64,7.92,7.92,0,0,1,2.79,1.85,8.43,8.43,0,0,1,1.84,3,11.52,11.52,0,0,1,.66,4,2.44,2.44,0,0,1-.19,1.18.78.78,0,0,1-.71.29H671.1a11.75,11.75,0,0,0,.55,3.51A7.17,7.17,0,0,0,673,159a5.54,5.54,0,0,0,2.1,1.49,7.21,7.21,0,0,0,2.73.49,8,8,0,0,0,2.43-.33A11.55,11.55,0,0,0,682,160a13.53,13.53,0,0,0,1.23-.7,1.63,1.63,0,0,1,.85-.33.82.82,0,0,1,.71.36l1,1.37a7.1,7.1,0,0,1-1.66,1.46,10.33,10.33,0,0,1-2.07,1,13.09,13.09,0,0,1-2.28.6,13.94,13.94,0,0,1-2.33.2,10.81,10.81,0,0,1-4.06-.75,8.9,8.9,0,0,1-3.21-2.18,10,10,0,0,1-2.11-3.56,14.48,14.48,0,0,1-.76-4.87,12.39,12.39,0,0,1,.68-4.16,9.8,9.8,0,0,1,2-3.35,9,9,0,0,1,3.13-2.23A10.27,10.27,0,0,1,677.34,142.06Zm.08,2.75a5.74,5.74,0,0,0-4.26,1.56,7.36,7.36,0,0,0-1.93,4.34H682.8a7.56,7.56,0,0,0-.36-2.38,5.31,5.31,0,0,0-1-1.87,4.7,4.7,0,0,0-1.69-1.22A5.72,5.72,0,0,0,677.43,144.81Z" transform="translate(-2.7 44.45)"/><path class="cls-5" d="M699.35,142.06a9.48,9.48,0,0,1,3.53.64,7.92,7.92,0,0,1,2.79,1.85,8.43,8.43,0,0,1,1.84,3,11.52,11.52,0,0,1,.66,4,2.44,2.44,0,0,1-.19,1.18.78.78,0,0,1-.71.29H693.11a11.75,11.75,0,0,0,.55,3.51A7.17,7.17,0,0,0,695,159a5.54,5.54,0,0,0,2.1,1.49,7.21,7.21,0,0,0,2.73.49,8,8,0,0,0,2.43-.33,11.55,11.55,0,0,0,1.75-.7,13.53,13.53,0,0,0,1.23-.7,1.63,1.63,0,0,1,.85-.33.82.82,0,0,1,.71.36l1,1.37a7.1,7.1,0,0,1-1.66,1.46,10.33,10.33,0,0,1-2.07,1,13.09,13.09,0,0,1-2.28.6,13.94,13.94,0,0,1-2.33.2,10.81,10.81,0,0,1-4.06-.75,8.9,8.9,0,0,1-3.21-2.18,10,10,0,0,1-2.11-3.56,14.48,14.48,0,0,1-.76-4.87,12.39,12.39,0,0,1,.68-4.16,9.8,9.8,0,0,1,2-3.35,9,9,0,0,1,3.13-2.23A10.27,10.27,0,0,1,699.35,142.06Zm.08,2.75a5.74,5.74,0,0,0-4.26,1.56,7.36,7.36,0,0,0-1.93,4.34h11.57a7.56,7.56,0,0,0-.36-2.38,5.31,5.31,0,0,0-1-1.87,4.7,4.7,0,0,0-1.69-1.22A5.72,5.72,0,0,0,699.43,144.81Z" transform="translate(-2.7 44.45)"/><path class="cls-5" d="M712.94,163.67V142.4h2.14a1.19,1.19,0,0,1,.84.23,1.42,1.42,0,0,1,.32.8l.25,3.32a9.73,9.73,0,0,1,2.7-3.48,6.36,6.36,0,0,1,5.37-1,5.56,5.56,0,0,1,1.32.56l-.48,2.79a.63.63,0,0,1-.65.52,3.24,3.24,0,0,1-.9-.2,5.7,5.7,0,0,0-1.7-.2,4.82,4.82,0,0,0-3.27,1.13,8.51,8.51,0,0,0-2.19,3.3v13.54Z" transform="translate(-2.7 44.45)"/><path class="cls-5" d="M725.87,161.36a2.66,2.66,0,0,1,.2-1,2.63,2.63,0,0,1,.55-.84,2.62,2.62,0,0,1,2.89-.57,2.71,2.71,0,0,1,.84.57,2.58,2.58,0,0,1,.56.84,2.67,2.67,0,0,1,.2,1,2.65,2.65,0,0,1-.2,1,2.61,2.61,0,0,1-.56.83,2.57,2.57,0,0,1-.84.56,2.76,2.76,0,0,1-2.06,0,2.44,2.44,0,0,1-.83-.56,2.66,2.66,0,0,1-.55-.83A2.63,2.63,0,0,1,725.87,161.36Z" transform="translate(-2.7 44.45)"/><path class="cls-5" d="M741.33,133.58h3.38a1.44,1.44,0,0,1,.9.27,1.34,1.34,0,0,1,.48.69l6.22,20.92q.17.57.3,1.22t.26,1.37q.15-.71.29-1.37a10.92,10.92,0,0,1,.34-1.21l7.08-20.92a1.54,1.54,0,0,1,.49-.66,1.35,1.35,0,0,1,.89-.3h1.18a1.4,1.4,0,0,1,.89.27,1.49,1.49,0,0,1,.49.69l7,20.92a20.62,20.62,0,0,1,.67,2.5q.13-.69.23-1.32a9.08,9.08,0,0,1,.27-1.18L779,134.54a1.31,1.31,0,0,1,.47-.67,1.38,1.38,0,0,1,.89-.29h3.17l-9.39,30.09h-3.65l-7.62-23a12.6,12.6,0,0,1-.42-1.51l-.2.81q-.09.39-.2.7l-7.67,23h-3.65Z" transform="translate(-2.7 44.45)"/><path class="cls-5" d="M786.9,163.67V132.74h3.74v12.52a11.48,11.48,0,0,1,3-2.32,8.1,8.1,0,0,1,3.82-.87,7.69,7.69,0,0,1,3.08.58,6,6,0,0,1,2.23,1.64,7.22,7.22,0,0,1,1.35,2.55,11.08,11.08,0,0,1,.46,3.3v13.54h-3.74V150.12a5.73,5.73,0,0,0-1.1-3.75,4.12,4.12,0,0,0-3.37-1.33,6.29,6.29,0,0,0-3.1.8,10.22,10.22,0,0,0-2.66,2.16v15.67Z" transform="translate(-2.7 44.45)"/><path class="cls-5" d="M825.87,163.67h-1.66a2,2,0,0,1-.88-.17.93.93,0,0,1-.44-.71l-.42-2q-.84.76-1.64,1.35a9.45,9.45,0,0,1-1.68,1,8.73,8.73,0,0,1-1.88.62,10.81,10.81,0,0,1-2.22.21,7.55,7.55,0,0,1-2.32-.35,5.27,5.27,0,0,1-1.88-1,5,5,0,0,1-1.27-1.76,6.17,6.17,0,0,1-.47-2.52,4.71,4.71,0,0,1,.69-2.43,6.09,6.09,0,0,1,2.24-2.08,14.56,14.56,0,0,1,4-1.49,27.47,27.47,0,0,1,6.11-.58v-1.67a5.79,5.79,0,0,0-1.06-3.77A3.84,3.84,0,0,0,818,145a6.64,6.64,0,0,0-2.3.35,8.73,8.73,0,0,0-1.62.78q-.68.43-1.18.78a1.69,1.69,0,0,1-1,.35,1.12,1.12,0,0,1-.66-.2,1.52,1.52,0,0,1-.45-.49l-.67-1.2a12.15,12.15,0,0,1,3.8-2.54,11.75,11.75,0,0,1,4.52-.84,8.06,8.06,0,0,1,3.17.59,6.5,6.5,0,0,1,2.33,1.64,6.94,6.94,0,0,1,1.43,2.54,10.58,10.58,0,0,1,.48,3.28Zm-9.7-2.29a7.64,7.64,0,0,0,1.81-.2,7.13,7.13,0,0,0,1.54-.57,8.13,8.13,0,0,0,1.39-.89,12,12,0,0,0,1.29-1.2v-4.39a25,25,0,0,0-4.39.33,12.32,12.32,0,0,0-2.94.86,4.1,4.1,0,0,0-1.65,1.25,2.69,2.69,0,0,0-.51,1.61,3.57,3.57,0,0,0,.27,1.46,2.76,2.76,0,0,0,.74,1,2.91,2.91,0,0,0,1.09.57A5,5,0,0,0,816.17,161.38Z" transform="translate(-2.7 44.45)"/><path class="cls-5" d="M838,164a5.13,5.13,0,0,1-3.87-1.41,5.61,5.61,0,0,1-1.35-4.05v-13H830.2a.84.84,0,0,1-.57-.2.78.78,0,0,1-.23-.62v-1.49l3.49-.44.86-6.57a.79.79,0,0,1,.27-.51.87.87,0,0,1,.59-.2h1.89v7.33h6.09v2.71H836.5v12.77a2.72,2.72,0,0,0,.65,2,2.27,2.27,0,0,0,1.68.65,3,3,0,0,0,1-.16,4.34,4.34,0,0,0,.75-.35c.21-.13.39-.24.54-.35a.7.7,0,0,1,.39-.16.64.64,0,0,1,.53.36l1.09,1.79a7,7,0,0,1-2.33,1.42A7.9,7.9,0,0,1,838,164Z" transform="translate(-2.7 44.45)"/><path class="cls-5" d="M870.94,163.67h-1.66a2,2,0,0,1-.88-.17.93.93,0,0,1-.44-.71l-.42-2q-.84.76-1.64,1.35a9.45,9.45,0,0,1-1.68,1,8.73,8.73,0,0,1-1.88.62,10.81,10.81,0,0,1-2.22.21,7.55,7.55,0,0,1-2.32-.35,5.27,5.27,0,0,1-1.88-1,5,5,0,0,1-1.27-1.76,6.17,6.17,0,0,1-.47-2.52,4.71,4.71,0,0,1,.69-2.43,6.09,6.09,0,0,1,2.24-2.08,14.56,14.56,0,0,1,4-1.49,27.47,27.47,0,0,1,6.11-.58v-1.67a5.79,5.79,0,0,0-1.06-3.77,3.84,3.84,0,0,0-3.14-1.28,6.64,6.64,0,0,0-2.3.35,8.73,8.73,0,0,0-1.62.78q-.68.43-1.18.78a1.69,1.69,0,0,1-1,.35,1.12,1.12,0,0,1-.66-.2,1.52,1.52,0,0,1-.45-.49l-.67-1.2a12.15,12.15,0,0,1,3.8-2.54,11.75,11.75,0,0,1,4.52-.84,8.06,8.06,0,0,1,3.17.59,6.5,6.5,0,0,1,2.33,1.64,6.94,6.94,0,0,1,1.43,2.54,10.58,10.58,0,0,1,.48,3.28Zm-9.7-2.29a7.64,7.64,0,0,0,1.81-.2,7.13,7.13,0,0,0,1.54-.57,8.13,8.13,0,0,0,1.39-.89,12,12,0,0,0,1.29-1.2v-4.39a25,25,0,0,0-4.39.33,12.32,12.32,0,0,0-2.94.86,4.1,4.1,0,0,0-1.65,1.25,2.69,2.69,0,0,0-.51,1.61,3.57,3.57,0,0,0,.27,1.46,2.76,2.76,0,0,0,.74,1,2.91,2.91,0,0,0,1.09.57A5,5,0,0,0,861.24,161.38Z" transform="translate(-2.7 44.45)"/><path class="cls-5" d="M876.61,163.67V142.4h2.14a1.19,1.19,0,0,1,.84.23,1.42,1.42,0,0,1,.32.8l.25,3.32a9.73,9.73,0,0,1,2.7-3.48,6.36,6.36,0,0,1,5.37-1,5.56,5.56,0,0,1,1.32.56l-.48,2.79a.63.63,0,0,1-.65.52,3.24,3.24,0,0,1-.9-.2,5.7,5.7,0,0,0-1.7-.2,4.82,4.82,0,0,0-3.27,1.13,8.51,8.51,0,0,0-2.19,3.3v13.54Z" transform="translate(-2.7 44.45)"/><path class="cls-5" d="M902,142.06a9.48,9.48,0,0,1,3.53.64,7.92,7.92,0,0,1,2.79,1.85,8.43,8.43,0,0,1,1.84,3,11.52,11.52,0,0,1,.66,4,2.44,2.44,0,0,1-.19,1.18.78.78,0,0,1-.71.29H895.72a11.75,11.75,0,0,0,.55,3.51,7.17,7.17,0,0,0,1.39,2.49,5.54,5.54,0,0,0,2.1,1.49,7.21,7.21,0,0,0,2.73.49,8,8,0,0,0,2.43-.33,11.55,11.55,0,0,0,1.75-.7,13.53,13.53,0,0,0,1.23-.7,1.63,1.63,0,0,1,.85-.33.82.82,0,0,1,.71.36l1,1.37a7.1,7.1,0,0,1-1.66,1.46,10.33,10.33,0,0,1-2.07,1,13.09,13.09,0,0,1-2.28.6,13.94,13.94,0,0,1-2.33.2,10.81,10.81,0,0,1-4.06-.75,8.9,8.9,0,0,1-3.21-2.18,10,10,0,0,1-2.11-3.56,14.48,14.48,0,0,1-.76-4.87,12.39,12.39,0,0,1,.68-4.16,9.8,9.8,0,0,1,2-3.35,9,9,0,0,1,3.13-2.23A10.27,10.27,0,0,1,902,142.06Zm.08,2.75a5.74,5.74,0,0,0-4.26,1.56,7.36,7.36,0,0,0-1.93,4.34h11.57a7.56,7.56,0,0,0-.36-2.38,5.31,5.31,0,0,0-1-1.87,4.7,4.7,0,0,0-1.69-1.22A5.72,5.72,0,0,0,902,144.81Z" transform="translate(-2.7 44.45)"/><path class="cls-5" d="M935.83,145.9a.83.83,0,0,1-.78.46,1.46,1.46,0,0,1-.71-.23q-.4-.23-1-.51a9.15,9.15,0,0,0-1.37-.53,6.56,6.56,0,0,0-1.89-.24,5.58,5.58,0,0,0-1.7.24,4.1,4.1,0,0,0-1.29.66,2.94,2.94,0,0,0-.82,1,2.63,2.63,0,0,0-.28,1.21,2,2,0,0,0,.47,1.37,4.11,4.11,0,0,0,1.25.94,10.87,10.87,0,0,0,1.76.7l2,.65q1,.35,2,.77a7.35,7.35,0,0,1,1.76,1,4.8,4.8,0,0,1,1.25,1.54,4.73,4.73,0,0,1,.47,2.19,7,7,0,0,1-.53,2.72,5.94,5.94,0,0,1-1.55,2.16,7.5,7.5,0,0,1-2.52,1.44A10.36,10.36,0,0,1,929,164a10.74,10.74,0,0,1-4-.72,10.21,10.21,0,0,1-3.07-1.86l.88-1.43a1.28,1.28,0,0,1,.4-.42,1.13,1.13,0,0,1,.61-.15,1.41,1.41,0,0,1,.8.29q.42.29,1,.65A7.83,7.83,0,0,0,927,161a6.6,6.6,0,0,0,2.13.29,5.83,5.83,0,0,0,1.91-.28,4,4,0,0,0,1.37-.77,3.06,3.06,0,0,0,.81-1.11,3.46,3.46,0,0,0,.26-1.34,2.23,2.23,0,0,0-.47-1.46,4,4,0,0,0-1.25-1,10.22,10.22,0,0,0-1.77-.71l-2-.64q-1-.34-2-.77a7.14,7.14,0,0,1-1.77-1.08,4.88,4.88,0,0,1-1.25-1.61,5.19,5.19,0,0,1-.47-2.32,5.66,5.66,0,0,1,.5-2.34,5.74,5.74,0,0,1,1.47-2,7.23,7.23,0,0,1,2.37-1.35,9.49,9.49,0,0,1,3.21-.5,10.15,10.15,0,0,1,3.77.66,8.94,8.94,0,0,1,2.89,1.82Z" transform="translate(-2.7 44.45)"/><path class="cls-5" d="M950.48,142.06a10.93,10.93,0,0,1,4.21.78,8.88,8.88,0,0,1,3.19,2.21,9.77,9.77,0,0,1,2,3.46,14.95,14.95,0,0,1,0,9.06,9.78,9.78,0,0,1-2,3.44,8.76,8.76,0,0,1-3.19,2.19,11.95,11.95,0,0,1-8.42,0,8.85,8.85,0,0,1-3.2-2.19,9.82,9.82,0,0,1-2-3.44,14.73,14.73,0,0,1,0-9.06,9.81,9.81,0,0,1,2-3.46,9,9,0,0,1,3.2-2.21A10.93,10.93,0,0,1,950.48,142.06Zm0,19a5.46,5.46,0,0,0,4.7-2.11,12,12,0,0,0,0-11.81,5.45,5.45,0,0,0-4.7-2.12,6.54,6.54,0,0,0-2.77.55,5.2,5.2,0,0,0-2,1.58,7,7,0,0,0-1.18,2.53,14.95,14.95,0,0,0,0,6.77,6.88,6.88,0,0,0,1.18,2.51,5.22,5.22,0,0,0,2,1.56A6.52,6.52,0,0,0,950.48,161Z" transform="translate(-2.7 44.45)"/><path class="cls-5" d="M965.23,163.67V142.4h2.23a1,1,0,0,1,1,.78l.27,2.18a10.9,10.9,0,0,1,2.64-2.37,6.2,6.2,0,0,1,3.39-.92,5,5,0,0,1,3.5,1.2,6.74,6.74,0,0,1,1.92,3.23,6.66,6.66,0,0,1,1.17-2,6.78,6.78,0,0,1,1.63-1.39,6.9,6.9,0,0,1,1.92-.8,8.58,8.58,0,0,1,2.07-.25,7.87,7.87,0,0,1,3,.54,5.94,5.94,0,0,1,2.23,1.56,7,7,0,0,1,1.4,2.53,11.2,11.2,0,0,1,.48,3.43v13.54h-3.74V150.12a5.73,5.73,0,0,0-1.09-3.79,3.92,3.92,0,0,0-3.17-1.29,4.74,4.74,0,0,0-1.75.33,4.23,4.23,0,0,0-1.46,1,4.48,4.48,0,0,0-1,1.58,6.15,6.15,0,0,0-.37,2.22v13.54h-3.74V150.12a6,6,0,0,0-1-3.82,3.65,3.65,0,0,0-3-1.26,4.74,4.74,0,0,0-2.57.75,8.42,8.42,0,0,0-2.17,2v15.85Z" transform="translate(-2.7 44.45)"/><path class="cls-5" d="M1008.13,142.06a9.48,9.48,0,0,1,3.53.64,7.92,7.92,0,0,1,2.79,1.85,8.43,8.43,0,0,1,1.84,3,11.52,11.52,0,0,1,.66,4,2.44,2.44,0,0,1-.19,1.18.78.78,0,0,1-.71.29h-14.15a11.75,11.75,0,0,0,.55,3.51,7.17,7.17,0,0,0,1.39,2.49,5.54,5.54,0,0,0,2.1,1.49,7.21,7.21,0,0,0,2.73.49,8,8,0,0,0,2.43-.33,11.55,11.55,0,0,0,1.75-.7,13.53,13.53,0,0,0,1.23-.7,1.63,1.63,0,0,1,.85-.33.82.82,0,0,1,.71.36l1,1.37a7.1,7.1,0,0,1-1.66,1.46,10.33,10.33,0,0,1-2.07,1,13.09,13.09,0,0,1-2.28.6,13.94,13.94,0,0,1-2.33.2,10.81,10.81,0,0,1-4.06-.75,8.9,8.9,0,0,1-3.21-2.18,10,10,0,0,1-2.11-3.56,14.48,14.48,0,0,1-.76-4.87,12.39,12.39,0,0,1,.68-4.16,9.8,9.8,0,0,1,2-3.35,9,9,0,0,1,3.13-2.23A10.27,10.27,0,0,1,1008.13,142.06Zm.08,2.75a5.74,5.74,0,0,0-4.26,1.56,7.36,7.36,0,0,0-1.93,4.34h11.57a7.56,7.56,0,0,0-.36-2.38,5.31,5.31,0,0,0-1-1.87,4.7,4.7,0,0,0-1.69-1.22A5.72,5.72,0,0,0,1008.21,144.81Z" transform="translate(-2.7 44.45)"/><path class="cls-5" d="M1029.82,170.87V142.4H1032a1,1,0,0,1,1,.78l.32,2.52a11.35,11.35,0,0,1,3.12-2.67,8,8,0,0,1,4-1,7.68,7.68,0,0,1,3.32.7,6.84,6.84,0,0,1,2.54,2.08,10,10,0,0,1,1.62,3.41,17.52,17.52,0,0,1,.57,4.68,14.68,14.68,0,0,1-.63,4.38,10.66,10.66,0,0,1-1.81,3.51,8.42,8.42,0,0,1-2.89,2.33,8.53,8.53,0,0,1-3.85.85,7.94,7.94,0,0,1-3.37-.65,7.6,7.6,0,0,1-2.47-1.85v9.41Zm9.47-25.83a6,6,0,0,0-3.2.84,9.24,9.24,0,0,0-2.53,2.37v10.29a6,6,0,0,0,2.26,2,6.46,6.46,0,0,0,2.74.57,5.36,5.36,0,0,0,4.56-2.12,9.91,9.91,0,0,0,1.6-6,15.14,15.14,0,0,0-.37-3.57,7,7,0,0,0-1.06-2.45,4.13,4.13,0,0,0-1.7-1.4A5.66,5.66,0,0,0,1039.29,145Z" transform="translate(-2.7 44.45)"/><path class="cls-5" d="M1068.63,163.67H1067a2,2,0,0,1-.88-.17.93.93,0,0,1-.44-.71l-.42-2q-.84.76-1.64,1.35a9.45,9.45,0,0,1-1.68,1,8.73,8.73,0,0,1-1.88.62,10.81,10.81,0,0,1-2.22.21,7.55,7.55,0,0,1-2.32-.35,5.27,5.27,0,0,1-1.88-1,5,5,0,0,1-1.27-1.76,6.17,6.17,0,0,1-.47-2.52,4.71,4.71,0,0,1,.69-2.43,6.09,6.09,0,0,1,2.24-2.08,14.56,14.56,0,0,1,4-1.49,27.47,27.47,0,0,1,6.11-.58v-1.67a5.79,5.79,0,0,0-1.06-3.77,3.84,3.84,0,0,0-3.14-1.28,6.64,6.64,0,0,0-2.3.35,8.73,8.73,0,0,0-1.62.78q-.68.43-1.18.78a1.69,1.69,0,0,1-1,.35,1.12,1.12,0,0,1-.66-.2,1.52,1.52,0,0,1-.45-.49l-.67-1.2a12.15,12.15,0,0,1,3.8-2.54,11.75,11.75,0,0,1,4.52-.84,8.06,8.06,0,0,1,3.17.59,6.5,6.5,0,0,1,2.33,1.64,6.94,6.94,0,0,1,1.43,2.54,10.58,10.58,0,0,1,.48,3.28Zm-9.7-2.29a7.64,7.64,0,0,0,1.81-.2,7.13,7.13,0,0,0,1.54-.57,8.13,8.13,0,0,0,1.39-.89,12,12,0,0,0,1.29-1.2v-4.39a25,25,0,0,0-4.39.33,12.32,12.32,0,0,0-2.94.86,4.1,4.1,0,0,0-1.65,1.25,2.69,2.69,0,0,0-.51,1.61,3.57,3.57,0,0,0,.27,1.46,2.76,2.76,0,0,0,.74,1,2.91,2.91,0,0,0,1.09.57A5,5,0,0,0,1058.93,161.38Z" transform="translate(-2.7 44.45)"/><path class="cls-5" d="M1080.75,164a5.13,5.13,0,0,1-3.87-1.41,5.61,5.61,0,0,1-1.35-4.05v-13H1073a.84.84,0,0,1-.57-.2.78.78,0,0,1-.23-.62v-1.49l3.49-.44.86-6.57a.79.79,0,0,1,.27-.51.87.87,0,0,1,.59-.2h1.89v7.33h6.09v2.71h-6.09v12.77a2.72,2.72,0,0,0,.65,2,2.27,2.27,0,0,0,1.68.65,3,3,0,0,0,1-.16,4.34,4.34,0,0,0,.75-.35c.21-.13.39-.24.54-.35a.7.7,0,0,1,.39-.16.64.64,0,0,1,.53.36l1.09,1.79a7,7,0,0,1-2.33,1.42A7.9,7.9,0,0,1,1080.75,164Z" transform="translate(-2.7 44.45)"/><path class="cls-5" d="M1090,163.67V132.74h3.74v12.52a11.48,11.48,0,0,1,3-2.32,8.1,8.1,0,0,1,3.82-.87,7.69,7.69,0,0,1,3.08.58,6,6,0,0,1,2.23,1.64,7.22,7.22,0,0,1,1.35,2.55,11.08,11.08,0,0,1,.46,3.3v13.54h-3.74V150.12a5.73,5.73,0,0,0-1.1-3.75,4.12,4.12,0,0,0-3.37-1.33,6.29,6.29,0,0,0-3.1.8,10.22,10.22,0,0,0-2.66,2.16v15.67Z" transform="translate(-2.7 44.45)"/><path class="cls-5" d="M1125.5,145.9a.83.83,0,0,1-.78.46,1.46,1.46,0,0,1-.71-.23q-.4-.23-1-.51a9.15,9.15,0,0,0-1.37-.53,6.56,6.56,0,0,0-1.89-.24,5.58,5.58,0,0,0-1.7.24,4.1,4.1,0,0,0-1.29.66,2.94,2.94,0,0,0-.82,1,2.63,2.63,0,0,0-.28,1.21,2,2,0,0,0,.47,1.37,4.11,4.11,0,0,0,1.25.94,10.87,10.87,0,0,0,1.76.7l2,.65q1,.35,2,.77a7.35,7.35,0,0,1,1.76,1,4.8,4.8,0,0,1,1.25,1.54,4.73,4.73,0,0,1,.47,2.19,7,7,0,0,1-.53,2.72,5.94,5.94,0,0,1-1.55,2.16,7.5,7.5,0,0,1-2.52,1.44,10.36,10.36,0,0,1-3.44.52,10.74,10.74,0,0,1-4-.72,10.21,10.21,0,0,1-3.07-1.86l.88-1.43a1.28,1.28,0,0,1,.4-.42,1.13,1.13,0,0,1,.61-.15,1.41,1.41,0,0,1,.8.29q.42.29,1,.65a7.83,7.83,0,0,0,1.45.65,6.6,6.6,0,0,0,2.13.29,5.83,5.83,0,0,0,1.91-.28,4,4,0,0,0,1.37-.77,3.06,3.06,0,0,0,.81-1.11,3.46,3.46,0,0,0,.26-1.34,2.23,2.23,0,0,0-.47-1.46,4,4,0,0,0-1.25-1,10.22,10.22,0,0,0-1.77-.71l-2-.64q-1-.34-2-.77a7.14,7.14,0,0,1-1.77-1.08,4.88,4.88,0,0,1-1.25-1.61,5.19,5.19,0,0,1-.47-2.32,5.66,5.66,0,0,1,.5-2.34,5.74,5.74,0,0,1,1.47-2,7.23,7.23,0,0,1,2.37-1.35,9.49,9.49,0,0,1,3.21-.5,10.15,10.15,0,0,1,3.77.66,8.94,8.94,0,0,1,2.89,1.82Z" transform="translate(-2.7 44.45)"/><path class="cls-5" d="M418.56,214.41a5.13,5.13,0,0,1-3.87-1.41,5.61,5.61,0,0,1-1.35-4.05v-13h-2.56a.84.84,0,0,1-.57-.2.77.77,0,0,1-.23-.62v-1.49l3.49-.44.86-6.57a.79.79,0,0,1,.27-.51.87.87,0,0,1,.59-.2h1.89v7.33h6.09v2.71h-6.09v12.77a2.72,2.72,0,0,0,.65,2,2.28,2.28,0,0,0,1.68.65,3,3,0,0,0,1-.16,4.42,4.42,0,0,0,.75-.35q.31-.19.54-.35a.7.7,0,0,1,.39-.16.64.64,0,0,1,.52.36l1.09,1.78a7,7,0,0,1-2.33,1.42A7.92,7.92,0,0,1,418.56,214.41Z" transform="translate(-2.7 44.45)"/><path class="cls-5" d="M436.39,192.46a10.94,10.94,0,0,1,4.21.78,8.88,8.88,0,0,1,3.19,2.21,9.78,9.78,0,0,1,2,3.45,14.95,14.95,0,0,1,0,9.06,9.79,9.79,0,0,1-2,3.44,8.77,8.77,0,0,1-3.19,2.19,11.95,11.95,0,0,1-8.42,0,8.86,8.86,0,0,1-3.2-2.19,9.81,9.81,0,0,1-2-3.44,14.73,14.73,0,0,1,0-9.06,9.79,9.79,0,0,1,2-3.45,9,9,0,0,1,3.2-2.21A10.93,10.93,0,0,1,436.39,192.46Zm0,19a5.46,5.46,0,0,0,4.7-2.11,12,12,0,0,0,0-11.81,5.45,5.45,0,0,0-4.7-2.12,6.52,6.52,0,0,0-2.77.55,5.18,5.18,0,0,0-2,1.58,7,7,0,0,0-1.18,2.53,14.95,14.95,0,0,0,0,6.77,6.89,6.89,0,0,0,1.18,2.51,5.23,5.23,0,0,0,2,1.56A6.52,6.52,0,0,0,436.39,211.44Z" transform="translate(-2.7 44.45)"/><path class="cls-5" d="M466.4,192.44a10.62,10.62,0,0,1,2.59.3,8.18,8.18,0,0,1,2.19.89H477V195q0,.69-.88.88l-2.42.34a6.47,6.47,0,0,1,.71,3,6.54,6.54,0,0,1-.6,2.82,6.4,6.4,0,0,1-1.66,2.17,7.45,7.45,0,0,1-2.52,1.39,10.14,10.14,0,0,1-3.2.48,10.75,10.75,0,0,1-2.81-.36,3.58,3.58,0,0,0-1,.93,1.72,1.72,0,0,0-.35,1,1.33,1.33,0,0,0,.61,1.18,4.25,4.25,0,0,0,1.62.58,13.64,13.64,0,0,0,2.29.17h2.61a14.5,14.5,0,0,1,2.61.23,7.94,7.94,0,0,1,2.29.77,4.27,4.27,0,0,1,1.62,1.47,4.37,4.37,0,0,1,.61,2.42,5.69,5.69,0,0,1-.68,2.68,7.24,7.24,0,0,1-2,2.31,10.07,10.07,0,0,1-3.13,1.62,13.37,13.37,0,0,1-4.18.61,16.09,16.09,0,0,1-4.08-.46,9.56,9.56,0,0,1-2.91-1.24,5.41,5.41,0,0,1-1.73-1.8,4.27,4.27,0,0,1-.58-2.13,3.85,3.85,0,0,1,1-2.68,6.84,6.84,0,0,1,2.74-1.75,3.76,3.76,0,0,1-1.44-1.12,3,3,0,0,1-.54-1.88,3,3,0,0,1,.17-1,3.75,3.75,0,0,1,.51-1,5.49,5.49,0,0,1,2-1.7,6.61,6.61,0,0,1-2.47-2.34,6.41,6.41,0,0,1-.89-3.41,6.54,6.54,0,0,1,.6-2.82,6.23,6.23,0,0,1,1.67-2.16,7.65,7.65,0,0,1,2.55-1.38A10.43,10.43,0,0,1,466.4,192.44ZM473,215.15a1.88,1.88,0,0,0-.44-1.31,2.84,2.84,0,0,0-1.2-.76,8.55,8.55,0,0,0-1.74-.4,16.06,16.06,0,0,0-2.08-.13h-2.23a8.08,8.08,0,0,1-2.16-.28,6.14,6.14,0,0,0-1.94,1.39,2.81,2.81,0,0,0-.75,2,2.57,2.57,0,0,0,.37,1.33A3.14,3.14,0,0,0,462,218a6.6,6.6,0,0,0,1.9.71,12.2,12.2,0,0,0,2.7.26,12,12,0,0,0,2.71-.28,6.75,6.75,0,0,0,2-.79,3.85,3.85,0,0,0,1.27-1.22A2.9,2.9,0,0,0,473,215.15Zm-6.64-11.47a5.89,5.89,0,0,0,2-.31,4.05,4.05,0,0,0,1.46-.88,3.62,3.62,0,0,0,.88-1.35,4.93,4.93,0,0,0,.29-1.73,4.14,4.14,0,0,0-1.19-3.11,5.71,5.71,0,0,0-6.89,0,4.14,4.14,0,0,0-1.19,3.11,4.77,4.77,0,0,0,.3,1.73,3.73,3.73,0,0,0,.89,1.35,4.06,4.06,0,0,0,1.45.88A5.73,5.73,0,0,0,466.4,203.67Z" transform="translate(-2.7 44.45)"/><path class="cls-5" d="M489.12,192.46a9.5,9.5,0,0,1,3.53.64,7.92,7.92,0,0,1,2.79,1.85,8.44,8.44,0,0,1,1.84,3,11.52,11.52,0,0,1,.66,4,2.44,2.44,0,0,1-.19,1.18.78.78,0,0,1-.71.29H482.88a11.74,11.74,0,0,0,.55,3.51,7.17,7.17,0,0,0,1.39,2.49,5.55,5.55,0,0,0,2.1,1.49,7.21,7.21,0,0,0,2.73.49,8,8,0,0,0,2.43-.33,11.55,11.55,0,0,0,1.75-.7,13.22,13.22,0,0,0,1.23-.7,1.63,1.63,0,0,1,.85-.33.82.82,0,0,1,.71.36l1.05,1.37a7.11,7.11,0,0,1-1.66,1.46,10.36,10.36,0,0,1-2.07,1,13.25,13.25,0,0,1-2.28.6,13.94,13.94,0,0,1-2.33.2,10.82,10.82,0,0,1-4.06-.75,8.91,8.91,0,0,1-3.21-2.18,10,10,0,0,1-2.11-3.56,14.48,14.48,0,0,1-.76-4.87,12.4,12.4,0,0,1,.68-4.16,9.81,9.81,0,0,1,2-3.35,9,9,0,0,1,3.13-2.23A10.27,10.27,0,0,1,489.12,192.46Zm.08,2.75a5.74,5.74,0,0,0-4.26,1.56,7.36,7.36,0,0,0-1.93,4.34h11.57a7.56,7.56,0,0,0-.36-2.38,5.32,5.32,0,0,0-1-1.87,4.71,4.71,0,0,0-1.69-1.22A5.7,5.7,0,0,0,489.2,195.21Z" transform="translate(-2.7 44.45)"/><path class="cls-5" d="M509.15,214.41a5.13,5.13,0,0,1-3.87-1.41,5.61,5.61,0,0,1-1.35-4.05v-13h-2.56a.84.84,0,0,1-.57-.2.77.77,0,0,1-.23-.62v-1.49l3.49-.44.86-6.57a.79.79,0,0,1,.27-.51.87.87,0,0,1,.59-.2h1.89v7.33h6.09v2.71h-6.09v12.77a2.72,2.72,0,0,0,.65,2,2.28,2.28,0,0,0,1.68.65,3,3,0,0,0,1-.16,4.42,4.42,0,0,0,.75-.35q.31-.19.54-.35a.7.7,0,0,1,.39-.16.64.64,0,0,1,.52.36l1.09,1.78a7,7,0,0,1-2.33,1.42A7.92,7.92,0,0,1,509.15,214.41Z" transform="translate(-2.7 44.45)"/><path class="cls-5" d="M532.92,214.41a5.12,5.12,0,0,1-3.87-1.41,5.61,5.61,0,0,1-1.35-4.05v-13h-2.56a.84.84,0,0,1-.57-.2.78.78,0,0,1-.23-.62v-1.49l3.49-.44.86-6.57a.79.79,0,0,1,.27-.51.87.87,0,0,1,.59-.2h1.89v7.33h6.09v2.71h-6.09v12.77a2.72,2.72,0,0,0,.65,2,2.27,2.27,0,0,0,1.68.65,3,3,0,0,0,1-.16,4.41,4.41,0,0,0,.75-.35c.21-.13.39-.24.54-.35a.7.7,0,0,1,.39-.16.64.64,0,0,1,.52.36l1.09,1.78a7,7,0,0,1-2.33,1.42A7.92,7.92,0,0,1,532.92,214.41Z" transform="translate(-2.7 44.45)"/><path class="cls-5" d="M542.14,214.07V183.14h3.74v12.52a11.46,11.46,0,0,1,3-2.32,8.1,8.1,0,0,1,3.82-.87,7.68,7.68,0,0,1,3.08.58,6,6,0,0,1,2.23,1.64,7.25,7.25,0,0,1,1.35,2.55,11.12,11.12,0,0,1,.46,3.3v13.54h-3.74V200.52a5.73,5.73,0,0,0-1.1-3.75,4.12,4.12,0,0,0-3.37-1.33,6.28,6.28,0,0,0-3.1.8,10.19,10.19,0,0,0-2.66,2.16v15.67Z" transform="translate(-2.7 44.45)"/><path class="cls-5" d="M573.92,192.46a9.5,9.5,0,0,1,3.53.64,7.92,7.92,0,0,1,2.79,1.85,8.44,8.44,0,0,1,1.84,3,11.53,11.53,0,0,1,.66,4,2.44,2.44,0,0,1-.19,1.18.79.79,0,0,1-.71.29H567.68a11.73,11.73,0,0,0,.55,3.51,7.17,7.17,0,0,0,1.39,2.49,5.55,5.55,0,0,0,2.1,1.49,7.21,7.21,0,0,0,2.73.49,8,8,0,0,0,2.43-.33,11.54,11.54,0,0,0,1.75-.7,13.16,13.16,0,0,0,1.23-.7,1.63,1.63,0,0,1,.85-.33.82.82,0,0,1,.71.36l1.05,1.37a7.12,7.12,0,0,1-1.66,1.46,10.39,10.39,0,0,1-2.07,1,13.26,13.26,0,0,1-2.28.6,13.93,13.93,0,0,1-2.33.2,10.82,10.82,0,0,1-4.06-.75,8.91,8.91,0,0,1-3.21-2.18,10,10,0,0,1-2.11-3.56A14.48,14.48,0,0,1,564,203a12.4,12.4,0,0,1,.68-4.16,9.81,9.81,0,0,1,2-3.35,9,9,0,0,1,3.13-2.23A10.26,10.26,0,0,1,573.92,192.46Zm.08,2.75a5.74,5.74,0,0,0-4.26,1.56,7.36,7.36,0,0,0-1.93,4.34h11.57a7.57,7.57,0,0,0-.36-2.38,5.32,5.32,0,0,0-1-1.87,4.71,4.71,0,0,0-1.69-1.22A5.7,5.7,0,0,0,574,195.21Z" transform="translate(-2.7 44.45)"/><path class="cls-5" d="M587.5,214.07V192.8h2.14a1.18,1.18,0,0,1,.84.23,1.41,1.41,0,0,1,.32.8l.25,3.32a9.73,9.73,0,0,1,2.7-3.48,6.36,6.36,0,0,1,5.37-1.05,5.63,5.63,0,0,1,1.32.56L600,196a.63.63,0,0,1-.65.53,3.27,3.27,0,0,1-.9-.2,5.7,5.7,0,0,0-1.7-.2,4.81,4.81,0,0,0-3.27,1.13,8.51,8.51,0,0,0-2.19,3.3v13.54Z" transform="translate(-2.7 44.45)"/><path class="cls-5" d="M612.85,192.46a9.51,9.51,0,0,1,3.53.64,7.93,7.93,0,0,1,2.79,1.85,8.44,8.44,0,0,1,1.84,3,11.51,11.51,0,0,1,.66,4,2.44,2.44,0,0,1-.19,1.18.78.78,0,0,1-.71.29H606.61a11.76,11.76,0,0,0,.55,3.51,7.17,7.17,0,0,0,1.39,2.49,5.55,5.55,0,0,0,2.1,1.49,7.21,7.21,0,0,0,2.73.49,8,8,0,0,0,2.42-.33,11.55,11.55,0,0,0,1.75-.7,13.29,13.29,0,0,0,1.23-.7,1.63,1.63,0,0,1,.85-.33.82.82,0,0,1,.71.36l1,1.37a7.1,7.1,0,0,1-1.66,1.46,10.34,10.34,0,0,1-2.07,1,13.25,13.25,0,0,1-2.28.6,13.94,13.94,0,0,1-2.33.2,10.82,10.82,0,0,1-4.06-.75,8.91,8.91,0,0,1-3.21-2.18,10,10,0,0,1-2.11-3.56,14.48,14.48,0,0,1-.76-4.87,12.4,12.4,0,0,1,.68-4.16,9.81,9.81,0,0,1,2-3.35,9,9,0,0,1,3.13-2.23A10.27,10.27,0,0,1,612.85,192.46Zm.08,2.75a5.74,5.74,0,0,0-4.26,1.56,7.36,7.36,0,0,0-1.93,4.34h11.57a7.56,7.56,0,0,0-.36-2.38,5.32,5.32,0,0,0-1-1.87,4.71,4.71,0,0,0-1.69-1.22A5.7,5.7,0,0,0,612.93,195.21Z" transform="translate(-2.7 44.45)"/><path class="cls-5" d="M624.08,186.66a12.59,12.59,0,0,1,1.44-1.16,10.83,10.83,0,0,1,1.72-1,10.52,10.52,0,0,1,2-.66,10.72,10.72,0,0,1,2.34-.24,9.48,9.48,0,0,1,3.08.48,7.38,7.38,0,0,1,2.45,1.37,6.3,6.3,0,0,1,1.62,2.14,6.63,6.63,0,0,1,.59,2.83,7.24,7.24,0,0,1-.47,2.75,7.69,7.69,0,0,1-1.2,2,9.21,9.21,0,0,1-1.58,1.51L634.47,198a10.46,10.46,0,0,0-1.28,1.13,2.19,2.19,0,0,0-.62,1.26l-.38,3.21h-2.56l-.25-3.49v-.23a2.68,2.68,0,0,1,.47-1.57A6.39,6.39,0,0,1,631,197q.73-.6,1.55-1.2a12.77,12.77,0,0,0,1.55-1.32,6.49,6.49,0,0,0,1.2-1.65,4.74,4.74,0,0,0,.47-2.18,3.7,3.7,0,0,0-.36-1.64,3.78,3.78,0,0,0-1-1.25,4.27,4.27,0,0,0-1.44-.79,5.63,5.63,0,0,0-1.77-.27,6.76,6.76,0,0,0-2.19.32,8.22,8.22,0,0,0-1.54.69,9,9,0,0,0-1,.69,1.13,1.13,0,0,1-.64.31.91.91,0,0,1-.82-.48Zm4.12,25.09a2.68,2.68,0,0,1,.75-1.87,2.62,2.62,0,0,1,2.89-.57,2.71,2.71,0,0,1,.84.57,2.56,2.56,0,0,1,.56.84,2.78,2.78,0,0,1,0,2.07,2.59,2.59,0,0,1-.56.83,2.55,2.55,0,0,1-.84.56,2.76,2.76,0,0,1-2.06,0,2.44,2.44,0,0,1-.83-.56,2.63,2.63,0,0,1-.75-1.87Z" transform="translate(-2.7 44.45)"/><path class="cls-5" d="M648.49,184h3.38a1.45,1.45,0,0,1,.9.27,1.34,1.34,0,0,1,.48.69l6.22,20.92q.17.57.3,1.22t.26,1.37q.15-.71.29-1.38a11,11,0,0,1,.34-1.21l7.08-20.92a1.54,1.54,0,0,1,.49-.66,1.35,1.35,0,0,1,.89-.3h1.18a1.4,1.4,0,0,1,.89.27,1.49,1.49,0,0,1,.49.69l7,20.92a20.53,20.53,0,0,1,.67,2.5q.13-.69.23-1.32a9.08,9.08,0,0,1,.27-1.18l6.24-20.92a1.31,1.31,0,0,1,.47-.67,1.38,1.38,0,0,1,.89-.29h3.17l-9.39,30.09h-3.65l-7.62-23a12.6,12.6,0,0,1-.42-1.51l-.2.81q-.09.39-.2.7l-7.67,23h-3.65Z" transform="translate(-2.7 44.45)"/><path class="cls-5" d="M694.06,214.07V183.14h3.74v12.52a11.48,11.48,0,0,1,3-2.32,8.1,8.1,0,0,1,3.82-.87,7.69,7.69,0,0,1,3.08.58,6,6,0,0,1,2.23,1.64,7.22,7.22,0,0,1,1.35,2.55,11.08,11.08,0,0,1,.46,3.3v13.54H708V200.52a5.73,5.73,0,0,0-1.1-3.75,4.12,4.12,0,0,0-3.37-1.33,6.28,6.28,0,0,0-3.1.8,10.2,10.2,0,0,0-2.66,2.16v15.67Z" transform="translate(-2.7 44.45)"/><path class="cls-5" d="M733,214.07h-1.66a2,2,0,0,1-.88-.17.93.93,0,0,1-.44-.71l-.42-2q-.84.76-1.64,1.35a9.33,9.33,0,0,1-1.68,1,8.67,8.67,0,0,1-1.88.62,10.81,10.81,0,0,1-2.22.21,7.55,7.55,0,0,1-2.32-.35,5.27,5.27,0,0,1-1.88-1,5,5,0,0,1-1.27-1.76,6.18,6.18,0,0,1-.47-2.52,4.71,4.71,0,0,1,.69-2.43,6.09,6.09,0,0,1,2.24-2.08,14.53,14.53,0,0,1,4-1.49,27.54,27.54,0,0,1,6.11-.58v-1.67a5.79,5.79,0,0,0-1.06-3.77,3.84,3.84,0,0,0-3.14-1.28,6.64,6.64,0,0,0-2.3.35,8.73,8.73,0,0,0-1.62.78q-.68.43-1.18.78a1.7,1.7,0,0,1-1,.35,1.11,1.11,0,0,1-.66-.2A1.51,1.51,0,0,1,718,197l-.67-1.2a12.16,12.16,0,0,1,3.8-2.54,11.75,11.75,0,0,1,4.52-.84,8.06,8.06,0,0,1,3.17.59,6.51,6.51,0,0,1,2.33,1.64,6.94,6.94,0,0,1,1.43,2.54,10.57,10.57,0,0,1,.48,3.28Zm-9.7-2.29a7.64,7.64,0,0,0,1.81-.2,7.18,7.18,0,0,0,1.54-.57,8.19,8.19,0,0,0,1.39-.89,12,12,0,0,0,1.29-1.2v-4.39a25.12,25.12,0,0,0-4.39.33,12.32,12.32,0,0,0-2.94.86,4.11,4.11,0,0,0-1.65,1.25,2.7,2.7,0,0,0-.51,1.61,3.57,3.57,0,0,0,.27,1.46,2.75,2.75,0,0,0,.74,1,2.88,2.88,0,0,0,1.09.57A5,5,0,0,0,723.33,211.78Z" transform="translate(-2.7 44.45)"/><path class="cls-5" d="M745.15,214.41a5.12,5.12,0,0,1-3.87-1.41,5.61,5.61,0,0,1-1.35-4.05v-13h-2.56a.84.84,0,0,1-.57-.2.77.77,0,0,1-.23-.62v-1.49l3.49-.44.86-6.57a.79.79,0,0,1,.27-.51.87.87,0,0,1,.59-.2h1.89v7.33h6.09v2.71h-6.09v12.77a2.72,2.72,0,0,0,.65,2,2.27,2.27,0,0,0,1.68.65,3,3,0,0,0,1-.16,4.41,4.41,0,0,0,.75-.35q.31-.19.54-.35a.7.7,0,0,1,.39-.16.64.64,0,0,1,.53.36l1.09,1.78a7,7,0,0,1-2.33,1.42A7.92,7.92,0,0,1,745.15,214.41Z" transform="translate(-2.7 44.45)"/><path class="cls-5" d="M757,182.4a7.94,7.94,0,0,1,.88,2,7.69,7.69,0,0,1,.27,2,7.56,7.56,0,0,1-.93,3.64,11.46,11.46,0,0,1-2.59,3.18l-1.16-.71a.52.52,0,0,1-.22-.23.65.65,0,0,1-.05-.25.69.69,0,0,1,.21-.5,9.49,9.49,0,0,0,.65-.87,8.57,8.57,0,0,0,.57-1,5.68,5.68,0,0,0,.4-1.08,4.77,4.77,0,0,0,.15-1.2A5.11,5.11,0,0,0,755,186a6.18,6.18,0,0,0-.68-1.51.85.85,0,0,1-.15-.46.77.77,0,0,1,.57-.74Z" transform="translate(-2.7 44.45)"/><path class="cls-5" d="M775.45,196.3a.83.83,0,0,1-.78.46,1.46,1.46,0,0,1-.71-.23q-.4-.23-1-.51a9.26,9.26,0,0,0-1.37-.53,6.59,6.59,0,0,0-1.89-.24,5.61,5.61,0,0,0-1.7.24,4.09,4.09,0,0,0-1.29.66,2.93,2.93,0,0,0-.82,1,2.63,2.63,0,0,0-.28,1.21,2,2,0,0,0,.47,1.37,4.09,4.09,0,0,0,1.25.95,11,11,0,0,0,1.76.7l2,.65q1,.35,2,.77a7.35,7.35,0,0,1,1.76,1,4.81,4.81,0,0,1,1.25,1.54,4.73,4.73,0,0,1,.47,2.2,7,7,0,0,1-.53,2.72,5.93,5.93,0,0,1-1.55,2.16,7.49,7.49,0,0,1-2.52,1.44,10.36,10.36,0,0,1-3.44.53,10.74,10.74,0,0,1-4-.72,10.23,10.23,0,0,1-3.07-1.86l.88-1.43a1.29,1.29,0,0,1,.4-.42,1.13,1.13,0,0,1,.61-.15,1.41,1.41,0,0,1,.8.29q.42.29,1,.65a7.77,7.77,0,0,0,1.45.65,6.6,6.6,0,0,0,2.13.29,5.83,5.83,0,0,0,1.91-.28,4,4,0,0,0,1.37-.77,3.06,3.06,0,0,0,.81-1.11,3.46,3.46,0,0,0,.26-1.34,2.23,2.23,0,0,0-.47-1.46,4,4,0,0,0-1.25-1,10.14,10.14,0,0,0-1.77-.71l-2-.64q-1-.34-2-.77a7.17,7.17,0,0,1-1.77-1.08,4.91,4.91,0,0,1-1.25-1.61,5.19,5.19,0,0,1-.47-2.32,5.66,5.66,0,0,1,.5-2.34,5.75,5.75,0,0,1,1.47-2,7.25,7.25,0,0,1,2.37-1.35,9.49,9.49,0,0,1,3.21-.5,10.15,10.15,0,0,1,3.77.66,8.91,8.91,0,0,1,2.89,1.82Z" transform="translate(-2.7 44.45)"/><path class="cls-5" d="M796,214.41a5.12,5.12,0,0,1-3.87-1.41,5.61,5.61,0,0,1-1.35-4.05v-13h-2.56a.84.84,0,0,1-.57-.2.77.77,0,0,1-.23-.62v-1.49l3.49-.44.86-6.57a.79.79,0,0,1,.27-.51.87.87,0,0,1,.59-.2h1.89v7.33h6.09v2.71h-6.09v12.77a2.72,2.72,0,0,0,.65,2,2.27,2.27,0,0,0,1.68.65,3,3,0,0,0,1-.16,4.41,4.41,0,0,0,.75-.35q.31-.19.54-.35a.7.7,0,0,1,.39-.16.64.64,0,0,1,.53.36l1.09,1.78a7,7,0,0,1-2.33,1.42A7.92,7.92,0,0,1,796,214.41Z" transform="translate(-2.7 44.45)"/><path class="cls-5" d="M805.27,214.07V183.14H809v12.52a11.48,11.48,0,0,1,3-2.32,8.1,8.1,0,0,1,3.82-.87,7.69,7.69,0,0,1,3.08.58,6,6,0,0,1,2.23,1.64,7.22,7.22,0,0,1,1.35,2.55,11.08,11.08,0,0,1,.46,3.3v13.54h-3.74V200.52a5.73,5.73,0,0,0-1.1-3.75,4.12,4.12,0,0,0-3.37-1.33,6.28,6.28,0,0,0-3.1.8A10.2,10.2,0,0,0,809,198.4v15.67Z" transform="translate(-2.7 44.45)"/><path class="cls-5" d="M837,192.46a9.5,9.5,0,0,1,3.53.64,7.92,7.92,0,0,1,2.79,1.85,8.44,8.44,0,0,1,1.84,3,11.51,11.51,0,0,1,.66,4,2.44,2.44,0,0,1-.19,1.18.78.78,0,0,1-.71.29H830.8a11.76,11.76,0,0,0,.55,3.51,7.17,7.17,0,0,0,1.39,2.49,5.55,5.55,0,0,0,2.1,1.49,7.21,7.21,0,0,0,2.73.49,8,8,0,0,0,2.43-.33,11.55,11.55,0,0,0,1.75-.7,13.29,13.29,0,0,0,1.23-.7,1.63,1.63,0,0,1,.85-.33.82.82,0,0,1,.71.36l1,1.37a7.1,7.1,0,0,1-1.66,1.46,10.39,10.39,0,0,1-2.07,1,13.27,13.27,0,0,1-2.28.6,13.94,13.94,0,0,1-2.33.2,10.81,10.81,0,0,1-4.06-.75,8.9,8.9,0,0,1-3.21-2.18,10,10,0,0,1-2.11-3.56,14.48,14.48,0,0,1-.76-4.87,12.4,12.4,0,0,1,.68-4.16,9.81,9.81,0,0,1,2-3.35,9,9,0,0,1,3.13-2.23A10.27,10.27,0,0,1,837,192.46Zm.08,2.75a5.74,5.74,0,0,0-4.26,1.56,7.36,7.36,0,0,0-1.93,4.34H842.5a7.56,7.56,0,0,0-.36-2.38,5.32,5.32,0,0,0-1-1.87,4.71,4.71,0,0,0-1.69-1.22A5.7,5.7,0,0,0,837.12,195.21Z" transform="translate(-2.7 44.45)"/><path class="cls-5" d="M870.91,196.3a.83.83,0,0,1-.78.46,1.46,1.46,0,0,1-.71-.23q-.4-.23-1-.51a9.26,9.26,0,0,0-1.37-.53,6.59,6.59,0,0,0-1.89-.24,5.61,5.61,0,0,0-1.7.24,4.09,4.09,0,0,0-1.29.66,2.93,2.93,0,0,0-.82,1,2.63,2.63,0,0,0-.28,1.21,2,2,0,0,0,.47,1.37,4.09,4.09,0,0,0,1.25.95,11,11,0,0,0,1.76.7l2,.65q1,.35,2,.77a7.35,7.35,0,0,1,1.76,1,4.81,4.81,0,0,1,1.25,1.54,4.73,4.73,0,0,1,.47,2.2,7,7,0,0,1-.53,2.72,5.93,5.93,0,0,1-1.55,2.16,7.49,7.49,0,0,1-2.52,1.44,10.36,10.36,0,0,1-3.44.53,10.74,10.74,0,0,1-4-.72,10.23,10.23,0,0,1-3.07-1.86l.88-1.43a1.29,1.29,0,0,1,.4-.42,1.13,1.13,0,0,1,.61-.15,1.41,1.41,0,0,1,.8.29q.42.29,1,.65a7.77,7.77,0,0,0,1.45.65,6.6,6.6,0,0,0,2.13.29,5.83,5.83,0,0,0,1.91-.28,4,4,0,0,0,1.37-.77,3.06,3.06,0,0,0,.81-1.11,3.46,3.46,0,0,0,.26-1.34,2.23,2.23,0,0,0-.47-1.46,4,4,0,0,0-1.25-1,10.14,10.14,0,0,0-1.77-.71l-2-.64q-1-.34-2-.77a7.17,7.17,0,0,1-1.77-1.08A4.91,4.91,0,0,1,858,201a5.19,5.19,0,0,1-.47-2.32,5.66,5.66,0,0,1,.5-2.34,5.75,5.75,0,0,1,1.47-2,7.25,7.25,0,0,1,2.37-1.35,9.49,9.49,0,0,1,3.21-.5,10.15,10.15,0,0,1,3.77.66,8.91,8.91,0,0,1,2.89,1.82Z" transform="translate(-2.7 44.45)"/><path class="cls-5" d="M877,214.07V183.14h3.74v12.52a11.48,11.48,0,0,1,3-2.32,8.1,8.1,0,0,1,3.82-.87,7.69,7.69,0,0,1,3.08.58,6,6,0,0,1,2.23,1.64,7.22,7.22,0,0,1,1.35,2.55,11.08,11.08,0,0,1,.46,3.3v13.54h-3.74V200.52a5.73,5.73,0,0,0-1.1-3.75,4.12,4.12,0,0,0-3.37-1.33,6.28,6.28,0,0,0-3.1.8,10.2,10.2,0,0,0-2.66,2.16v15.67Z" transform="translate(-2.7 44.45)"/><path class="cls-5" d="M908.92,192.46a10.93,10.93,0,0,1,4.21.78,8.87,8.87,0,0,1,3.19,2.21,9.78,9.78,0,0,1,2,3.45,14.95,14.95,0,0,1,0,9.06,9.79,9.79,0,0,1-2,3.44,8.76,8.76,0,0,1-3.19,2.19,11.95,11.95,0,0,1-8.42,0,8.85,8.85,0,0,1-3.2-2.19,9.83,9.83,0,0,1-2-3.44,14.73,14.73,0,0,1,0-9.06,9.82,9.82,0,0,1,2-3.45,9,9,0,0,1,3.2-2.21A10.93,10.93,0,0,1,908.92,192.46Zm0,19a5.46,5.46,0,0,0,4.7-2.11,12,12,0,0,0,0-11.81,5.45,5.45,0,0,0-4.7-2.12,6.52,6.52,0,0,0-2.77.55,5.19,5.19,0,0,0-2,1.58,7,7,0,0,0-1.18,2.53,14.95,14.95,0,0,0,0,6.77,6.89,6.89,0,0,0,1.18,2.51,5.24,5.24,0,0,0,2,1.56A6.52,6.52,0,0,0,908.92,211.44Z" transform="translate(-2.7 44.45)"/><path class="cls-5" d="M923.66,214.07V192.8h2.14a1.18,1.18,0,0,1,.84.23,1.42,1.42,0,0,1,.32.8l.25,3.32a9.72,9.72,0,0,1,2.7-3.48,6.36,6.36,0,0,1,5.37-1.05,5.64,5.64,0,0,1,1.32.56l-.48,2.79a.63.63,0,0,1-.65.53,3.27,3.27,0,0,1-.9-.2,5.7,5.7,0,0,0-1.7-.2,4.82,4.82,0,0,0-3.27,1.13,8.51,8.51,0,0,0-2.19,3.3v13.54Z" transform="translate(-2.7 44.45)"/><path class="cls-5" d="M947,214.41a5.12,5.12,0,0,1-3.87-1.41,5.61,5.61,0,0,1-1.35-4.05v-13h-2.56a.84.84,0,0,1-.57-.2.77.77,0,0,1-.23-.62v-1.49l3.49-.44.86-6.57a.79.79,0,0,1,.27-.51.87.87,0,0,1,.59-.2h1.89v7.33h6.09v2.71h-6.09v12.77a2.72,2.72,0,0,0,.65,2,2.27,2.27,0,0,0,1.68.65,3,3,0,0,0,1-.16,4.41,4.41,0,0,0,.75-.35q.31-.19.54-.35a.7.7,0,0,1,.39-.16.64.64,0,0,1,.53.36l1.09,1.78a7,7,0,0,1-2.33,1.42A7.92,7.92,0,0,1,947,214.41Z" transform="translate(-2.7 44.45)"/><path class="cls-5" d="M964.67,192.46a9.5,9.5,0,0,1,3.53.64,7.92,7.92,0,0,1,2.79,1.85,8.44,8.44,0,0,1,1.84,3,11.51,11.51,0,0,1,.66,4,2.44,2.44,0,0,1-.19,1.18.78.78,0,0,1-.71.29H958.44A11.76,11.76,0,0,0,959,207a7.17,7.17,0,0,0,1.39,2.49,5.55,5.55,0,0,0,2.1,1.49,7.21,7.21,0,0,0,2.73.49,8,8,0,0,0,2.43-.33,11.55,11.55,0,0,0,1.75-.7,13.29,13.29,0,0,0,1.23-.7,1.63,1.63,0,0,1,.85-.33.82.82,0,0,1,.71.36l1,1.37a7.1,7.1,0,0,1-1.66,1.46,10.39,10.39,0,0,1-2.07,1,13.27,13.27,0,0,1-2.28.6,13.94,13.94,0,0,1-2.33.2,10.81,10.81,0,0,1-4.06-.75,8.9,8.9,0,0,1-3.21-2.18,10,10,0,0,1-2.11-3.56,14.48,14.48,0,0,1-.76-4.87,12.4,12.4,0,0,1,.68-4.16,9.81,9.81,0,0,1,2-3.35,9,9,0,0,1,3.13-2.23A10.27,10.27,0,0,1,964.67,192.46Zm.08,2.75a5.74,5.74,0,0,0-4.26,1.56,7.36,7.36,0,0,0-1.93,4.34h11.57a7.56,7.56,0,0,0-.36-2.38,5.32,5.32,0,0,0-1-1.87,4.71,4.71,0,0,0-1.69-1.22A5.7,5.7,0,0,0,964.76,195.21Z" transform="translate(-2.7 44.45)"/><path class="cls-5" d="M990.44,196.3a.83.83,0,0,1-.78.46,1.46,1.46,0,0,1-.71-.23q-.4-.23-1-.51a9.26,9.26,0,0,0-1.37-.53,6.59,6.59,0,0,0-1.89-.24,5.61,5.61,0,0,0-1.7.24,4.09,4.09,0,0,0-1.29.66,2.93,2.93,0,0,0-.82,1,2.63,2.63,0,0,0-.28,1.21,2,2,0,0,0,.47,1.37,4.09,4.09,0,0,0,1.25.95,11,11,0,0,0,1.76.7l2,.65q1,.35,2,.77a7.35,7.35,0,0,1,1.76,1,4.81,4.81,0,0,1,1.25,1.54,4.73,4.73,0,0,1,.47,2.2,7,7,0,0,1-.53,2.72,5.93,5.93,0,0,1-1.55,2.16,7.49,7.49,0,0,1-2.52,1.44,10.36,10.36,0,0,1-3.44.53,10.74,10.74,0,0,1-4-.72,10.23,10.23,0,0,1-3.07-1.86l.88-1.43a1.29,1.29,0,0,1,.4-.42,1.13,1.13,0,0,1,.61-.15,1.41,1.41,0,0,1,.8.29q.42.29,1,.65a7.77,7.77,0,0,0,1.45.65,6.6,6.6,0,0,0,2.13.29,5.83,5.83,0,0,0,1.91-.28,4,4,0,0,0,1.37-.77,3.06,3.06,0,0,0,.81-1.11,3.46,3.46,0,0,0,.26-1.34,2.23,2.23,0,0,0-.47-1.46,4,4,0,0,0-1.25-1,10.14,10.14,0,0,0-1.77-.71l-2-.64q-1-.34-2-.77a7.17,7.17,0,0,1-1.77-1.08,4.91,4.91,0,0,1-1.25-1.61,5.19,5.19,0,0,1-.47-2.32,5.66,5.66,0,0,1,.5-2.34,5.75,5.75,0,0,1,1.47-2,7.25,7.25,0,0,1,2.37-1.35,9.49,9.49,0,0,1,3.21-.5,10.15,10.15,0,0,1,3.77.66,8.91,8.91,0,0,1,2.89,1.82Z" transform="translate(-2.7 44.45)"/><path class="cls-5" d="M1002.94,214.41a5.12,5.12,0,0,1-3.87-1.41,5.61,5.61,0,0,1-1.35-4.05v-13h-2.56a.84.84,0,0,1-.57-.2.77.77,0,0,1-.23-.62v-1.49l3.49-.44.86-6.57a.79.79,0,0,1,.27-.51.87.87,0,0,1,.59-.2h1.89v7.33h6.09v2.71h-6.09v12.77a2.72,2.72,0,0,0,.65,2,2.27,2.27,0,0,0,1.68.65,3,3,0,0,0,1-.16,4.41,4.41,0,0,0,.75-.35q.31-.19.54-.35a.7.7,0,0,1,.39-.16.64.64,0,0,1,.53.36l1.09,1.78a7,7,0,0,1-2.33,1.42A7.92,7.92,0,0,1,1002.94,214.41Z" transform="translate(-2.7 44.45)"/><path class="cls-5" d="M1020.26,221.27V192.8h2.23a1,1,0,0,1,1,.78l.32,2.52a11.35,11.35,0,0,1,3.12-2.67,8,8,0,0,1,4-1,7.67,7.67,0,0,1,3.32.7,6.85,6.85,0,0,1,2.54,2.08,10,10,0,0,1,1.62,3.41,17.52,17.52,0,0,1,.57,4.68,14.68,14.68,0,0,1-.63,4.38,10.68,10.68,0,0,1-1.81,3.51,8.43,8.43,0,0,1-2.89,2.33,8.53,8.53,0,0,1-3.85.85,7.94,7.94,0,0,1-3.37-.65,7.58,7.58,0,0,1-2.47-1.85v9.41Zm9.47-25.83a6,6,0,0,0-3.2.84,9.23,9.23,0,0,0-2.53,2.37v10.29a6,6,0,0,0,2.26,2,6.46,6.46,0,0,0,2.74.57,5.36,5.36,0,0,0,4.56-2.12,9.91,9.91,0,0,0,1.6-6,15.13,15.13,0,0,0-.37-3.57,7,7,0,0,0-1.06-2.45,4.13,4.13,0,0,0-1.7-1.4A5.66,5.66,0,0,0,1029.73,195.44Z" transform="translate(-2.7 44.45)"/><path class="cls-5" d="M1059.07,214.07h-1.66a2,2,0,0,1-.88-.17.93.93,0,0,1-.44-.71l-.42-2q-.84.76-1.64,1.35a9.33,9.33,0,0,1-1.68,1,8.67,8.67,0,0,1-1.88.62,10.81,10.81,0,0,1-2.22.21,7.55,7.55,0,0,1-2.32-.35,5.27,5.27,0,0,1-1.88-1,5,5,0,0,1-1.27-1.76,6.18,6.18,0,0,1-.47-2.52,4.71,4.71,0,0,1,.69-2.43,6.09,6.09,0,0,1,2.24-2.08,14.53,14.53,0,0,1,4-1.49,27.54,27.54,0,0,1,6.11-.58v-1.67a5.79,5.79,0,0,0-1.06-3.77,3.84,3.84,0,0,0-3.14-1.28,6.64,6.64,0,0,0-2.3.35,8.73,8.73,0,0,0-1.62.78q-.68.43-1.18.78a1.7,1.7,0,0,1-1,.35,1.11,1.11,0,0,1-.66-.2,1.51,1.51,0,0,1-.45-.49l-.67-1.2a12.16,12.16,0,0,1,3.8-2.54,11.75,11.75,0,0,1,4.52-.84,8.06,8.06,0,0,1,3.17.59,6.51,6.51,0,0,1,2.33,1.64,6.94,6.94,0,0,1,1.43,2.54,10.57,10.57,0,0,1,.48,3.28Zm-9.7-2.29a7.64,7.64,0,0,0,1.81-.2,7.18,7.18,0,0,0,1.54-.57,8.19,8.19,0,0,0,1.39-.89,12,12,0,0,0,1.29-1.2v-4.39a25.12,25.12,0,0,0-4.39.33,12.32,12.32,0,0,0-2.94.86,4.11,4.11,0,0,0-1.65,1.25,2.7,2.7,0,0,0-.51,1.61,3.57,3.57,0,0,0,.27,1.46,2.75,2.75,0,0,0,.74,1,2.88,2.88,0,0,0,1.09.57A5,5,0,0,0,1049.37,211.78Z" transform="translate(-2.7 44.45)"/><path class="cls-5" d="M1071.18,214.41a5.12,5.12,0,0,1-3.87-1.41,5.61,5.61,0,0,1-1.35-4.05v-13h-2.56a.84.84,0,0,1-.57-.2.77.77,0,0,1-.23-.62v-1.49l3.49-.44.86-6.57a.79.79,0,0,1,.27-.51.87.87,0,0,1,.59-.2h1.89v7.33h6.09v2.71h-6.09v12.77a2.72,2.72,0,0,0,.65,2,2.27,2.27,0,0,0,1.68.65,3,3,0,0,0,1-.16,4.41,4.41,0,0,0,.75-.35q.31-.19.54-.35a.7.7,0,0,1,.39-.16.64.64,0,0,1,.53.36l1.09,1.78a7,7,0,0,1-2.33,1.42A7.92,7.92,0,0,1,1071.18,214.41Z" transform="translate(-2.7 44.45)"/><path class="cls-5" d="M1080.4,214.07V183.14h3.74v12.52a11.48,11.48,0,0,1,3-2.32,8.1,8.1,0,0,1,3.82-.87,7.69,7.69,0,0,1,3.08.58,6,6,0,0,1,2.23,1.64,7.22,7.22,0,0,1,1.35,2.55,11.08,11.08,0,0,1,.46,3.3v13.54h-3.74V200.52a5.73,5.73,0,0,0-1.1-3.75,4.12,4.12,0,0,0-3.37-1.33,6.28,6.28,0,0,0-3.1.8,10.2,10.2,0,0,0-2.66,2.16v15.67Z" transform="translate(-2.7 44.45)"/><path class="cls-5" d="M1101.4,186.66a12.67,12.67,0,0,1,1.44-1.16,10.83,10.83,0,0,1,1.72-1,10.52,10.52,0,0,1,2-.66,10.72,10.72,0,0,1,2.34-.24,9.48,9.48,0,0,1,3.08.48,7.36,7.36,0,0,1,2.45,1.37,6.3,6.3,0,0,1,1.62,2.14,6.63,6.63,0,0,1,.59,2.83,7.24,7.24,0,0,1-.47,2.75,7.66,7.66,0,0,1-1.2,2,9.17,9.17,0,0,1-1.58,1.51l-1.61,1.21a10.54,10.54,0,0,0-1.28,1.13,2.2,2.2,0,0,0-.62,1.26l-.38,3.21h-2.56l-.25-3.49v-.23a2.68,2.68,0,0,1,.47-1.57,6.4,6.4,0,0,1,1.2-1.28q.72-.6,1.55-1.2a12.7,12.7,0,0,0,1.55-1.32,6.49,6.49,0,0,0,1.2-1.65,4.73,4.73,0,0,0,.47-2.18,3.7,3.7,0,0,0-.36-1.64,3.78,3.78,0,0,0-1-1.25,4.27,4.27,0,0,0-1.44-.79,5.62,5.62,0,0,0-1.77-.27,6.76,6.76,0,0,0-2.19.32,8.22,8.22,0,0,0-1.54.69,9,9,0,0,0-1,.69,1.13,1.13,0,0,1-.64.31.91.91,0,0,1-.82-.48Zm4.12,25.09a2.68,2.68,0,0,1,.75-1.87,2.62,2.62,0,0,1,2.89-.57,2.7,2.7,0,0,1,.84.57,2.55,2.55,0,0,1,.56.84,2.78,2.78,0,0,1,0,2.07,2.57,2.57,0,0,1-.56.83,2.54,2.54,0,0,1-.84.56,2.76,2.76,0,0,1-2.06,0,2.44,2.44,0,0,1-.83-.56,2.63,2.63,0,0,1-.75-1.87Z" transform="translate(-2.7 44.45)"/><g class="cls-6"><g class="cls-7"><g class="cls-8"><g class="cls-9"><g class="cls-10"><rect class="cls-11" x="101.29" y="7.97" width="186.22" height="163.1"/></g></g><g class="cls-12"><g class="cls-13"><rect class="cls-14" y="235.74" width="424.6" height="296.6"/></g></g><g class="cls-15"><g class="cls-16"><rect class="cls-17" x="149.18" y="31.98" width="128.73" height="96.86"/></g></g><g class="cls-18"><g class="cls-19"><rect class="cls-20" x="149.23" width="63.12" height="42.49"/></g></g><g class="cls-21"><g class="cls-22"><rect class="cls-23" x="193.18" y="130.97" width="64.99" height="43.12"/></g></g><g class="cls-24"><g class="cls-25"><rect class="cls-26" x="125.97" y="130.97" width="64.99" height="43.12"/></g></g></g></g></g></g></g></g></svg>