<svg xmlns="http://www.w3.org/2000/svg" xmlns:xlink="http://www.w3.org/1999/xlink" viewBox="0 0 1162.19 515.26"><defs><style>.cls-1{fill:#32ace0;}.cls-2{fill:none;}.cls-3{isolation:isolate;}.cls-4{clip-path:url(#clip-path);}.cls-5{mix-blend-mode:multiply;}.cls-6{clip-path:url(#clip-path-2);}.cls-7{clip-path:url(#clip-path-3);}.cls-8{clip-path:url(#clip-path-4);}.cls-9{fill:url(#linear-gradient);}.cls-10{clip-path:url(#clip-path-5);}.cls-11{clip-path:url(#clip-path-6);}.cls-12{fill:url(#linear-gradient-2);}.cls-13{fill:#fff;}</style><clipPath id="clip-path" transform="translate(-16.83 51.35)"><path class="cls-1" d="M407.45,92.15C400.73,135.46,353.78,159,353.78,159s47,22.66,53.67,66,38.88,83.85,64.41,83.85h586.06c25.53,0,57.69-40.33,64.41-83.65S1176,158.67,1176,158.67s-47-23.18-53.66-66.5S1083.45,7.8,1057.92,7.8H471.86c-25.53,0-57.69,41-64.41,84.35"/></clipPath><clipPath id="clip-path-2" transform="translate(-16.83 51.35)"><rect class="cls-2" x="17.91" y="-0.71" width="392.88" height="516.3"/></clipPath><clipPath id="clip-path-3" transform="translate(-16.83 51.35)"><path class="cls-2" d="M152,250.2s38.28,49.34,50.48,52.39c7,1.75,56.55-61.79,56.55-61.79s7.24.45,10.53,5.94c0,0,80.14,18.06,93.31,38.35s31.84,105.16,41.71,171.82,5,82.95,5,82.95H17.91S34.37,359,35.47,344.7,41,296.49,82.64,282.23s59.78-19.14,69.39-32"/></clipPath><clipPath id="clip-path-4" transform="translate(-16.83 51.35)"><rect class="cls-2" x="16.83" y="189.45" width="395.54" height="274.47"/></clipPath><linearGradient id="linear-gradient" y1="-304.19" x2="1" y2="-304.19" gradientTransform="matrix(0, -587.72, -587.72, 0, -178585.17, 562.72)" gradientUnits="userSpaceOnUse"><stop offset="0" stop-color="#0071bc"/><stop offset="0.04" stop-color="#0071bc"/><stop offset="0.07" stop-color="#097ec4"/><stop offset="0.13" stop-color="#1792d1"/><stop offset="0.2" stop-color="#21a0db"/><stop offset="0.28" stop-color="#27a8e0"/><stop offset="0.42" stop-color="#29abe2"/><stop offset="1" stop-color="#29abe2"/></linearGradient><clipPath id="clip-path-5" transform="translate(-16.83 51.35)"><path class="cls-2" d="M125,136.63s0-40.36,68.34-45.56c0,0,25.39-1.63,31.25-12.7,0,0-.33,32.22-35.47,39.38,0,0,54.34,2.93,67-18.55,0,0-2.93,24.41-14.65,34.82,0,0,17.9-.32,24.4-13.67,0,0,15.62,66.71-15,95,0,0,25.07-16.05,35-52.07S320.74,41.38,230.49,20.55c0,0,13.45-1.73,15.4-21.26,0,0-8.46,11.51-44,10.42S78.83,25.33,81.43,129.48s36.45,159.47-3.25,171.18c0,0,60.53-3.25,67.69-28.64s2.6-39.7,2.6-39.7S123.74,219.95,125,136.63"/></clipPath><clipPath id="clip-path-6" transform="translate(-16.83 51.35)"><rect class="cls-2" x="77.01" y="-51.35" width="241.17" height="301.17"/></clipPath><linearGradient id="linear-gradient-2" y1="-304.19" y2="-304.19" gradientTransform="matrix(0, -588.22, -588.22, 0, -178762.34, 563.8)" xlink:href="#linear-gradient"/></defs><title>original2</title><g class="cls-3"><g id="Layers"><path class="cls-1" d="M407.45,92.15C400.73,135.46,353.78,159,353.78,159s47,22.66,53.67,66,38.88,83.85,64.41,83.85h586.06c25.53,0,57.69-40.33,64.41-83.65S1176,158.67,1176,158.67s-47-23.18-53.66-66.5S1083.45,7.8,1057.92,7.8H471.86c-25.53,0-57.69,41-64.41,84.35" transform="translate(-16.83 51.35)"/><g class="cls-4"><rect class="cls-1" x="270.59" y="57.6" width="891.6" height="307.27"/></g><g id="Blue_Dylan" data-name="Blue Dylan"><g class="cls-5"><g class="cls-6"><g class="cls-7"><g class="cls-8"><rect class="cls-9" y="240.8" width="395.54" height="274.47"/></g></g><g class="cls-10"><g class="cls-11"><rect class="cls-12" x="60.18" width="241.17" height="301.17"/></g></g></g></g><path class="cls-13" d="M462.58,98.85h-4.1V85.16H442.28V98.85h-4.1V68.76h4.1V82.18h16.21V68.76h4.1Z" transform="translate(-16.83 51.35)"/><path class="cls-13" d="M478,77.24a10.94,10.94,0,0,1,4.21.78,8.88,8.88,0,0,1,3.19,2.21,9.78,9.78,0,0,1,2,3.45,14.95,14.95,0,0,1,0,9.06,9.79,9.79,0,0,1-2,3.44,8.77,8.77,0,0,1-3.19,2.19,11.95,11.95,0,0,1-8.42,0,8.86,8.86,0,0,1-3.2-2.19,9.81,9.81,0,0,1-2-3.44,14.73,14.73,0,0,1,0-9.06,9.8,9.8,0,0,1,2-3.45,9,9,0,0,1,3.2-2.21A10.93,10.93,0,0,1,478,77.24Zm0,19a5.46,5.46,0,0,0,4.7-2.11,9.77,9.77,0,0,0,1.55-5.89,9.86,9.86,0,0,0-1.55-5.92,5.45,5.45,0,0,0-4.7-2.12,6.53,6.53,0,0,0-2.77.55,5.19,5.19,0,0,0-2,1.58A7,7,0,0,0,472,84.84a14.95,14.95,0,0,0,0,6.77,6.89,6.89,0,0,0,1.18,2.51,5.23,5.23,0,0,0,2,1.56A6.52,6.52,0,0,0,478,96.23Z" transform="translate(-16.83 51.35)"/><path class="cls-13" d="M489.93,77.58h2.94a1.19,1.19,0,0,1,.76.23,1.16,1.16,0,0,1,.4.55L498.1,92q.17.76.31,1.46t.25,1.42q.17-.71.38-1.42l.44-1.46L504,78.27a1.11,1.11,0,0,1,.37-.52,1,1,0,0,1,.66-.21h1.62a1.11,1.11,0,0,1,.69.21,1.09,1.09,0,0,1,.38.52L512.08,92q.23.74.41,1.45l.35,1.41q.1-.69.27-1.45t.36-1.41l4.16-13.69a1.09,1.09,0,0,1,.4-.56,1.12,1.12,0,0,1,.69-.22h2.81l-6.89,21.27h-3q-.55,0-.76-.71l-4.7-14.43a8,8,0,0,1-.27-1l-.21-1-.21,1a8,8,0,0,1-.27,1l-4.77,14.41a.88.88,0,0,1-.86.71h-2.81Z" transform="translate(-16.83 51.35)"/><path class="cls-13" d="M533,98.85V77.58h2.23a1,1,0,0,1,1,.78l.27,2.18a10.91,10.91,0,0,1,2.63-2.37,6.21,6.21,0,0,1,3.39-.92,5,5,0,0,1,3.5,1.2,6.74,6.74,0,0,1,1.92,3.23,6.65,6.65,0,0,1,1.17-2,6.77,6.77,0,0,1,1.63-1.39,6.89,6.89,0,0,1,1.92-.8,8.58,8.58,0,0,1,2.07-.25,7.87,7.87,0,0,1,3,.54,5.93,5.93,0,0,1,2.23,1.56,7,7,0,0,1,1.4,2.53,11.23,11.23,0,0,1,.48,3.43V98.85h-3.74V85.31A5.73,5.73,0,0,0,557,81.52a3.92,3.92,0,0,0-3.17-1.29,4.75,4.75,0,0,0-1.75.33,4.22,4.22,0,0,0-1.46,1,4.48,4.48,0,0,0-1,1.59,6.15,6.15,0,0,0-.37,2.22V98.85h-3.74V85.31a6,6,0,0,0-1-3.82,3.65,3.65,0,0,0-3-1.26,4.74,4.74,0,0,0-2.57.75,8.43,8.43,0,0,0-2.17,2V98.85Z" transform="translate(-16.83 51.35)"/><path class="cls-13" d="M583.08,98.85h-1.66a2,2,0,0,1-.88-.17.93.93,0,0,1-.44-.71l-.42-2q-.84.76-1.64,1.35a9.33,9.33,0,0,1-1.68,1,8.68,8.68,0,0,1-1.88.62,10.8,10.8,0,0,1-2.22.21,7.55,7.55,0,0,1-2.32-.35,5.28,5.28,0,0,1-1.88-1A5,5,0,0,1,566.79,96a6.18,6.18,0,0,1-.47-2.52,4.71,4.71,0,0,1,.69-2.43A6.1,6.1,0,0,1,569.25,89a14.54,14.54,0,0,1,4-1.49,27.55,27.55,0,0,1,6.11-.58V85.28a5.79,5.79,0,0,0-1.06-3.77,3.84,3.84,0,0,0-3.14-1.28,6.65,6.65,0,0,0-2.3.35,8.76,8.76,0,0,0-1.62.78q-.68.43-1.18.78a1.7,1.7,0,0,1-1,.35,1.11,1.11,0,0,1-.66-.2,1.51,1.51,0,0,1-.45-.49l-.67-1.2a12.16,12.16,0,0,1,3.8-2.54,11.74,11.74,0,0,1,4.51-.84,8.06,8.06,0,0,1,3.17.59,6.5,6.5,0,0,1,2.33,1.64A6.94,6.94,0,0,1,582.6,82a10.57,10.57,0,0,1,.48,3.28Zm-9.7-2.29a7.64,7.64,0,0,0,1.81-.2,7.18,7.18,0,0,0,1.54-.57,8.15,8.15,0,0,0,1.39-.89,11.91,11.91,0,0,0,1.29-1.2V89.32a25.12,25.12,0,0,0-4.39.33,12.29,12.29,0,0,0-2.94.86,4.1,4.1,0,0,0-1.65,1.25,2.69,2.69,0,0,0-.51,1.61,3.57,3.57,0,0,0,.27,1.46,2.75,2.75,0,0,0,.74,1,2.88,2.88,0,0,0,1.09.57A5,5,0,0,0,573.38,96.56Z" transform="translate(-16.83 51.35)"/><path class="cls-13" d="M588.75,98.85V77.58H591a1,1,0,0,1,1,.78l.29,2.31a11.94,11.94,0,0,1,3.1-2.48,8.05,8.05,0,0,1,4-.94,7.69,7.69,0,0,1,3.08.58,6,6,0,0,1,2.23,1.64A7.23,7.23,0,0,1,606,82a11.12,11.12,0,0,1,.46,3.3V98.85h-3.74V85.31a5.73,5.73,0,0,0-1.1-3.75,4.12,4.12,0,0,0-3.37-1.33,6.28,6.28,0,0,0-3.1.8,10.19,10.19,0,0,0-2.66,2.16V98.85Z" transform="translate(-16.83 51.35)"/><path class="cls-13" d="M617.67,105.13a2,2,0,0,1-.47.67,1.28,1.28,0,0,1-.87.25h-2.77l3.88-8.44-8.78-20h3.23a1.11,1.11,0,0,1,.76.24,1.52,1.52,0,0,1,.4.54l5.69,13.4a9.66,9.66,0,0,1,.33.92q.14.46.24.94l.29-.94q.15-.46.34-.95l5.52-13.38a1.2,1.2,0,0,1,.43-.56,1.1,1.1,0,0,1,.66-.22h3Z" transform="translate(-16.83 51.35)"/><path class="cls-13" d="M641,106.06V77.58h2.23a1,1,0,0,1,1,.78l.32,2.52a11.35,11.35,0,0,1,3.12-2.67,8,8,0,0,1,4-1,7.67,7.67,0,0,1,3.32.7A6.84,6.84,0,0,1,657.61,80a10,10,0,0,1,1.62,3.41,17.52,17.52,0,0,1,.57,4.68,14.68,14.68,0,0,1-.63,4.38A10.68,10.68,0,0,1,657.36,96a8.43,8.43,0,0,1-2.89,2.33,8.53,8.53,0,0,1-3.85.85,7.94,7.94,0,0,1-3.37-.65,7.58,7.58,0,0,1-2.47-1.85v9.41Zm9.47-25.83a6,6,0,0,0-3.2.84,9.23,9.23,0,0,0-2.53,2.37V93.73a6,6,0,0,0,2.26,2,6.46,6.46,0,0,0,2.74.57,5.36,5.36,0,0,0,4.56-2.12,9.91,9.91,0,0,0,1.6-6,15.13,15.13,0,0,0-.37-3.57,7,7,0,0,0-1.06-2.45,4.13,4.13,0,0,0-1.7-1.4A5.66,5.66,0,0,0,650.51,80.23Z" transform="translate(-16.83 51.35)"/><path class="cls-13" d="M672.83,77.24A10.93,10.93,0,0,1,677,78a8.88,8.88,0,0,1,3.19,2.21,9.78,9.78,0,0,1,2,3.45,14.95,14.95,0,0,1,0,9.06,9.79,9.79,0,0,1-2,3.44A8.76,8.76,0,0,1,677,98.38a11.95,11.95,0,0,1-8.42,0,8.85,8.85,0,0,1-3.2-2.19,9.83,9.83,0,0,1-2-3.44,14.73,14.73,0,0,1,0-9.06,9.82,9.82,0,0,1,2-3.45,9,9,0,0,1,3.2-2.21A10.93,10.93,0,0,1,672.83,77.24Zm0,19a5.46,5.46,0,0,0,4.7-2.11,9.77,9.77,0,0,0,1.55-5.89,9.86,9.86,0,0,0-1.55-5.92,5.45,5.45,0,0,0-4.7-2.12,6.53,6.53,0,0,0-2.77.55,5.19,5.19,0,0,0-2,1.58,7,7,0,0,0-1.18,2.53,14.95,14.95,0,0,0,0,6.77,6.89,6.89,0,0,0,1.18,2.51,5.24,5.24,0,0,0,2,1.56A6.52,6.52,0,0,0,672.83,96.23Z" transform="translate(-16.83 51.35)"/><path class="cls-13" d="M699.76,81.09a.83.83,0,0,1-.78.46,1.46,1.46,0,0,1-.71-.23q-.4-.23-1-.51a9.2,9.2,0,0,0-1.37-.53A6.58,6.58,0,0,0,694,80a5.59,5.59,0,0,0-1.7.24,4.09,4.09,0,0,0-1.29.66,2.93,2.93,0,0,0-.82,1,2.63,2.63,0,0,0-.28,1.21,2,2,0,0,0,.47,1.37,4.09,4.09,0,0,0,1.25.95,11,11,0,0,0,1.76.7l2,.65q1,.35,2,.77a7.35,7.35,0,0,1,1.76,1,4.81,4.81,0,0,1,1.25,1.54,4.73,4.73,0,0,1,.47,2.2,7,7,0,0,1-.53,2.72,5.93,5.93,0,0,1-1.55,2.16,7.49,7.49,0,0,1-2.52,1.44,10.36,10.36,0,0,1-3.44.53,10.74,10.74,0,0,1-4-.72,10.23,10.23,0,0,1-3.07-1.86l.88-1.43a1.29,1.29,0,0,1,.4-.42,1.13,1.13,0,0,1,.61-.15,1.41,1.41,0,0,1,.8.29q.42.29,1,.65a7.77,7.77,0,0,0,1.45.65,6.6,6.6,0,0,0,2.13.29,5.83,5.83,0,0,0,1.91-.28,4,4,0,0,0,1.37-.77,3.06,3.06,0,0,0,.81-1.11,3.46,3.46,0,0,0,.26-1.34,2.23,2.23,0,0,0-.47-1.46,4,4,0,0,0-1.25-1,10.14,10.14,0,0,0-1.77-.71l-2-.64q-1-.34-2-.77a7.17,7.17,0,0,1-1.77-1.08,4.91,4.91,0,0,1-1.25-1.61,5.19,5.19,0,0,1-.47-2.32,5.66,5.66,0,0,1,.5-2.34,5.74,5.74,0,0,1,1.47-2,7.24,7.24,0,0,1,2.37-1.35,9.49,9.49,0,0,1,3.21-.5,10.15,10.15,0,0,1,3.77.66,8.92,8.92,0,0,1,2.89,1.82Z" transform="translate(-16.83 51.35)"/><path class="cls-13" d="M710.8,70.9a2.39,2.39,0,0,1-.22,1,3,3,0,0,1-.59.84,2.73,2.73,0,0,1-.85.58,2.55,2.55,0,0,1-1,.21,2.48,2.48,0,0,1-1-.21,2.79,2.79,0,0,1-1.42-1.42,2.47,2.47,0,0,1-.21-1,2.62,2.62,0,0,1,.21-1,2.7,2.7,0,0,1,.58-.86,2.79,2.79,0,0,1,.84-.58,2.49,2.49,0,0,1,1-.21,2.56,2.56,0,0,1,1,.21A2.75,2.75,0,0,1,710,69a2.88,2.88,0,0,1,.59.86A2.53,2.53,0,0,1,710.8,70.9ZM710,77.58V98.85h-3.74V77.58Z" transform="translate(-16.83 51.35)"/><path class="cls-13" d="M723,99.19a5.12,5.12,0,0,1-3.87-1.41,5.61,5.61,0,0,1-1.35-4.05v-13h-2.56a.84.84,0,0,1-.57-.2.77.77,0,0,1-.23-.62V78.4L717.9,78l.86-6.57a.79.79,0,0,1,.27-.51.87.87,0,0,1,.59-.2h1.89V78h6.09v2.71h-6.09V93.48a2.72,2.72,0,0,0,.65,2,2.27,2.27,0,0,0,1.68.65,3,3,0,0,0,1-.16,4.41,4.41,0,0,0,.75-.35q.31-.19.54-.35a.7.7,0,0,1,.39-.16.64.64,0,0,1,.53.36l1.09,1.78a7,7,0,0,1-2.33,1.42A7.92,7.92,0,0,1,723,99.19Z" transform="translate(-16.83 51.35)"/><path class="cls-13" d="M737.22,70.9a2.39,2.39,0,0,1-.22,1,3,3,0,0,1-.59.84,2.73,2.73,0,0,1-.85.58,2.55,2.55,0,0,1-1,.21,2.48,2.48,0,0,1-1-.21,2.79,2.79,0,0,1-1.42-1.42,2.47,2.47,0,0,1-.21-1,2.62,2.62,0,0,1,.21-1,2.7,2.7,0,0,1,.58-.86,2.79,2.79,0,0,1,.84-.58,2.49,2.49,0,0,1,1-.21,2.56,2.56,0,0,1,1,.21,2.75,2.75,0,0,1,.85.58,2.88,2.88,0,0,1,.59.86A2.53,2.53,0,0,1,737.22,70.9Zm-.84,6.68V98.85h-3.74V77.58Z" transform="translate(-16.83 51.35)"/><path class="cls-13" d="M751.58,77.24a10.93,10.93,0,0,1,4.21.78A8.88,8.88,0,0,1,759,80.23a9.78,9.78,0,0,1,2,3.45,14.95,14.95,0,0,1,0,9.06,9.79,9.79,0,0,1-2,3.44,8.76,8.76,0,0,1-3.19,2.19,11.95,11.95,0,0,1-8.42,0,8.85,8.85,0,0,1-3.2-2.19,9.83,9.83,0,0,1-2-3.44,14.73,14.73,0,0,1,0-9.06,9.82,9.82,0,0,1,2-3.45,9,9,0,0,1,3.2-2.21A10.93,10.93,0,0,1,751.58,77.24Zm0,19a5.46,5.46,0,0,0,4.7-2.11,9.77,9.77,0,0,0,1.55-5.89,9.86,9.86,0,0,0-1.55-5.92,5.45,5.45,0,0,0-4.7-2.12,6.53,6.53,0,0,0-2.77.55,5.19,5.19,0,0,0-2,1.58,7,7,0,0,0-1.18,2.53,14.95,14.95,0,0,0,0,6.77,6.89,6.89,0,0,0,1.18,2.51,5.24,5.24,0,0,0,2,1.56A6.52,6.52,0,0,0,751.58,96.23Z" transform="translate(-16.83 51.35)"/><path class="cls-13" d="M766.32,98.85V77.58h2.23a1,1,0,0,1,1,.78l.29,2.31a11.94,11.94,0,0,1,3.1-2.48,8.06,8.06,0,0,1,4-.94,7.69,7.69,0,0,1,3.08.58,6,6,0,0,1,2.23,1.64A7.22,7.22,0,0,1,783.56,82a11.08,11.08,0,0,1,.46,3.3V98.85h-3.74V85.31a5.73,5.73,0,0,0-1.1-3.75,4.12,4.12,0,0,0-3.37-1.33,6.28,6.28,0,0,0-3.1.8,10.2,10.2,0,0,0-2.66,2.16V98.85Z" transform="translate(-16.83 51.35)"/><path class="cls-13" d="M801.86,81.09a.83.83,0,0,1-.78.46,1.46,1.46,0,0,1-.71-.23q-.4-.23-1-.51a9.2,9.2,0,0,0-1.37-.53,6.58,6.58,0,0,0-1.89-.24,5.59,5.59,0,0,0-1.7.24,4.09,4.09,0,0,0-1.29.66,2.93,2.93,0,0,0-.82,1,2.63,2.63,0,0,0-.28,1.21,2,2,0,0,0,.47,1.37,4.09,4.09,0,0,0,1.25.95,11,11,0,0,0,1.76.7l2,.65q1,.35,2,.77a7.35,7.35,0,0,1,1.76,1,4.81,4.81,0,0,1,1.25,1.54,4.73,4.73,0,0,1,.47,2.2,7,7,0,0,1-.53,2.72A5.93,5.93,0,0,1,801,97.22a7.49,7.49,0,0,1-2.52,1.44,10.36,10.36,0,0,1-3.44.53,10.74,10.74,0,0,1-4-.72,10.23,10.23,0,0,1-3.07-1.86l.88-1.43a1.29,1.29,0,0,1,.4-.42,1.13,1.13,0,0,1,.61-.15,1.41,1.41,0,0,1,.8.29q.42.29,1,.65a7.77,7.77,0,0,0,1.45.65,6.6,6.6,0,0,0,2.13.29,5.83,5.83,0,0,0,1.91-.28,4,4,0,0,0,1.37-.77,3.06,3.06,0,0,0,.81-1.11,3.46,3.46,0,0,0,.26-1.34,2.23,2.23,0,0,0-.47-1.46,4,4,0,0,0-1.25-1,10.14,10.14,0,0,0-1.77-.71l-2-.64q-1-.34-2-.77a7.17,7.17,0,0,1-1.77-1.08A4.91,4.91,0,0,1,789,85.74a5.19,5.19,0,0,1-.47-2.32,5.66,5.66,0,0,1,.5-2.34,5.74,5.74,0,0,1,1.47-2,7.24,7.24,0,0,1,2.37-1.35,9.49,9.49,0,0,1,3.21-.5,10.15,10.15,0,0,1,3.77.66,8.92,8.92,0,0,1,2.89,1.82Z" transform="translate(-16.83 51.35)"/><path class="cls-13" d="M831,98.85a1,1,0,0,1-1-.78l-.34-2.58a11.18,11.18,0,0,1-3.12,2.66,8,8,0,0,1-4,1,7.66,7.66,0,0,1-3.32-.7,6.87,6.87,0,0,1-2.54-2.07A9.84,9.84,0,0,1,815,93a17.52,17.52,0,0,1-.57-4.68,14.68,14.68,0,0,1,.63-4.38,10.66,10.66,0,0,1,1.82-3.52,8.33,8.33,0,0,1,6.75-3.19,7.69,7.69,0,0,1,3.34.66,8,8,0,0,1,2.48,1.86V67.92h3.74V98.85Zm-7.25-2.73a6,6,0,0,0,3.2-.84,9.23,9.23,0,0,0,2.53-2.37V82.62a5.92,5.92,0,0,0-2.26-1.94,6.52,6.52,0,0,0-2.72-.56,5.38,5.38,0,0,0-4.58,2.12,9.91,9.91,0,0,0-1.6,6,15.36,15.36,0,0,0,.36,3.56,6.84,6.84,0,0,0,1,2.44,4.12,4.12,0,0,0,1.7,1.4A5.71,5.71,0,0,0,823.74,96.12Z" transform="translate(-16.83 51.35)"/><path class="cls-13" d="M848.1,77.24a10.93,10.93,0,0,1,4.21.78,8.88,8.88,0,0,1,3.19,2.21,9.78,9.78,0,0,1,2,3.45,14.95,14.95,0,0,1,0,9.06,9.79,9.79,0,0,1-2,3.44,8.76,8.76,0,0,1-3.19,2.19,11.95,11.95,0,0,1-8.42,0,8.85,8.85,0,0,1-3.2-2.19,9.83,9.83,0,0,1-2-3.44,14.73,14.73,0,0,1,0-9.06,9.82,9.82,0,0,1,2-3.45,9,9,0,0,1,3.2-2.21A10.93,10.93,0,0,1,848.1,77.24Zm0,19a5.46,5.46,0,0,0,4.7-2.11,9.77,9.77,0,0,0,1.55-5.89,9.86,9.86,0,0,0-1.55-5.92,5.45,5.45,0,0,0-4.7-2.12,6.53,6.53,0,0,0-2.77.55,5.19,5.19,0,0,0-2,1.58,7,7,0,0,0-1.18,2.53,14.95,14.95,0,0,0,0,6.77,6.89,6.89,0,0,0,1.18,2.51,5.24,5.24,0,0,0,2,1.56A6.52,6.52,0,0,0,848.1,96.23Z" transform="translate(-16.83 51.35)"/><path class="cls-13" d="M870.94,98.85V77.58h2.23a1,1,0,0,1,1,.78l.27,2.18a10.9,10.9,0,0,1,2.64-2.37,6.2,6.2,0,0,1,3.39-.92,5,5,0,0,1,3.5,1.2,6.74,6.74,0,0,1,1.92,3.23,6.65,6.65,0,0,1,1.17-2,6.77,6.77,0,0,1,1.63-1.39,6.91,6.91,0,0,1,1.92-.8,8.58,8.58,0,0,1,2.07-.25,7.87,7.87,0,0,1,3,.54,5.94,5.94,0,0,1,2.23,1.56,7,7,0,0,1,1.4,2.53,11.2,11.2,0,0,1,.48,3.43V98.85H896V85.31a5.74,5.74,0,0,0-1.09-3.79,3.92,3.92,0,0,0-3.17-1.29,4.75,4.75,0,0,0-1.75.33,4.23,4.23,0,0,0-1.46,1,4.49,4.49,0,0,0-1,1.59,6.15,6.15,0,0,0-.37,2.22V98.85h-3.74V85.31a6,6,0,0,0-1-3.82,3.65,3.65,0,0,0-3-1.26,4.74,4.74,0,0,0-2.57.75,8.43,8.43,0,0,0-2.17,2V98.85Z" transform="translate(-16.83 51.35)"/><path class="cls-13" d="M914,77.24a10.93,10.93,0,0,1,4.21.78,8.88,8.88,0,0,1,3.19,2.21,9.78,9.78,0,0,1,2,3.45,14.95,14.95,0,0,1,0,9.06,9.79,9.79,0,0,1-2,3.44,8.76,8.76,0,0,1-3.19,2.19,11.95,11.95,0,0,1-8.42,0,8.85,8.85,0,0,1-3.2-2.19,9.83,9.83,0,0,1-2-3.44,14.73,14.73,0,0,1,0-9.06,9.82,9.82,0,0,1,2-3.45,9,9,0,0,1,3.2-2.21A10.93,10.93,0,0,1,914,77.24Zm0,19a5.46,5.46,0,0,0,4.7-2.11,9.77,9.77,0,0,0,1.55-5.89,9.86,9.86,0,0,0-1.55-5.92,5.45,5.45,0,0,0-4.7-2.12,6.53,6.53,0,0,0-2.77.55,5.19,5.19,0,0,0-2,1.58,7,7,0,0,0-1.18,2.53,14.95,14.95,0,0,0,0,6.77,6.89,6.89,0,0,0,1.18,2.51,5.24,5.24,0,0,0,2,1.56A6.52,6.52,0,0,0,914,96.23Z" transform="translate(-16.83 51.35)"/><path class="cls-13" d="M941,81.09a.83.83,0,0,1-.78.46,1.46,1.46,0,0,1-.71-.23q-.4-.23-1-.51a9.2,9.2,0,0,0-1.37-.53,6.58,6.58,0,0,0-1.89-.24,5.59,5.59,0,0,0-1.7.24,4.09,4.09,0,0,0-1.29.66,2.93,2.93,0,0,0-.82,1,2.63,2.63,0,0,0-.28,1.21,2,2,0,0,0,.47,1.37,4.09,4.09,0,0,0,1.25.95,11,11,0,0,0,1.76.7l2,.65q1,.35,2,.77a7.35,7.35,0,0,1,1.76,1,4.81,4.81,0,0,1,1.25,1.54,4.73,4.73,0,0,1,.47,2.2,7,7,0,0,1-.53,2.72,5.93,5.93,0,0,1-1.55,2.16,7.49,7.49,0,0,1-2.52,1.44,10.36,10.36,0,0,1-3.44.53,10.74,10.74,0,0,1-4-.72A10.23,10.23,0,0,1,927,96.61l.88-1.43a1.29,1.29,0,0,1,.4-.42,1.13,1.13,0,0,1,.61-.15,1.41,1.41,0,0,1,.8.29q.42.29,1,.65a7.77,7.77,0,0,0,1.45.65,6.6,6.6,0,0,0,2.13.29,5.83,5.83,0,0,0,1.91-.28,4,4,0,0,0,1.37-.77,3.06,3.06,0,0,0,.81-1.11,3.46,3.46,0,0,0,.26-1.34,2.23,2.23,0,0,0-.47-1.46,4,4,0,0,0-1.25-1,10.14,10.14,0,0,0-1.77-.71l-2-.64q-1-.34-2-.77a7.17,7.17,0,0,1-1.77-1.08,4.91,4.91,0,0,1-1.25-1.61,5.19,5.19,0,0,1-.47-2.32,5.66,5.66,0,0,1,.5-2.34,5.74,5.74,0,0,1,1.47-2,7.24,7.24,0,0,1,2.37-1.35,9.49,9.49,0,0,1,3.21-.5,10.15,10.15,0,0,1,3.77.66,8.92,8.92,0,0,1,2.89,1.82Z" transform="translate(-16.83 51.35)"/><path class="cls-13" d="M953.45,99.19a5.12,5.12,0,0,1-3.87-1.41,5.61,5.61,0,0,1-1.35-4.05v-13h-2.56a.84.84,0,0,1-.57-.2.77.77,0,0,1-.23-.62V78.4l3.49-.44.86-6.57a.79.79,0,0,1,.27-.51.87.87,0,0,1,.59-.2H952V78h6.09v2.71H952V93.48a2.72,2.72,0,0,0,.65,2,2.27,2.27,0,0,0,1.68.65,3,3,0,0,0,1-.16,4.41,4.41,0,0,0,.75-.35q.31-.19.54-.35a.7.7,0,0,1,.39-.16.64.64,0,0,1,.53.36l1.09,1.78a7,7,0,0,1-2.33,1.42A7.92,7.92,0,0,1,953.45,99.19Z" transform="translate(-16.83 51.35)"/><path class="cls-13" d="M970.78,106.06V77.58H973a1,1,0,0,1,1,.78l.32,2.52a11.35,11.35,0,0,1,3.12-2.67,8,8,0,0,1,4-1,7.67,7.67,0,0,1,3.32.7A6.84,6.84,0,0,1,987.34,80,10,10,0,0,1,989,83.4a17.52,17.52,0,0,1,.57,4.68,14.68,14.68,0,0,1-.63,4.38A10.68,10.68,0,0,1,987.09,96a8.43,8.43,0,0,1-2.89,2.33,8.53,8.53,0,0,1-3.85.85A7.94,7.94,0,0,1,977,98.5a7.58,7.58,0,0,1-2.47-1.85v9.41Zm9.47-25.83a6,6,0,0,0-3.2.84,9.23,9.23,0,0,0-2.53,2.37V93.73a6,6,0,0,0,2.26,2,6.46,6.46,0,0,0,2.74.57,5.36,5.36,0,0,0,4.56-2.12,9.91,9.91,0,0,0,1.6-6,15.13,15.13,0,0,0-.37-3.57,7,7,0,0,0-1.06-2.45,4.13,4.13,0,0,0-1.7-1.4A5.66,5.66,0,0,0,980.25,80.23Z" transform="translate(-16.83 51.35)"/><path class="cls-13" d="M1002.38,77.24a9.49,9.49,0,0,1,3.53.64,7.92,7.92,0,0,1,2.79,1.85,8.44,8.44,0,0,1,1.84,3,11.51,11.51,0,0,1,.66,4,2.44,2.44,0,0,1-.19,1.18.78.78,0,0,1-.71.29H996.14a11.76,11.76,0,0,0,.55,3.51,7.17,7.17,0,0,0,1.39,2.49,5.55,5.55,0,0,0,2.1,1.49,7.21,7.21,0,0,0,2.73.49,8,8,0,0,0,2.43-.33,11.55,11.55,0,0,0,1.75-.7,13.29,13.29,0,0,0,1.23-.7,1.63,1.63,0,0,1,.85-.33.82.82,0,0,1,.71.36l1,1.37a7.1,7.1,0,0,1-1.66,1.46,10.39,10.39,0,0,1-2.07,1,13.27,13.27,0,0,1-2.28.6,13.94,13.94,0,0,1-2.33.2,10.81,10.81,0,0,1-4.06-.75,8.9,8.9,0,0,1-3.21-2.18,10,10,0,0,1-2.11-3.56,14.48,14.48,0,0,1-.76-4.87,12.4,12.4,0,0,1,.68-4.16,9.81,9.81,0,0,1,2-3.35,9,9,0,0,1,3.13-2.23A10.27,10.27,0,0,1,1002.38,77.24Zm.08,2.75a5.74,5.74,0,0,0-4.26,1.56,7.36,7.36,0,0,0-1.93,4.34h11.57a7.56,7.56,0,0,0-.36-2.38,5.32,5.32,0,0,0-1-1.87,4.71,4.71,0,0,0-1.69-1.22A5.71,5.71,0,0,0,1002.46,80Z" transform="translate(-16.83 51.35)"/><path class="cls-13" d="M1024.58,77.24a10.93,10.93,0,0,1,4.21.78,8.88,8.88,0,0,1,3.19,2.21,9.78,9.78,0,0,1,2,3.45,14.95,14.95,0,0,1,0,9.06,9.79,9.79,0,0,1-2,3.44,8.76,8.76,0,0,1-3.19,2.19,11.95,11.95,0,0,1-8.42,0,8.85,8.85,0,0,1-3.2-2.19,9.83,9.83,0,0,1-2-3.44,14.73,14.73,0,0,1,0-9.06,9.82,9.82,0,0,1,2-3.45,9,9,0,0,1,3.2-2.21A10.93,10.93,0,0,1,1024.58,77.24Zm0,19a5.46,5.46,0,0,0,4.7-2.11,9.77,9.77,0,0,0,1.55-5.89,9.86,9.86,0,0,0-1.55-5.92,5.45,5.45,0,0,0-4.7-2.12,6.53,6.53,0,0,0-2.77.55,5.19,5.19,0,0,0-2,1.58,7,7,0,0,0-1.18,2.53,14.95,14.95,0,0,0,0,6.77,6.89,6.89,0,0,0,1.18,2.51,5.24,5.24,0,0,0,2,1.56A6.52,6.52,0,0,0,1024.58,96.23Z" transform="translate(-16.83 51.35)"/><path class="cls-13" d="M1039.32,106.06V77.58h2.23a1,1,0,0,1,1,.78l.32,2.52a11.35,11.35,0,0,1,3.12-2.67,8,8,0,0,1,4-1,7.67,7.67,0,0,1,3.32.7,6.84,6.84,0,0,1,2.54,2.08,10,10,0,0,1,1.62,3.41,17.52,17.52,0,0,1,.57,4.68,14.68,14.68,0,0,1-.63,4.38,10.68,10.68,0,0,1-1.81,3.51,8.43,8.43,0,0,1-2.89,2.33,8.53,8.53,0,0,1-3.85.85,7.94,7.94,0,0,1-3.37-.65,7.58,7.58,0,0,1-2.47-1.85v9.41Zm9.47-25.83a6,6,0,0,0-3.2.84,9.23,9.23,0,0,0-2.53,2.37V93.73a6,6,0,0,0,2.26,2,6.46,6.46,0,0,0,2.74.57,5.36,5.36,0,0,0,4.56-2.12,9.91,9.91,0,0,0,1.6-6,15.13,15.13,0,0,0-.37-3.57,7,7,0,0,0-1.06-2.45,4.13,4.13,0,0,0-1.7-1.4A5.66,5.66,0,0,0,1048.79,80.23Z" transform="translate(-16.83 51.35)"/><path class="cls-13" d="M1066.66,67.92V98.85h-3.74V67.92Z" transform="translate(-16.83 51.35)"/><path class="cls-13" d="M1081.67,77.24a9.49,9.49,0,0,1,3.53.64,7.92,7.92,0,0,1,2.79,1.85,8.44,8.44,0,0,1,1.84,3,11.51,11.51,0,0,1,.66,4,2.44,2.44,0,0,1-.19,1.18.78.78,0,0,1-.71.29h-14.15a11.76,11.76,0,0,0,.55,3.51,7.17,7.17,0,0,0,1.39,2.49,5.55,5.55,0,0,0,2.1,1.49,7.21,7.21,0,0,0,2.73.49,8,8,0,0,0,2.43-.33,11.55,11.55,0,0,0,1.75-.7,13.29,13.29,0,0,0,1.23-.7,1.63,1.63,0,0,1,.85-.33.82.82,0,0,1,.71.36l1,1.37a7.1,7.1,0,0,1-1.66,1.46,10.39,10.39,0,0,1-2.07,1,13.27,13.27,0,0,1-2.28.6,13.94,13.94,0,0,1-2.33.2,10.81,10.81,0,0,1-4.06-.75,8.9,8.9,0,0,1-3.21-2.18,10,10,0,0,1-2.11-3.56,14.48,14.48,0,0,1-.76-4.87,12.4,12.4,0,0,1,.68-4.16,9.81,9.81,0,0,1,2-3.35,9,9,0,0,1,3.13-2.23A10.27,10.27,0,0,1,1081.67,77.24Zm.08,2.75a5.74,5.74,0,0,0-4.26,1.56,7.36,7.36,0,0,0-1.93,4.34h11.57a7.56,7.56,0,0,0-.36-2.38,5.32,5.32,0,0,0-1-1.87,4.71,4.71,0,0,0-1.69-1.22A5.71,5.71,0,0,0,1081.76,80Z" transform="translate(-16.83 51.35)"/><path class="cls-13" d="M539.38,149.25V118.32h3.74v12.52a11.46,11.46,0,0,1,3-2.32,8.1,8.1,0,0,1,3.82-.87,7.68,7.68,0,0,1,3.08.58,6,6,0,0,1,2.23,1.64,7.25,7.25,0,0,1,1.35,2.55,11.12,11.12,0,0,1,.46,3.3v13.54h-3.74V135.71a5.72,5.72,0,0,0-1.1-3.75,4.12,4.12,0,0,0-3.37-1.33,6.29,6.29,0,0,0-3.1.8,10.21,10.21,0,0,0-2.66,2.16v15.67Z" transform="translate(-16.83 51.35)"/><path class="cls-13" d="M571.34,127.64a10.94,10.94,0,0,1,4.21.78,8.89,8.89,0,0,1,3.19,2.21,9.77,9.77,0,0,1,2,3.46,14.95,14.95,0,0,1,0,9.06,9.78,9.78,0,0,1-2,3.44,8.77,8.77,0,0,1-3.19,2.19,11.95,11.95,0,0,1-8.42,0,8.86,8.86,0,0,1-3.2-2.19,9.81,9.81,0,0,1-2-3.44,14.73,14.73,0,0,1,0-9.06,9.8,9.8,0,0,1,2-3.46,9,9,0,0,1,3.2-2.21A10.94,10.94,0,0,1,571.34,127.64Zm0,19a5.46,5.46,0,0,0,4.7-2.11,12,12,0,0,0,0-11.81,5.45,5.45,0,0,0-4.7-2.12,6.54,6.54,0,0,0-2.77.55,5.19,5.19,0,0,0-2,1.58,7,7,0,0,0-1.18,2.53,14.95,14.95,0,0,0,0,6.77,6.88,6.88,0,0,0,1.18,2.51,5.21,5.21,0,0,0,2,1.56A6.53,6.53,0,0,0,571.34,146.63Z" transform="translate(-16.83 51.35)"/><path class="cls-13" d="M590.24,118.32v30.93H586.5V118.32Z" transform="translate(-16.83 51.35)"/><path class="cls-13" d="M611.81,149.25a1,1,0,0,1-1-.78l-.34-2.58a11.22,11.22,0,0,1-3.12,2.66,8,8,0,0,1-4,1,7.68,7.68,0,0,1-3.32-.7,6.88,6.88,0,0,1-2.54-2.07,9.85,9.85,0,0,1-1.62-3.4,17.51,17.51,0,0,1-.57-4.68,14.68,14.68,0,0,1,.63-4.38,10.68,10.68,0,0,1,1.82-3.52,8.34,8.34,0,0,1,6.75-3.19,7.69,7.69,0,0,1,3.34.66,8,8,0,0,1,2.48,1.86v-11.8H614v30.93Zm-7.25-2.73a6,6,0,0,0,3.2-.84,9.27,9.27,0,0,0,2.53-2.37V133a5.91,5.91,0,0,0-2.26-1.94,6.51,6.51,0,0,0-2.72-.56,5.38,5.38,0,0,0-4.58,2.12,9.9,9.9,0,0,0-1.6,6,15.37,15.37,0,0,0,.36,3.56,6.84,6.84,0,0,0,1,2.44,4.12,4.12,0,0,0,1.7,1.4A5.71,5.71,0,0,0,604.56,146.52Z" transform="translate(-16.83 51.35)"/><path class="cls-13" d="M628.54,149.25V118.32h3.76V131a10.86,10.86,0,0,1,3-2.47,8,8,0,0,1,3.92-.93,7.84,7.84,0,0,1,3.34.69,6.75,6.75,0,0,1,2.54,2.07,10,10,0,0,1,1.62,3.4,17.4,17.4,0,0,1,.57,4.67,14.68,14.68,0,0,1-.63,4.38,10.54,10.54,0,0,1-1.82,3.51,8.41,8.41,0,0,1-6.75,3.18,7.11,7.11,0,0,1-3.5-.8,8,8,0,0,1-2.51-2.23l-.19,1.93a.9.9,0,0,1-1,.8ZM638,130.63a6,6,0,0,0-3.2.84,9.24,9.24,0,0,0-2.53,2.37v10.29a5.86,5.86,0,0,0,2.24,2,6.46,6.46,0,0,0,2.74.57,5.38,5.38,0,0,0,4.58-2.12,9.91,9.91,0,0,0,1.6-6,15.09,15.09,0,0,0-.37-3.57,7,7,0,0,0-1.06-2.45,4.13,4.13,0,0,0-1.7-1.4A5.66,5.66,0,0,0,638,130.63Z" transform="translate(-16.83 51.35)"/><path class="cls-13" d="M660.32,127.64a9.48,9.48,0,0,1,3.53.64,7.92,7.92,0,0,1,2.79,1.85,8.43,8.43,0,0,1,1.84,3,11.52,11.52,0,0,1,.66,4,2.44,2.44,0,0,1-.19,1.18.78.78,0,0,1-.71.29H654.08a11.75,11.75,0,0,0,.55,3.51,7.17,7.17,0,0,0,1.39,2.49,5.54,5.54,0,0,0,2.1,1.49,7.21,7.21,0,0,0,2.73.49,8,8,0,0,0,2.43-.33,11.55,11.55,0,0,0,1.75-.7,13.53,13.53,0,0,0,1.23-.7,1.63,1.63,0,0,1,.85-.33.82.82,0,0,1,.71.36l1,1.37a7.1,7.1,0,0,1-1.66,1.46,10.33,10.33,0,0,1-2.07,1,13.09,13.09,0,0,1-2.28.6,13.94,13.94,0,0,1-2.33.2,10.81,10.81,0,0,1-4.06-.75,8.9,8.9,0,0,1-3.21-2.18,10,10,0,0,1-2.11-3.56,14.48,14.48,0,0,1-.76-4.87,12.39,12.39,0,0,1,.68-4.16,9.8,9.8,0,0,1,2-3.35,9,9,0,0,1,3.13-2.23A10.27,10.27,0,0,1,660.32,127.64Zm.08,2.75a5.74,5.74,0,0,0-4.26,1.56,7.36,7.36,0,0,0-1.93,4.34h11.57a7.56,7.56,0,0,0-.36-2.38,5.31,5.31,0,0,0-1-1.87,4.7,4.7,0,0,0-1.69-1.22A5.72,5.72,0,0,0,660.4,130.39Z" transform="translate(-16.83 51.35)"/><path class="cls-13" d="M674.75,149.25V131.17l-2.35-.27a1.87,1.87,0,0,1-.72-.33.76.76,0,0,1-.28-.64V128.4h3.36v-2.06a9.46,9.46,0,0,1,.51-3.24,6.55,6.55,0,0,1,1.47-2.39,6.22,6.22,0,0,1,2.3-1.48,8.54,8.54,0,0,1,3-.5,8.06,8.06,0,0,1,2.65.42l-.08,1.87a.48.48,0,0,1-.36.5,4.07,4.07,0,0,1-.95.08h-.65a5.71,5.71,0,0,0-1.75.25,3.32,3.32,0,0,0-1.35.82,3.7,3.7,0,0,0-.87,1.49,7.39,7.39,0,0,0-.3,2.29v2h6.15v2.71h-6v18.14Z" transform="translate(-16.83 51.35)"/><path class="cls-13" d="M696.67,127.64a10.93,10.93,0,0,1,4.21.78,8.88,8.88,0,0,1,3.19,2.21,9.77,9.77,0,0,1,2,3.46,14.95,14.95,0,0,1,0,9.06,9.78,9.78,0,0,1-2,3.44,8.76,8.76,0,0,1-3.19,2.19,11.95,11.95,0,0,1-8.42,0,8.85,8.85,0,0,1-3.2-2.19,9.82,9.82,0,0,1-2-3.44,14.73,14.73,0,0,1,0-9.06,9.81,9.81,0,0,1,2-3.46,9,9,0,0,1,3.2-2.21A10.93,10.93,0,0,1,696.67,127.64Zm0,19a5.46,5.46,0,0,0,4.7-2.11,12,12,0,0,0,0-11.81,5.45,5.45,0,0,0-4.7-2.12,6.54,6.54,0,0,0-2.77.55,5.2,5.2,0,0,0-2,1.58,7,7,0,0,0-1.18,2.53,14.95,14.95,0,0,0,0,6.77,6.88,6.88,0,0,0,1.18,2.51,5.22,5.22,0,0,0,2,1.56A6.52,6.52,0,0,0,696.67,146.63Z" transform="translate(-16.83 51.35)"/><path class="cls-13" d="M711.41,149.25V128h2.14a1.19,1.19,0,0,1,.84.23,1.42,1.42,0,0,1,.32.8l.25,3.32a9.73,9.73,0,0,1,2.7-3.48,6.36,6.36,0,0,1,5.37-1,5.56,5.56,0,0,1,1.32.56l-.48,2.79a.63.63,0,0,1-.65.52,3.24,3.24,0,0,1-.9-.2,5.7,5.7,0,0,0-1.7-.2,4.82,4.82,0,0,0-3.27,1.13,8.51,8.51,0,0,0-2.19,3.3v13.54Z" transform="translate(-16.83 51.35)"/><path class="cls-13" d="M736.76,127.64a9.48,9.48,0,0,1,3.53.64,7.92,7.92,0,0,1,2.79,1.85,8.43,8.43,0,0,1,1.84,3,11.52,11.52,0,0,1,.66,4,2.44,2.44,0,0,1-.19,1.18.78.78,0,0,1-.71.29H730.52a11.75,11.75,0,0,0,.55,3.51,7.17,7.17,0,0,0,1.39,2.49,5.54,5.54,0,0,0,2.1,1.49,7.21,7.21,0,0,0,2.73.49,8,8,0,0,0,2.43-.33,11.55,11.55,0,0,0,1.75-.7,13.53,13.53,0,0,0,1.23-.7,1.63,1.63,0,0,1,.85-.33.82.82,0,0,1,.71.36l1,1.37a7.1,7.1,0,0,1-1.66,1.46,10.33,10.33,0,0,1-2.07,1,13.09,13.09,0,0,1-2.28.6,13.94,13.94,0,0,1-2.33.2,10.81,10.81,0,0,1-4.06-.75,8.9,8.9,0,0,1-3.21-2.18,10,10,0,0,1-2.11-3.56,14.48,14.48,0,0,1-.76-4.87,12.39,12.39,0,0,1,.68-4.16,9.8,9.8,0,0,1,2-3.35,9,9,0,0,1,3.13-2.23A10.27,10.27,0,0,1,736.76,127.64Zm.08,2.75a5.74,5.74,0,0,0-4.26,1.56,7.36,7.36,0,0,0-1.93,4.34h11.57a7.56,7.56,0,0,0-.36-2.38,5.31,5.31,0,0,0-1-1.87,4.7,4.7,0,0,0-1.69-1.22A5.72,5.72,0,0,0,736.84,130.39Z" transform="translate(-16.83 51.35)"/><path class="cls-13" d="M764.9,149.59a5.13,5.13,0,0,1-3.87-1.41,5.61,5.61,0,0,1-1.35-4.05v-13H757.1a.84.84,0,0,1-.57-.2.78.78,0,0,1-.23-.62V128.8l3.49-.44.86-6.57a.79.79,0,0,1,.27-.51.87.87,0,0,1,.59-.2h1.89v7.33h6.09v2.71h-6.09v12.77a2.72,2.72,0,0,0,.65,2,2.27,2.27,0,0,0,1.68.65,3,3,0,0,0,1-.16,4.34,4.34,0,0,0,.75-.35c.21-.13.39-.24.54-.35a.7.7,0,0,1,.39-.16.64.64,0,0,1,.53.36l1.09,1.79a7,7,0,0,1-2.33,1.42A7.9,7.9,0,0,1,764.9,149.59Z" transform="translate(-16.83 51.35)"/><path class="cls-13" d="M774.11,149.25V118.32h3.74v12.52a11.48,11.48,0,0,1,3-2.32,8.1,8.1,0,0,1,3.82-.87,7.69,7.69,0,0,1,3.08.58,6,6,0,0,1,2.23,1.64,7.22,7.22,0,0,1,1.35,2.55,11.08,11.08,0,0,1,.46,3.3v13.54h-3.74V135.71A5.73,5.73,0,0,0,787,132a4.12,4.12,0,0,0-3.37-1.33,6.29,6.29,0,0,0-3.1.8,10.22,10.22,0,0,0-2.66,2.16v15.67Z" transform="translate(-16.83 51.35)"/><path class="cls-13" d="M805.89,127.64a9.48,9.48,0,0,1,3.53.64,7.92,7.92,0,0,1,2.79,1.85,8.43,8.43,0,0,1,1.84,3,11.52,11.52,0,0,1,.66,4,2.44,2.44,0,0,1-.19,1.18.78.78,0,0,1-.71.29H799.65a11.75,11.75,0,0,0,.55,3.51,7.17,7.17,0,0,0,1.39,2.49,5.54,5.54,0,0,0,2.1,1.49,7.21,7.21,0,0,0,2.73.49,8,8,0,0,0,2.43-.33,11.55,11.55,0,0,0,1.75-.7,13.53,13.53,0,0,0,1.23-.7,1.63,1.63,0,0,1,.85-.33.82.82,0,0,1,.71.36l1,1.37a7.1,7.1,0,0,1-1.66,1.46,10.33,10.33,0,0,1-2.07,1,13.09,13.09,0,0,1-2.28.6,13.94,13.94,0,0,1-2.33.2,10.81,10.81,0,0,1-4.06-.75,8.9,8.9,0,0,1-3.21-2.18,10,10,0,0,1-2.11-3.56,14.48,14.48,0,0,1-.76-4.87,12.39,12.39,0,0,1,.68-4.16,9.8,9.8,0,0,1,2-3.35,9,9,0,0,1,3.13-2.23A10.27,10.27,0,0,1,805.89,127.64Zm.08,2.75a5.74,5.74,0,0,0-4.26,1.56,7.36,7.36,0,0,0-1.93,4.34h11.57a7.56,7.56,0,0,0-.36-2.38,5.31,5.31,0,0,0-1-1.87,4.7,4.7,0,0,0-1.69-1.22A5.72,5.72,0,0,0,806,130.39Z" transform="translate(-16.83 51.35)"/><path class="cls-13" d="M825.17,155.53a2,2,0,0,1-.47.67,1.28,1.28,0,0,1-.87.25H821l3.89-8.44-8.78-20h3.23a1.1,1.1,0,0,1,.76.24,1.52,1.52,0,0,1,.4.54l5.69,13.4a9.65,9.65,0,0,1,.33.92q.14.46.24.95l.29-.95q.15-.46.34-.95L833,128.76a1.2,1.2,0,0,1,.43-.56A1.11,1.11,0,0,1,834,128h3Z" transform="translate(-16.83 51.35)"/><path class="cls-13" d="M848.66,149.25V118.32h3.76V131a10.88,10.88,0,0,1,3-2.47,8,8,0,0,1,3.92-.93,7.83,7.83,0,0,1,3.34.69,6.75,6.75,0,0,1,2.54,2.07,10,10,0,0,1,1.62,3.4,17.4,17.4,0,0,1,.57,4.67,14.68,14.68,0,0,1-.63,4.38,10.54,10.54,0,0,1-1.82,3.51,8.41,8.41,0,0,1-6.75,3.18,7.11,7.11,0,0,1-3.5-.8,8,8,0,0,1-2.51-2.23l-.19,1.93a.9.9,0,0,1-1,.8Zm9.49-18.63a6,6,0,0,0-3.2.84,9.24,9.24,0,0,0-2.53,2.37v10.29a5.86,5.86,0,0,0,2.24,2,6.46,6.46,0,0,0,2.74.57,5.38,5.38,0,0,0,4.58-2.12,9.91,9.91,0,0,0,1.6-6,15.09,15.09,0,0,0-.37-3.57,7,7,0,0,0-1.06-2.45,4.13,4.13,0,0,0-1.7-1.4A5.66,5.66,0,0,0,858.16,130.63Z" transform="translate(-16.83 51.35)"/><path class="cls-13" d="M880.44,127.64a9.48,9.48,0,0,1,3.53.64,7.92,7.92,0,0,1,2.79,1.85,8.43,8.43,0,0,1,1.84,3,11.52,11.52,0,0,1,.66,4,2.44,2.44,0,0,1-.19,1.18.78.78,0,0,1-.71.29H874.2a11.75,11.75,0,0,0,.55,3.51,7.17,7.17,0,0,0,1.39,2.49,5.54,5.54,0,0,0,2.1,1.49,7.21,7.21,0,0,0,2.73.49,8,8,0,0,0,2.43-.33,11.55,11.55,0,0,0,1.75-.7,13.53,13.53,0,0,0,1.23-.7,1.63,1.63,0,0,1,.85-.33.82.82,0,0,1,.71.36l1,1.37a7.1,7.1,0,0,1-1.66,1.46,10.33,10.33,0,0,1-2.07,1,13.09,13.09,0,0,1-2.28.6,13.94,13.94,0,0,1-2.33.2,10.81,10.81,0,0,1-4.06-.75,8.9,8.9,0,0,1-3.21-2.18,10,10,0,0,1-2.11-3.56,14.48,14.48,0,0,1-.76-4.87,12.39,12.39,0,0,1,.68-4.16,9.8,9.8,0,0,1,2-3.35,9,9,0,0,1,3.13-2.23A10.27,10.27,0,0,1,880.44,127.64Zm.08,2.75a5.74,5.74,0,0,0-4.26,1.56,7.36,7.36,0,0,0-1.93,4.34H885.9a7.56,7.56,0,0,0-.36-2.38,5.31,5.31,0,0,0-1-1.87,4.7,4.7,0,0,0-1.69-1.22A5.72,5.72,0,0,0,880.52,130.39Z" transform="translate(-16.83 51.35)"/><path class="cls-13" d="M908.53,131.76a1.69,1.69,0,0,1-.34.36.8.8,0,0,1-.48.13A1.2,1.2,0,0,1,907,132a10,10,0,0,0-.93-.58,7.87,7.87,0,0,0-1.37-.58,7.3,7.3,0,0,0-4.74.29,5.34,5.34,0,0,0-2,1.61,7.26,7.26,0,0,0-1.22,2.54,12.59,12.59,0,0,0-.41,3.34,12.2,12.2,0,0,0,.44,3.43,7.43,7.43,0,0,0,1.24,2.52,5.27,5.27,0,0,0,1.94,1.55,6,6,0,0,0,2.57.54,6.55,6.55,0,0,0,2.25-.33,6.84,6.84,0,0,0,1.47-.72,10.86,10.86,0,0,0,1-.72,1.17,1.17,0,0,1,.76-.33.79.79,0,0,1,.71.36l1,1.37a8.09,8.09,0,0,1-3.46,2.49,12.28,12.28,0,0,1-4.39.79,9.3,9.3,0,0,1-3.71-.73,8.45,8.45,0,0,1-3-2.13,10.12,10.12,0,0,1-2-3.43,13.82,13.82,0,0,1-.72-4.64,14,14,0,0,1,.66-4.39,9.93,9.93,0,0,1,1.93-3.48,8.76,8.76,0,0,1,3.14-2.28,10.58,10.58,0,0,1,4.28-.82,10.09,10.09,0,0,1,3.95.72,9.45,9.45,0,0,1,3,2Z" transform="translate(-16.83 51.35)"/><path class="cls-13" d="M922.25,127.64a10.93,10.93,0,0,1,4.21.78,8.88,8.88,0,0,1,3.19,2.21,9.77,9.77,0,0,1,2,3.46,14.95,14.95,0,0,1,0,9.06,9.78,9.78,0,0,1-2,3.44,8.76,8.76,0,0,1-3.19,2.19,11.95,11.95,0,0,1-8.42,0,8.85,8.85,0,0,1-3.2-2.19,9.82,9.82,0,0,1-2-3.44,14.73,14.73,0,0,1,0-9.06,9.81,9.81,0,0,1,2-3.46,9,9,0,0,1,3.2-2.21A10.93,10.93,0,0,1,922.25,127.64Zm0,19a5.46,5.46,0,0,0,4.7-2.11,12,12,0,0,0,0-11.81,5.45,5.45,0,0,0-4.7-2.12,6.54,6.54,0,0,0-2.77.55,5.2,5.2,0,0,0-2,1.58,7,7,0,0,0-1.18,2.53,14.95,14.95,0,0,0,0,6.77,6.88,6.88,0,0,0,1.18,2.51,5.22,5.22,0,0,0,2,1.56A6.52,6.52,0,0,0,922.25,146.63Z" transform="translate(-16.83 51.35)"/><path class="cls-13" d="M937,149.25V128h2.23a1,1,0,0,1,1,.78l.27,2.18a10.9,10.9,0,0,1,2.64-2.37,6.2,6.2,0,0,1,3.39-.92,5,5,0,0,1,3.5,1.2,6.74,6.74,0,0,1,1.92,3.23,6.66,6.66,0,0,1,1.17-2,6.78,6.78,0,0,1,1.63-1.39,6.9,6.9,0,0,1,1.92-.8,8.58,8.58,0,0,1,2.07-.25,7.87,7.87,0,0,1,3,.54,5.94,5.94,0,0,1,2.23,1.56,7,7,0,0,1,1.4,2.53,11.2,11.2,0,0,1,.48,3.43v13.54h-3.74V135.71a5.73,5.73,0,0,0-1.09-3.79,3.92,3.92,0,0,0-3.17-1.29,4.74,4.74,0,0,0-1.75.33,4.23,4.23,0,0,0-1.46,1,4.48,4.48,0,0,0-1,1.58,6.15,6.15,0,0,0-.37,2.22v13.54H949.5V135.71a6,6,0,0,0-1-3.82,3.65,3.65,0,0,0-3-1.26,4.74,4.74,0,0,0-2.57.75,8.42,8.42,0,0,0-2.17,2v15.85Z" transform="translate(-16.83 51.35)"/><path class="cls-13" d="M979.89,127.64a9.48,9.48,0,0,1,3.53.64,7.92,7.92,0,0,1,2.79,1.85,8.43,8.43,0,0,1,1.84,3,11.52,11.52,0,0,1,.66,4,2.44,2.44,0,0,1-.19,1.18.78.78,0,0,1-.71.29H973.66a11.75,11.75,0,0,0,.55,3.51,7.17,7.17,0,0,0,1.39,2.49,5.54,5.54,0,0,0,2.1,1.49,7.21,7.21,0,0,0,2.73.49,8,8,0,0,0,2.43-.33,11.55,11.55,0,0,0,1.75-.7,13.53,13.53,0,0,0,1.23-.7,1.63,1.63,0,0,1,.85-.33.82.82,0,0,1,.71.36l1,1.37a7.1,7.1,0,0,1-1.66,1.46,10.33,10.33,0,0,1-2.07,1,13.09,13.09,0,0,1-2.28.6,13.94,13.94,0,0,1-2.33.2,10.81,10.81,0,0,1-4.06-.75,8.9,8.9,0,0,1-3.21-2.18,10,10,0,0,1-2.11-3.56,14.48,14.48,0,0,1-.76-4.87,12.39,12.39,0,0,1,.68-4.16,9.8,9.8,0,0,1,2-3.35,9,9,0,0,1,3.13-2.23A10.27,10.27,0,0,1,979.89,127.64Zm.08,2.75a5.74,5.74,0,0,0-4.26,1.56,7.36,7.36,0,0,0-1.93,4.34h11.57a7.56,7.56,0,0,0-.36-2.38,5.31,5.31,0,0,0-1-1.87,4.7,4.7,0,0,0-1.69-1.22A5.72,5.72,0,0,0,980,130.39Z" transform="translate(-16.83 51.35)"/><path class="cls-13" d="M516.32,193.44a.85.85,0,0,1,.61.27l1.6,1.74a12.88,12.88,0,0,1-4.48,3.34,15.29,15.29,0,0,1-6.35,1.2,15,15,0,0,1-5.9-1.12,12.92,12.92,0,0,1-4.52-3.15,14.25,14.25,0,0,1-2.9-4.86,18.17,18.17,0,0,1-1-6.24,17.06,17.06,0,0,1,1.1-6.24,14.25,14.25,0,0,1,3.1-4.87,13.87,13.87,0,0,1,4.78-3.16,16.26,16.26,0,0,1,6.14-1.12,13.71,13.71,0,0,1,10,3.82l-1.32,1.87a1.44,1.44,0,0,1-.34.35.93.93,0,0,1-.55.14,1.06,1.06,0,0,1-.58-.2l-.72-.49q-.42-.29-1-.63a8.8,8.8,0,0,0-1.34-.63,11.15,11.15,0,0,0-1.81-.49,12.59,12.59,0,0,0-2.37-.2,11.44,11.44,0,0,0-4.42.83,9.89,9.89,0,0,0-3.45,2.36,10.75,10.75,0,0,0-2.26,3.74,14.26,14.26,0,0,0-.81,4.94,14.51,14.51,0,0,0,.81,5,11.07,11.07,0,0,0,2.21,3.73,9.27,9.27,0,0,0,3.31,2.32,10.57,10.57,0,0,0,4.12.8,16.64,16.64,0,0,0,2.42-.16,9.84,9.84,0,0,0,2-.49A8.34,8.34,0,0,0,514,195a13.28,13.28,0,0,0,1.58-1.23A1.07,1.07,0,0,1,516.32,193.44Z" transform="translate(-16.83 51.35)"/><path class="cls-13" d="M523.29,199.65V168.72H527v12.52a11.48,11.48,0,0,1,3-2.32,8.1,8.1,0,0,1,3.82-.87,7.69,7.69,0,0,1,3.08.58,6,6,0,0,1,2.23,1.64,7.23,7.23,0,0,1,1.35,2.55,11.12,11.12,0,0,1,.46,3.3v13.54h-3.74V186.11a5.73,5.73,0,0,0-1.1-3.75,4.12,4.12,0,0,0-3.37-1.33,6.28,6.28,0,0,0-3.1.8A10.19,10.19,0,0,0,527,184v15.67Z" transform="translate(-16.83 51.35)"/><path class="cls-13" d="M551.64,171.7a2.37,2.37,0,0,1-.22,1,3,3,0,0,1-.59.84,2.72,2.72,0,0,1-.85.58,2.54,2.54,0,0,1-1,.21,2.47,2.47,0,0,1-1-.21,2.8,2.8,0,0,1-1.42-1.42,2.47,2.47,0,0,1-.21-1,2.62,2.62,0,0,1,.21-1,2.7,2.7,0,0,1,.58-.86,2.79,2.79,0,0,1,.84-.58,2.49,2.49,0,0,1,1-.21,2.56,2.56,0,0,1,1,.21,2.74,2.74,0,0,1,.85.58,2.86,2.86,0,0,1,.59.86A2.51,2.51,0,0,1,551.64,171.7Zm-.84,6.68v21.27h-3.74V178.38Z" transform="translate(-16.83 51.35)"/><path class="cls-13" d="M565.82,178a9.51,9.51,0,0,1,3.53.64,7.93,7.93,0,0,1,2.79,1.85,8.44,8.44,0,0,1,1.84,3,11.51,11.51,0,0,1,.66,4,2.44,2.44,0,0,1-.19,1.18.78.78,0,0,1-.71.29H559.58a11.76,11.76,0,0,0,.55,3.51,7.17,7.17,0,0,0,1.39,2.49,5.55,5.55,0,0,0,2.1,1.49,7.21,7.21,0,0,0,2.73.49,8,8,0,0,0,2.42-.33,11.55,11.55,0,0,0,1.75-.7,13.29,13.29,0,0,0,1.23-.7,1.63,1.63,0,0,1,.85-.33.82.82,0,0,1,.71.36l1,1.37a7.1,7.1,0,0,1-1.66,1.46,10.34,10.34,0,0,1-2.07,1,13.25,13.25,0,0,1-2.28.6,13.94,13.94,0,0,1-2.33.2,10.82,10.82,0,0,1-4.06-.75,8.91,8.91,0,0,1-3.21-2.18,10,10,0,0,1-2.11-3.56,14.48,14.48,0,0,1-.76-4.87,12.4,12.4,0,0,1,.68-4.16,9.81,9.81,0,0,1,2-3.35,9,9,0,0,1,3.13-2.23A10.27,10.27,0,0,1,565.82,178Zm.08,2.75a5.74,5.74,0,0,0-4.26,1.56,7.36,7.36,0,0,0-1.93,4.34h11.57a7.56,7.56,0,0,0-.36-2.38,5.32,5.32,0,0,0-1-1.87,4.71,4.71,0,0,0-1.69-1.22A5.7,5.7,0,0,0,565.9,180.79Z" transform="translate(-16.83 51.35)"/><path class="cls-13" d="M580.25,199.65V181.57l-2.35-.27a1.87,1.87,0,0,1-.72-.33.76.76,0,0,1-.28-.64V178.8h3.36v-2.06a9.48,9.48,0,0,1,.51-3.24,6.57,6.57,0,0,1,1.47-2.39,6.22,6.22,0,0,1,2.3-1.48,8.57,8.57,0,0,1,3-.5,8.05,8.05,0,0,1,2.65.42l-.08,1.87a.48.48,0,0,1-.36.5,4.13,4.13,0,0,1-.95.08h-.65a5.74,5.74,0,0,0-1.75.25,3.31,3.31,0,0,0-1.35.82,3.71,3.71,0,0,0-.87,1.49,7.43,7.43,0,0,0-.3,2.29v2H590v2.71h-6v18.14Z" transform="translate(-16.83 51.35)"/><path class="cls-13" d="M620.8,169.56v3.32H606.35v10H618v3.19h-11.7v10.27H620.8v3.32H602.25V169.56Z" transform="translate(-16.83 51.35)"/><path class="cls-13" d="M630.23,168.72v30.93h-3.74V168.72Z" transform="translate(-16.83 51.35)"/><path class="cls-13" d="M645.24,178a9.5,9.5,0,0,1,3.53.64,7.91,7.91,0,0,1,2.79,1.85,8.43,8.43,0,0,1,1.84,3,11.51,11.51,0,0,1,.66,4,2.43,2.43,0,0,1-.19,1.18.78.78,0,0,1-.71.29H639a11.76,11.76,0,0,0,.55,3.51,7.17,7.17,0,0,0,1.39,2.49,5.55,5.55,0,0,0,2.1,1.49,7.21,7.21,0,0,0,2.73.49,8,8,0,0,0,2.43-.33,11.59,11.59,0,0,0,1.75-.7,13.55,13.55,0,0,0,1.23-.7,1.62,1.62,0,0,1,.85-.33.82.82,0,0,1,.71.36l1,1.37a7.09,7.09,0,0,1-1.66,1.46,10.39,10.39,0,0,1-2.07,1,13.3,13.3,0,0,1-2.28.6,13.92,13.92,0,0,1-2.33.2,10.82,10.82,0,0,1-4.06-.75,8.91,8.91,0,0,1-3.21-2.18,10,10,0,0,1-2.11-3.56,14.48,14.48,0,0,1-.76-4.87,12.4,12.4,0,0,1,.68-4.16,9.81,9.81,0,0,1,2-3.35,9,9,0,0,1,3.13-2.23A10.28,10.28,0,0,1,645.24,178Zm.08,2.75a5.74,5.74,0,0,0-4.26,1.56,7.36,7.36,0,0,0-1.93,4.34H650.7a7.56,7.56,0,0,0-.36-2.38,5.31,5.31,0,0,0-1.05-1.87,4.7,4.7,0,0,0-1.69-1.22A5.71,5.71,0,0,0,645.32,180.79Z" transform="translate(-16.83 51.35)"/><path class="cls-13" d="M673.34,182.16a1.68,1.68,0,0,1-.34.36.79.79,0,0,1-.48.13,1.2,1.2,0,0,1-.68-.26,10,10,0,0,0-.93-.58,7.8,7.8,0,0,0-1.37-.58,7.29,7.29,0,0,0-4.74.29,5.34,5.34,0,0,0-2,1.61,7.26,7.26,0,0,0-1.22,2.54,12.59,12.59,0,0,0-.41,3.34,12.2,12.2,0,0,0,.44,3.43,7.44,7.44,0,0,0,1.24,2.52,5.29,5.29,0,0,0,1.94,1.55,6,6,0,0,0,2.57.54,6.58,6.58,0,0,0,2.25-.33,6.8,6.8,0,0,0,1.47-.72,10.49,10.49,0,0,0,1-.72,1.16,1.16,0,0,1,.76-.33.79.79,0,0,1,.71.36l1,1.37a8.08,8.08,0,0,1-3.46,2.49,12.28,12.28,0,0,1-4.39.79,9.29,9.29,0,0,1-3.71-.74,8.45,8.45,0,0,1-3-2.13,10.13,10.13,0,0,1-2-3.43,13.82,13.82,0,0,1-.72-4.64,14,14,0,0,1,.66-4.39,9.93,9.93,0,0,1,1.93-3.48,8.76,8.76,0,0,1,3.14-2.28,10.58,10.58,0,0,1,4.28-.82,10.09,10.09,0,0,1,3.95.72,9.45,9.45,0,0,1,3,2Z" transform="translate(-16.83 51.35)"/><path class="cls-13" d="M684.89,200a5.12,5.12,0,0,1-3.87-1.41,5.61,5.61,0,0,1-1.35-4.05v-13H677.1a.84.84,0,0,1-.57-.2.77.77,0,0,1-.23-.62V179.2l3.49-.44.86-6.57a.79.79,0,0,1,.27-.51.87.87,0,0,1,.59-.2h1.89v7.33h6.09v2.71H683.4v12.77a2.72,2.72,0,0,0,.65,2,2.27,2.27,0,0,0,1.68.65,3,3,0,0,0,1-.16,4.41,4.41,0,0,0,.75-.35q.31-.19.54-.35a.7.7,0,0,1,.39-.16.64.64,0,0,1,.53.36l1.09,1.78a7,7,0,0,1-2.33,1.42A7.92,7.92,0,0,1,684.89,200Z" transform="translate(-16.83 51.35)"/><path class="cls-13" d="M694.11,199.65V178.38h2.14a1.18,1.18,0,0,1,.84.23,1.42,1.42,0,0,1,.32.8l.25,3.32a9.72,9.72,0,0,1,2.7-3.48,6.36,6.36,0,0,1,5.37-1.05,5.64,5.64,0,0,1,1.32.56l-.48,2.79a.63.63,0,0,1-.65.53,3.27,3.27,0,0,1-.9-.2,5.7,5.7,0,0,0-1.7-.2,4.82,4.82,0,0,0-3.27,1.13,8.51,8.51,0,0,0-2.19,3.3v13.54Z" transform="translate(-16.83 51.35)"/><path class="cls-13" d="M716,171.7a2.39,2.39,0,0,1-.22,1,3,3,0,0,1-.59.84,2.73,2.73,0,0,1-.85.58,2.54,2.54,0,0,1-1,.21,2.47,2.47,0,0,1-1-.21,2.8,2.8,0,0,1-1.42-1.42,2.47,2.47,0,0,1-.21-1,2.62,2.62,0,0,1,.21-1,2.7,2.7,0,0,1,.58-.86,2.79,2.79,0,0,1,.84-.58,2.49,2.49,0,0,1,1-.21,2.56,2.56,0,0,1,1,.21,2.75,2.75,0,0,1,.85.58,2.88,2.88,0,0,1,.59.86A2.53,2.53,0,0,1,716,171.7Zm-.84,6.68v21.27h-3.74V178.38Z" transform="translate(-16.83 51.35)"/><path class="cls-13" d="M736.29,182.16a1.68,1.68,0,0,1-.34.36.79.79,0,0,1-.48.13,1.2,1.2,0,0,1-.68-.26,10,10,0,0,0-.93-.58,7.8,7.8,0,0,0-1.37-.58,7.29,7.29,0,0,0-4.74.29,5.34,5.34,0,0,0-2,1.61,7.26,7.26,0,0,0-1.22,2.54,12.59,12.59,0,0,0-.41,3.34,12.2,12.2,0,0,0,.44,3.43,7.44,7.44,0,0,0,1.24,2.52,5.29,5.29,0,0,0,1.94,1.55,6,6,0,0,0,2.57.54,6.58,6.58,0,0,0,2.25-.33A6.8,6.8,0,0,0,734,196a10.49,10.49,0,0,0,1-.72,1.16,1.16,0,0,1,.76-.33.79.79,0,0,1,.71.36l1,1.37a8.08,8.08,0,0,1-3.46,2.49,12.28,12.28,0,0,1-4.39.79,9.29,9.29,0,0,1-3.71-.74,8.45,8.45,0,0,1-3-2.13,10.13,10.13,0,0,1-2-3.43,13.82,13.82,0,0,1-.72-4.64,14,14,0,0,1,.66-4.39,9.93,9.93,0,0,1,1.93-3.48,8.76,8.76,0,0,1,3.14-2.28,10.58,10.58,0,0,1,4.28-.82,10.09,10.09,0,0,1,3.95.72,9.45,9.45,0,0,1,3,2Z" transform="translate(-16.83 51.35)"/><path class="cls-13" d="M746.4,171.7a2.39,2.39,0,0,1-.22,1,3,3,0,0,1-.59.84,2.73,2.73,0,0,1-.85.58,2.54,2.54,0,0,1-1,.21,2.47,2.47,0,0,1-1-.21,2.8,2.8,0,0,1-1.42-1.42,2.47,2.47,0,0,1-.21-1,2.62,2.62,0,0,1,.21-1,2.7,2.7,0,0,1,.58-.86,2.79,2.79,0,0,1,.84-.58,2.49,2.49,0,0,1,1-.21,2.56,2.56,0,0,1,1,.21,2.75,2.75,0,0,1,.85.58,2.88,2.88,0,0,1,.59.86A2.53,2.53,0,0,1,746.4,171.7Zm-.84,6.68v21.27h-3.74V178.38Z" transform="translate(-16.83 51.35)"/><path class="cls-13" d="M767.77,199.65h-1.66a2,2,0,0,1-.88-.17.93.93,0,0,1-.44-.71l-.42-2q-.84.76-1.64,1.35a9.33,9.33,0,0,1-1.68,1,8.67,8.67,0,0,1-1.88.62A10.81,10.81,0,0,1,757,200a7.55,7.55,0,0,1-2.32-.35,5.27,5.27,0,0,1-1.88-1,5,5,0,0,1-1.27-1.76,6.18,6.18,0,0,1-.47-2.52,4.71,4.71,0,0,1,.69-2.43,6.09,6.09,0,0,1,2.24-2.08,14.53,14.53,0,0,1,4-1.49,27.54,27.54,0,0,1,6.11-.58v-1.67A5.79,5.79,0,0,0,763,182.3,3.84,3.84,0,0,0,759.9,181a6.64,6.64,0,0,0-2.3.35,8.73,8.73,0,0,0-1.62.78q-.68.43-1.18.78a1.7,1.7,0,0,1-1,.35,1.11,1.11,0,0,1-.66-.2,1.51,1.51,0,0,1-.45-.49l-.67-1.2a12.16,12.16,0,0,1,3.8-2.54,11.75,11.75,0,0,1,4.52-.84,8.06,8.06,0,0,1,3.17.59,6.51,6.51,0,0,1,2.33,1.64,6.94,6.94,0,0,1,1.43,2.54,10.57,10.57,0,0,1,.48,3.28Zm-9.7-2.29a7.64,7.64,0,0,0,1.81-.2,7.18,7.18,0,0,0,1.54-.57,8.19,8.19,0,0,0,1.39-.89,12,12,0,0,0,1.29-1.2v-4.39a25.12,25.12,0,0,0-4.39.33,12.32,12.32,0,0,0-2.94.86,4.11,4.11,0,0,0-1.65,1.25,2.7,2.7,0,0,0-.51,1.61,3.57,3.57,0,0,0,.27,1.46,2.75,2.75,0,0,0,.74,1,2.88,2.88,0,0,0,1.09.57A5,5,0,0,0,758.07,197.36Z" transform="translate(-16.83 51.35)"/><path class="cls-13" d="M773.44,199.65V178.38h2.23a1,1,0,0,1,1,.78l.29,2.31a12,12,0,0,1,3.1-2.48,8.06,8.06,0,0,1,4-.95,7.69,7.69,0,0,1,3.08.58,6,6,0,0,1,2.23,1.64,7.22,7.22,0,0,1,1.35,2.55,11.08,11.08,0,0,1,.46,3.3v13.54h-3.74V186.11a5.73,5.73,0,0,0-1.1-3.75,4.12,4.12,0,0,0-3.37-1.33,6.28,6.28,0,0,0-3.1.8,10.2,10.2,0,0,0-2.66,2.16v15.67Z" transform="translate(-16.83 51.35)"/><path class="cls-13" d="M820.9,174.26a1.63,1.63,0,0,1-.4.47.88.88,0,0,1-.55.16,1.45,1.45,0,0,1-.83-.36,13.34,13.34,0,0,0-1.2-.79,9.75,9.75,0,0,0-1.74-.79,7.52,7.52,0,0,0-2.47-.36,7.29,7.29,0,0,0-2.42.37,5.13,5.13,0,0,0-1.75,1,4.08,4.08,0,0,0-1.06,1.48,4.7,4.7,0,0,0-.36,1.84,3.4,3.4,0,0,0,.62,2.09,5.31,5.31,0,0,0,1.64,1.42,12.52,12.52,0,0,0,2.31,1l2.65.89q1.35.46,2.65,1a9.34,9.34,0,0,1,2.31,1.46,6.66,6.66,0,0,1,1.64,2.16,7.2,7.2,0,0,1,.62,3.15,10.15,10.15,0,0,1-.67,3.71,8.55,8.55,0,0,1-2,3,9.19,9.19,0,0,1-3.17,2,11.66,11.66,0,0,1-4.27.74,13.05,13.05,0,0,1-5.32-1.06,12.49,12.49,0,0,1-4.11-2.87l1.18-1.93a1.57,1.57,0,0,1,.41-.39,1,1,0,0,1,.54-.16,1.67,1.67,0,0,1,1,.47,16.85,16.85,0,0,0,1.42,1,10.84,10.84,0,0,0,2.06,1,8.13,8.13,0,0,0,3,.47,7.75,7.75,0,0,0,2.58-.4,5.48,5.48,0,0,0,1.92-1.12,4.87,4.87,0,0,0,1.21-1.73,5.81,5.81,0,0,0,.42-2.25,3.77,3.77,0,0,0-.62-2.24,5.14,5.14,0,0,0-1.63-1.46,11.42,11.42,0,0,0-2.3-1l-2.65-.84a26.49,26.49,0,0,1-2.65-1,8.62,8.62,0,0,1-2.3-1.47,6.76,6.76,0,0,1-1.63-2.26,8.65,8.65,0,0,1,0-6.44,8,8,0,0,1,1.79-2.65,8.71,8.71,0,0,1,2.91-1.85,10.65,10.65,0,0,1,4-.69,12.73,12.73,0,0,1,4.6.8,10.6,10.6,0,0,1,3.63,2.31Z" transform="translate(-16.83 51.35)"/><path class="cls-13" d="M830.39,178.38v13.57a5.64,5.64,0,0,0,1.11,3.74,4.14,4.14,0,0,0,3.36,1.32,6.44,6.44,0,0,0,3.09-.78,9.62,9.62,0,0,0,2.67-2.16V178.38h3.74v21.27h-2.23a1,1,0,0,1-1-.78l-.29-2.29a11.7,11.7,0,0,1-3.11,2.47,8.15,8.15,0,0,1-3.95.93,7.67,7.67,0,0,1-3.08-.58,6.08,6.08,0,0,1-2.24-1.63,6.9,6.9,0,0,1-1.35-2.54,11.32,11.32,0,0,1-.45-3.3V178.38Z" transform="translate(-16.83 51.35)"/><path class="cls-13" d="M850.51,206.86V178.38h2.23a1,1,0,0,1,1,.78l.32,2.52a11.35,11.35,0,0,1,3.12-2.67,8,8,0,0,1,4-1,7.67,7.67,0,0,1,3.32.7,6.85,6.85,0,0,1,2.54,2.08,10,10,0,0,1,1.62,3.41,17.52,17.52,0,0,1,.57,4.68,14.68,14.68,0,0,1-.63,4.38,10.68,10.68,0,0,1-1.81,3.51,8.43,8.43,0,0,1-2.89,2.33,8.53,8.53,0,0,1-3.85.85,7.94,7.94,0,0,1-3.37-.65,7.58,7.58,0,0,1-2.47-1.85v9.41ZM860,181a6,6,0,0,0-3.2.84,9.23,9.23,0,0,0-2.53,2.37v10.29a6,6,0,0,0,2.26,2,6.46,6.46,0,0,0,2.74.57,5.36,5.36,0,0,0,4.56-2.12,9.91,9.91,0,0,0,1.6-6,15.13,15.13,0,0,0-.37-3.57,7,7,0,0,0-1.06-2.45,4.13,4.13,0,0,0-1.7-1.4A5.66,5.66,0,0,0,860,181Z" transform="translate(-16.83 51.35)"/><path class="cls-13" d="M882.12,178a9.5,9.5,0,0,1,3.53.64,7.92,7.92,0,0,1,2.79,1.85,8.44,8.44,0,0,1,1.84,3,11.51,11.51,0,0,1,.66,4,2.44,2.44,0,0,1-.19,1.18.78.78,0,0,1-.71.29H875.88a11.76,11.76,0,0,0,.55,3.51,7.17,7.17,0,0,0,1.39,2.49,5.55,5.55,0,0,0,2.1,1.49,7.21,7.21,0,0,0,2.73.49,8,8,0,0,0,2.43-.33,11.55,11.55,0,0,0,1.75-.7,13.29,13.29,0,0,0,1.23-.7,1.63,1.63,0,0,1,.85-.33.82.82,0,0,1,.71.36l1,1.37a7.1,7.1,0,0,1-1.66,1.46,10.39,10.39,0,0,1-2.07,1,13.27,13.27,0,0,1-2.28.6,13.94,13.94,0,0,1-2.33.2,10.81,10.81,0,0,1-4.06-.75,8.9,8.9,0,0,1-3.21-2.18,10,10,0,0,1-2.11-3.56,14.48,14.48,0,0,1-.76-4.87,12.4,12.4,0,0,1,.68-4.16,9.81,9.81,0,0,1,2-3.35,9,9,0,0,1,3.13-2.23A10.27,10.27,0,0,1,882.12,178Zm.08,2.75a5.74,5.74,0,0,0-4.26,1.56A7.36,7.36,0,0,0,876,186.7h11.57a7.56,7.56,0,0,0-.36-2.38,5.32,5.32,0,0,0-1-1.87,4.71,4.71,0,0,0-1.69-1.22A5.7,5.7,0,0,0,882.2,180.79Z" transform="translate(-16.83 51.35)"/><path class="cls-13" d="M895.7,199.65V178.38h2.14a1.18,1.18,0,0,1,.84.23,1.42,1.42,0,0,1,.32.8l.25,3.32a9.72,9.72,0,0,1,2.7-3.48,6.36,6.36,0,0,1,5.37-1.05,5.64,5.64,0,0,1,1.32.56l-.48,2.79a.63.63,0,0,1-.65.53,3.27,3.27,0,0,1-.9-.2,5.7,5.7,0,0,0-1.7-.2,4.82,4.82,0,0,0-3.27,1.13,8.51,8.51,0,0,0-2.19,3.3v13.54Z" transform="translate(-16.83 51.35)"/><path class="cls-13" d="M909.94,178.38H913a1.15,1.15,0,0,1,.73.23,1.31,1.31,0,0,1,.42.55l5.4,13.69a10.55,10.55,0,0,1,.46,1.51q.17.76.32,1.49.17-.74.36-1.49a12.62,12.62,0,0,1,.48-1.51l5.46-13.69a1.25,1.25,0,0,1,.41-.56,1.11,1.11,0,0,1,.7-.22h2.92L922,199.65h-3.38Z" transform="translate(-16.83 51.35)"/><path class="cls-13" d="M939.13,171.7a2.39,2.39,0,0,1-.22,1,3,3,0,0,1-.59.84,2.73,2.73,0,0,1-.85.58,2.54,2.54,0,0,1-1,.21,2.47,2.47,0,0,1-1-.21,2.8,2.8,0,0,1-1.42-1.42,2.47,2.47,0,0,1-.21-1,2.62,2.62,0,0,1,.21-1,2.7,2.7,0,0,1,.58-.86,2.79,2.79,0,0,1,.84-.58,2.49,2.49,0,0,1,1-.21,2.56,2.56,0,0,1,1,.21,2.75,2.75,0,0,1,.85.58,2.88,2.88,0,0,1,.59.86A2.53,2.53,0,0,1,939.13,171.7Zm-.84,6.68v21.27h-3.74V178.38Z" transform="translate(-16.83 51.35)"/><path class="cls-13" d="M957.07,181.89a.83.83,0,0,1-.78.46,1.46,1.46,0,0,1-.71-.23q-.4-.23-1-.51a9.26,9.26,0,0,0-1.37-.53,6.59,6.59,0,0,0-1.89-.24,5.61,5.61,0,0,0-1.7.24,4.09,4.09,0,0,0-1.29.66,2.93,2.93,0,0,0-.82,1,2.63,2.63,0,0,0-.28,1.21,2,2,0,0,0,.47,1.37,4.09,4.09,0,0,0,1.25.95,11,11,0,0,0,1.76.7l2,.65q1,.35,2,.77a7.35,7.35,0,0,1,1.76,1,4.81,4.81,0,0,1,1.25,1.54,4.73,4.73,0,0,1,.47,2.2,7,7,0,0,1-.53,2.72,5.93,5.93,0,0,1-1.55,2.16,7.49,7.49,0,0,1-2.52,1.44,10.36,10.36,0,0,1-3.44.53,10.74,10.74,0,0,1-4-.72,10.23,10.23,0,0,1-3.07-1.86L944,196a1.29,1.29,0,0,1,.4-.42,1.13,1.13,0,0,1,.61-.15,1.41,1.41,0,0,1,.8.29q.42.29,1,.65a7.77,7.77,0,0,0,1.45.65,6.6,6.6,0,0,0,2.13.29,5.83,5.83,0,0,0,1.91-.28,4,4,0,0,0,1.37-.77,3.06,3.06,0,0,0,.81-1.11,3.46,3.46,0,0,0,.26-1.34,2.23,2.23,0,0,0-.47-1.46,4,4,0,0,0-1.25-1,10.14,10.14,0,0,0-1.77-.71l-2-.64q-1-.34-2-.77a7.17,7.17,0,0,1-1.77-1.08,4.91,4.91,0,0,1-1.25-1.61,5.19,5.19,0,0,1-.47-2.32,5.66,5.66,0,0,1,.5-2.34,5.75,5.75,0,0,1,1.47-2,7.25,7.25,0,0,1,2.37-1.35,9.49,9.49,0,0,1,3.21-.5,10.15,10.15,0,0,1,3.77.66,8.91,8.91,0,0,1,2.89,1.82Z" transform="translate(-16.83 51.35)"/><path class="cls-13" d="M971.72,178a10.93,10.93,0,0,1,4.21.78,8.87,8.87,0,0,1,3.19,2.21,9.78,9.78,0,0,1,2,3.45,14.95,14.95,0,0,1,0,9.06,9.79,9.79,0,0,1-2,3.44,8.76,8.76,0,0,1-3.19,2.19,11.95,11.95,0,0,1-8.42,0,8.85,8.85,0,0,1-3.2-2.19,9.83,9.83,0,0,1-2-3.44,14.73,14.73,0,0,1,0-9.06,9.82,9.82,0,0,1,2-3.45,9,9,0,0,1,3.2-2.21A10.93,10.93,0,0,1,971.72,178Zm0,19a5.46,5.46,0,0,0,4.7-2.11,12,12,0,0,0,0-11.81,5.45,5.45,0,0,0-4.7-2.12,6.52,6.52,0,0,0-2.77.55,5.19,5.19,0,0,0-2,1.58,7,7,0,0,0-1.18,2.53,14.95,14.95,0,0,0,0,6.77,6.89,6.89,0,0,0,1.18,2.51,5.24,5.24,0,0,0,2,1.56A6.52,6.52,0,0,0,971.72,197Z" transform="translate(-16.83 51.35)"/><path class="cls-13" d="M986.46,199.65V178.38h2.14a1.18,1.18,0,0,1,.84.23,1.42,1.42,0,0,1,.32.8l.25,3.32a9.72,9.72,0,0,1,2.7-3.48,6.36,6.36,0,0,1,5.37-1.05,5.64,5.64,0,0,1,1.32.56l-.48,2.79a.63.63,0,0,1-.65.53,3.27,3.27,0,0,1-.9-.2,5.7,5.7,0,0,0-1.7-.2,4.82,4.82,0,0,0-3.27,1.13,8.51,8.51,0,0,0-2.19,3.3v13.54Z" transform="translate(-16.83 51.35)"/><path class="cls-13" d="M1015.57,181.89a.83.83,0,0,1-.78.46,1.46,1.46,0,0,1-.71-.23q-.4-.23-1-.51a9.26,9.26,0,0,0-1.37-.53,6.59,6.59,0,0,0-1.89-.24,5.61,5.61,0,0,0-1.7.24,4.09,4.09,0,0,0-1.29.66,2.93,2.93,0,0,0-.82,1,2.63,2.63,0,0,0-.28,1.21,2,2,0,0,0,.47,1.37,4.09,4.09,0,0,0,1.25.95,11,11,0,0,0,1.76.7l2,.65q1,.35,2,.77a7.35,7.35,0,0,1,1.76,1,4.81,4.81,0,0,1,1.25,1.54,4.73,4.73,0,0,1,.47,2.2,7,7,0,0,1-.53,2.72,5.93,5.93,0,0,1-1.55,2.16,7.49,7.49,0,0,1-2.52,1.44,10.36,10.36,0,0,1-3.44.53,10.74,10.74,0,0,1-4-.72,10.23,10.23,0,0,1-3.07-1.86l.88-1.43a1.29,1.29,0,0,1,.4-.42,1.13,1.13,0,0,1,.61-.15,1.41,1.41,0,0,1,.8.29q.42.29,1,.65a7.77,7.77,0,0,0,1.45.65,6.6,6.6,0,0,0,2.13.29,5.83,5.83,0,0,0,1.91-.28,4,4,0,0,0,1.37-.77,3.06,3.06,0,0,0,.81-1.11,3.46,3.46,0,0,0,.26-1.34,2.23,2.23,0,0,0-.47-1.46,4,4,0,0,0-1.25-1,10.14,10.14,0,0,0-1.77-.71l-2-.64q-1-.34-2-.77a7.17,7.17,0,0,1-1.77-1.08,4.91,4.91,0,0,1-1.25-1.61,5.19,5.19,0,0,1-.47-2.32,5.66,5.66,0,0,1,.5-2.34,5.75,5.75,0,0,1,1.47-2,7.25,7.25,0,0,1,2.37-1.35,9.49,9.49,0,0,1,3.21-.5,10.15,10.15,0,0,1,3.77.66,8.91,8.91,0,0,1,2.89,1.82Z" transform="translate(-16.83 51.35)"/><path class="cls-13" d="M1019.27,172.25a12.67,12.67,0,0,1,1.44-1.16,10.83,10.83,0,0,1,1.72-1,10.52,10.52,0,0,1,2-.66,10.72,10.72,0,0,1,2.34-.24,9.48,9.48,0,0,1,3.08.48,7.36,7.36,0,0,1,2.45,1.37,6.3,6.3,0,0,1,1.62,2.14,6.63,6.63,0,0,1,.59,2.83,7.24,7.24,0,0,1-.47,2.75,7.66,7.66,0,0,1-1.2,2,9.17,9.17,0,0,1-1.58,1.51l-1.61,1.21a10.54,10.54,0,0,0-1.28,1.13,2.2,2.2,0,0,0-.62,1.26l-.38,3.21h-2.56l-.25-3.49v-.23a2.68,2.68,0,0,1,.47-1.57,6.4,6.4,0,0,1,1.2-1.28q.72-.6,1.55-1.2a12.7,12.7,0,0,0,1.55-1.32,6.49,6.49,0,0,0,1.2-1.65,4.73,4.73,0,0,0,.47-2.18,3.7,3.7,0,0,0-.36-1.64,3.78,3.78,0,0,0-1-1.25,4.27,4.27,0,0,0-1.44-.79,5.62,5.62,0,0,0-1.77-.27,6.76,6.76,0,0,0-2.19.32,8.22,8.22,0,0,0-1.54.69,9,9,0,0,0-1,.69,1.13,1.13,0,0,1-.64.31.91.91,0,0,1-.82-.48Zm4.12,25.09a2.68,2.68,0,0,1,.75-1.87,2.62,2.62,0,0,1,2.89-.57,2.7,2.7,0,0,1,.84.57,2.55,2.55,0,0,1,.56.84,2.78,2.78,0,0,1,0,2.07,2.57,2.57,0,0,1-.56.83,2.54,2.54,0,0,1-.84.56,2.76,2.76,0,0,1-2.06,0,2.44,2.44,0,0,1-.83-.56,2.63,2.63,0,0,1-.75-1.87Z" transform="translate(-16.83 51.35)"/></g></g></g></svg>