<svg xmlns="http://www.w3.org/2000/svg" xmlns:xlink="http://www.w3.org/1999/xlink" viewBox="0 0 1168.31 508.75"><defs><style>.cls-1{fill:#9f344c;}.cls-2{fill:none;}.cls-3{isolation:isolate;}.cls-4{clip-path:url(#clip-path);}.cls-5{mix-blend-mode:multiply;}.cls-6{clip-path:url(#clip-path-2);}.cls-7{clip-path:url(#clip-path-3);}.cls-8{clip-path:url(#clip-path-4);}.cls-9{fill:url(#linear-gradient);}.cls-10{clip-path:url(#clip-path-5);}.cls-11{clip-path:url(#clip-path-6);}.cls-12{fill:url(#linear-gradient-2);}.cls-13{clip-path:url(#clip-path-7);}.cls-14{clip-path:url(#clip-path-8);}.cls-15{fill:url(#linear-gradient-3);}.cls-16{clip-path:url(#clip-path-9);}.cls-17{clip-path:url(#clip-path-10);}.cls-18{fill:url(#linear-gradient-4);}.cls-19{clip-path:url(#clip-path-11);}.cls-20{clip-path:url(#clip-path-12);}.cls-21{fill:url(#linear-gradient-5);}.cls-22{fill:#fff;}</style><clipPath id="clip-path" transform="translate(-10.71 42.66)"><path class="cls-1" d="M407.45,92.15C400.73,135.46,353.78,159,353.78,159s47,22.66,53.67,66,38.88,83.85,64.41,83.85h586.06c25.53,0,57.69-40.33,64.41-83.65S1176,158.67,1176,158.67s-47-23.18-53.66-66.5S1083.45,7.8,1057.92,7.8H471.86c-25.53,0-57.69,41-64.41,84.35"/></clipPath><clipPath id="clip-path-2" transform="translate(-10.71 42.66)"><rect class="cls-2" x="10.66" y="0.3" width="405.2" height="509.63"/></clipPath><clipPath id="clip-path-3" transform="translate(-10.71 42.66)"><path class="cls-2" d="M202.54-1.49s43.66,4.45,67.05,31,13.69,60.51,7.86,83.09c0,0-15,40.84-15.22,43.28s-1.79-33.16-6.36-43.48,3.39-39.14-13.69-50.64-41.91-7.06-41.91-7.06S164.92,44,147.69,63s-7.86,34.11-10.52,49-4.43,33.81-4.43,33.81-6.21-41.91-7.13-58S110.46,13.21,202.54-1.49"/></clipPath><clipPath id="clip-path-4" transform="translate(-10.71 42.66)"><rect class="cls-2" x="111.93" y="-42.66" width="181.89" height="158.14"/></clipPath><linearGradient id="linear-gradient" y1="-304.19" x2="1" y2="-304.19" gradientTransform="matrix(0, -539.72, -539.72, 0, -163985.47, 538.38)" gradientUnits="userSpaceOnUse"><stop offset="0" stop-color="#802b3b"/><stop offset="0.08" stop-color="#913143"/><stop offset="0.19" stop-color="#9f354a"/><stop offset="0.32" stop-color="#a7384e"/><stop offset="0.53" stop-color="#aa394f"/><stop offset="0.97" stop-color="#aa394f"/><stop offset="1" stop-color="#aa394f"/></linearGradient><clipPath id="clip-path-5" transform="translate(-10.71 42.66)"><path class="cls-2" d="M155.39,207.71S152.25,223.59,161,236s31.37,32.58,38.27,30.69,52.16-42.7,55.07-53.76-.6-13.24-.6-13.24,17.43,14.77,18.27,18.85,1.36,8.47,1.36,8.47,63.21,6.6,89,27.54,41.92,84.8,48.51,132.31S420.67,498.2,399.8,516.6s-55.95,17.5-55.95,17.5-29.91,3.34-32.27-4.3,5.8-22.28-.59-39.53-12.48-43.76-6.61-53.69l17-3.93s-4.81-20.81-20.88-20.49S280.1,432.43,261,431.87s-56.9-11.56-56.9-11.56l.11-111.66L201,297.23,209.24,282,231,267.4l-6.65-8-21.18,15.27-8-.15-18.58-12.24-8.92,9.63,19.24,11.7-3.37,9.56-8.87,15.19L163.82,409.67s-26.61-5.61-43.8.18-28.84,24.4-27.5,36.24c0,0-1.48,9.1,11.58,7.9,0,0-5.26,81.52-5.44,83.37s-20.93,6-41.53,2.21-40.87-31-44.78-54.82-.41-93.19,4.09-121.14S28.29,277.77,55.13,268s64-18,74.17-27.51,22.47-32,26.09-32.75"/></clipPath><clipPath id="clip-path-6" transform="translate(-10.71 42.66)"><rect class="cls-2" x="10.71" y="154.28" width="411.81" height="310.34"/></clipPath><linearGradient id="linear-gradient-2" y1="-304.19" y2="-304.19" gradientTransform="matrix(0, -539.73, -539.73, 0, -163976.48, 535.76)" xlink:href="#linear-gradient"/><clipPath id="clip-path-7" transform="translate(-10.71 42.66)"><path class="cls-2" d="M316.07,525.51s-44.4-13.58-73.44-29.27-59.46-30.92-64-31.36-53-16.88-75.77-10.26l-.23,2.3s39.25-4.15,75.56,13.18,105.13,62.26,138.15,60.28-.23-4.87-.23-4.87"/></clipPath><clipPath id="clip-path-8" transform="translate(-10.71 42.66)"><rect class="cls-2" x="105.4" y="402.45" width="246.66" height="62.07"/></clipPath><linearGradient id="linear-gradient-3" y1="-304.19" y2="-304.19" gradientTransform="matrix(0, -539.74, -539.74, 0, -163976.09, 535.66)" xlink:href="#linear-gradient"/><clipPath id="clip-path-9" transform="translate(-10.71 42.66)"><path class="cls-2" d="M310.87,436.59s-38.71-4.91-54.35-9.18L254,431.5l58.43,11.41s-2.77-6.43-1.54-6.31"/></clipPath><clipPath id="clip-path-10" transform="translate(-10.71 42.66)"><rect class="cls-2" x="252.58" y="379.95" width="57.75" height="16.19"/></clipPath><linearGradient id="linear-gradient-4" y1="-304.19" y2="-304.19" gradientTransform="matrix(0, -539.67, -539.67, 0, -163894.13, 534.51)" xlink:href="#linear-gradient"/><clipPath id="clip-path-11" transform="translate(-10.71 42.66)"><path class="cls-2" d="M95.54,531.49s51.89,2.17,95.39-7.6,58.27-19.14,58.27-19.14l7.09,3.14s-32.4,16.67-69,22.45-96.73,8.4-96.73,8.4Z"/></clipPath><clipPath id="clip-path-12" transform="translate(-10.71 42.66)"><rect class="cls-2" x="91.63" y="460.69" width="165.15" height="5.4"/></clipPath><linearGradient id="linear-gradient-5" y1="-304.19" y2="-304.19" gradientTransform="matrix(0, -539.72, -539.72, 0, -164015.87, 537.23)" xlink:href="#linear-gradient"/></defs><title>original3</title><g class="cls-3"><g id="Layers"><path class="cls-1" d="M407.45,92.15C400.73,135.46,353.78,159,353.78,159s47,22.66,53.67,66,38.88,83.85,64.41,83.85h586.06c25.53,0,57.69-40.33,64.41-83.65S1176,158.67,1176,158.67s-47-23.18-53.66-66.5S1083.45,7.8,1057.92,7.8H471.86c-25.53,0-57.69,41-64.41,84.35" transform="translate(-10.71 42.66)"/><g class="cls-4"><rect class="cls-1" x="276.71" y="48.91" width="891.6" height="307.27"/></g><g id="Brown_Joseph" data-name="Brown Joseph"><g class="cls-5"><g class="cls-6"><g class="cls-7"><g class="cls-8"><rect class="cls-9" x="101.22" width="181.89" height="158.14"/></g></g><g class="cls-10"><g class="cls-11"><rect class="cls-12" y="196.94" width="411.81" height="310.34"/></g></g><g class="cls-13"><g class="cls-14"><rect class="cls-15" x="94.7" y="445.11" width="246.66" height="62.07"/></g></g><g class="cls-16"><g class="cls-17"><rect class="cls-18" x="241.87" y="422.62" width="57.75" height="16.19"/></g></g><g class="cls-19"><g class="cls-20"><rect class="cls-21" x="80.93" y="503.35" width="165.15" height="5.4"/></g></g></g></g><path class="cls-22" d="M453,99.69H448.9V69.6H453Z" transform="translate(-10.71 42.66)"/><path class="cls-22" d="M475,100a5.13,5.13,0,0,1-3.87-1.41,5.61,5.61,0,0,1-1.35-4.05v-13h-2.56a.84.84,0,0,1-.57-.2.77.77,0,0,1-.23-.62V79.24l3.49-.44.86-6.57a.79.79,0,0,1,.27-.51.87.87,0,0,1,.59-.2h1.89v7.33h6.09v2.71h-6.09V94.31a2.72,2.72,0,0,0,.65,2,2.28,2.28,0,0,0,1.68.65,3,3,0,0,0,1-.16,4.42,4.42,0,0,0,.75-.35q.31-.19.54-.35a.7.7,0,0,1,.39-.16.64.64,0,0,1,.52.36l1.09,1.78a7,7,0,0,1-2.33,1.42A7.92,7.92,0,0,1,475,100Z" transform="translate(-10.71 42.66)"/><path class="cls-22" d="M484.22,99.69V68.76H488V81.27A11.46,11.46,0,0,1,491,79a8.1,8.1,0,0,1,3.82-.87,7.69,7.69,0,0,1,3.08.58,6,6,0,0,1,2.23,1.64,7.25,7.25,0,0,1,1.35,2.55,11.12,11.12,0,0,1,.46,3.3V99.69h-3.74V86.14a5.73,5.73,0,0,0-1.1-3.75,4.12,4.12,0,0,0-3.37-1.33,6.28,6.28,0,0,0-3.1.8A10.19,10.19,0,0,0,488,84V99.69Z" transform="translate(-10.71 42.66)"/><path class="cls-22" d="M512.57,71.74a2.37,2.37,0,0,1-.22,1,2.93,2.93,0,0,1-.59.84,2.72,2.72,0,0,1-.85.58,2.55,2.55,0,0,1-1,.21,2.48,2.48,0,0,1-1-.21,2.8,2.8,0,0,1-1.42-1.42,2.48,2.48,0,0,1-.21-1,2.63,2.63,0,0,1,.21-1,2.7,2.7,0,0,1,.58-.86,2.77,2.77,0,0,1,.84-.58,2.48,2.48,0,0,1,1-.21,2.56,2.56,0,0,1,1,.21,2.74,2.74,0,0,1,.85.58,2.85,2.85,0,0,1,.59.86A2.51,2.51,0,0,1,512.57,71.74Zm-.84,6.68V99.69H508V78.42Z" transform="translate(-10.71 42.66)"/><path class="cls-22" d="M518.32,99.69V78.42h2.23a1,1,0,0,1,1,.78l.29,2.31a11.94,11.94,0,0,1,3.1-2.48,8.05,8.05,0,0,1,4-.94,7.69,7.69,0,0,1,3.08.58,6,6,0,0,1,2.23,1.64,7.24,7.24,0,0,1,1.35,2.55,11.12,11.12,0,0,1,.46,3.3V99.69h-3.74V86.14a5.73,5.73,0,0,0-1.1-3.75,4.12,4.12,0,0,0-3.37-1.33,6.28,6.28,0,0,0-3.1.8A10.19,10.19,0,0,0,522.06,84V99.69Z" transform="translate(-10.71 42.66)"/><path class="cls-22" d="M545.56,68.76V87h1a1.79,1.79,0,0,0,.69-.12,2,2,0,0,0,.61-.47l6.72-7.2a3.67,3.67,0,0,1,.63-.55,1.5,1.5,0,0,1,.84-.21h3.4l-7.83,8.34a7.32,7.32,0,0,1-.58.63,3.35,3.35,0,0,1-.64.48,3.85,3.85,0,0,1,.68.58,5.46,5.46,0,0,1,.58.75l8.32,10.5h-3.36a1.62,1.62,0,0,1-.79-.18,2.06,2.06,0,0,1-.62-.56l-7-8.71a1.63,1.63,0,0,0-.63-.58,2.5,2.5,0,0,0-.95-.14h-1V99.69H541.8V68.76Z" transform="translate(-10.71 42.66)"/><path class="cls-22" d="M577.2,99.69h-4.07V69.6h4.07Z" transform="translate(-10.71 42.66)"/><path class="cls-22" d="M590,78.42H593a1.19,1.19,0,0,1,.76.23,1.16,1.16,0,0,1,.4.55l4.07,13.69q.17.76.31,1.46t.25,1.42q.17-.71.38-1.42l.44-1.46,4.49-13.78a1.11,1.11,0,0,1,.37-.52,1,1,0,0,1,.66-.21h1.62a1.11,1.11,0,0,1,.69.21,1.09,1.09,0,0,1,.38.52l4.39,13.78q.23.74.41,1.45l.35,1.41q.1-.69.27-1.45t.36-1.41l4.16-13.69a1.09,1.09,0,0,1,.4-.56,1.12,1.12,0,0,1,.69-.22h2.81l-6.89,21.27h-3q-.55,0-.76-.71l-4.7-14.43a8.07,8.07,0,0,1-.27-1l-.21-1-.21,1a8.11,8.11,0,0,1-.27,1L600.58,99a.88.88,0,0,1-.86.71H596.9Z" transform="translate(-10.71 42.66)"/><path class="cls-22" d="M640.58,99.69h-1.66a2,2,0,0,1-.88-.17.93.93,0,0,1-.44-.71l-.42-2q-.84.76-1.64,1.35a9.33,9.33,0,0,1-1.68,1,8.66,8.66,0,0,1-1.88.62,10.8,10.8,0,0,1-2.21.21,7.55,7.55,0,0,1-2.32-.35,5.27,5.27,0,0,1-1.88-1,5,5,0,0,1-1.27-1.76,6.16,6.16,0,0,1-.47-2.52,4.71,4.71,0,0,1,.69-2.43,6.09,6.09,0,0,1,2.24-2.08,14.54,14.54,0,0,1,4-1.49,27.55,27.55,0,0,1,6.11-.58V86.11a5.79,5.79,0,0,0-1.06-3.77,3.84,3.84,0,0,0-3.14-1.28,6.64,6.64,0,0,0-2.3.35,8.73,8.73,0,0,0-1.62.78q-.68.43-1.18.78a1.7,1.7,0,0,1-1,.35,1.12,1.12,0,0,1-.66-.2,1.52,1.52,0,0,1-.45-.49l-.67-1.2a12.14,12.14,0,0,1,3.8-2.54,11.74,11.74,0,0,1,4.51-.84,8.07,8.07,0,0,1,3.17.59,6.5,6.5,0,0,1,2.33,1.64,6.94,6.94,0,0,1,1.43,2.54,10.6,10.6,0,0,1,.48,3.28Zm-9.7-2.29a7.65,7.65,0,0,0,1.81-.2,7.15,7.15,0,0,0,1.54-.57,8.16,8.16,0,0,0,1.39-.89,12,12,0,0,0,1.29-1.2V90.16a25.12,25.12,0,0,0-4.39.33,12.3,12.3,0,0,0-2.94.86,4.1,4.1,0,0,0-1.65,1.25,2.7,2.7,0,0,0-.51,1.61,3.55,3.55,0,0,0,.27,1.46,2.76,2.76,0,0,0,.73,1,2.89,2.89,0,0,0,1.09.57A4.94,4.94,0,0,0,630.88,97.4Z" transform="translate(-10.71 42.66)"/><path class="cls-22" d="M646.25,99.69V78.42h2.22a1,1,0,0,1,1,.78l.29,2.31a11.93,11.93,0,0,1,3.1-2.48,8.05,8.05,0,0,1,4-.94,7.7,7.7,0,0,1,3.08.58,6,6,0,0,1,2.22,1.64,7.24,7.24,0,0,1,1.36,2.55,11.08,11.08,0,0,1,.46,3.3V99.69h-3.74V86.14a5.73,5.73,0,0,0-1.1-3.75,4.12,4.12,0,0,0-3.37-1.33,6.27,6.27,0,0,0-3.1.8A10.19,10.19,0,0,0,650,84V99.69Z" transform="translate(-10.71 42.66)"/><path class="cls-22" d="M676,100a5.12,5.12,0,0,1-3.87-1.41,5.61,5.61,0,0,1-1.35-4.05v-13h-2.56a.84.84,0,0,1-.57-.2.77.77,0,0,1-.23-.62V79.24l3.49-.44.86-6.57a.79.79,0,0,1,.27-.51.87.87,0,0,1,.59-.2h1.89v7.33h6.09v2.71h-6.09V94.31a2.72,2.72,0,0,0,.65,2,2.27,2.27,0,0,0,1.68.65,3,3,0,0,0,1-.16,4.41,4.41,0,0,0,.75-.35q.31-.19.54-.35a.7.7,0,0,1,.39-.16.64.64,0,0,1,.53.36l1.09,1.78a7,7,0,0,1-2.33,1.42A7.92,7.92,0,0,1,676,100Z" transform="translate(-10.71 42.66)"/><path class="cls-22" d="M699.82,100a5.12,5.12,0,0,1-3.87-1.41,5.61,5.61,0,0,1-1.35-4.05v-13H692a.84.84,0,0,1-.57-.2.77.77,0,0,1-.23-.62V79.24l3.49-.44.86-6.57a.79.79,0,0,1,.27-.51.87.87,0,0,1,.59-.2h1.89v7.33h6.09v2.71h-6.09V94.31a2.72,2.72,0,0,0,.65,2,2.27,2.27,0,0,0,1.68.65,3,3,0,0,0,1-.16,4.41,4.41,0,0,0,.75-.35q.31-.19.54-.35a.7.7,0,0,1,.39-.16.64.64,0,0,1,.53.36L705,98.09a7,7,0,0,1-2.33,1.42A7.92,7.92,0,0,1,699.82,100Z" transform="translate(-10.71 42.66)"/><path class="cls-22" d="M717.65,78.08a10.93,10.93,0,0,1,4.21.78,8.87,8.87,0,0,1,3.19,2.21,9.78,9.78,0,0,1,2,3.45,14.95,14.95,0,0,1,0,9.06,9.79,9.79,0,0,1-2,3.44,8.76,8.76,0,0,1-3.19,2.19,11.95,11.95,0,0,1-8.42,0,8.85,8.85,0,0,1-3.2-2.19,9.83,9.83,0,0,1-2-3.44,14.73,14.73,0,0,1,0-9.06,9.82,9.82,0,0,1,2-3.45,9,9,0,0,1,3.2-2.21A10.93,10.93,0,0,1,717.65,78.08Zm0,19a5.46,5.46,0,0,0,4.7-2.11,9.77,9.77,0,0,0,1.55-5.89,9.86,9.86,0,0,0-1.55-5.92,5.45,5.45,0,0,0-4.7-2.12,6.52,6.52,0,0,0-2.77.55,5.19,5.19,0,0,0-2,1.58,7,7,0,0,0-1.18,2.53,14.95,14.95,0,0,0,0,6.77A6.89,6.89,0,0,0,712.91,95a5.24,5.24,0,0,0,2,1.56A6.52,6.52,0,0,0,717.65,97.06Z" transform="translate(-10.71 42.66)"/><path class="cls-22" d="M740.62,99.69V68.76h3.76V81.48a10.86,10.86,0,0,1,3-2.47,8,8,0,0,1,3.92-.93,7.83,7.83,0,0,1,3.34.69,6.75,6.75,0,0,1,2.54,2.07,10,10,0,0,1,1.62,3.4,17.4,17.4,0,0,1,.57,4.67,14.68,14.68,0,0,1-.63,4.38,10.55,10.55,0,0,1-1.82,3.51A8.41,8.41,0,0,1,750.2,100a7.12,7.12,0,0,1-3.5-.8A8,8,0,0,1,744.19,97L744,98.89a.9.9,0,0,1-1,.8Zm9.49-18.63a6,6,0,0,0-3.2.84,9.23,9.23,0,0,0-2.53,2.37V94.57a5.86,5.86,0,0,0,2.24,2,6.46,6.46,0,0,0,2.74.57A5.38,5.38,0,0,0,753.94,95a9.91,9.91,0,0,0,1.6-6,15.08,15.08,0,0,0-.37-3.57,7,7,0,0,0-1.06-2.45,4.13,4.13,0,0,0-1.7-1.4A5.66,5.66,0,0,0,750.11,81.06Z" transform="translate(-10.71 42.66)"/><path class="cls-22" d="M772.39,78.08a9.49,9.49,0,0,1,3.53.64,7.92,7.92,0,0,1,2.79,1.85,8.44,8.44,0,0,1,1.84,3,11.51,11.51,0,0,1,.66,4,2.44,2.44,0,0,1-.19,1.18.78.78,0,0,1-.71.29H766.16a11.76,11.76,0,0,0,.55,3.51,7.17,7.17,0,0,0,1.39,2.49,5.55,5.55,0,0,0,2.1,1.49,7.21,7.21,0,0,0,2.73.49,8,8,0,0,0,2.43-.33,11.55,11.55,0,0,0,1.75-.7,13.29,13.29,0,0,0,1.23-.7,1.63,1.63,0,0,1,.85-.33.82.82,0,0,1,.71.36l1,1.37a7.1,7.1,0,0,1-1.66,1.46,10.39,10.39,0,0,1-2.07,1,13.27,13.27,0,0,1-2.28.6,13.94,13.94,0,0,1-2.33.2,10.81,10.81,0,0,1-4.06-.75,8.9,8.9,0,0,1-3.21-2.18,10,10,0,0,1-2.11-3.56,14.48,14.48,0,0,1-.76-4.87,12.4,12.4,0,0,1,.68-4.16,9.81,9.81,0,0,1,2-3.35,9,9,0,0,1,3.13-2.23A10.27,10.27,0,0,1,772.39,78.08Zm.08,2.75a5.74,5.74,0,0,0-4.26,1.56,7.36,7.36,0,0,0-1.93,4.34h11.57a7.56,7.56,0,0,0-.36-2.38,5.32,5.32,0,0,0-1-1.87,4.71,4.71,0,0,0-1.69-1.22A5.7,5.7,0,0,0,772.48,80.83Z" transform="translate(-10.71 42.66)"/><path class="cls-22" d="M809.71,99.69h-1.66a2,2,0,0,1-.88-.17.93.93,0,0,1-.44-.71l-.42-2q-.84.76-1.64,1.35a9.33,9.33,0,0,1-1.68,1,8.67,8.67,0,0,1-1.88.62,10.81,10.81,0,0,1-2.22.21,7.55,7.55,0,0,1-2.32-.35,5.27,5.27,0,0,1-1.88-1,5,5,0,0,1-1.27-1.76,6.18,6.18,0,0,1-.47-2.52,4.71,4.71,0,0,1,.69-2.43,6.09,6.09,0,0,1,2.24-2.08,14.53,14.53,0,0,1,4-1.49,27.54,27.54,0,0,1,6.11-.58V86.11A5.79,5.79,0,0,0,805,82.34a3.84,3.84,0,0,0-3.14-1.28,6.64,6.64,0,0,0-2.3.35,8.73,8.73,0,0,0-1.62.78q-.68.43-1.18.78a1.7,1.7,0,0,1-1,.35,1.11,1.11,0,0,1-.66-.2,1.51,1.51,0,0,1-.45-.49l-.67-1.2a12.16,12.16,0,0,1,3.8-2.54A11.75,11.75,0,0,1,802.3,78a8.06,8.06,0,0,1,3.17.59,6.5,6.5,0,0,1,2.33,1.64,7,7,0,0,1,1.43,2.54,10.57,10.57,0,0,1,.48,3.28ZM800,97.4a7.64,7.64,0,0,0,1.81-.2,7.18,7.18,0,0,0,1.54-.57,8.19,8.19,0,0,0,1.39-.89,12,12,0,0,0,1.29-1.2V90.16a25.12,25.12,0,0,0-4.39.33,12.32,12.32,0,0,0-2.94.86,4.11,4.11,0,0,0-1.65,1.25,2.7,2.7,0,0,0-.51,1.61,3.57,3.57,0,0,0,.27,1.46,2.75,2.75,0,0,0,.74,1,2.88,2.88,0,0,0,1.09.57A5,5,0,0,0,800,97.4Z" transform="translate(-10.71 42.66)"/><path class="cls-22" d="M839.49,74.3a1.63,1.63,0,0,1-.4.47.89.89,0,0,1-.55.16,1.45,1.45,0,0,1-.83-.36,13.45,13.45,0,0,0-1.2-.79,9.75,9.75,0,0,0-1.74-.79,7.51,7.51,0,0,0-2.47-.36,7.31,7.31,0,0,0-2.42.37,5.13,5.13,0,0,0-1.75,1,4.08,4.08,0,0,0-1.06,1.48,4.69,4.69,0,0,0-.36,1.84,3.4,3.4,0,0,0,.62,2.09A5.32,5.32,0,0,0,829,80.83a12.52,12.52,0,0,0,2.31,1l2.65.89q1.35.46,2.65,1a9.34,9.34,0,0,1,2.31,1.46,6.66,6.66,0,0,1,1.64,2.16,7.2,7.2,0,0,1,.62,3.15,10.15,10.15,0,0,1-.67,3.71,8.55,8.55,0,0,1-2,3,9.19,9.19,0,0,1-3.17,2,11.66,11.66,0,0,1-4.27.74A13.05,13.05,0,0,1,825.74,99a12.49,12.49,0,0,1-4.11-2.87l1.18-1.93a1.57,1.57,0,0,1,.41-.39,1,1,0,0,1,.54-.16,1.67,1.67,0,0,1,1,.47,16.85,16.85,0,0,0,1.42,1,10.84,10.84,0,0,0,2.06,1,8.13,8.13,0,0,0,3,.47,7.75,7.75,0,0,0,2.58-.4,5.48,5.48,0,0,0,1.92-1.12,4.87,4.87,0,0,0,1.21-1.73,5.81,5.81,0,0,0,.42-2.25,3.77,3.77,0,0,0-.62-2.24,5.14,5.14,0,0,0-1.63-1.46,11.42,11.42,0,0,0-2.3-1l-2.65-.84a26.49,26.49,0,0,1-2.65-1,8.62,8.62,0,0,1-2.3-1.47,6.76,6.76,0,0,1-1.63-2.26,8.25,8.25,0,0,1,1.79-9.08A8.71,8.71,0,0,1,828.26,70a10.64,10.64,0,0,1,4-.69,12.73,12.73,0,0,1,4.6.8,10.59,10.59,0,0,1,3.63,2.31Z" transform="translate(-10.71 42.66)"/><path class="cls-22" d="M852.19,100a5.12,5.12,0,0,1-3.87-1.41A5.61,5.61,0,0,1,847,94.57v-13H844.4a.84.84,0,0,1-.57-.2.77.77,0,0,1-.23-.62V79.24l3.49-.44.86-6.57a.79.79,0,0,1,.27-.51.87.87,0,0,1,.59-.2h1.89v7.33h6.09v2.71H850.7V94.31a2.72,2.72,0,0,0,.65,2A2.27,2.27,0,0,0,853,97a3,3,0,0,0,1-.16,4.41,4.41,0,0,0,.75-.35q.31-.19.54-.35a.7.7,0,0,1,.39-.16.64.64,0,0,1,.53.36l1.09,1.78A7,7,0,0,1,855,99.51,7.92,7.92,0,0,1,852.19,100Z" transform="translate(-10.71 42.66)"/><path class="cls-22" d="M877,99.69h-1.66a2,2,0,0,1-.88-.17.93.93,0,0,1-.44-.71l-.42-2q-.84.76-1.64,1.35a9.33,9.33,0,0,1-1.68,1,8.67,8.67,0,0,1-1.88.62,10.81,10.81,0,0,1-2.22.21,7.55,7.55,0,0,1-2.32-.35,5.27,5.27,0,0,1-1.88-1,5,5,0,0,1-1.27-1.76,6.18,6.18,0,0,1-.47-2.52,4.71,4.71,0,0,1,.69-2.43,6.09,6.09,0,0,1,2.24-2.08,14.53,14.53,0,0,1,4-1.49,27.54,27.54,0,0,1,6.11-.58V86.11a5.79,5.79,0,0,0-1.06-3.77,3.84,3.84,0,0,0-3.14-1.28,6.64,6.64,0,0,0-2.3.35,8.73,8.73,0,0,0-1.62.78q-.68.43-1.18.78a1.7,1.7,0,0,1-1,.35,1.11,1.11,0,0,1-.66-.2,1.51,1.51,0,0,1-.45-.49l-.67-1.2a12.16,12.16,0,0,1,3.8-2.54,11.75,11.75,0,0,1,4.52-.84,8.06,8.06,0,0,1,3.17.59,6.5,6.5,0,0,1,2.33,1.64,7,7,0,0,1,1.43,2.54,10.57,10.57,0,0,1,.48,3.28Zm-9.7-2.29a7.64,7.64,0,0,0,1.81-.2,7.18,7.18,0,0,0,1.54-.57,8.19,8.19,0,0,0,1.39-.89,12,12,0,0,0,1.29-1.2V90.16a25.12,25.12,0,0,0-4.39.33,12.32,12.32,0,0,0-2.94.86,4.11,4.11,0,0,0-1.65,1.25,2.7,2.7,0,0,0-.51,1.61,3.57,3.57,0,0,0,.27,1.46,2.75,2.75,0,0,0,.74,1,2.88,2.88,0,0,0,1.09.57A5,5,0,0,0,867.33,97.4Z" transform="translate(-10.71 42.66)"/><path class="cls-22" d="M883.54,99.69V81.61l-2.35-.27a1.87,1.87,0,0,1-.72-.33.76.76,0,0,1-.28-.64V78.84h3.36V76.78a9.46,9.46,0,0,1,.51-3.24,6.56,6.56,0,0,1,1.47-2.39,6.22,6.22,0,0,1,2.3-1.48,8.55,8.55,0,0,1,3-.5,8.06,8.06,0,0,1,2.65.42l-.08,1.87a.48.48,0,0,1-.36.5,4.1,4.1,0,0,1-.95.08h-.65a5.72,5.72,0,0,0-1.75.25,3.32,3.32,0,0,0-1.35.82,3.7,3.7,0,0,0-.87,1.49,7.4,7.4,0,0,0-.3,2.29v2h6.15v2.71h-6V99.69Z" transform="translate(-10.71 42.66)"/><path class="cls-22" d="M897.7,99.69V81.61l-2.35-.27a1.87,1.87,0,0,1-.72-.33.76.76,0,0,1-.28-.64V78.84h3.36V76.78a9.46,9.46,0,0,1,.51-3.24,6.56,6.56,0,0,1,1.47-2.39,6.22,6.22,0,0,1,2.3-1.48,8.55,8.55,0,0,1,3-.5,8.06,8.06,0,0,1,2.65.42l-.08,1.87a.48.48,0,0,1-.36.5,4.1,4.1,0,0,1-.95.08h-.65a5.72,5.72,0,0,0-1.75.25,3.32,3.32,0,0,0-1.35.82,3.7,3.7,0,0,0-.87,1.49,7.4,7.4,0,0,0-.3,2.29v2h6.15v2.71h-6V99.69Z" transform="translate(-10.71 42.66)"/><path class="cls-22" d="M944.46,99.69h-3.15a1.35,1.35,0,0,1-.88-.27,1.68,1.68,0,0,1-.5-.69l-2.81-7.27h-13.5l-2.81,7.27a1.65,1.65,0,0,1-.5.67,1.34,1.34,0,0,1-.88.29h-3.15l12-30.09h4.14ZM924.75,88.52H936l-4.72-12.24a22.77,22.77,0,0,1-.9-2.83q-.23.86-.45,1.59t-.43,1.27Z" transform="translate(-10.71 42.66)"/><path class="cls-22" d="M959.86,81.92a.83.83,0,0,1-.78.46,1.46,1.46,0,0,1-.71-.23q-.4-.23-1-.51a9.26,9.26,0,0,0-1.37-.53,6.59,6.59,0,0,0-1.89-.24,5.61,5.61,0,0,0-1.7.24,4.09,4.09,0,0,0-1.29.66,2.93,2.93,0,0,0-.82,1A2.63,2.63,0,0,0,950,84a2,2,0,0,0,.47,1.37,4.09,4.09,0,0,0,1.25.95,11,11,0,0,0,1.76.7l2,.65q1,.35,2,.77a7.35,7.35,0,0,1,1.76,1A4.81,4.81,0,0,1,960.58,91a4.73,4.73,0,0,1,.47,2.2,7,7,0,0,1-.53,2.72A5.93,5.93,0,0,1,959,98.06a7.49,7.49,0,0,1-2.52,1.44A10.36,10.36,0,0,1,953,100a10.74,10.74,0,0,1-4-.72,10.23,10.23,0,0,1-3.07-1.86l.88-1.43a1.29,1.29,0,0,1,.4-.42,1.13,1.13,0,0,1,.61-.15,1.41,1.41,0,0,1,.8.29q.42.29,1,.65a7.77,7.77,0,0,0,1.45.65,6.6,6.6,0,0,0,2.13.29,5.83,5.83,0,0,0,1.91-.28,4,4,0,0,0,1.37-.77,3.06,3.06,0,0,0,.81-1.11,3.46,3.46,0,0,0,.26-1.34,2.23,2.23,0,0,0-.47-1.46,4,4,0,0,0-1.25-1,10.14,10.14,0,0,0-1.77-.71L952,90q-1-.34-2-.77a7.17,7.17,0,0,1-1.77-1.08A4.91,4.91,0,0,1,947,86.58a5.19,5.19,0,0,1-.47-2.32,5.66,5.66,0,0,1,.5-2.34,5.75,5.75,0,0,1,1.47-2,7.24,7.24,0,0,1,2.37-1.35,9.49,9.49,0,0,1,3.21-.5,10.15,10.15,0,0,1,3.77.66,8.92,8.92,0,0,1,2.89,1.82Z" transform="translate(-10.71 42.66)"/><path class="cls-22" d="M978.08,81.92a.83.83,0,0,1-.78.46,1.46,1.46,0,0,1-.71-.23q-.4-.23-1-.51a9.26,9.26,0,0,0-1.37-.53,6.59,6.59,0,0,0-1.89-.24,5.61,5.61,0,0,0-1.7.24,4.09,4.09,0,0,0-1.29.66,2.93,2.93,0,0,0-.82,1,2.63,2.63,0,0,0-.28,1.21,2,2,0,0,0,.47,1.37,4.09,4.09,0,0,0,1.25.95,11,11,0,0,0,1.76.7l2,.65q1,.35,2,.77a7.35,7.35,0,0,1,1.76,1A4.81,4.81,0,0,1,978.81,91a4.73,4.73,0,0,1,.47,2.2,7,7,0,0,1-.53,2.72,5.93,5.93,0,0,1-1.55,2.16,7.49,7.49,0,0,1-2.52,1.44,10.36,10.36,0,0,1-3.44.53,10.74,10.74,0,0,1-4-.72,10.23,10.23,0,0,1-3.07-1.86L965,96a1.29,1.29,0,0,1,.4-.42,1.13,1.13,0,0,1,.61-.15,1.41,1.41,0,0,1,.8.29q.42.29,1,.65a7.77,7.77,0,0,0,1.45.65,6.6,6.6,0,0,0,2.13.29,5.83,5.83,0,0,0,1.91-.28,4,4,0,0,0,1.37-.77,3.06,3.06,0,0,0,.81-1.11,3.46,3.46,0,0,0,.26-1.34,2.23,2.23,0,0,0-.47-1.46,4,4,0,0,0-1.25-1,10.14,10.14,0,0,0-1.77-.71l-2-.64q-1-.34-2-.77a7.17,7.17,0,0,1-1.77-1.08,4.91,4.91,0,0,1-1.25-1.61,5.19,5.19,0,0,1-.47-2.32,5.66,5.66,0,0,1,.5-2.34,5.75,5.75,0,0,1,1.47-2,7.24,7.24,0,0,1,2.37-1.35,9.49,9.49,0,0,1,3.21-.5,10.15,10.15,0,0,1,3.77.66,8.92,8.92,0,0,1,2.89,1.82Z" transform="translate(-10.71 42.66)"/><path class="cls-22" d="M989.13,71.74a2.39,2.39,0,0,1-.22,1,3,3,0,0,1-.59.84,2.73,2.73,0,0,1-.85.58,2.55,2.55,0,0,1-1,.21,2.48,2.48,0,0,1-1-.21A2.79,2.79,0,0,1,984,72.76a2.47,2.47,0,0,1-.21-1,2.62,2.62,0,0,1,.21-1,2.7,2.7,0,0,1,.58-.86,2.79,2.79,0,0,1,.84-.58,2.49,2.49,0,0,1,1-.21,2.56,2.56,0,0,1,1,.21,2.75,2.75,0,0,1,.85.58,2.88,2.88,0,0,1,.59.86A2.53,2.53,0,0,1,989.13,71.74Zm-.84,6.68V99.69h-3.74V78.42Z" transform="translate(-10.71 42.66)"/><path class="cls-22" d="M1007.06,81.92a.83.83,0,0,1-.78.46,1.46,1.46,0,0,1-.71-.23q-.4-.23-1-.51a9.26,9.26,0,0,0-1.37-.53,6.59,6.59,0,0,0-1.89-.24,5.61,5.61,0,0,0-1.7.24,4.09,4.09,0,0,0-1.29.66,2.93,2.93,0,0,0-.82,1,2.63,2.63,0,0,0-.28,1.21,2,2,0,0,0,.47,1.37,4.09,4.09,0,0,0,1.25.95,11,11,0,0,0,1.76.7l2,.65q1,.35,2,.77a7.35,7.35,0,0,1,1.76,1,4.81,4.81,0,0,1,1.25,1.54,4.73,4.73,0,0,1,.47,2.2,7,7,0,0,1-.53,2.72,5.93,5.93,0,0,1-1.55,2.16,7.49,7.49,0,0,1-2.52,1.44,10.36,10.36,0,0,1-3.44.53,10.74,10.74,0,0,1-4-.72,10.23,10.23,0,0,1-3.07-1.86L994,96a1.29,1.29,0,0,1,.4-.42,1.13,1.13,0,0,1,.61-.15,1.41,1.41,0,0,1,.8.29q.42.29,1,.65a7.77,7.77,0,0,0,1.45.65,6.6,6.6,0,0,0,2.13.29,5.83,5.83,0,0,0,1.91-.28,4,4,0,0,0,1.37-.77,3.06,3.06,0,0,0,.81-1.11,3.46,3.46,0,0,0,.26-1.34,2.23,2.23,0,0,0-.47-1.46,4,4,0,0,0-1.25-1,10.14,10.14,0,0,0-1.77-.71l-2-.64q-1-.34-2-.77a7.17,7.17,0,0,1-1.77-1.08,4.91,4.91,0,0,1-1.25-1.61,5.19,5.19,0,0,1-.47-2.32,5.66,5.66,0,0,1,.5-2.34,5.75,5.75,0,0,1,1.47-2A7.24,7.24,0,0,1,998,78.58a9.49,9.49,0,0,1,3.21-.5,10.15,10.15,0,0,1,3.77.66,8.92,8.92,0,0,1,2.89,1.82Z" transform="translate(-10.71 42.66)"/><path class="cls-22" d="M1019.56,100a5.12,5.12,0,0,1-3.87-1.41,5.61,5.61,0,0,1-1.35-4.05v-13h-2.56a.84.84,0,0,1-.57-.2.77.77,0,0,1-.23-.62V79.24l3.49-.44.86-6.57a.79.79,0,0,1,.27-.51.87.87,0,0,1,.59-.2h1.89v7.33h6.09v2.71h-6.09V94.31a2.72,2.72,0,0,0,.65,2,2.27,2.27,0,0,0,1.68.65,3,3,0,0,0,1-.16,4.41,4.41,0,0,0,.75-.35q.31-.19.54-.35a.7.7,0,0,1,.39-.16.64.64,0,0,1,.53.36l1.09,1.78a7,7,0,0,1-2.33,1.42A7.92,7.92,0,0,1,1019.56,100Z" transform="translate(-10.71 42.66)"/><path class="cls-22" d="M1044.4,99.69h-1.66a2,2,0,0,1-.88-.17.93.93,0,0,1-.44-.71l-.42-2q-.84.76-1.64,1.35a9.33,9.33,0,0,1-1.68,1,8.67,8.67,0,0,1-1.88.62,10.81,10.81,0,0,1-2.22.21,7.55,7.55,0,0,1-2.32-.35,5.27,5.27,0,0,1-1.88-1,5,5,0,0,1-1.27-1.76,6.18,6.18,0,0,1-.47-2.52,4.71,4.71,0,0,1,.69-2.43,6.09,6.09,0,0,1,2.24-2.08,14.53,14.53,0,0,1,4-1.49,27.54,27.54,0,0,1,6.11-.58V86.11a5.79,5.79,0,0,0-1.06-3.77,3.84,3.84,0,0,0-3.14-1.28,6.64,6.64,0,0,0-2.3.35,8.73,8.73,0,0,0-1.62.78q-.68.43-1.18.78a1.7,1.7,0,0,1-1,.35,1.11,1.11,0,0,1-.66-.2,1.51,1.51,0,0,1-.45-.49l-.67-1.2a12.16,12.16,0,0,1,3.8-2.54A11.75,11.75,0,0,1,1037,78a8.06,8.06,0,0,1,3.17.59,6.5,6.5,0,0,1,2.33,1.64,7,7,0,0,1,1.43,2.54,10.57,10.57,0,0,1,.48,3.28Zm-9.7-2.29a7.64,7.64,0,0,0,1.81-.2,7.18,7.18,0,0,0,1.54-.57,8.19,8.19,0,0,0,1.39-.89,12,12,0,0,0,1.29-1.2V90.16a25.12,25.12,0,0,0-4.39.33,12.32,12.32,0,0,0-2.94.86,4.11,4.11,0,0,0-1.65,1.25,2.7,2.7,0,0,0-.51,1.61,3.57,3.57,0,0,0,.27,1.46,2.75,2.75,0,0,0,.74,1,2.88,2.88,0,0,0,1.09.57A5,5,0,0,0,1034.7,97.4Z" transform="translate(-10.71 42.66)"/><path class="cls-22" d="M1050.07,99.69V78.42h2.23a1,1,0,0,1,1,.78l.29,2.31a11.94,11.94,0,0,1,3.1-2.48,8.06,8.06,0,0,1,4-.94,7.69,7.69,0,0,1,3.08.58A6,6,0,0,1,1066,80.3a7.22,7.22,0,0,1,1.35,2.55,11.08,11.08,0,0,1,.46,3.3V99.69H1064V86.14a5.73,5.73,0,0,0-1.1-3.75,4.12,4.12,0,0,0-3.37-1.33,6.28,6.28,0,0,0-3.1.8,10.2,10.2,0,0,0-2.66,2.16V99.69Z" transform="translate(-10.71 42.66)"/><path class="cls-22" d="M1079.87,100a5.12,5.12,0,0,1-3.87-1.41,5.61,5.61,0,0,1-1.35-4.05v-13h-2.56a.84.84,0,0,1-.57-.2.77.77,0,0,1-.23-.62V79.24l3.49-.44.86-6.57a.79.79,0,0,1,.27-.51.87.87,0,0,1,.59-.2h1.89v7.33h6.09v2.71h-6.09V94.31a2.72,2.72,0,0,0,.65,2,2.27,2.27,0,0,0,1.68.65,3,3,0,0,0,1-.16,4.41,4.41,0,0,0,.75-.35q.31-.19.54-.35a.7.7,0,0,1,.39-.16.64.64,0,0,1,.53.36l1.09,1.78a7,7,0,0,1-2.33,1.42A7.92,7.92,0,0,1,1079.87,100Z" transform="translate(-10.71 42.66)"/><path class="cls-22" d="M1087.87,97.38a2.69,2.69,0,0,1,.75-1.87,2.62,2.62,0,0,1,2.89-.57,2.71,2.71,0,0,1,.84.57,2.58,2.58,0,0,1,.56.84,2.78,2.78,0,0,1,0,2.07,2.6,2.6,0,0,1-.56.83,2.55,2.55,0,0,1-.84.56,2.76,2.76,0,0,1-2.06,0,2.42,2.42,0,0,1-.83-.56,2.63,2.63,0,0,1-.75-1.87Z" transform="translate(-10.71 42.66)"/><path class="cls-22" d="M560.07,150.09H556V136.4H539.76v13.69h-4.09V120h4.09v13.42H556V120h4.1Z" transform="translate(-10.71 42.66)"/><path class="cls-22" d="M582.45,150.09h-1.66a2,2,0,0,1-.88-.17.93.93,0,0,1-.44-.71l-.42-2q-.84.76-1.64,1.35a9.44,9.44,0,0,1-1.68,1,8.73,8.73,0,0,1-1.88.62,10.8,10.8,0,0,1-2.22.21,7.55,7.55,0,0,1-2.32-.35,5.28,5.28,0,0,1-1.88-1,5,5,0,0,1-1.27-1.76,6.17,6.17,0,0,1-.47-2.52,4.71,4.71,0,0,1,.69-2.43,6.1,6.1,0,0,1,2.24-2.08,14.58,14.58,0,0,1,4-1.49,27.48,27.48,0,0,1,6.11-.58v-1.67a5.79,5.79,0,0,0-1.06-3.77,3.85,3.85,0,0,0-3.14-1.28,6.65,6.65,0,0,0-2.3.35,8.73,8.73,0,0,0-1.62.78q-.68.43-1.18.78a1.69,1.69,0,0,1-1,.35,1.12,1.12,0,0,1-.66-.2,1.52,1.52,0,0,1-.45-.49l-.67-1.2a12.15,12.15,0,0,1,3.8-2.54,11.74,11.74,0,0,1,4.51-.84,8.06,8.06,0,0,1,3.17.59,6.5,6.5,0,0,1,2.33,1.64,6.94,6.94,0,0,1,1.43,2.54,10.58,10.58,0,0,1,.48,3.28Zm-9.7-2.29a7.64,7.64,0,0,0,1.81-.2,7.13,7.13,0,0,0,1.54-.57,8.09,8.09,0,0,0,1.39-.89,11.89,11.89,0,0,0,1.29-1.2v-4.39a25,25,0,0,0-4.39.33,12.29,12.29,0,0,0-2.94.86A4.09,4.09,0,0,0,569.8,143a2.69,2.69,0,0,0-.51,1.61,3.57,3.57,0,0,0,.27,1.46,2.76,2.76,0,0,0,.74,1,2.91,2.91,0,0,0,1.09.57A5,5,0,0,0,572.75,147.8Z" transform="translate(-10.71 42.66)"/><path class="cls-22" d="M600.3,132.32a.83.83,0,0,1-.78.46,1.46,1.46,0,0,1-.71-.23q-.4-.23-1-.51a9.16,9.16,0,0,0-1.38-.53,6.56,6.56,0,0,0-1.89-.24,5.57,5.57,0,0,0-1.7.24,4.09,4.09,0,0,0-1.29.66,2.94,2.94,0,0,0-.82,1,2.63,2.63,0,0,0-.28,1.21,2,2,0,0,0,.47,1.37,4.11,4.11,0,0,0,1.25.94,10.82,10.82,0,0,0,1.76.7l2,.65q1,.35,2,.77a7.37,7.37,0,0,1,1.76,1,4.81,4.81,0,0,1,1.25,1.54,4.73,4.73,0,0,1,.47,2.19,7,7,0,0,1-.52,2.72,5.94,5.94,0,0,1-1.55,2.16,7.49,7.49,0,0,1-2.52,1.44,10.36,10.36,0,0,1-3.44.52,10.73,10.73,0,0,1-4-.72,10.19,10.19,0,0,1-3.07-1.86l.88-1.43a1.28,1.28,0,0,1,.4-.42,1.12,1.12,0,0,1,.61-.15,1.42,1.42,0,0,1,.8.29q.42.29,1,.65a7.87,7.87,0,0,0,1.45.65,6.6,6.6,0,0,0,2.13.29,5.83,5.83,0,0,0,1.91-.28,4,4,0,0,0,1.37-.77,3,3,0,0,0,.81-1.11,3.44,3.44,0,0,0,.26-1.34,2.23,2.23,0,0,0-.47-1.46,4,4,0,0,0-1.25-1,10.25,10.25,0,0,0-1.77-.71l-2-.64q-1-.34-2-.77a7.14,7.14,0,0,1-1.77-1.08A4.89,4.89,0,0,1,587.4,137a5.2,5.2,0,0,1-.47-2.32,5.66,5.66,0,0,1,.5-2.34,5.73,5.73,0,0,1,1.47-2,7.22,7.22,0,0,1,2.37-1.35,9.49,9.49,0,0,1,3.21-.5,10.16,10.16,0,0,1,3.77.66,8.94,8.94,0,0,1,2.89,1.82Z" transform="translate(-10.71 42.66)"/><path class="cls-22" d="M630.08,150.09h-1.66a2,2,0,0,1-.88-.17.93.93,0,0,1-.44-.71l-.42-2q-.84.76-1.64,1.35a9.44,9.44,0,0,1-1.68,1,8.72,8.72,0,0,1-1.88.62,10.8,10.8,0,0,1-2.21.21,7.55,7.55,0,0,1-2.32-.35,5.27,5.27,0,0,1-1.88-1,5,5,0,0,1-1.27-1.76,6.16,6.16,0,0,1-.47-2.52,4.71,4.71,0,0,1,.69-2.43,6.09,6.09,0,0,1,2.24-2.08,14.57,14.57,0,0,1,4-1.49,27.48,27.48,0,0,1,6.11-.58v-1.67a5.79,5.79,0,0,0-1.06-3.77,3.84,3.84,0,0,0-3.14-1.28,6.64,6.64,0,0,0-2.3.35,8.73,8.73,0,0,0-1.62.78q-.68.43-1.18.78a1.7,1.7,0,0,1-1,.35,1.12,1.12,0,0,1-.66-.2A1.53,1.53,0,0,1,615,133l-.67-1.2a12.14,12.14,0,0,1,3.8-2.54,11.74,11.74,0,0,1,4.51-.84,8.07,8.07,0,0,1,3.17.59,6.49,6.49,0,0,1,2.33,1.64,6.93,6.93,0,0,1,1.43,2.54,10.61,10.61,0,0,1,.48,3.28Zm-9.7-2.29a7.65,7.65,0,0,0,1.81-.2,7.1,7.1,0,0,0,1.54-.57,8.1,8.1,0,0,0,1.39-.89,12,12,0,0,0,1.29-1.2v-4.39a25,25,0,0,0-4.39.33,12.3,12.3,0,0,0-2.94.86,4.09,4.09,0,0,0-1.65,1.25,2.69,2.69,0,0,0-.51,1.61,3.55,3.55,0,0,0,.27,1.46,2.77,2.77,0,0,0,.73,1,2.92,2.92,0,0,0,1.09.57A5,5,0,0,0,620.38,147.8Z" transform="translate(-10.71 42.66)"/><path class="cls-22" d="M635.75,150.09V128.82H638a1,1,0,0,1,1,.78l.29,2.31a12,12,0,0,1,3.1-2.48,8.06,8.06,0,0,1,4-.94,7.7,7.7,0,0,1,3.08.58,6,6,0,0,1,2.22,1.64,7.23,7.23,0,0,1,1.36,2.55,11.08,11.08,0,0,1,.46,3.3v13.54h-3.74V136.54a5.73,5.73,0,0,0-1.1-3.75,4.12,4.12,0,0,0-3.37-1.33,6.29,6.29,0,0,0-3.1.8,10.21,10.21,0,0,0-2.66,2.16v15.67Z" transform="translate(-10.71 42.66)"/><path class="cls-22" d="M664.67,156.37a2,2,0,0,1-.47.67,1.28,1.28,0,0,1-.87.25h-2.77l3.89-8.44-8.78-20h3.23a1.1,1.1,0,0,1,.76.24,1.52,1.52,0,0,1,.4.54l5.69,13.4a9.65,9.65,0,0,1,.33.92q.14.46.24.95l.29-.95q.15-.46.34-.95l5.52-13.38a1.2,1.2,0,0,1,.43-.56,1.11,1.11,0,0,1,.66-.22h3Z" transform="translate(-10.71 42.66)"/><path class="cls-22" d="M688,128.48a10.93,10.93,0,0,1,4.21.78,8.88,8.88,0,0,1,3.19,2.21,9.77,9.77,0,0,1,2,3.46,14.95,14.95,0,0,1,0,9.06,9.78,9.78,0,0,1-2,3.44,8.76,8.76,0,0,1-3.19,2.19,11.95,11.95,0,0,1-8.42,0,8.85,8.85,0,0,1-3.2-2.19,9.82,9.82,0,0,1-2-3.44,14.73,14.73,0,0,1,0-9.06,9.81,9.81,0,0,1,2-3.46,9,9,0,0,1,3.2-2.21A10.93,10.93,0,0,1,688,128.48Zm0,19a5.46,5.46,0,0,0,4.7-2.11,12,12,0,0,0,0-11.81,5.45,5.45,0,0,0-4.7-2.12,6.54,6.54,0,0,0-2.77.55,5.2,5.2,0,0,0-2,1.58,7,7,0,0,0-1.18,2.53,14.95,14.95,0,0,0,0,6.77,6.88,6.88,0,0,0,1.18,2.51,5.22,5.22,0,0,0,2,1.56A6.52,6.52,0,0,0,688,147.46Z" transform="translate(-10.71 42.66)"/><path class="cls-22" d="M702.74,150.09V128.82H705a1,1,0,0,1,1,.78l.29,2.31a11.93,11.93,0,0,1,3.1-2.48,8.06,8.06,0,0,1,4-.94,7.69,7.69,0,0,1,3.08.58,6,6,0,0,1,2.23,1.64,7.22,7.22,0,0,1,1.35,2.55,11.08,11.08,0,0,1,.46,3.3v13.54h-3.74V136.54a5.73,5.73,0,0,0-1.1-3.75,4.12,4.12,0,0,0-3.37-1.33,6.29,6.29,0,0,0-3.1.8,10.22,10.22,0,0,0-2.66,2.16v15.67Z" transform="translate(-10.71 42.66)"/><path class="cls-22" d="M734.51,128.48a9.48,9.48,0,0,1,3.53.64,7.92,7.92,0,0,1,2.79,1.85,8.43,8.43,0,0,1,1.84,3,11.52,11.52,0,0,1,.66,4,2.44,2.44,0,0,1-.19,1.18.78.78,0,0,1-.71.29H728.28a11.75,11.75,0,0,0,.55,3.51,7.17,7.17,0,0,0,1.39,2.49,5.54,5.54,0,0,0,2.1,1.49,7.21,7.21,0,0,0,2.73.49,8,8,0,0,0,2.43-.33,11.55,11.55,0,0,0,1.75-.7,13.53,13.53,0,0,0,1.23-.7,1.63,1.63,0,0,1,.85-.33.82.82,0,0,1,.71.36l1,1.37a7.1,7.1,0,0,1-1.66,1.46,10.33,10.33,0,0,1-2.07,1,13.09,13.09,0,0,1-2.28.6,13.94,13.94,0,0,1-2.33.2,10.81,10.81,0,0,1-4.06-.75,8.9,8.9,0,0,1-3.21-2.18,10,10,0,0,1-2.11-3.56,14.48,14.48,0,0,1-.76-4.87,12.39,12.39,0,0,1,.68-4.16,9.8,9.8,0,0,1,2-3.35,9,9,0,0,1,3.13-2.23A10.27,10.27,0,0,1,734.51,128.48Zm.08,2.75a5.74,5.74,0,0,0-4.26,1.56,7.36,7.36,0,0,0-1.93,4.34H740a7.56,7.56,0,0,0-.36-2.38,5.31,5.31,0,0,0-1-1.87,4.7,4.7,0,0,0-1.69-1.22A5.72,5.72,0,0,0,734.6,131.23Z" transform="translate(-10.71 42.66)"/><path class="cls-22" d="M761.2,122.14a2.38,2.38,0,0,1-.22,1,3,3,0,0,1-.59.84,2.73,2.73,0,0,1-.85.58,2.56,2.56,0,0,1-1,.21,2.49,2.49,0,0,1-1-.21,2.79,2.79,0,0,1-1.42-1.42,2.47,2.47,0,0,1-.21-1,2.62,2.62,0,0,1,.21-1,2.69,2.69,0,0,1,.58-.86,2.78,2.78,0,0,1,.84-.58,2.49,2.49,0,0,1,1-.21,2.56,2.56,0,0,1,1,.21,2.75,2.75,0,0,1,.85.58,2.87,2.87,0,0,1,.59.86A2.53,2.53,0,0,1,761.2,122.14Zm-.84,6.68v21.27h-3.74V128.82Z" transform="translate(-10.71 42.66)"/><path class="cls-22" d="M767,150.09V128.82h2.23a1,1,0,0,1,1,.78l.29,2.31a11.93,11.93,0,0,1,3.1-2.48,8.06,8.06,0,0,1,4-.94,7.69,7.69,0,0,1,3.08.58,6,6,0,0,1,2.23,1.64,7.22,7.22,0,0,1,1.35,2.55,11.08,11.08,0,0,1,.46,3.3v13.54h-3.74V136.54a5.73,5.73,0,0,0-1.1-3.75,4.12,4.12,0,0,0-3.37-1.33,6.29,6.29,0,0,0-3.1.8,10.22,10.22,0,0,0-2.66,2.16v15.67Z" transform="translate(-10.71 42.66)"/><path class="cls-22" d="M798.41,150.09V128.82h2.23a1,1,0,0,1,1,.78l.27,2.18a10.9,10.9,0,0,1,2.64-2.37,6.2,6.2,0,0,1,3.39-.92,5,5,0,0,1,3.5,1.2,6.74,6.74,0,0,1,1.92,3.23,6.66,6.66,0,0,1,1.17-2,6.78,6.78,0,0,1,1.63-1.39,6.9,6.9,0,0,1,1.92-.8,8.58,8.58,0,0,1,2.07-.25,7.87,7.87,0,0,1,3,.54,5.94,5.94,0,0,1,2.23,1.56,7,7,0,0,1,1.4,2.53,11.2,11.2,0,0,1,.48,3.43v13.54h-3.74V136.54a5.73,5.73,0,0,0-1.09-3.79,3.92,3.92,0,0,0-3.17-1.29,4.74,4.74,0,0,0-1.75.33,4.23,4.23,0,0,0-1.46,1,4.48,4.48,0,0,0-1,1.58,6.15,6.15,0,0,0-.37,2.22v13.54h-3.74V136.54a6,6,0,0,0-1-3.82,3.65,3.65,0,0,0-3-1.26,4.74,4.74,0,0,0-2.57.75,8.42,8.42,0,0,0-2.17,2v15.85Z" transform="translate(-10.71 42.66)"/><path class="cls-22" d="M838.46,156.37a2,2,0,0,1-.47.67,1.28,1.28,0,0,1-.87.25h-2.77l3.89-8.44-8.78-20h3.23a1.1,1.1,0,0,1,.76.24,1.52,1.52,0,0,1,.4.54l5.69,13.4a9.65,9.65,0,0,1,.33.92q.14.46.24.95l.29-.95q.15-.46.34-.95l5.52-13.38a1.2,1.2,0,0,1,.43-.56,1.11,1.11,0,0,1,.66-.22h3Z" transform="translate(-10.71 42.66)"/><path class="cls-22" d="M861.83,157.29V128.82h2.23a1,1,0,0,1,1,.78l.32,2.52a11.35,11.35,0,0,1,3.12-2.67,8,8,0,0,1,4-1,7.68,7.68,0,0,1,3.32.7,6.84,6.84,0,0,1,2.54,2.08,10,10,0,0,1,1.62,3.41,17.52,17.52,0,0,1,.57,4.68,14.68,14.68,0,0,1-.63,4.38,10.66,10.66,0,0,1-1.81,3.51,8.42,8.42,0,0,1-2.89,2.33,8.53,8.53,0,0,1-3.85.85,7.94,7.94,0,0,1-3.37-.65,7.6,7.6,0,0,1-2.47-1.85v9.41Zm9.47-25.83a6,6,0,0,0-3.2.84,9.24,9.24,0,0,0-2.53,2.37V145a6,6,0,0,0,2.26,2,6.46,6.46,0,0,0,2.74.57,5.36,5.36,0,0,0,4.56-2.12,9.91,9.91,0,0,0,1.6-6,15.14,15.14,0,0,0-.37-3.57,7,7,0,0,0-1.06-2.45,4.13,4.13,0,0,0-1.7-1.4A5.66,5.66,0,0,0,871.3,131.46Z" transform="translate(-10.71 42.66)"/><path class="cls-22" d="M893.63,128.48a10.93,10.93,0,0,1,4.21.78,8.88,8.88,0,0,1,3.19,2.21,9.77,9.77,0,0,1,2,3.46,14.95,14.95,0,0,1,0,9.06,9.78,9.78,0,0,1-2,3.44,8.76,8.76,0,0,1-3.19,2.19,11.95,11.95,0,0,1-8.42,0,8.85,8.85,0,0,1-3.2-2.19,9.82,9.82,0,0,1-2-3.44,14.73,14.73,0,0,1,0-9.06,9.81,9.81,0,0,1,2-3.46,9,9,0,0,1,3.2-2.21A10.93,10.93,0,0,1,893.63,128.48Zm0,19a5.46,5.46,0,0,0,4.7-2.11,12,12,0,0,0,0-11.81,5.45,5.45,0,0,0-4.7-2.12,6.54,6.54,0,0,0-2.77.55,5.2,5.2,0,0,0-2,1.58,7,7,0,0,0-1.18,2.53,14.95,14.95,0,0,0,0,6.77,6.88,6.88,0,0,0,1.18,2.51,5.22,5.22,0,0,0,2,1.56A6.52,6.52,0,0,0,893.63,147.46Z" transform="translate(-10.71 42.66)"/><path class="cls-22" d="M920.55,132.32a.83.83,0,0,1-.78.46,1.46,1.46,0,0,1-.71-.23q-.4-.23-1-.51a9.15,9.15,0,0,0-1.37-.53,6.56,6.56,0,0,0-1.89-.24,5.58,5.58,0,0,0-1.7.24,4.1,4.1,0,0,0-1.29.66,2.94,2.94,0,0,0-.82,1,2.63,2.63,0,0,0-.28,1.21,2,2,0,0,0,.47,1.37,4.11,4.11,0,0,0,1.25.94,10.87,10.87,0,0,0,1.76.7l2,.65q1,.35,2,.77a7.35,7.35,0,0,1,1.76,1,4.8,4.8,0,0,1,1.25,1.54,4.73,4.73,0,0,1,.47,2.19,7,7,0,0,1-.53,2.72,5.94,5.94,0,0,1-1.55,2.16,7.5,7.5,0,0,1-2.52,1.44,10.36,10.36,0,0,1-3.44.52,10.74,10.74,0,0,1-4-.72,10.21,10.21,0,0,1-3.07-1.86l.88-1.43a1.28,1.28,0,0,1,.4-.42,1.13,1.13,0,0,1,.61-.15,1.41,1.41,0,0,1,.8.29q.42.29,1,.65a7.83,7.83,0,0,0,1.45.65,6.6,6.6,0,0,0,2.13.29,5.83,5.83,0,0,0,1.91-.28,4,4,0,0,0,1.37-.77,3.06,3.06,0,0,0,.81-1.11,3.46,3.46,0,0,0,.26-1.34,2.23,2.23,0,0,0-.47-1.46,4,4,0,0,0-1.25-1,10.22,10.22,0,0,0-1.77-.71l-2-.64q-1-.34-2-.77a7.14,7.14,0,0,1-1.77-1.08,4.88,4.88,0,0,1-1.25-1.61,5.19,5.19,0,0,1-.47-2.32,5.66,5.66,0,0,1,.5-2.34,5.74,5.74,0,0,1,1.47-2,7.23,7.23,0,0,1,2.37-1.35,9.49,9.49,0,0,1,3.21-.5,10.15,10.15,0,0,1,3.77.66,8.94,8.94,0,0,1,2.89,1.82Z" transform="translate(-10.71 42.66)"/><path class="cls-22" d="M931.59,122.14a2.38,2.38,0,0,1-.22,1,3,3,0,0,1-.59.84,2.73,2.73,0,0,1-.85.58,2.56,2.56,0,0,1-1,.21,2.49,2.49,0,0,1-1-.21,2.79,2.79,0,0,1-1.42-1.42,2.47,2.47,0,0,1-.21-1,2.62,2.62,0,0,1,.21-1,2.69,2.69,0,0,1,.58-.86,2.78,2.78,0,0,1,.84-.58,2.49,2.49,0,0,1,1-.21,2.56,2.56,0,0,1,1,.21,2.75,2.75,0,0,1,.85.58,2.87,2.87,0,0,1,.59.86A2.53,2.53,0,0,1,931.59,122.14Zm-.84,6.68v21.27H927V128.82Z" transform="translate(-10.71 42.66)"/><path class="cls-22" d="M943.79,150.43a5.13,5.13,0,0,1-3.87-1.41,5.61,5.61,0,0,1-1.35-4.05v-13H936a.84.84,0,0,1-.57-.2.78.78,0,0,1-.23-.62v-1.49l3.49-.44.86-6.57a.79.79,0,0,1,.27-.51.87.87,0,0,1,.59-.2h1.89v7.33h6.09v2.71H942.3v12.77a2.72,2.72,0,0,0,.65,2,2.27,2.27,0,0,0,1.68.65,3,3,0,0,0,1-.16,4.34,4.34,0,0,0,.75-.35c.21-.13.39-.24.54-.35a.7.7,0,0,1,.39-.16.64.64,0,0,1,.53.36l1.09,1.79a7,7,0,0,1-2.33,1.42A7.9,7.9,0,0,1,943.79,150.43Z" transform="translate(-10.71 42.66)"/><path class="cls-22" d="M958,122.14a2.38,2.38,0,0,1-.22,1,3,3,0,0,1-.59.84,2.73,2.73,0,0,1-.85.58,2.56,2.56,0,0,1-1,.21,2.49,2.49,0,0,1-1-.21,2.79,2.79,0,0,1-1.42-1.42,2.47,2.47,0,0,1-.21-1,2.62,2.62,0,0,1,.21-1,2.69,2.69,0,0,1,.58-.86,2.78,2.78,0,0,1,.84-.58,2.49,2.49,0,0,1,1-.21,2.56,2.56,0,0,1,1,.21,2.75,2.75,0,0,1,.85.58,2.87,2.87,0,0,1,.59.86A2.53,2.53,0,0,1,958,122.14Zm-.84,6.68v21.27h-3.74V128.82Z" transform="translate(-10.71 42.66)"/><path class="cls-22" d="M972.38,128.48a10.93,10.93,0,0,1,4.21.78,8.88,8.88,0,0,1,3.19,2.21,9.77,9.77,0,0,1,2,3.46,14.95,14.95,0,0,1,0,9.06,9.78,9.78,0,0,1-2,3.44,8.76,8.76,0,0,1-3.19,2.19,11.95,11.95,0,0,1-8.42,0,8.85,8.85,0,0,1-3.2-2.19,9.82,9.82,0,0,1-2-3.44,14.73,14.73,0,0,1,0-9.06,9.81,9.81,0,0,1,2-3.46,9,9,0,0,1,3.2-2.21A10.93,10.93,0,0,1,972.38,128.48Zm0,19a5.46,5.46,0,0,0,4.7-2.11,12,12,0,0,0,0-11.81,5.45,5.45,0,0,0-4.7-2.12,6.54,6.54,0,0,0-2.77.55,5.2,5.2,0,0,0-2,1.58,7,7,0,0,0-1.18,2.53,14.95,14.95,0,0,0,0,6.77,6.88,6.88,0,0,0,1.18,2.51,5.22,5.22,0,0,0,2,1.56A6.52,6.52,0,0,0,972.38,147.46Z" transform="translate(-10.71 42.66)"/><path class="cls-22" d="M987.12,150.09V128.82h2.23a1,1,0,0,1,1,.78l.29,2.31a11.93,11.93,0,0,1,3.1-2.48,8.06,8.06,0,0,1,4-.94,7.69,7.69,0,0,1,3.08.58,6,6,0,0,1,2.23,1.64,7.22,7.22,0,0,1,1.35,2.55,11.08,11.08,0,0,1,.46,3.3v13.54h-3.74V136.54a5.73,5.73,0,0,0-1.1-3.75,4.12,4.12,0,0,0-3.37-1.33,6.29,6.29,0,0,0-3.1.8,10.22,10.22,0,0,0-2.66,2.16v15.67Z" transform="translate(-10.71 42.66)"/><path class="cls-22" d="M546.23,200.49a1,1,0,0,1-1-.78l-.34-2.58a11.19,11.19,0,0,1-3.12,2.66,8,8,0,0,1-4,1,7.67,7.67,0,0,1-3.32-.7,6.88,6.88,0,0,1-2.54-2.07,9.84,9.84,0,0,1-1.62-3.4,17.52,17.52,0,0,1-.57-4.68,14.68,14.68,0,0,1,.63-4.38,10.67,10.67,0,0,1,1.82-3.52,8.33,8.33,0,0,1,6.75-3.19,7.69,7.69,0,0,1,3.34.66,8,8,0,0,1,2.48,1.86v-11.8h3.74v30.93ZM539,197.76a6,6,0,0,0,3.2-.84,9.24,9.24,0,0,0,2.53-2.37V184.26a5.92,5.92,0,0,0-2.26-1.94,6.51,6.51,0,0,0-2.72-.56,5.38,5.38,0,0,0-4.58,2.12,9.9,9.9,0,0,0-1.6,6,15.36,15.36,0,0,0,.36,3.56,6.84,6.84,0,0,0,1,2.44,4.13,4.13,0,0,0,1.7,1.4A5.71,5.71,0,0,0,539,197.76Z" transform="translate(-10.71 42.66)"/><path class="cls-22" d="M563.34,178.88a10.93,10.93,0,0,1,4.21.78,8.87,8.87,0,0,1,3.19,2.21,9.77,9.77,0,0,1,2,3.45,14.95,14.95,0,0,1,0,9.06,9.79,9.79,0,0,1-2,3.44,8.76,8.76,0,0,1-3.19,2.19,11.95,11.95,0,0,1-8.42,0,8.86,8.86,0,0,1-3.2-2.19,9.8,9.8,0,0,1-2-3.44,14.73,14.73,0,0,1,0-9.06,9.79,9.79,0,0,1,2-3.45,9,9,0,0,1,3.2-2.21A10.93,10.93,0,0,1,563.34,178.88Zm0,19a5.46,5.46,0,0,0,4.7-2.11,12,12,0,0,0,0-11.81,5.45,5.45,0,0,0-4.7-2.12,6.52,6.52,0,0,0-2.77.55,5.19,5.19,0,0,0-2,1.58,7,7,0,0,0-1.18,2.53,14.95,14.95,0,0,0,0,6.77,6.9,6.9,0,0,0,1.18,2.51,5.24,5.24,0,0,0,2,1.56A6.52,6.52,0,0,0,563.34,197.86Z" transform="translate(-10.71 42.66)"/><path class="cls-22" d="M578.09,200.49V179.22h2.23a1,1,0,0,1,1,.78l.29,2.31a12,12,0,0,1,3.1-2.48,8.05,8.05,0,0,1,4-.95,7.69,7.69,0,0,1,3.08.58A6,6,0,0,1,594,181.1a7.23,7.23,0,0,1,1.35,2.55,11.12,11.12,0,0,1,.46,3.3v13.54h-3.74V186.94a5.73,5.73,0,0,0-1.1-3.75,4.12,4.12,0,0,0-3.37-1.33,6.28,6.28,0,0,0-3.1.8,10.19,10.19,0,0,0-2.66,2.16v15.67Z" transform="translate(-10.71 42.66)"/><path class="cls-22" d="M609.86,178.88a9.51,9.51,0,0,1,3.53.64,7.93,7.93,0,0,1,2.79,1.85,8.44,8.44,0,0,1,1.84,3,11.51,11.51,0,0,1,.66,4,2.44,2.44,0,0,1-.19,1.18.78.78,0,0,1-.71.29H603.62a11.76,11.76,0,0,0,.55,3.51,7.17,7.17,0,0,0,1.39,2.49,5.55,5.55,0,0,0,2.1,1.49,7.21,7.21,0,0,0,2.73.49,8,8,0,0,0,2.42-.33,11.55,11.55,0,0,0,1.75-.7,13.29,13.29,0,0,0,1.23-.7,1.63,1.63,0,0,1,.85-.33.82.82,0,0,1,.71.36l1,1.37a7.1,7.1,0,0,1-1.66,1.46,10.34,10.34,0,0,1-2.07,1,13.25,13.25,0,0,1-2.28.6,13.94,13.94,0,0,1-2.33.2A10.82,10.82,0,0,1,606,200a8.91,8.91,0,0,1-3.21-2.18,10,10,0,0,1-2.11-3.56,14.48,14.48,0,0,1-.76-4.87,12.4,12.4,0,0,1,.68-4.16,9.81,9.81,0,0,1,2-3.35,9,9,0,0,1,3.13-2.23A10.27,10.27,0,0,1,609.86,178.88Zm.08,2.75a5.74,5.74,0,0,0-4.26,1.56,7.36,7.36,0,0,0-1.93,4.34h11.57a7.56,7.56,0,0,0-.36-2.38,5.32,5.32,0,0,0-1-1.87,4.71,4.71,0,0,0-1.69-1.22A5.7,5.7,0,0,0,609.94,181.63Z" transform="translate(-10.71 42.66)"/><path class="cls-22" d="M638,200.83a5.12,5.12,0,0,1-3.87-1.41,5.61,5.61,0,0,1-1.35-4.05v-13h-2.56a.84.84,0,0,1-.57-.2.78.78,0,0,1-.23-.62V180l3.49-.44.86-6.57a.79.79,0,0,1,.27-.51.87.87,0,0,1,.59-.2h1.89v7.33h6.09v2.71h-6.09v12.77a2.72,2.72,0,0,0,.65,2,2.27,2.27,0,0,0,1.68.65,3,3,0,0,0,1-.16,4.41,4.41,0,0,0,.75-.35c.21-.13.39-.24.54-.35a.7.7,0,0,1,.39-.16.64.64,0,0,1,.52.36l1.09,1.78a7,7,0,0,1-2.33,1.42A7.92,7.92,0,0,1,638,200.83Z" transform="translate(-10.71 42.66)"/><path class="cls-22" d="M647.22,200.49V169.56H651v12.52a11.48,11.48,0,0,1,3-2.32,8.1,8.1,0,0,1,3.82-.87,7.69,7.69,0,0,1,3.08.58,6,6,0,0,1,2.23,1.64,7.22,7.22,0,0,1,1.35,2.55,11.08,11.08,0,0,1,.46,3.3v13.54h-3.74V186.94a5.73,5.73,0,0,0-1.1-3.75,4.12,4.12,0,0,0-3.37-1.33,6.28,6.28,0,0,0-3.1.8,10.2,10.2,0,0,0-2.66,2.16v15.67Z" transform="translate(-10.71 42.66)"/><path class="cls-22" d="M686.19,200.49h-1.66a2,2,0,0,1-.88-.17.93.93,0,0,1-.44-.71l-.42-2q-.84.76-1.64,1.35a9.33,9.33,0,0,1-1.68,1,8.67,8.67,0,0,1-1.88.62,10.81,10.81,0,0,1-2.22.21,7.55,7.55,0,0,1-2.32-.35,5.27,5.27,0,0,1-1.88-1,5,5,0,0,1-1.27-1.76,6.18,6.18,0,0,1-.47-2.52,4.71,4.71,0,0,1,.69-2.43,6.09,6.09,0,0,1,2.24-2.08,14.53,14.53,0,0,1,4-1.49,27.54,27.54,0,0,1,6.11-.58v-1.67a5.79,5.79,0,0,0-1.06-3.77,3.84,3.84,0,0,0-3.14-1.28,6.64,6.64,0,0,0-2.3.35,8.73,8.73,0,0,0-1.62.78q-.68.43-1.18.78a1.7,1.7,0,0,1-1,.35,1.11,1.11,0,0,1-.66-.2,1.51,1.51,0,0,1-.45-.49l-.67-1.2a12.16,12.16,0,0,1,3.8-2.54,11.75,11.75,0,0,1,4.52-.84,8.06,8.06,0,0,1,3.17.59,6.51,6.51,0,0,1,2.33,1.64,6.94,6.94,0,0,1,1.43,2.54,10.57,10.57,0,0,1,.48,3.28Zm-9.7-2.29a7.64,7.64,0,0,0,1.81-.2,7.18,7.18,0,0,0,1.54-.57,8.19,8.19,0,0,0,1.39-.89,12,12,0,0,0,1.29-1.2V191a25.12,25.12,0,0,0-4.39.33,12.32,12.32,0,0,0-2.94.86,4.11,4.11,0,0,0-1.65,1.25A2.7,2.7,0,0,0,673,195a3.57,3.57,0,0,0,.27,1.46,2.75,2.75,0,0,0,.74,1,2.88,2.88,0,0,0,1.09.57A5,5,0,0,0,676.49,198.2Z" transform="translate(-10.71 42.66)"/><path class="cls-22" d="M698.31,200.83a5.12,5.12,0,0,1-3.87-1.41,5.61,5.61,0,0,1-1.35-4.05v-13h-2.56a.84.84,0,0,1-.57-.2.77.77,0,0,1-.23-.62V180l3.49-.44.86-6.57a.79.79,0,0,1,.27-.51.87.87,0,0,1,.59-.2h1.89v7.33h6.09v2.71h-6.09v12.77a2.72,2.72,0,0,0,.65,2,2.27,2.27,0,0,0,1.68.65,3,3,0,0,0,1-.16,4.41,4.41,0,0,0,.75-.35q.31-.19.54-.35a.7.7,0,0,1,.39-.16.64.64,0,0,1,.53.36l1.09,1.78a7,7,0,0,1-2.33,1.42A7.92,7.92,0,0,1,698.31,200.83Z" transform="translate(-10.71 42.66)"/><path class="cls-22" d="M715.76,200.49V169.56h3.76v12.73a10.86,10.86,0,0,1,3-2.47,8,8,0,0,1,3.92-.93,7.83,7.83,0,0,1,3.34.69,6.74,6.74,0,0,1,2.54,2.07A10,10,0,0,1,734,185a17.4,17.4,0,0,1,.57,4.67,14.68,14.68,0,0,1-.63,4.38,10.55,10.55,0,0,1-1.82,3.51,8.41,8.41,0,0,1-6.75,3.18,7.12,7.12,0,0,1-3.5-.8,8,8,0,0,1-2.51-2.23l-.19,1.93a.9.9,0,0,1-1,.8Zm9.49-18.63a6,6,0,0,0-3.2.84,9.23,9.23,0,0,0-2.53,2.37v10.29a5.86,5.86,0,0,0,2.24,2,6.46,6.46,0,0,0,2.74.57,5.38,5.38,0,0,0,4.58-2.12,9.91,9.91,0,0,0,1.6-6,15.08,15.08,0,0,0-.37-3.57,7,7,0,0,0-1.06-2.45,4.13,4.13,0,0,0-1.7-1.4A5.66,5.66,0,0,0,725.25,181.86Z" transform="translate(-10.71 42.66)"/><path class="cls-22" d="M747.53,178.88a9.5,9.5,0,0,1,3.53.64,7.92,7.92,0,0,1,2.79,1.85,8.44,8.44,0,0,1,1.84,3,11.51,11.51,0,0,1,.66,4,2.44,2.44,0,0,1-.19,1.18.78.78,0,0,1-.71.29H741.29a11.76,11.76,0,0,0,.55,3.51,7.17,7.17,0,0,0,1.39,2.49,5.55,5.55,0,0,0,2.1,1.49,7.21,7.21,0,0,0,2.73.49,8,8,0,0,0,2.43-.33,11.55,11.55,0,0,0,1.75-.7,13.29,13.29,0,0,0,1.23-.7,1.63,1.63,0,0,1,.85-.33.82.82,0,0,1,.71.36l1,1.37a7.1,7.1,0,0,1-1.66,1.46,10.39,10.39,0,0,1-2.07,1,13.27,13.27,0,0,1-2.28.6,13.94,13.94,0,0,1-2.33.2,10.81,10.81,0,0,1-4.06-.75,8.9,8.9,0,0,1-3.21-2.18,10,10,0,0,1-2.11-3.56,14.48,14.48,0,0,1-.76-4.87,12.4,12.4,0,0,1,.68-4.16,9.81,9.81,0,0,1,2-3.35,9,9,0,0,1,3.13-2.23A10.27,10.27,0,0,1,747.53,178.88Zm.08,2.75a5.74,5.74,0,0,0-4.26,1.56,7.36,7.36,0,0,0-1.93,4.34H753a7.56,7.56,0,0,0-.36-2.38,5.32,5.32,0,0,0-1-1.87,4.71,4.71,0,0,0-1.69-1.22A5.7,5.7,0,0,0,747.62,181.63Z" transform="translate(-10.71 42.66)"/><path class="cls-22" d="M762,200.49V182.41l-2.35-.27a1.87,1.87,0,0,1-.72-.33.76.76,0,0,1-.28-.64v-1.53H762v-2.06a9.46,9.46,0,0,1,.51-3.24,6.57,6.57,0,0,1,1.47-2.39,6.22,6.22,0,0,1,2.3-1.48,8.56,8.56,0,0,1,3-.5,8.06,8.06,0,0,1,2.65.42l-.08,1.87a.48.48,0,0,1-.36.5,4.12,4.12,0,0,1-.95.08h-.65a5.74,5.74,0,0,0-1.75.25,3.32,3.32,0,0,0-1.35.82,3.7,3.7,0,0,0-.87,1.49,7.4,7.4,0,0,0-.3,2.29v2h6.15v2.71h-6v18.14Z" transform="translate(-10.71 42.66)"/><path class="cls-22" d="M783.88,178.88a10.93,10.93,0,0,1,4.21.78,8.87,8.87,0,0,1,3.19,2.21,9.78,9.78,0,0,1,2,3.45,14.95,14.95,0,0,1,0,9.06,9.79,9.79,0,0,1-2,3.44,8.76,8.76,0,0,1-3.19,2.19,11.95,11.95,0,0,1-8.42,0,8.85,8.85,0,0,1-3.2-2.19,9.83,9.83,0,0,1-2-3.44,14.73,14.73,0,0,1,0-9.06,9.82,9.82,0,0,1,2-3.45,9,9,0,0,1,3.2-2.21A10.93,10.93,0,0,1,783.88,178.88Zm0,19a5.46,5.46,0,0,0,4.7-2.11,12,12,0,0,0,0-11.81,5.45,5.45,0,0,0-4.7-2.12,6.52,6.52,0,0,0-2.77.55,5.19,5.19,0,0,0-2,1.58,7,7,0,0,0-1.18,2.53,14.95,14.95,0,0,0,0,6.77,6.89,6.89,0,0,0,1.18,2.51,5.24,5.24,0,0,0,2,1.56A6.52,6.52,0,0,0,783.88,197.86Z" transform="translate(-10.71 42.66)"/><path class="cls-22" d="M798.62,200.49V179.22h2.14a1.18,1.18,0,0,1,.84.23,1.42,1.42,0,0,1,.32.8l.25,3.32a9.72,9.72,0,0,1,2.7-3.48,6.36,6.36,0,0,1,5.37-1.05,5.64,5.64,0,0,1,1.32.56l-.48,2.79a.63.63,0,0,1-.65.53,3.27,3.27,0,0,1-.9-.2,5.7,5.7,0,0,0-1.7-.2,4.82,4.82,0,0,0-3.27,1.13,8.51,8.51,0,0,0-2.19,3.3v13.54Z" transform="translate(-10.71 42.66)"/><path class="cls-22" d="M824,178.88a9.5,9.5,0,0,1,3.53.64,7.92,7.92,0,0,1,2.79,1.85,8.44,8.44,0,0,1,1.84,3,11.51,11.51,0,0,1,.66,4,2.44,2.44,0,0,1-.19,1.18.78.78,0,0,1-.71.29H817.73a11.76,11.76,0,0,0,.55,3.51,7.17,7.17,0,0,0,1.39,2.49,5.55,5.55,0,0,0,2.1,1.49,7.21,7.21,0,0,0,2.73.49,8,8,0,0,0,2.43-.33,11.55,11.55,0,0,0,1.75-.7,13.29,13.29,0,0,0,1.23-.7,1.63,1.63,0,0,1,.85-.33.82.82,0,0,1,.71.36l1,1.37a7.1,7.1,0,0,1-1.66,1.46,10.39,10.39,0,0,1-2.07,1,13.27,13.27,0,0,1-2.28.6,13.94,13.94,0,0,1-2.33.2,10.81,10.81,0,0,1-4.06-.75,8.9,8.9,0,0,1-3.21-2.18,10,10,0,0,1-2.11-3.56,14.48,14.48,0,0,1-.76-4.87,12.4,12.4,0,0,1,.68-4.16,9.81,9.81,0,0,1,2-3.35,9,9,0,0,1,3.13-2.23A10.27,10.27,0,0,1,824,178.88Zm.08,2.75a5.74,5.74,0,0,0-4.26,1.56,7.36,7.36,0,0,0-1.93,4.34h11.57a7.56,7.56,0,0,0-.36-2.38,5.32,5.32,0,0,0-1-1.87,4.71,4.71,0,0,0-1.69-1.22A5.7,5.7,0,0,0,824.05,181.63Z" transform="translate(-10.71 42.66)"/><path class="cls-22" d="M861.29,200.49h-1.66a2,2,0,0,1-.88-.17.93.93,0,0,1-.44-.71l-.42-2q-.84.76-1.64,1.35a9.33,9.33,0,0,1-1.68,1,8.67,8.67,0,0,1-1.88.62,10.81,10.81,0,0,1-2.22.21,7.55,7.55,0,0,1-2.32-.35,5.27,5.27,0,0,1-1.88-1,5,5,0,0,1-1.27-1.76,6.18,6.18,0,0,1-.47-2.52,4.71,4.71,0,0,1,.69-2.43,6.09,6.09,0,0,1,2.24-2.08,14.53,14.53,0,0,1,4-1.49,27.54,27.54,0,0,1,6.11-.58v-1.67a5.79,5.79,0,0,0-1.06-3.77,3.84,3.84,0,0,0-3.14-1.28,6.64,6.64,0,0,0-2.3.35,8.73,8.73,0,0,0-1.62.78q-.68.43-1.18.78a1.7,1.7,0,0,1-1,.35,1.11,1.11,0,0,1-.66-.2,1.51,1.51,0,0,1-.45-.49l-.67-1.2a12.16,12.16,0,0,1,3.8-2.54,11.75,11.75,0,0,1,4.52-.84,8.06,8.06,0,0,1,3.17.59,6.51,6.51,0,0,1,2.33,1.64,6.94,6.94,0,0,1,1.43,2.54,10.57,10.57,0,0,1,.48,3.28Zm-9.7-2.29a7.64,7.64,0,0,0,1.81-.2,7.18,7.18,0,0,0,1.54-.57,8.19,8.19,0,0,0,1.39-.89,12,12,0,0,0,1.29-1.2V191a25.12,25.12,0,0,0-4.39.33,12.32,12.32,0,0,0-2.94.86,4.11,4.11,0,0,0-1.65,1.25,2.7,2.7,0,0,0-.51,1.61,3.57,3.57,0,0,0,.27,1.46,2.75,2.75,0,0,0,.74,1,2.88,2.88,0,0,0,1.09.57A5,5,0,0,0,851.58,198.2Z" transform="translate(-10.71 42.66)"/><path class="cls-22" d="M867,200.49V179.22h2.23a1,1,0,0,1,1,.78l.29,2.31a12,12,0,0,1,3.1-2.48,8.06,8.06,0,0,1,4-.95,7.69,7.69,0,0,1,3.08.58,6,6,0,0,1,2.23,1.64,7.22,7.22,0,0,1,1.35,2.55,11.08,11.08,0,0,1,.46,3.3v13.54h-3.74V186.94a5.73,5.73,0,0,0-1.1-3.75,4.12,4.12,0,0,0-3.37-1.33,6.28,6.28,0,0,0-3.1.8,10.2,10.2,0,0,0-2.66,2.16v15.67Z" transform="translate(-10.71 42.66)"/><path class="cls-22" d="M905.28,200.49a1,1,0,0,1-1-.78l-.34-2.58a11.18,11.18,0,0,1-3.12,2.66,8,8,0,0,1-4,1,7.66,7.66,0,0,1-3.32-.7,6.87,6.87,0,0,1-2.54-2.07,9.84,9.84,0,0,1-1.62-3.4,17.52,17.52,0,0,1-.57-4.68,14.68,14.68,0,0,1,.63-4.38A10.65,10.65,0,0,1,891.2,182a8.33,8.33,0,0,1,6.75-3.19,7.69,7.69,0,0,1,3.34.66,8,8,0,0,1,2.48,1.86v-11.8h3.74v30.93ZM898,197.76a6,6,0,0,0,3.2-.84,9.23,9.23,0,0,0,2.53-2.37V184.26a5.92,5.92,0,0,0-2.26-1.94,6.52,6.52,0,0,0-2.72-.56,5.38,5.38,0,0,0-4.58,2.12,9.91,9.91,0,0,0-1.6,6,15.36,15.36,0,0,0,.36,3.56,6.84,6.84,0,0,0,1,2.44,4.12,4.12,0,0,0,1.7,1.4A5.71,5.71,0,0,0,898,197.76Z" transform="translate(-10.71 42.66)"/><path class="cls-22" d="M912.69,197.91a2.36,2.36,0,0,1,.18-.91,2.33,2.33,0,0,1,.5-.76,2.36,2.36,0,0,1,.79-.51,2.82,2.82,0,0,1,2.13,0,2.25,2.25,0,0,1,.82.64,2.91,2.91,0,0,1,.49.95,3.86,3.86,0,0,1,.17,1.17,7.59,7.59,0,0,1-.27,2,10.54,10.54,0,0,1-.78,2,11.64,11.64,0,0,1-1.25,1.94,12.06,12.06,0,0,1-1.69,1.74l-.63-.61a.78.78,0,0,1-.27-.59.83.83,0,0,1,.29-.57l.54-.62a10.51,10.51,0,0,0,.66-.89,8.34,8.34,0,0,0,.62-1.11,5.31,5.31,0,0,0,.41-1.3h-.27a2.48,2.48,0,0,1-1-.19,2.27,2.27,0,0,1-.77-.54,2.45,2.45,0,0,1-.5-.82A2.91,2.91,0,0,1,912.69,197.91Z" transform="translate(-10.71 42.66)"/><path class="cls-22" d="M935.79,172.54a2.39,2.39,0,0,1-.22,1,3,3,0,0,1-.59.84,2.73,2.73,0,0,1-.85.58,2.54,2.54,0,0,1-1,.21,2.47,2.47,0,0,1-1-.21,2.8,2.8,0,0,1-1.42-1.42,2.47,2.47,0,0,1-.21-1,2.62,2.62,0,0,1,.21-1,2.7,2.7,0,0,1,.58-.86,2.79,2.79,0,0,1,.84-.58,2.49,2.49,0,0,1,1-.21,2.56,2.56,0,0,1,1,.21,2.75,2.75,0,0,1,.85.58,2.88,2.88,0,0,1,.59.86A2.53,2.53,0,0,1,935.79,172.54Zm-.84,6.68v21.27h-3.74V179.22Z" transform="translate(-10.71 42.66)"/><path class="cls-22" d="M942.39,200.49V182.41l-2.35-.27a1.87,1.87,0,0,1-.72-.33.76.76,0,0,1-.28-.64v-1.53h3.36v-2.06a9.46,9.46,0,0,1,.51-3.24,6.57,6.57,0,0,1,1.47-2.39,6.22,6.22,0,0,1,2.3-1.48,8.56,8.56,0,0,1,3-.5,8.06,8.06,0,0,1,2.65.42l-.08,1.87a.48.48,0,0,1-.36.5,4.12,4.12,0,0,1-.95.08h-.65a5.74,5.74,0,0,0-1.75.25,3.32,3.32,0,0,0-1.35.82,3.7,3.7,0,0,0-.87,1.49,7.4,7.4,0,0,0-.3,2.29v2h6.15v2.71h-6v18.14Z" transform="translate(-10.71 42.66)"/><path class="cls-22" d="M976,182.72a.83.83,0,0,1-.78.46,1.46,1.46,0,0,1-.71-.23q-.4-.23-1-.51a9.26,9.26,0,0,0-1.37-.53,6.59,6.59,0,0,0-1.89-.24,5.61,5.61,0,0,0-1.7.24,4.09,4.09,0,0,0-1.29.66,2.93,2.93,0,0,0-.82,1,2.63,2.63,0,0,0-.28,1.21,2,2,0,0,0,.47,1.37,4.09,4.09,0,0,0,1.25.95,11,11,0,0,0,1.76.7l2,.65q1,.35,2,.77a7.35,7.35,0,0,1,1.76,1,4.81,4.81,0,0,1,1.25,1.54,4.73,4.73,0,0,1,.47,2.2,7,7,0,0,1-.53,2.72,5.93,5.93,0,0,1-1.55,2.16,7.49,7.49,0,0,1-2.52,1.44,10.36,10.36,0,0,1-3.44.53,10.74,10.74,0,0,1-4-.72,10.23,10.23,0,0,1-3.07-1.86l.88-1.43a1.29,1.29,0,0,1,.4-.42,1.13,1.13,0,0,1,.61-.15,1.41,1.41,0,0,1,.8.29q.42.29,1,.65a7.77,7.77,0,0,0,1.45.65,6.6,6.6,0,0,0,2.13.29,5.83,5.83,0,0,0,1.91-.28,4,4,0,0,0,1.37-.77,3.06,3.06,0,0,0,.81-1.11,3.46,3.46,0,0,0,.26-1.34,2.23,2.23,0,0,0-.47-1.46,4,4,0,0,0-1.25-1,10.14,10.14,0,0,0-1.77-.71l-2-.64q-1-.34-2-.77a7.17,7.17,0,0,1-1.77-1.08,4.91,4.91,0,0,1-1.25-1.61,5.19,5.19,0,0,1-.47-2.32,5.66,5.66,0,0,1,.5-2.34,5.75,5.75,0,0,1,1.47-2,7.25,7.25,0,0,1,2.37-1.35,9.49,9.49,0,0,1,3.21-.5,10.15,10.15,0,0,1,3.77.66,8.91,8.91,0,0,1,2.89,1.82Z" transform="translate(-10.71 42.66)"/><path class="cls-22" d="M990.64,178.88a10.93,10.93,0,0,1,4.21.78,8.87,8.87,0,0,1,3.19,2.21,9.78,9.78,0,0,1,2,3.45,14.95,14.95,0,0,1,0,9.06,9.79,9.79,0,0,1-2,3.44,8.76,8.76,0,0,1-3.19,2.19,11.95,11.95,0,0,1-8.42,0,8.85,8.85,0,0,1-3.2-2.19,9.83,9.83,0,0,1-2-3.44,14.73,14.73,0,0,1,0-9.06,9.82,9.82,0,0,1,2-3.45,9,9,0,0,1,3.2-2.21A10.93,10.93,0,0,1,990.64,178.88Zm0,19a5.46,5.46,0,0,0,4.7-2.11,12,12,0,0,0,0-11.81,5.45,5.45,0,0,0-4.7-2.12,6.52,6.52,0,0,0-2.77.55,5.19,5.19,0,0,0-2,1.58,7,7,0,0,0-1.18,2.53,14.95,14.95,0,0,0,0,6.77,6.89,6.89,0,0,0,1.18,2.51,5.24,5.24,0,0,0,2,1.56A6.52,6.52,0,0,0,990.64,197.86Z" transform="translate(-10.71 42.66)"/><path class="cls-22" d="M1004.29,197.91a2.36,2.36,0,0,1,.18-.91,2.33,2.33,0,0,1,.5-.76,2.36,2.36,0,0,1,.79-.51,2.82,2.82,0,0,1,2.13,0,2.25,2.25,0,0,1,.82.64,2.91,2.91,0,0,1,.49.95,3.86,3.86,0,0,1,.17,1.17,7.59,7.59,0,0,1-.27,2,10.54,10.54,0,0,1-.78,2,11.64,11.64,0,0,1-1.25,1.94,12.06,12.06,0,0,1-1.69,1.74l-.63-.61a.78.78,0,0,1-.27-.59.83.83,0,0,1,.29-.57l.54-.62a10.51,10.51,0,0,0,.66-.89,8.34,8.34,0,0,0,.62-1.11,5.31,5.31,0,0,0,.41-1.3h-.27a2.48,2.48,0,0,1-1-.19,2.27,2.27,0,0,1-.77-.54,2.45,2.45,0,0,1-.5-.82A2.91,2.91,0,0,1,1004.29,197.91Z" transform="translate(-10.71 42.66)"/><path class="cls-22" d="M547.74,229.62h2.94a1.19,1.19,0,0,1,.76.23,1.16,1.16,0,0,1,.4.55l4.07,13.69q.17.76.32,1.46t.25,1.42q.17-.71.38-1.42l.44-1.46,4.49-13.78a1.1,1.1,0,0,1,.37-.52,1,1,0,0,1,.66-.21h1.62a1.11,1.11,0,0,1,.69.21,1.08,1.08,0,0,1,.38.52l4.39,13.78q.23.74.41,1.45l.35,1.41q.11-.69.27-1.45t.36-1.41l4.16-13.69a1.09,1.09,0,0,1,.4-.56,1.12,1.12,0,0,1,.69-.22h2.81l-6.89,21.27h-3q-.55,0-.76-.71L564,235.75a7.93,7.93,0,0,1-.27-1l-.21-1-.21,1a7.88,7.88,0,0,1-.27,1l-4.77,14.41a.88.88,0,0,1-.86.71h-2.81Z" transform="translate(-10.71 42.66)"/><path class="cls-22" d="M582.68,250.89V220h3.74v12.52a11.48,11.48,0,0,1,3-2.32,8.09,8.09,0,0,1,3.82-.87,7.69,7.69,0,0,1,3.08.58,6,6,0,0,1,2.23,1.64,7.23,7.23,0,0,1,1.35,2.55,11.12,11.12,0,0,1,.46,3.3v13.54h-3.74V237.34a5.73,5.73,0,0,0-1.1-3.75,4.12,4.12,0,0,0-3.37-1.33,6.29,6.29,0,0,0-3.1.8,10.21,10.21,0,0,0-2.66,2.16v15.67Z" transform="translate(-10.71 42.66)"/><path class="cls-22" d="M621.66,250.89H620a2,2,0,0,1-.88-.17.93.93,0,0,1-.44-.71l-.42-2q-.84.76-1.64,1.35a9.44,9.44,0,0,1-1.68,1,8.73,8.73,0,0,1-1.88.62,10.8,10.8,0,0,1-2.22.21,7.55,7.55,0,0,1-2.32-.35,5.28,5.28,0,0,1-1.88-1,5,5,0,0,1-1.27-1.76,6.17,6.17,0,0,1-.47-2.52,4.71,4.71,0,0,1,.69-2.43,6.1,6.1,0,0,1,2.24-2.08,14.58,14.58,0,0,1,4-1.49A27.48,27.48,0,0,1,618,239v-1.67a5.79,5.79,0,0,0-1.06-3.77,3.85,3.85,0,0,0-3.14-1.28,6.65,6.65,0,0,0-2.3.35,8.73,8.73,0,0,0-1.62.78q-.68.43-1.18.78a1.69,1.69,0,0,1-1,.35,1.12,1.12,0,0,1-.66-.2,1.52,1.52,0,0,1-.45-.49l-.67-1.2a12.15,12.15,0,0,1,3.8-2.54,11.74,11.74,0,0,1,4.51-.84,8.06,8.06,0,0,1,3.17.59,6.5,6.5,0,0,1,2.33,1.64,6.94,6.94,0,0,1,1.43,2.54,10.58,10.58,0,0,1,.48,3.28ZM612,248.6a7.64,7.64,0,0,0,1.81-.2,7.13,7.13,0,0,0,1.54-.57,8.09,8.09,0,0,0,1.39-.89,11.89,11.89,0,0,0,1.29-1.2v-4.39a25,25,0,0,0-4.39.33,12.29,12.29,0,0,0-2.94.86,4.09,4.09,0,0,0-1.65,1.25,2.69,2.69,0,0,0-.51,1.61,3.57,3.57,0,0,0,.27,1.46,2.76,2.76,0,0,0,.74,1,2.91,2.91,0,0,0,1.09.57A5,5,0,0,0,612,248.6Z" transform="translate(-10.71 42.66)"/><path class="cls-22" d="M633.78,251.22a5.13,5.13,0,0,1-3.87-1.41,5.61,5.61,0,0,1-1.35-4.05v-13H626a.84.84,0,0,1-.57-.2.78.78,0,0,1-.23-.62v-1.49l3.49-.44.86-6.57a.8.8,0,0,1,.27-.51.87.87,0,0,1,.59-.2h1.89V230h6.09v2.71h-6.09v12.77a2.71,2.71,0,0,0,.65,2,2.27,2.27,0,0,0,1.68.65,3,3,0,0,0,1-.16,4.34,4.34,0,0,0,.75-.35c.21-.13.39-.24.54-.35a.69.69,0,0,1,.39-.16.64.64,0,0,1,.52.36l1.09,1.79a7,7,0,0,1-2.33,1.42A7.9,7.9,0,0,1,633.78,251.22Z" transform="translate(-10.71 42.66)"/><path class="cls-22" d="M651.1,258.09V229.62h2.23a1,1,0,0,1,1,.78l.32,2.52a11.35,11.35,0,0,1,3.12-2.67,8,8,0,0,1,4-1,7.68,7.68,0,0,1,3.32.7,6.84,6.84,0,0,1,2.54,2.08,10,10,0,0,1,1.62,3.41,17.52,17.52,0,0,1,.57,4.68,14.68,14.68,0,0,1-.63,4.38,10.66,10.66,0,0,1-1.81,3.51,8.42,8.42,0,0,1-2.89,2.33,8.53,8.53,0,0,1-3.85.85,7.94,7.94,0,0,1-3.37-.65,7.6,7.6,0,0,1-2.47-1.85v9.41Zm9.47-25.83a6,6,0,0,0-3.2.84,9.24,9.24,0,0,0-2.53,2.37v10.29a6,6,0,0,0,2.26,2,6.46,6.46,0,0,0,2.74.57,5.36,5.36,0,0,0,4.56-2.12,9.91,9.91,0,0,0,1.6-6,15.14,15.14,0,0,0-.37-3.57,7,7,0,0,0-1.06-2.45,4.13,4.13,0,0,0-1.7-1.4A5.66,5.66,0,0,0,660.57,232.26Z" transform="translate(-10.71 42.66)"/><path class="cls-22" d="M689.91,250.89h-1.66a2,2,0,0,1-.88-.17.93.93,0,0,1-.44-.71l-.42-2q-.84.76-1.64,1.35a9.45,9.45,0,0,1-1.68,1,8.73,8.73,0,0,1-1.88.62,10.81,10.81,0,0,1-2.22.21,7.55,7.55,0,0,1-2.32-.35,5.27,5.27,0,0,1-1.88-1,5,5,0,0,1-1.27-1.76,6.17,6.17,0,0,1-.47-2.52,4.71,4.71,0,0,1,.69-2.43,6.09,6.09,0,0,1,2.24-2.08,14.56,14.56,0,0,1,4-1.49,27.47,27.47,0,0,1,6.11-.58v-1.67a5.79,5.79,0,0,0-1.06-3.77,3.84,3.84,0,0,0-3.14-1.28,6.64,6.64,0,0,0-2.3.35,8.73,8.73,0,0,0-1.62.78q-.68.43-1.18.78a1.69,1.69,0,0,1-1,.35,1.12,1.12,0,0,1-.66-.2,1.52,1.52,0,0,1-.45-.49l-.67-1.2a12.15,12.15,0,0,1,3.8-2.54,11.75,11.75,0,0,1,4.52-.84,8.06,8.06,0,0,1,3.17.59,6.5,6.5,0,0,1,2.33,1.64,6.94,6.94,0,0,1,1.43,2.54,10.58,10.58,0,0,1,.48,3.28Zm-9.7-2.29a7.64,7.64,0,0,0,1.81-.2,7.13,7.13,0,0,0,1.54-.57,8.13,8.13,0,0,0,1.39-.89,12,12,0,0,0,1.29-1.2v-4.39a25,25,0,0,0-4.39.33,12.32,12.32,0,0,0-2.94.86,4.1,4.1,0,0,0-1.65,1.25,2.69,2.69,0,0,0-.51,1.61,3.57,3.57,0,0,0,.27,1.46,2.76,2.76,0,0,0,.74,1,2.91,2.91,0,0,0,1.09.57A5,5,0,0,0,680.21,248.6Z" transform="translate(-10.71 42.66)"/><path class="cls-22" d="M702,251.22a5.13,5.13,0,0,1-3.87-1.41,5.61,5.61,0,0,1-1.35-4.05v-13h-2.56a.84.84,0,0,1-.57-.2.78.78,0,0,1-.23-.62v-1.49l3.49-.44.86-6.57a.79.79,0,0,1,.27-.51.87.87,0,0,1,.59-.2h1.89V230h6.09v2.71h-6.09v12.77a2.72,2.72,0,0,0,.65,2,2.27,2.27,0,0,0,1.68.65,3,3,0,0,0,1-.16,4.34,4.34,0,0,0,.75-.35c.21-.13.39-.24.54-.35a.7.7,0,0,1,.39-.16.64.64,0,0,1,.53.36l1.09,1.79a7,7,0,0,1-2.33,1.42A7.9,7.9,0,0,1,702,251.22Z" transform="translate(-10.71 42.66)"/><path class="cls-22" d="M711.25,250.89V220H715v12.52a11.48,11.48,0,0,1,3-2.32,8.1,8.1,0,0,1,3.82-.87,7.69,7.69,0,0,1,3.08.58,6,6,0,0,1,2.23,1.64,7.22,7.22,0,0,1,1.35,2.55,11.08,11.08,0,0,1,.46,3.3v13.54h-3.74V237.34a5.73,5.73,0,0,0-1.1-3.75,4.12,4.12,0,0,0-3.37-1.33,6.29,6.29,0,0,0-3.1.8,10.22,10.22,0,0,0-2.66,2.16v15.67Z" transform="translate(-10.71 42.66)"/><path class="cls-22" d="M757.67,250.89a1,1,0,0,1-1-.78l-.34-2.58a11.21,11.21,0,0,1-3.12,2.66,8,8,0,0,1-4,1,7.68,7.68,0,0,1-3.32-.7,6.87,6.87,0,0,1-2.54-2.07,9.85,9.85,0,0,1-1.62-3.4,17.51,17.51,0,0,1-.57-4.68,14.68,14.68,0,0,1,.63-4.38,10.66,10.66,0,0,1,1.82-3.52,8.33,8.33,0,0,1,6.75-3.19,7.69,7.69,0,0,1,3.34.66,8,8,0,0,1,2.48,1.86V220h3.74v30.93Zm-7.25-2.73a6,6,0,0,0,3.2-.84,9.26,9.26,0,0,0,2.53-2.37V234.66a5.91,5.91,0,0,0-2.26-1.94,6.52,6.52,0,0,0-2.72-.56,5.38,5.38,0,0,0-4.58,2.12,9.91,9.91,0,0,0-1.6,6,15.37,15.37,0,0,0,.36,3.56,6.84,6.84,0,0,0,1,2.44,4.12,4.12,0,0,0,1.7,1.4A5.71,5.71,0,0,0,750.43,248.16Z" transform="translate(-10.71 42.66)"/><path class="cls-22" d="M771.18,222.94a2.38,2.38,0,0,1-.22,1,3,3,0,0,1-.59.84,2.73,2.73,0,0,1-.85.58,2.56,2.56,0,0,1-1,.21,2.49,2.49,0,0,1-1-.21,2.79,2.79,0,0,1-1.42-1.42,2.47,2.47,0,0,1-.21-1,2.62,2.62,0,0,1,.21-1,2.69,2.69,0,0,1,.58-.86,2.78,2.78,0,0,1,.84-.58,2.49,2.49,0,0,1,1-.21,2.56,2.56,0,0,1,1,.21,2.75,2.75,0,0,1,.85.58,2.87,2.87,0,0,1,.59.86A2.53,2.53,0,0,1,771.18,222.94Zm-.84,6.68v21.27H766.6V229.62Z" transform="translate(-10.71 42.66)"/><path class="cls-22" d="M791.9,250.89a1,1,0,0,1-1-.78l-.34-2.58a11.21,11.21,0,0,1-3.12,2.66,8,8,0,0,1-4,1,7.68,7.68,0,0,1-3.32-.7,6.87,6.87,0,0,1-2.54-2.07,9.85,9.85,0,0,1-1.62-3.4,17.51,17.51,0,0,1-.57-4.68,14.68,14.68,0,0,1,.63-4.38,10.66,10.66,0,0,1,1.82-3.52,8.33,8.33,0,0,1,6.75-3.19,7.69,7.69,0,0,1,3.34.66,8,8,0,0,1,2.48,1.86V220h3.74v30.93Zm-7.25-2.73a6,6,0,0,0,3.2-.84,9.26,9.26,0,0,0,2.53-2.37V234.66a5.91,5.91,0,0,0-2.26-1.94,6.52,6.52,0,0,0-2.72-.56,5.38,5.38,0,0,0-4.58,2.12,9.91,9.91,0,0,0-1.6,6,15.37,15.37,0,0,0,.36,3.56,6.84,6.84,0,0,0,1,2.44,4.12,4.12,0,0,0,1.7,1.4A5.71,5.71,0,0,0,784.66,248.16Z" transform="translate(-10.71 42.66)"/><path class="cls-22" d="M815,251.22a5.13,5.13,0,0,1-3.87-1.41,5.61,5.61,0,0,1-1.35-4.05v-13h-2.56a.84.84,0,0,1-.57-.2.78.78,0,0,1-.23-.62v-1.49l3.49-.44.86-6.57a.79.79,0,0,1,.27-.51.87.87,0,0,1,.59-.2h1.89V230h6.09v2.71h-6.09v12.77a2.72,2.72,0,0,0,.65,2,2.27,2.27,0,0,0,1.68.65,3,3,0,0,0,1-.16,4.34,4.34,0,0,0,.75-.35c.21-.13.39-.24.54-.35a.7.7,0,0,1,.39-.16.64.64,0,0,1,.53.36l1.09,1.79a7,7,0,0,1-2.33,1.42A7.9,7.9,0,0,1,815,251.22Z" transform="translate(-10.71 42.66)"/><path class="cls-22" d="M824.18,250.89V220h3.74v12.52a11.48,11.48,0,0,1,3-2.32,8.1,8.1,0,0,1,3.82-.87,7.69,7.69,0,0,1,3.08.58,6,6,0,0,1,2.23,1.64,7.22,7.22,0,0,1,1.35,2.55,11.08,11.08,0,0,1,.46,3.3v13.54h-3.74V237.34a5.73,5.73,0,0,0-1.1-3.75,4.12,4.12,0,0,0-3.37-1.33,6.29,6.29,0,0,0-3.1.8,10.22,10.22,0,0,0-2.66,2.16v15.67Z" transform="translate(-10.71 42.66)"/><path class="cls-22" d="M856,229.28a9.48,9.48,0,0,1,3.53.64,7.92,7.92,0,0,1,2.79,1.85,8.43,8.43,0,0,1,1.84,3,11.52,11.52,0,0,1,.66,4,2.44,2.44,0,0,1-.19,1.18.78.78,0,0,1-.71.29H849.71a11.75,11.75,0,0,0,.55,3.51,7.17,7.17,0,0,0,1.39,2.49,5.54,5.54,0,0,0,2.1,1.49,7.21,7.21,0,0,0,2.73.49,8,8,0,0,0,2.43-.33,11.55,11.55,0,0,0,1.75-.7,13.53,13.53,0,0,0,1.23-.7,1.63,1.63,0,0,1,.85-.33.82.82,0,0,1,.71.36l1,1.37a7.1,7.1,0,0,1-1.66,1.46,10.33,10.33,0,0,1-2.07,1,13.09,13.09,0,0,1-2.28.6,13.94,13.94,0,0,1-2.33.2,10.81,10.81,0,0,1-4.06-.75,8.9,8.9,0,0,1-3.21-2.18,10,10,0,0,1-2.11-3.56,14.48,14.48,0,0,1-.76-4.87,12.39,12.39,0,0,1,.68-4.16,9.8,9.8,0,0,1,2-3.35,9,9,0,0,1,3.13-2.23A10.27,10.27,0,0,1,856,229.28ZM856,232a5.74,5.74,0,0,0-4.26,1.56,7.36,7.36,0,0,0-1.93,4.34h11.57a7.56,7.56,0,0,0-.36-2.38,5.31,5.31,0,0,0-1-1.87,4.7,4.7,0,0,0-1.69-1.22A5.72,5.72,0,0,0,856,232Z" transform="translate(-10.71 42.66)"/><path class="cls-22" d="M875.23,257.17a2,2,0,0,1-.47.67,1.28,1.28,0,0,1-.87.25h-2.77l3.89-8.44-8.78-20h3.23a1.1,1.1,0,0,1,.76.24,1.52,1.52,0,0,1,.4.54l5.69,13.4a9.65,9.65,0,0,1,.33.92q.14.46.24.95l.29-.95q.15-.46.34-.95L883,230.39a1.2,1.2,0,0,1,.43-.56,1.11,1.11,0,0,1,.66-.22h3Z" transform="translate(-10.71 42.66)"/><path class="cls-22" d="M905,251.22a5.13,5.13,0,0,1-3.87-1.41,5.61,5.61,0,0,1-1.35-4.05v-13h-2.56a.84.84,0,0,1-.57-.2.78.78,0,0,1-.23-.62v-1.49l3.49-.44.86-6.57a.79.79,0,0,1,.27-.51.87.87,0,0,1,.59-.2h1.89V230h6.09v2.71h-6.09v12.77a2.72,2.72,0,0,0,.65,2,2.27,2.27,0,0,0,1.68.65,3,3,0,0,0,1-.16,4.34,4.34,0,0,0,.75-.35c.21-.13.39-.24.54-.35a.7.7,0,0,1,.39-.16.64.64,0,0,1,.53.36l1.09,1.79a7,7,0,0,1-2.33,1.42A7.9,7.9,0,0,1,905,251.22Z" transform="translate(-10.71 42.66)"/><path class="cls-22" d="M929.89,250.89h-1.66a2,2,0,0,1-.88-.17.93.93,0,0,1-.44-.71l-.42-2q-.84.76-1.64,1.35a9.45,9.45,0,0,1-1.68,1,8.73,8.73,0,0,1-1.88.62,10.81,10.81,0,0,1-2.22.21,7.55,7.55,0,0,1-2.32-.35,5.27,5.27,0,0,1-1.88-1,5,5,0,0,1-1.27-1.76,6.17,6.17,0,0,1-.47-2.52,4.71,4.71,0,0,1,.69-2.43,6.09,6.09,0,0,1,2.24-2.08,14.56,14.56,0,0,1,4-1.49,27.47,27.47,0,0,1,6.11-.58v-1.67a5.79,5.79,0,0,0-1.06-3.77,3.84,3.84,0,0,0-3.14-1.28,6.64,6.64,0,0,0-2.3.35,8.73,8.73,0,0,0-1.62.78q-.68.43-1.18.78a1.69,1.69,0,0,1-1,.35,1.12,1.12,0,0,1-.66-.2,1.52,1.52,0,0,1-.45-.49l-.67-1.2a12.15,12.15,0,0,1,3.8-2.54,11.75,11.75,0,0,1,4.52-.84,8.06,8.06,0,0,1,3.17.59,6.5,6.5,0,0,1,2.33,1.64,6.94,6.94,0,0,1,1.43,2.54,10.58,10.58,0,0,1,.48,3.28Zm-9.7-2.29a7.64,7.64,0,0,0,1.81-.2,7.13,7.13,0,0,0,1.54-.57,8.13,8.13,0,0,0,1.39-.89,12,12,0,0,0,1.29-1.2v-4.39a25,25,0,0,0-4.39.33,12.32,12.32,0,0,0-2.94.86,4.1,4.1,0,0,0-1.65,1.25,2.69,2.69,0,0,0-.51,1.61,3.57,3.57,0,0,0,.27,1.46,2.76,2.76,0,0,0,.74,1,2.91,2.91,0,0,0,1.09.57A5,5,0,0,0,920.19,248.6Z" transform="translate(-10.71 42.66)"/><path class="cls-22" d="M939.45,220v18.21h1a1.79,1.79,0,0,0,.69-.12,1.94,1.94,0,0,0,.61-.47l6.72-7.2a3.65,3.65,0,0,1,.63-.55,1.49,1.49,0,0,1,.84-.21h3.4L945.47,238a7.16,7.16,0,0,1-.58.63,3.39,3.39,0,0,1-.64.48,3.93,3.93,0,0,1,.68.58,5.36,5.36,0,0,1,.58.75l8.32,10.5h-3.36a1.61,1.61,0,0,1-.79-.18,2,2,0,0,1-.62-.56l-7-8.72a1.63,1.63,0,0,0-.63-.58,2.5,2.5,0,0,0-.95-.14h-1v10.16h-3.76V220Z" transform="translate(-10.71 42.66)"/><path class="cls-22" d="M964.73,229.28a9.48,9.48,0,0,1,3.53.64,7.92,7.92,0,0,1,2.79,1.85,8.43,8.43,0,0,1,1.84,3,11.52,11.52,0,0,1,.66,4,2.44,2.44,0,0,1-.19,1.18.78.78,0,0,1-.71.29H958.49a11.75,11.75,0,0,0,.55,3.51,7.17,7.17,0,0,0,1.39,2.49,5.54,5.54,0,0,0,2.1,1.49,7.21,7.21,0,0,0,2.73.49,8,8,0,0,0,2.43-.33,11.55,11.55,0,0,0,1.75-.7,13.53,13.53,0,0,0,1.23-.7,1.63,1.63,0,0,1,.85-.33.82.82,0,0,1,.71.36l1,1.37a7.1,7.1,0,0,1-1.66,1.46,10.33,10.33,0,0,1-2.07,1,13.09,13.09,0,0,1-2.28.6,13.94,13.94,0,0,1-2.33.2,10.81,10.81,0,0,1-4.06-.75,8.9,8.9,0,0,1-3.21-2.18,10,10,0,0,1-2.11-3.56,14.48,14.48,0,0,1-.76-4.87,12.39,12.39,0,0,1,.68-4.16,9.8,9.8,0,0,1,2-3.35,9,9,0,0,1,3.13-2.23A10.27,10.27,0,0,1,964.73,229.28Zm.08,2.75a5.74,5.74,0,0,0-4.26,1.56,7.36,7.36,0,0,0-1.93,4.34h11.57a7.56,7.56,0,0,0-.36-2.38,5.31,5.31,0,0,0-1-1.87,4.7,4.7,0,0,0-1.69-1.22A5.72,5.72,0,0,0,964.81,232Z" transform="translate(-10.71 42.66)"/><path class="cls-22" d="M976,223.48a12.67,12.67,0,0,1,1.44-1.16,10.75,10.75,0,0,1,1.72-1,10.45,10.45,0,0,1,2-.66,10.79,10.79,0,0,1,2.34-.24,9.48,9.48,0,0,1,3.08.48,7.34,7.34,0,0,1,2.45,1.36,6.3,6.3,0,0,1,1.62,2.14,6.63,6.63,0,0,1,.59,2.83,7.24,7.24,0,0,1-.47,2.75,7.69,7.69,0,0,1-1.2,2,9.17,9.17,0,0,1-1.58,1.51l-1.61,1.21a10.54,10.54,0,0,0-1.28,1.13,2.2,2.2,0,0,0-.62,1.26l-.38,3.21h-2.56l-.25-3.49v-.23a2.68,2.68,0,0,1,.47-1.56,6.4,6.4,0,0,1,1.2-1.28q.72-.6,1.55-1.2a12.78,12.78,0,0,0,1.55-1.32,6.51,6.51,0,0,0,1.2-1.65,4.74,4.74,0,0,0,.47-2.18,3.7,3.7,0,0,0-.36-1.64,3.78,3.78,0,0,0-1-1.25,4.29,4.29,0,0,0-1.44-.79,5.65,5.65,0,0,0-1.77-.27,6.76,6.76,0,0,0-2.19.31,8.22,8.22,0,0,0-1.54.69,9,9,0,0,0-1,.69,1.14,1.14,0,0,1-.64.32.91.91,0,0,1-.82-.48Zm4.12,25.09a2.67,2.67,0,0,1,.2-1,2.64,2.64,0,0,1,.55-.84,2.58,2.58,0,0,1,.83-.57,2.63,2.63,0,0,1,2.06,0,2.7,2.7,0,0,1,.84.57,2.54,2.54,0,0,1,.56.84,2.67,2.67,0,0,1,.2,1,2.65,2.65,0,0,1-.2,1,2.56,2.56,0,0,1-1.4,1.39,2.76,2.76,0,0,1-2.06,0,2.45,2.45,0,0,1-.83-.56,2.68,2.68,0,0,1-.55-.83A2.65,2.65,0,0,1,980.08,248.58Z" transform="translate(-10.71 42.66)"/></g></g></g></svg>