<svg xmlns="http://www.w3.org/2000/svg" xmlns:xlink="http://www.w3.org/1999/xlink" viewBox="0 0 1179.02 538.07"><defs><style>.cls-1{fill:#e02e38;}.cls-2{fill:none;}.cls-3{isolation:isolate;}.cls-4{clip-path:url(#clip-path);}.cls-5{mix-blend-mode:multiply;}.cls-6{clip-path:url(#clip-path-2);}.cls-7{clip-path:url(#clip-path-3);}.cls-8{clip-path:url(#clip-path-4);}.cls-9{fill:url(#linear-gradient);}.cls-10{clip-path:url(#clip-path-5);}.cls-11{clip-path:url(#clip-path-6);}.cls-12{fill:url(#linear-gradient-2);}.cls-13{clip-path:url(#clip-path-7);}.cls-14{clip-path:url(#clip-path-8);}.cls-15{fill:url(#linear-gradient-3);}.cls-16{fill:#fff;}</style><clipPath id="clip-path" transform="translate(0 73.35)"><path class="cls-1" d="M407.45,92.15C400.73,135.46,353.78,159,353.78,159s47,22.66,53.67,66,38.88,83.85,64.41,83.85h586.06c25.53,0,57.69-40.33,64.41-83.65S1176,158.67,1176,158.67s-47-23.18-53.66-66.5S1083.45,7.8,1057.92,7.8H471.86c-25.53,0-57.69,41-64.41,84.35"/></clipPath><clipPath id="clip-path-2" transform="translate(0 73.35)"><rect class="cls-2" x="1.26" y="-17" width="425.2" height="537.96"/></clipPath><clipPath id="clip-path-3" transform="translate(0 73.35)"><path class="cls-2" d="M201,3s45.82-1.58,70,25.87,14.14,62.48,8.11,85.8c0,0-15.47,42.17-15.71,44.7s-1.84-34.25-6.57-44.9,3.5-40.42-14.14-52.29c-14.53-9.76-46.4-6.72-43.27-7.28,0,0-36.51-11.11-54.3,8.54S137,98.67,134.27,114s-4.57,34.92-4.57,34.92-6.41-43.28-7.37-59.94S110,5.12,201,3"/></clipPath><clipPath id="clip-path-4" transform="translate(0 73.35)"><rect class="cls-2" x="108.8" y="-56.49" width="184.62" height="161.01"/></clipPath><linearGradient id="linear-gradient" y1="-304.19" x2="1" y2="-304.19" gradientTransform="matrix(0, -536.68, -536.68, 0, -163053.83, 563.65)" gradientUnits="userSpaceOnUse"><stop offset="0" stop-color="#bf2b2b"/><stop offset="0.05" stop-color="#d22f2f"/><stop offset="0.12" stop-color="#e63333"/><stop offset="0.2" stop-color="#f43737"/><stop offset="0.3" stop-color="#fc3838"/><stop offset="0.46" stop-color="#ff3939"/><stop offset="0.97" stop-color="#ff3939"/><stop offset="1" stop-color="#ff3939"/></linearGradient><clipPath id="clip-path-5" transform="translate(0 73.35)"><path class="cls-2" d="M146.41,233.73s41.43,53.4,54.64,56.7c7.6,1.89,61.2-66.87,61.2-66.87s7.83.49,11.4,6.43c0,0,86.73,19.54,101,41.5s34.46,113.81,45.15,185.95,5.37,89.77,5.37,89.77H1.26S19.08,351.44,20.27,336s5.93-52.18,51.05-67.61,64.7-20.72,75.09-34.66"/></clipPath><clipPath id="clip-path-6" transform="translate(0 73.35)"><rect class="cls-2" y="167.66" width="428.98" height="297.07"/></clipPath><linearGradient id="linear-gradient-2" y1="-304.19" y2="-304.19" gradientTransform="matrix(0, -536.22, -536.22, 0, -162901.97, 564.24)" xlink:href="#linear-gradient"/><clipPath id="clip-path-7" transform="translate(0 73.35)"><path class="cls-2" d="M147.51,16.51A194.75,194.75,0,0,1,180,.67,59.17,59.17,0,0,0,205.49-17s1.13,7.47,22.95,18.12,36.3,17.1,41,26.52-51.14,5.75-51.14,5.75-72.5-17.54-70.81-16.88"/></clipPath><clipPath id="clip-path-8" transform="translate(0 73.35)"><rect class="cls-2" x="144.53" y="-73.35" width="128.27" height="53.67"/></clipPath><linearGradient id="linear-gradient-3" y1="-304.19" y2="-304.19" gradientTransform="matrix(0, -536.69, -536.69, 0, -163049.55, 564.38)" xlink:href="#linear-gradient"/></defs><title>original5</title><g class="cls-3"><g id="Layers"><path class="cls-1" d="M407.45,92.15C400.73,135.46,353.78,159,353.78,159s47,22.66,53.67,66,38.88,83.85,64.41,83.85h586.06c25.53,0,57.69-40.33,64.41-83.65S1176,158.67,1176,158.67s-47-23.18-53.66-66.5S1083.45,7.8,1057.92,7.8H471.86c-25.53,0-57.69,41-64.41,84.35" transform="translate(0 73.35)"/><g class="cls-4"><rect class="cls-1" x="287.42" y="79.6" width="891.6" height="307.27"/></g><g id="Red_Matt" data-name="Red Matt"><g class="cls-5"><g class="cls-6"><g class="cls-7"><g class="cls-8"><rect class="cls-9" x="108.8" y="16.86" width="184.62" height="161.01"/></g></g><g class="cls-10"><g class="cls-11"><rect class="cls-12" y="241.01" width="428.98" height="297.07"/></g></g><g class="cls-13"><g class="cls-14"><rect class="cls-15" x="144.53" width="128.27" height="53.67"/></g></g></g></g><path class="cls-16" d="M497.26,100h-4.07V69.87h4.07Z" transform="translate(0 73.35)"/><path class="cls-16" d="M517,69V100h-3.74V69Z" transform="translate(0 73.35)"/><path class="cls-16" d="M528.59,72a2.37,2.37,0,0,1-.22,1,2.92,2.92,0,0,1-.59.84,2.72,2.72,0,0,1-.85.58,2.55,2.55,0,0,1-1,.21,2.47,2.47,0,0,1-1-.21A2.8,2.8,0,0,1,523.46,73a2.48,2.48,0,0,1-.21-1,2.64,2.64,0,0,1,.21-1,2.7,2.7,0,0,1,.58-.86,2.76,2.76,0,0,1,.84-.58,2.48,2.48,0,0,1,1-.21,2.56,2.56,0,0,1,1,.21,2.74,2.74,0,0,1,.85.58,2.84,2.84,0,0,1,.59.86A2.51,2.51,0,0,1,528.59,72Zm-.84,6.68V100H524V78.69Z" transform="translate(0 73.35)"/><path class="cls-16" d="M538.23,69V87.23h1a1.77,1.77,0,0,0,.69-.12,1.91,1.91,0,0,0,.61-.47l6.72-7.2a3.67,3.67,0,0,1,.63-.55,1.5,1.5,0,0,1,.84-.21h3.4L544.25,87a7.46,7.46,0,0,1-.58.63,3.38,3.38,0,0,1-.64.48,3.93,3.93,0,0,1,.68.58,5.43,5.43,0,0,1,.58.75l8.32,10.5h-3.36a1.61,1.61,0,0,1-.79-.18,2,2,0,0,1-.62-.56l-7-8.72a1.63,1.63,0,0,0-.63-.58,2.49,2.49,0,0,0-.94-.14h-1V100h-3.76V69Z" transform="translate(0 73.35)"/><path class="cls-16" d="M563.51,78.35A9.5,9.5,0,0,1,567,79a7.93,7.93,0,0,1,2.79,1.85,8.44,8.44,0,0,1,1.84,3,11.52,11.52,0,0,1,.66,4,2.43,2.43,0,0,1-.19,1.18.78.78,0,0,1-.71.29H557.27a11.76,11.76,0,0,0,.55,3.51,7.16,7.16,0,0,0,1.39,2.49,5.54,5.54,0,0,0,2.1,1.49,7.21,7.21,0,0,0,2.73.49,8,8,0,0,0,2.42-.33,11.55,11.55,0,0,0,1.75-.7,13.29,13.29,0,0,0,1.23-.7,1.63,1.63,0,0,1,.85-.33.82.82,0,0,1,.71.36l1,1.37a7.1,7.1,0,0,1-1.66,1.46,10.28,10.28,0,0,1-2.07,1,13.25,13.25,0,0,1-2.28.6,13.94,13.94,0,0,1-2.33.2,10.84,10.84,0,0,1-4.06-.75,8.91,8.91,0,0,1-3.21-2.18,10,10,0,0,1-2.11-3.56,14.47,14.47,0,0,1-.76-4.87,12.39,12.39,0,0,1,.68-4.16,9.8,9.8,0,0,1,2-3.35,9,9,0,0,1,3.13-2.23A10.27,10.27,0,0,1,563.51,78.35Zm.08,2.75a5.74,5.74,0,0,0-4.26,1.56A7.36,7.36,0,0,0,557.4,87H569a7.56,7.56,0,0,0-.36-2.38,5.31,5.31,0,0,0-1-1.87,4.7,4.7,0,0,0-1.69-1.22A5.7,5.7,0,0,0,563.59,81.1Z" transform="translate(0 73.35)"/><path class="cls-16" d="M591.65,100.3a5.13,5.13,0,0,1-3.87-1.41,5.61,5.61,0,0,1-1.35-4.05v-13h-2.56a.84.84,0,0,1-.57-.2.78.78,0,0,1-.23-.62V79.51l3.49-.44.86-6.57a.8.8,0,0,1,.27-.51.87.87,0,0,1,.59-.2h1.89v7.33h6.09v2.71h-6.09V94.59a2.71,2.71,0,0,0,.65,2,2.27,2.27,0,0,0,1.68.65,3,3,0,0,0,1-.16,4.26,4.26,0,0,0,.75-.35c.21-.12.39-.24.54-.35a.7.7,0,0,1,.39-.16.64.64,0,0,1,.52.36l1.09,1.79a7,7,0,0,1-2.33,1.42A7.92,7.92,0,0,1,591.65,100.3Z" transform="translate(0 73.35)"/><path class="cls-16" d="M609.48,78.35a10.93,10.93,0,0,1,4.21.78,8.88,8.88,0,0,1,3.19,2.21,9.77,9.77,0,0,1,2,3.46,14.95,14.95,0,0,1,0,9.06,9.79,9.79,0,0,1-2,3.44,8.76,8.76,0,0,1-3.19,2.19,11.95,11.95,0,0,1-8.42,0,8.86,8.86,0,0,1-3.2-2.19,9.8,9.8,0,0,1-2-3.44,14.73,14.73,0,0,1,0-9.06,9.78,9.78,0,0,1,2-3.46,9,9,0,0,1,3.2-2.21A10.93,10.93,0,0,1,609.48,78.35Zm0,19a5.46,5.46,0,0,0,4.7-2.11,9.77,9.77,0,0,0,1.55-5.89,9.86,9.86,0,0,0-1.55-5.92,5.45,5.45,0,0,0-4.7-2.12,6.54,6.54,0,0,0-2.77.55,5.19,5.19,0,0,0-2,1.58,7,7,0,0,0-1.18,2.53,14.95,14.95,0,0,0,0,6.77,6.9,6.9,0,0,0,1.18,2.51,5.24,5.24,0,0,0,2,1.56A6.52,6.52,0,0,0,609.48,97.34Z" transform="translate(0 73.35)"/><path class="cls-16" d="M636.21,69V87.23h1a1.77,1.77,0,0,0,.69-.12,1.91,1.91,0,0,0,.61-.47l6.72-7.2a3.67,3.67,0,0,1,.63-.55,1.5,1.5,0,0,1,.84-.21h3.4L642.24,87a7.46,7.46,0,0,1-.58.63,3.38,3.38,0,0,1-.64.48,3.93,3.93,0,0,1,.68.58,5.43,5.43,0,0,1,.58.75L650.6,100h-3.36a1.61,1.61,0,0,1-.79-.18,2,2,0,0,1-.62-.56l-7-8.72a1.63,1.63,0,0,0-.63-.58,2.49,2.49,0,0,0-.94-.14h-1V100h-3.76V69Z" transform="translate(0 73.35)"/><path class="cls-16" d="M654.33,100V78.69h2.23a1,1,0,0,1,1,.78l.29,2.31A12,12,0,0,1,661,79.3a8.06,8.06,0,0,1,4-.94,7.68,7.68,0,0,1,3.08.58,6,6,0,0,1,2.23,1.64,7.25,7.25,0,0,1,1.35,2.55,11.12,11.12,0,0,1,.46,3.3V100H668.3V86.42a5.72,5.72,0,0,0-1.1-3.75,4.12,4.12,0,0,0-3.37-1.33,6.28,6.28,0,0,0-3.1.8,10.19,10.19,0,0,0-2.66,2.16V100Z" transform="translate(0 73.35)"/><path class="cls-16" d="M686.29,78.35a10.94,10.94,0,0,1,4.21.78,8.88,8.88,0,0,1,3.19,2.21,9.77,9.77,0,0,1,2,3.46,14.95,14.95,0,0,1,0,9.06,9.79,9.79,0,0,1-2,3.44,8.77,8.77,0,0,1-3.19,2.19,11.95,11.95,0,0,1-8.42,0,8.86,8.86,0,0,1-3.2-2.19,9.82,9.82,0,0,1-2-3.44,14.73,14.73,0,0,1,0-9.06,9.8,9.8,0,0,1,2-3.46,9,9,0,0,1,3.2-2.21A10.94,10.94,0,0,1,686.29,78.35Zm0,19a5.46,5.46,0,0,0,4.7-2.11,9.77,9.77,0,0,0,1.55-5.89A9.86,9.86,0,0,0,691,83.41a5.45,5.45,0,0,0-4.7-2.12,6.54,6.54,0,0,0-2.77.55,5.18,5.18,0,0,0-2,1.58,7,7,0,0,0-1.18,2.53,14.95,14.95,0,0,0,0,6.77,6.88,6.88,0,0,0,1.18,2.51,5.23,5.23,0,0,0,2,1.56A6.53,6.53,0,0,0,686.29,97.34Z" transform="translate(0 73.35)"/><path class="cls-16" d="M698.26,78.69h2.94a1.19,1.19,0,0,1,.76.23,1.16,1.16,0,0,1,.4.55l4.07,13.69q.17.76.31,1.46T707,96q.17-.71.38-1.42l.44-1.46,4.49-13.78a1.11,1.11,0,0,1,.37-.52,1,1,0,0,1,.66-.21H715a1.11,1.11,0,0,1,.69.21,1.07,1.07,0,0,1,.38.52l4.39,13.78c.15.49.29,1,.41,1.45l.35,1.41c.07-.46.16-.94.27-1.45s.23-1,.36-1.41L726,79.47a1.1,1.1,0,0,1,.4-.56,1.13,1.13,0,0,1,.69-.22h2.81L723,100h-3q-.54,0-.76-.71l-4.7-14.43a8,8,0,0,1-.27-1l-.21-1-.21,1a7.73,7.73,0,0,1-.27,1l-4.77,14.41a.88.88,0,0,1-.86.71h-2.81Z" transform="translate(0 73.35)"/><path class="cls-16" d="M738.54,78.69h2.94a1.19,1.19,0,0,1,.76.23,1.16,1.16,0,0,1,.4.55l4.07,13.69q.17.76.32,1.46t.25,1.42q.17-.71.38-1.42l.44-1.46,4.49-13.78a1.11,1.11,0,0,1,.37-.52,1,1,0,0,1,.66-.21h1.62a1.1,1.1,0,0,1,.69.21,1.08,1.08,0,0,1,.38.52l4.39,13.78c.15.49.29,1,.41,1.45l.35,1.41c.07-.46.16-.94.27-1.45s.23-1,.36-1.41l4.16-13.69a1.09,1.09,0,0,1,.4-.56,1.12,1.12,0,0,1,.69-.22h2.81L763.26,100h-3q-.55,0-.76-.71l-4.7-14.43a8,8,0,0,1-.27-1l-.21-1q-.11.48-.21,1a7.89,7.89,0,0,1-.27,1l-4.77,14.41a.88.88,0,0,1-.86.71h-2.81Z" transform="translate(0 73.35)"/><path class="cls-16" d="M773.49,100V69h3.74V81.54a11.48,11.48,0,0,1,3-2.32,8.1,8.1,0,0,1,3.82-.87,7.69,7.69,0,0,1,3.08.58,6,6,0,0,1,2.23,1.64,7.22,7.22,0,0,1,1.35,2.55,11.08,11.08,0,0,1,.46,3.3V100h-3.74V86.42a5.73,5.73,0,0,0-1.1-3.75A4.12,4.12,0,0,0,783,81.33a6.28,6.28,0,0,0-3.1.8,10.2,10.2,0,0,0-2.66,2.16V100Z" transform="translate(0 73.35)"/><path class="cls-16" d="M805.26,78.35a9.49,9.49,0,0,1,3.53.64,7.92,7.92,0,0,1,2.79,1.85,8.44,8.44,0,0,1,1.84,3,11.52,11.52,0,0,1,.66,4,2.44,2.44,0,0,1-.19,1.18.78.78,0,0,1-.71.29H799a11.76,11.76,0,0,0,.55,3.51A7.16,7.16,0,0,0,801,95.33a5.54,5.54,0,0,0,2.1,1.49,7.21,7.21,0,0,0,2.73.49,8,8,0,0,0,2.43-.33,11.55,11.55,0,0,0,1.75-.7,13.29,13.29,0,0,0,1.23-.7,1.63,1.63,0,0,1,.85-.33.82.82,0,0,1,.71.36l1,1.37a7.1,7.1,0,0,1-1.66,1.46,10.33,10.33,0,0,1-2.07,1,13.27,13.27,0,0,1-2.28.6,13.94,13.94,0,0,1-2.33.2,10.83,10.83,0,0,1-4.06-.75,8.9,8.9,0,0,1-3.21-2.18,10,10,0,0,1-2.11-3.56,14.47,14.47,0,0,1-.76-4.87,12.39,12.39,0,0,1,.68-4.16,9.8,9.8,0,0,1,2-3.35,9,9,0,0,1,3.13-2.23A10.27,10.27,0,0,1,805.26,78.35Zm.08,2.75a5.74,5.74,0,0,0-4.26,1.56A7.36,7.36,0,0,0,799.15,87h11.57a7.56,7.56,0,0,0-.36-2.38,5.31,5.31,0,0,0-1-1.87,4.7,4.7,0,0,0-1.69-1.22A5.7,5.7,0,0,0,805.34,81.1Z" transform="translate(0 73.35)"/><path class="cls-16" d="M818.85,100V78.69H821a1.18,1.18,0,0,1,.84.23,1.42,1.42,0,0,1,.32.8l.25,3.32a9.72,9.72,0,0,1,2.7-3.48,6.36,6.36,0,0,1,5.37-1.05,5.6,5.6,0,0,1,1.32.56l-.48,2.79a.63.63,0,0,1-.65.52,3.24,3.24,0,0,1-.9-.2A5.7,5.7,0,0,0,828,82a4.82,4.82,0,0,0-3.27,1.13,8.51,8.51,0,0,0-2.19,3.3V100Z" transform="translate(0 73.35)"/><path class="cls-16" d="M844.19,78.35a9.49,9.49,0,0,1,3.53.64,7.92,7.92,0,0,1,2.79,1.85,8.44,8.44,0,0,1,1.84,3,11.52,11.52,0,0,1,.66,4,2.44,2.44,0,0,1-.19,1.18.78.78,0,0,1-.71.29H838a11.76,11.76,0,0,0,.55,3.51,7.16,7.16,0,0,0,1.39,2.49,5.54,5.54,0,0,0,2.1,1.49,7.21,7.21,0,0,0,2.73.49,8,8,0,0,0,2.43-.33,11.55,11.55,0,0,0,1.75-.7,13.29,13.29,0,0,0,1.23-.7,1.63,1.63,0,0,1,.85-.33.82.82,0,0,1,.71.36l1,1.37a7.1,7.1,0,0,1-1.66,1.46,10.33,10.33,0,0,1-2.07,1,13.27,13.27,0,0,1-2.28.6,13.94,13.94,0,0,1-2.33.2,10.83,10.83,0,0,1-4.06-.75,8.9,8.9,0,0,1-3.21-2.18A10,10,0,0,1,835,93.77a14.47,14.47,0,0,1-.76-4.87,12.39,12.39,0,0,1,.68-4.16,9.8,9.8,0,0,1,2-3.35A9,9,0,0,1,840,79.16,10.27,10.27,0,0,1,844.19,78.35Zm.08,2.75A5.74,5.74,0,0,0,840,82.67,7.36,7.36,0,0,0,838.08,87h11.57a7.56,7.56,0,0,0-.36-2.38,5.31,5.31,0,0,0-1-1.87,4.7,4.7,0,0,0-1.69-1.22A5.7,5.7,0,0,0,844.28,81.1Z" transform="translate(0 73.35)"/><path class="cls-16" d="M871.3,100h-4.07V69.87h4.07Z" transform="translate(0 73.35)"/><path class="cls-16" d="M902.51,100h-1.66a2,2,0,0,1-.88-.17.93.93,0,0,1-.44-.71l-.42-2q-.84.76-1.64,1.35a9.33,9.33,0,0,1-1.68,1,8.67,8.67,0,0,1-1.88.62,10.81,10.81,0,0,1-2.22.21,7.55,7.55,0,0,1-2.32-.35,5.27,5.27,0,0,1-1.88-1,5,5,0,0,1-1.27-1.76,6.17,6.17,0,0,1-.47-2.52,4.71,4.71,0,0,1,.69-2.43,6.09,6.09,0,0,1,2.24-2.08,14.56,14.56,0,0,1,4-1.49,27.54,27.54,0,0,1,6.11-.58V86.39a5.79,5.79,0,0,0-1.06-3.77,3.84,3.84,0,0,0-3.14-1.28,6.64,6.64,0,0,0-2.3.35,8.79,8.79,0,0,0-1.62.78q-.68.43-1.18.78a1.7,1.7,0,0,1-1,.35,1.11,1.11,0,0,1-.66-.2,1.51,1.51,0,0,1-.45-.49l-.67-1.2a12.15,12.15,0,0,1,3.8-2.54,11.75,11.75,0,0,1,4.52-.84,8.06,8.06,0,0,1,3.17.59,6.5,6.5,0,0,1,2.33,1.64A6.94,6.94,0,0,1,902,83.08a10.58,10.58,0,0,1,.48,3.28Zm-9.7-2.29a7.64,7.64,0,0,0,1.81-.2,7.13,7.13,0,0,0,1.54-.57,8.19,8.19,0,0,0,1.39-.89,12.08,12.08,0,0,0,1.29-1.2V90.43a25.12,25.12,0,0,0-4.39.33,12.32,12.32,0,0,0-2.94.86,4.11,4.11,0,0,0-1.65,1.25,2.7,2.7,0,0,0-.51,1.61,3.57,3.57,0,0,0,.27,1.46,2.74,2.74,0,0,0,.74,1,2.88,2.88,0,0,0,1.09.57A5,5,0,0,0,892.81,97.67Z" transform="translate(0 73.35)"/><path class="cls-16" d="M908.18,100V78.69h2.23a1,1,0,0,1,1,.78l.27,2.18a10.9,10.9,0,0,1,2.64-2.37,6.2,6.2,0,0,1,3.39-.92,5,5,0,0,1,3.5,1.2,6.74,6.74,0,0,1,1.92,3.23,6.65,6.65,0,0,1,1.17-2,6.77,6.77,0,0,1,1.63-1.39,6.91,6.91,0,0,1,1.92-.8,8.58,8.58,0,0,1,2.07-.25,7.87,7.87,0,0,1,3,.54,5.94,5.94,0,0,1,2.23,1.56,7,7,0,0,1,1.4,2.53,11.2,11.2,0,0,1,.48,3.43V100h-3.74V86.42a5.74,5.74,0,0,0-1.09-3.79A3.92,3.92,0,0,0,929,81.33a4.74,4.74,0,0,0-1.75.33,4.23,4.23,0,0,0-1.46,1,4.48,4.48,0,0,0-1,1.58,6.15,6.15,0,0,0-.37,2.22V100h-3.74V86.42a6,6,0,0,0-1-3.82,3.65,3.65,0,0,0-3-1.26,4.74,4.74,0,0,0-2.57.75,8.41,8.41,0,0,0-2.17,2V100Z" transform="translate(0 73.35)"/><path class="cls-16" d="M957.93,78.33a10.59,10.59,0,0,1,2.59.3,8.18,8.18,0,0,1,2.19.89h5.78v1.39q0,.69-.88.88l-2.42.34a6.47,6.47,0,0,1,.71,3,6.54,6.54,0,0,1-.6,2.83,6.4,6.4,0,0,1-1.66,2.17,7.43,7.43,0,0,1-2.52,1.39,10.14,10.14,0,0,1-3.2.48,10.74,10.74,0,0,1-2.81-.36,3.56,3.56,0,0,0-1,.93,1.71,1.71,0,0,0-.35,1,1.33,1.33,0,0,0,.61,1.18,4.24,4.24,0,0,0,1.62.58,13.53,13.53,0,0,0,2.29.17h2.61a14.5,14.5,0,0,1,2.61.23,7.94,7.94,0,0,1,2.29.77A4.27,4.27,0,0,1,967.4,98a4.38,4.38,0,0,1,.61,2.42,5.68,5.68,0,0,1-.68,2.68,7.24,7.24,0,0,1-2,2.31,10.06,10.06,0,0,1-3.13,1.62,13.38,13.38,0,0,1-4.18.61,16.14,16.14,0,0,1-4.08-.46,9.57,9.57,0,0,1-2.91-1.24,5.41,5.41,0,0,1-1.73-1.8,4.27,4.27,0,0,1-.58-2.13,3.85,3.85,0,0,1,1-2.68,6.82,6.82,0,0,1,2.74-1.76A3.75,3.75,0,0,1,951,96.44a3,3,0,0,1-.54-1.88,3,3,0,0,1,.17-1,3.76,3.76,0,0,1,.51-1,5.49,5.49,0,0,1,2-1.7,6.62,6.62,0,0,1-2.47-2.34,6.41,6.41,0,0,1-.89-3.41,6.54,6.54,0,0,1,.6-2.82,6.24,6.24,0,0,1,1.67-2.16,7.64,7.64,0,0,1,2.55-1.38A10.42,10.42,0,0,1,957.93,78.33ZM964.56,101a1.89,1.89,0,0,0-.44-1.31,2.85,2.85,0,0,0-1.2-.76,8.49,8.49,0,0,0-1.74-.4,16.07,16.07,0,0,0-2.08-.13h-2.23a8.13,8.13,0,0,1-2.16-.28,6.13,6.13,0,0,0-1.94,1.39,2.81,2.81,0,0,0-.75,2,2.58,2.58,0,0,0,.37,1.34,3.14,3.14,0,0,0,1.12,1.07,6.6,6.6,0,0,0,1.9.71,12.13,12.13,0,0,0,2.7.26,12,12,0,0,0,2.71-.28,6.72,6.72,0,0,0,2-.79,3.86,3.86,0,0,0,1.27-1.22A2.9,2.9,0,0,0,964.56,101Zm-6.64-11.47a5.88,5.88,0,0,0,2-.32,4.06,4.06,0,0,0,1.46-.88,3.63,3.63,0,0,0,.88-1.35,4.94,4.94,0,0,0,.29-1.73,4.14,4.14,0,0,0-1.19-3.11,5.71,5.71,0,0,0-6.89,0,4.13,4.13,0,0,0-1.19,3.11,4.77,4.77,0,0,0,.3,1.73,3.74,3.74,0,0,0,.89,1.35,4.06,4.06,0,0,0,1.45.88A5.72,5.72,0,0,0,957.93,89.57Z" transform="translate(0 73.35)"/><path class="cls-16" d="M980.84,78.35a10.93,10.93,0,0,1,4.21.78,8.88,8.88,0,0,1,3.19,2.21,9.77,9.77,0,0,1,2,3.46,14.95,14.95,0,0,1,0,9.06,9.79,9.79,0,0,1-2,3.44A8.76,8.76,0,0,1,985,99.49a11.95,11.95,0,0,1-8.42,0,8.85,8.85,0,0,1-3.2-2.19,9.83,9.83,0,0,1-2-3.44,14.73,14.73,0,0,1,0-9.06,9.81,9.81,0,0,1,2-3.46,9,9,0,0,1,3.2-2.21A10.93,10.93,0,0,1,980.84,78.35Zm0,19a5.46,5.46,0,0,0,4.7-2.11,9.77,9.77,0,0,0,1.55-5.89,9.86,9.86,0,0,0-1.55-5.92,5.45,5.45,0,0,0-4.7-2.12,6.54,6.54,0,0,0-2.77.55,5.19,5.19,0,0,0-2,1.58,7,7,0,0,0-1.18,2.53,14.95,14.95,0,0,0,0,6.77,6.88,6.88,0,0,0,1.18,2.51,5.24,5.24,0,0,0,2,1.56A6.52,6.52,0,0,0,980.84,97.34Z" transform="translate(0 73.35)"/><path class="cls-16" d="M1000.58,72a2.39,2.39,0,0,1-.22,1,3,3,0,0,1-.59.84,2.73,2.73,0,0,1-.85.58,2.55,2.55,0,0,1-1,.21,2.48,2.48,0,0,1-1-.21A2.79,2.79,0,0,1,995.45,73a2.47,2.47,0,0,1-.21-1,2.62,2.62,0,0,1,.21-1,2.7,2.7,0,0,1,.58-.86,2.79,2.79,0,0,1,.84-.58,2.49,2.49,0,0,1,1-.21,2.56,2.56,0,0,1,1,.21,2.75,2.75,0,0,1,.85.58,2.88,2.88,0,0,1,.59.86A2.53,2.53,0,0,1,1000.58,72Zm-.84,6.68V100H996V78.69Z" transform="translate(0 73.35)"/><path class="cls-16" d="M1006.33,100V78.69h2.23a1,1,0,0,1,1,.78l.29,2.31a11.93,11.93,0,0,1,3.1-2.48,8.06,8.06,0,0,1,4-.94,7.69,7.69,0,0,1,3.08.58,6,6,0,0,1,2.23,1.64,7.22,7.22,0,0,1,1.35,2.55,11.08,11.08,0,0,1,.46,3.3V100h-3.74V86.42a5.73,5.73,0,0,0-1.1-3.75,4.12,4.12,0,0,0-3.37-1.33,6.28,6.28,0,0,0-3.1.8,10.2,10.2,0,0,0-2.66,2.16V100Z" transform="translate(0 73.35)"/><path class="cls-16" d="M1036.84,78.33a10.59,10.59,0,0,1,2.59.3,8.18,8.18,0,0,1,2.19.89h5.78v1.39q0,.69-.88.88l-2.42.34a6.47,6.47,0,0,1,.71,3,6.54,6.54,0,0,1-.6,2.83,6.4,6.4,0,0,1-1.66,2.17,7.43,7.43,0,0,1-2.52,1.39,10.14,10.14,0,0,1-3.2.48,10.74,10.74,0,0,1-2.81-.36,3.56,3.56,0,0,0-1,.93,1.71,1.71,0,0,0-.35,1,1.33,1.33,0,0,0,.61,1.18,4.24,4.24,0,0,0,1.62.58,13.53,13.53,0,0,0,2.29.17h2.61a14.5,14.5,0,0,1,2.61.23,7.94,7.94,0,0,1,2.29.77,4.27,4.27,0,0,1,1.62,1.47,4.38,4.38,0,0,1,.61,2.42,5.68,5.68,0,0,1-.68,2.68,7.24,7.24,0,0,1-2,2.31,10.06,10.06,0,0,1-3.13,1.62,13.38,13.38,0,0,1-4.18.61,16.14,16.14,0,0,1-4.08-.46,9.57,9.57,0,0,1-2.91-1.24,5.41,5.41,0,0,1-1.73-1.8,4.27,4.27,0,0,1-.58-2.13,3.85,3.85,0,0,1,1-2.68,6.82,6.82,0,0,1,2.74-1.76,3.75,3.75,0,0,1-1.44-1.12,3,3,0,0,1-.54-1.88,3,3,0,0,1,.17-1,3.76,3.76,0,0,1,.51-1,5.49,5.49,0,0,1,2-1.7,6.62,6.62,0,0,1-2.47-2.34,6.41,6.41,0,0,1-.89-3.41,6.54,6.54,0,0,1,.6-2.82,6.24,6.24,0,0,1,1.67-2.16,7.64,7.64,0,0,1,2.55-1.38A10.42,10.42,0,0,1,1036.84,78.33Zm6.64,22.71a1.89,1.89,0,0,0-.44-1.31,2.85,2.85,0,0,0-1.2-.76,8.49,8.49,0,0,0-1.74-.4,16.07,16.07,0,0,0-2.08-.13h-2.23a8.13,8.13,0,0,1-2.16-.28,6.13,6.13,0,0,0-1.94,1.39,2.81,2.81,0,0,0-.75,2,2.58,2.58,0,0,0,.37,1.34,3.14,3.14,0,0,0,1.12,1.07,6.6,6.6,0,0,0,1.9.71,12.13,12.13,0,0,0,2.7.26,12,12,0,0,0,2.71-.28,6.72,6.72,0,0,0,2-.79,3.86,3.86,0,0,0,1.27-1.22A2.9,2.9,0,0,0,1043.48,101Zm-6.64-11.47a5.88,5.88,0,0,0,2-.32,4.06,4.06,0,0,0,1.46-.88,3.63,3.63,0,0,0,.88-1.35,4.94,4.94,0,0,0,.29-1.73,4.14,4.14,0,0,0-1.19-3.11,5.71,5.71,0,0,0-6.89,0,4.13,4.13,0,0,0-1.19,3.11,4.77,4.77,0,0,0,.3,1.73,3.74,3.74,0,0,0,.89,1.35,4.06,4.06,0,0,0,1.45.88A5.72,5.72,0,0,0,1036.84,89.57Z" transform="translate(0 73.35)"/><path class="cls-16" d="M1050.05,97.38a2.36,2.36,0,0,1,.18-.91,2.31,2.31,0,0,1,.5-.76,2.38,2.38,0,0,1,.79-.52,2.65,2.65,0,0,1,1-.19,2.61,2.61,0,0,1,1.12.23,2.24,2.24,0,0,1,.82.64,2.9,2.9,0,0,1,.49.94,3.86,3.86,0,0,1,.17,1.17,7.59,7.59,0,0,1-.27,2,10.57,10.57,0,0,1-.78,2,11.63,11.63,0,0,1-1.25,1.94,12.11,12.11,0,0,1-1.69,1.74l-.63-.61a.78.78,0,0,1-.27-.59.83.83,0,0,1,.29-.57l.54-.62a10.36,10.36,0,0,0,.66-.89,8.34,8.34,0,0,0,.62-1.11,5.3,5.3,0,0,0,.41-1.3h-.27a2.47,2.47,0,0,1-1-.19,2.25,2.25,0,0,1-.77-.54,2.44,2.44,0,0,1-.5-.82A2.92,2.92,0,0,1,1050.05,97.38Z" transform="translate(0 73.35)"/><path class="cls-16" d="M484.89,150.36h-1.66a2,2,0,0,1-.88-.17.93.93,0,0,1-.44-.71l-.42-2q-.84.76-1.64,1.35a9.44,9.44,0,0,1-1.68,1,8.62,8.62,0,0,1-1.88.62,10.73,10.73,0,0,1-2.22.21,7.58,7.58,0,0,1-2.32-.35,5.31,5.31,0,0,1-1.88-1,5,5,0,0,1-1.27-1.76,6.17,6.17,0,0,1-.47-2.52,4.71,4.71,0,0,1,.69-2.43,6.09,6.09,0,0,1,2.24-2.08,14.54,14.54,0,0,1,4-1.49,27.48,27.48,0,0,1,6.11-.58v-1.67a5.79,5.79,0,0,0-1.06-3.77,3.84,3.84,0,0,0-3.14-1.28,6.67,6.67,0,0,0-2.3.35,8.73,8.73,0,0,0-1.62.78q-.68.43-1.18.78a1.7,1.7,0,0,1-1,.35,1.12,1.12,0,0,1-.66-.2,1.51,1.51,0,0,1-.45-.49l-.67-1.2a12.14,12.14,0,0,1,3.8-2.54,11.74,11.74,0,0,1,4.51-.84,8.07,8.07,0,0,1,3.17.59,6.51,6.51,0,0,1,2.33,1.64,6.94,6.94,0,0,1,1.43,2.54,10.59,10.59,0,0,1,.48,3.28Zm-9.7-2.29a7.64,7.64,0,0,0,1.81-.2,7.12,7.12,0,0,0,1.54-.57,8,8,0,0,0,1.39-.89,11.94,11.94,0,0,0,1.29-1.2v-4.39a25,25,0,0,0-4.39.33,12.3,12.3,0,0,0-2.94.86,4.09,4.09,0,0,0-1.65,1.25,2.69,2.69,0,0,0-.51,1.61,3.56,3.56,0,0,0,.27,1.46,2.76,2.76,0,0,0,.73,1,2.9,2.9,0,0,0,1.09.57A5,5,0,0,0,475.19,148.07Z" transform="translate(0 73.35)"/><path class="cls-16" d="M490.56,150.36V129.09h2.23a1,1,0,0,1,1,.78l.29,2.31a11.92,11.92,0,0,1,3.1-2.48,8,8,0,0,1,4-.95,7.69,7.69,0,0,1,3.08.58,6,6,0,0,1,2.23,1.64,7.24,7.24,0,0,1,1.35,2.55,11.11,11.11,0,0,1,.46,3.3v13.54h-3.74V136.82a5.73,5.73,0,0,0-1.1-3.75,4.12,4.12,0,0,0-3.37-1.33,6.29,6.29,0,0,0-3.1.8,10.22,10.22,0,0,0-2.66,2.16v15.67Z" transform="translate(0 73.35)"/><path class="cls-16" d="M528.88,150.36a1,1,0,0,1-1-.78l-.34-2.58a11.19,11.19,0,0,1-3.12,2.66,8,8,0,0,1-4,1,7.69,7.69,0,0,1-3.32-.7,6.88,6.88,0,0,1-2.54-2.07,9.86,9.86,0,0,1-1.62-3.4,17.51,17.51,0,0,1-.57-4.68,14.68,14.68,0,0,1,.63-4.38,10.67,10.67,0,0,1,1.82-3.52,8.33,8.33,0,0,1,6.75-3.19,7.69,7.69,0,0,1,3.34.66,8,8,0,0,1,2.48,1.86v-11.8h3.74v30.93Zm-7.25-2.73a6,6,0,0,0,3.2-.84,9.24,9.24,0,0,0,2.53-2.37V134.13a5.91,5.91,0,0,0-2.26-1.94,6.52,6.52,0,0,0-2.72-.56,5.38,5.38,0,0,0-4.58,2.12,9.9,9.9,0,0,0-1.6,6,15.37,15.37,0,0,0,.36,3.56,6.84,6.84,0,0,0,1.05,2.44,4.11,4.11,0,0,0,1.7,1.4A5.7,5.7,0,0,0,521.64,147.63Z" transform="translate(0 73.35)"/><path class="cls-16" d="M550.91,150.36h-4.07V120.27h4.07Z" transform="translate(0 73.35)"/><path class="cls-16" d="M563.72,129.09h2.94a1.19,1.19,0,0,1,.76.23,1.16,1.16,0,0,1,.4.55l4.07,13.69q.17.76.31,1.46t.25,1.42q.17-.71.38-1.42l.44-1.46,4.49-13.78a1.11,1.11,0,0,1,.37-.53,1,1,0,0,1,.66-.21h1.62a1.11,1.11,0,0,1,.69.21,1.09,1.09,0,0,1,.38.53l4.39,13.78q.23.74.41,1.45l.35,1.41q.1-.69.27-1.45t.36-1.41l4.16-13.69a1.08,1.08,0,0,1,.4-.56,1.12,1.12,0,0,1,.69-.22h2.81l-6.89,21.27h-3q-.55,0-.76-.71L580,135.22a8.07,8.07,0,0,1-.27-1l-.21-1-.21,1a8,8,0,0,1-.27,1l-4.77,14.41a.88.88,0,0,1-.86.71h-2.81Z" transform="translate(0 73.35)"/><path class="cls-16" d="M614.29,150.36h-1.66a2,2,0,0,1-.88-.17.93.93,0,0,1-.44-.71l-.42-2q-.84.76-1.64,1.35a9.44,9.44,0,0,1-1.68,1,8.61,8.61,0,0,1-1.88.62,10.73,10.73,0,0,1-2.21.21,7.58,7.58,0,0,1-2.32-.35,5.3,5.3,0,0,1-1.88-1,5,5,0,0,1-1.27-1.76,6.16,6.16,0,0,1-.47-2.52,4.71,4.71,0,0,1,.69-2.43,6.08,6.08,0,0,1,2.24-2.08,14.54,14.54,0,0,1,4-1.49,27.48,27.48,0,0,1,6.11-.58v-1.67a5.79,5.79,0,0,0-1.06-3.77,3.84,3.84,0,0,0-3.14-1.28,6.66,6.66,0,0,0-2.3.35,8.73,8.73,0,0,0-1.62.78q-.68.43-1.18.78a1.7,1.7,0,0,1-1,.35,1.12,1.12,0,0,1-.66-.2,1.52,1.52,0,0,1-.45-.49l-.67-1.2a12.14,12.14,0,0,1,3.8-2.54,11.74,11.74,0,0,1,4.51-.84,8.07,8.07,0,0,1,3.17.59,6.5,6.5,0,0,1,2.33,1.64,6.94,6.94,0,0,1,1.43,2.54,10.61,10.61,0,0,1,.48,3.28Zm-9.7-2.29a7.65,7.65,0,0,0,1.81-.2,7.1,7.1,0,0,0,1.54-.57,8,8,0,0,0,1.39-.89,12,12,0,0,0,1.29-1.2v-4.39a25,25,0,0,0-4.39.33,12.3,12.3,0,0,0-2.94.86,4.09,4.09,0,0,0-1.65,1.25,2.69,2.69,0,0,0-.51,1.61,3.55,3.55,0,0,0,.27,1.46,2.77,2.77,0,0,0,.73,1,2.91,2.91,0,0,0,1.09.57A5,5,0,0,0,604.58,148.07Z" transform="translate(0 73.35)"/><path class="cls-16" d="M620,150.36V129.09h2.23a1,1,0,0,1,1,.78l.29,2.31a11.92,11.92,0,0,1,3.1-2.48,8.05,8.05,0,0,1,4-.95,7.68,7.68,0,0,1,3.08.58,6,6,0,0,1,2.23,1.64,7.25,7.25,0,0,1,1.35,2.55,11.11,11.11,0,0,1,.46,3.3v13.54h-3.74V136.82a5.73,5.73,0,0,0-1.1-3.75,4.12,4.12,0,0,0-3.37-1.33,6.29,6.29,0,0,0-3.1.8,10.22,10.22,0,0,0-2.66,2.16v15.67Z" transform="translate(0 73.35)"/><path class="cls-16" d="M649.76,150.7a5.12,5.12,0,0,1-3.87-1.41,5.61,5.61,0,0,1-1.35-4.05v-13H642a.84.84,0,0,1-.57-.2.78.78,0,0,1-.23-.62v-1.49l3.49-.44.86-6.57a.79.79,0,0,1,.27-.51.87.87,0,0,1,.59-.2h1.89v7.33h6.09v2.71h-6.09V145a2.72,2.72,0,0,0,.65,2,2.27,2.27,0,0,0,1.68.65,3,3,0,0,0,1-.16,4.34,4.34,0,0,0,.75-.35c.21-.13.39-.24.54-.35a.7.7,0,0,1,.39-.16.64.64,0,0,1,.52.36l1.09,1.78a7,7,0,0,1-2.33,1.42A7.9,7.9,0,0,1,649.76,150.7Z" transform="translate(0 73.35)"/><path class="cls-16" d="M673.53,150.7a5.12,5.12,0,0,1-3.87-1.41,5.61,5.61,0,0,1-1.35-4.05v-13h-2.56a.84.84,0,0,1-.57-.2.78.78,0,0,1-.23-.62v-1.49l3.49-.44.86-6.57a.79.79,0,0,1,.27-.51.87.87,0,0,1,.59-.2H672v7.33h6.09v2.71H672V145a2.72,2.72,0,0,0,.65,2,2.27,2.27,0,0,0,1.68.65,3,3,0,0,0,1-.16,4.34,4.34,0,0,0,.75-.35c.21-.13.39-.24.54-.35a.7.7,0,0,1,.39-.16.64.64,0,0,1,.52.36l1.09,1.78a7,7,0,0,1-2.33,1.42A7.9,7.9,0,0,1,673.53,150.7Z" transform="translate(0 73.35)"/><path class="cls-16" d="M691.36,128.75a10.93,10.93,0,0,1,4.21.78,8.86,8.86,0,0,1,3.19,2.21,9.77,9.77,0,0,1,2,3.45,14.95,14.95,0,0,1,0,9.06,9.78,9.78,0,0,1-2,3.44,8.77,8.77,0,0,1-3.19,2.2,12,12,0,0,1-8.42,0,8.86,8.86,0,0,1-3.2-2.2,9.79,9.79,0,0,1-2-3.44,14.73,14.73,0,0,1,0-9.06,9.78,9.78,0,0,1,2-3.45,9,9,0,0,1,3.2-2.21A10.93,10.93,0,0,1,691.36,128.75Zm0,19a5.46,5.46,0,0,0,4.7-2.11,12,12,0,0,0,0-11.81,5.45,5.45,0,0,0-4.7-2.12,6.52,6.52,0,0,0-2.77.55,5.19,5.19,0,0,0-2,1.57,7,7,0,0,0-1.18,2.53,14.94,14.94,0,0,0,0,6.77,6.9,6.9,0,0,0,1.18,2.51,5.22,5.22,0,0,0,2,1.56A6.51,6.51,0,0,0,691.36,147.74Z" transform="translate(0 73.35)"/><path class="cls-16" d="M714.2,157.56V129.09h2.23a1,1,0,0,1,1,.78l.32,2.52a11.35,11.35,0,0,1,3.12-2.67,8,8,0,0,1,4-1,7.67,7.67,0,0,1,3.32.7,6.85,6.85,0,0,1,2.54,2.08,10,10,0,0,1,1.62,3.41,17.53,17.53,0,0,1,.57,4.68,14.68,14.68,0,0,1-.63,4.38,10.67,10.67,0,0,1-1.81,3.51,8.42,8.42,0,0,1-2.89,2.33,8.55,8.55,0,0,1-3.85.85,7.94,7.94,0,0,1-3.37-.65,7.6,7.6,0,0,1-2.47-1.85v9.41Zm9.47-25.83a6,6,0,0,0-3.2.84,9.23,9.23,0,0,0-2.53,2.37v10.29a6,6,0,0,0,2.26,2,6.45,6.45,0,0,0,2.74.57,5.36,5.36,0,0,0,4.56-2.12,9.91,9.91,0,0,0,1.6-6,15.14,15.14,0,0,0-.37-3.57,7,7,0,0,0-1.06-2.45,4.13,4.13,0,0,0-1.7-1.4A5.66,5.66,0,0,0,723.67,131.73Z" transform="translate(0 73.35)"/><path class="cls-16" d="M741.54,119.43v30.93h-3.74V119.43Z" transform="translate(0 73.35)"/><path class="cls-16" d="M763.76,150.36H762.1a2,2,0,0,1-.88-.17.93.93,0,0,1-.44-.71l-.42-2q-.84.76-1.64,1.35a9.45,9.45,0,0,1-1.68,1,8.62,8.62,0,0,1-1.88.62,10.74,10.74,0,0,1-2.22.21,7.58,7.58,0,0,1-2.32-.35,5.3,5.3,0,0,1-1.88-1,5,5,0,0,1-1.27-1.76A6.18,6.18,0,0,1,747,145a4.71,4.71,0,0,1,.69-2.43,6.08,6.08,0,0,1,2.24-2.08,14.53,14.53,0,0,1,4-1.49,27.47,27.47,0,0,1,6.11-.58v-1.67A5.79,5.79,0,0,0,759,133a3.84,3.84,0,0,0-3.14-1.28,6.67,6.67,0,0,0-2.3.35,8.73,8.73,0,0,0-1.62.78q-.68.43-1.18.78a1.7,1.7,0,0,1-1,.35,1.12,1.12,0,0,1-.66-.2,1.51,1.51,0,0,1-.45-.49l-.67-1.2a12.15,12.15,0,0,1,3.8-2.54,11.75,11.75,0,0,1,4.52-.84,8.06,8.06,0,0,1,3.17.59,6.51,6.51,0,0,1,2.33,1.64,7,7,0,0,1,1.43,2.54,10.58,10.58,0,0,1,.48,3.28Zm-9.7-2.29a7.64,7.64,0,0,0,1.81-.2,7.13,7.13,0,0,0,1.54-.57,8.07,8.07,0,0,0,1.39-.89,12,12,0,0,0,1.29-1.2v-4.39a25,25,0,0,0-4.39.33,12.32,12.32,0,0,0-2.94.86,4.1,4.1,0,0,0-1.65,1.25,2.69,2.69,0,0,0-.51,1.61,3.57,3.57,0,0,0,.27,1.46,2.76,2.76,0,0,0,.74,1,2.9,2.9,0,0,0,1.09.57A5,5,0,0,0,754.06,148.07Z" transform="translate(0 73.35)"/><path class="cls-16" d="M769.43,150.36V129.09h2.23a1,1,0,0,1,1,.78l.29,2.31a11.91,11.91,0,0,1,3.1-2.48,8,8,0,0,1,4-.95,7.69,7.69,0,0,1,3.08.58,6,6,0,0,1,2.23,1.64,7.22,7.22,0,0,1,1.35,2.55,11.08,11.08,0,0,1,.46,3.3v13.54H783.4V136.82a5.73,5.73,0,0,0-1.1-3.75,4.12,4.12,0,0,0-3.37-1.33,6.29,6.29,0,0,0-3.1.8,10.22,10.22,0,0,0-2.66,2.16v15.67Z" transform="translate(0 73.35)"/><path class="cls-16" d="M809.5,128.75a10.93,10.93,0,0,1,4.21.78,8.86,8.86,0,0,1,3.19,2.21,9.77,9.77,0,0,1,2,3.45,14.95,14.95,0,0,1,0,9.06,9.78,9.78,0,0,1-2,3.44,8.76,8.76,0,0,1-3.19,2.2,12,12,0,0,1-8.42,0,8.86,8.86,0,0,1-3.2-2.2,9.82,9.82,0,0,1-2-3.44,14.73,14.73,0,0,1,0-9.06,9.81,9.81,0,0,1,2-3.45,9,9,0,0,1,3.2-2.21A10.93,10.93,0,0,1,809.5,128.75Zm0,19a5.46,5.46,0,0,0,4.7-2.11,12,12,0,0,0,0-11.81,5.45,5.45,0,0,0-4.7-2.12,6.52,6.52,0,0,0-2.77.55,5.19,5.19,0,0,0-2,1.57,7,7,0,0,0-1.18,2.53,14.94,14.94,0,0,0,0,6.77,6.88,6.88,0,0,0,1.18,2.51,5.22,5.22,0,0,0,2,1.56A6.51,6.51,0,0,0,809.5,147.74Z" transform="translate(0 73.35)"/><path class="cls-16" d="M827.48,129.09v13.57a5.64,5.64,0,0,0,1.11,3.74,4.14,4.14,0,0,0,3.36,1.32,6.43,6.43,0,0,0,3.09-.78,9.6,9.6,0,0,0,2.67-2.16V129.09h3.74v21.27h-2.23a1,1,0,0,1-1-.78l-.29-2.29a11.7,11.7,0,0,1-3.11,2.47,8.15,8.15,0,0,1-3.95.94,7.68,7.68,0,0,1-3.08-.58,6.09,6.09,0,0,1-2.24-1.63,6.9,6.9,0,0,1-1.35-2.54,11.32,11.32,0,0,1-.45-3.3V129.09Z" transform="translate(0 73.35)"/><path class="cls-16" d="M854,150.7a5.12,5.12,0,0,1-3.87-1.41,5.61,5.61,0,0,1-1.35-4.05v-13h-2.56a.84.84,0,0,1-.57-.2.77.77,0,0,1-.23-.62v-1.49l3.49-.44.86-6.57a.79.79,0,0,1,.27-.51.87.87,0,0,1,.59-.2h1.89v7.33h6.09v2.71h-6.09V145a2.72,2.72,0,0,0,.65,2,2.27,2.27,0,0,0,1.68.65,3,3,0,0,0,1-.16,4.34,4.34,0,0,0,.75-.35c.21-.13.39-.24.54-.35a.7.7,0,0,1,.39-.16.64.64,0,0,1,.53.36l1.09,1.78a6.94,6.94,0,0,1-2.33,1.42A7.9,7.9,0,0,1,854,150.7Z" transform="translate(0 73.35)"/><path class="cls-16" d="M871.36,150.36V129.09h2.23a1,1,0,0,1,1,.78l.27,2.18a10.9,10.9,0,0,1,2.64-2.37,6.21,6.21,0,0,1,3.39-.92,5,5,0,0,1,3.5,1.2,6.73,6.73,0,0,1,1.92,3.23,6.66,6.66,0,0,1,1.17-2,6.78,6.78,0,0,1,1.63-1.39A6.9,6.9,0,0,1,891,129a8.58,8.58,0,0,1,2.07-.25,7.87,7.87,0,0,1,3,.54,5.94,5.94,0,0,1,2.23,1.56,7,7,0,0,1,1.4,2.53,11.19,11.19,0,0,1,.48,3.43v13.54h-3.74V136.82a5.74,5.74,0,0,0-1.09-3.79,3.92,3.92,0,0,0-3.17-1.29,4.74,4.74,0,0,0-1.75.33,4.23,4.23,0,0,0-1.46,1,4.49,4.49,0,0,0-1,1.58,6.16,6.16,0,0,0-.37,2.22v13.54h-3.74V136.82a6,6,0,0,0-1-3.82,3.65,3.65,0,0,0-3-1.26,4.74,4.74,0,0,0-2.57.75,8.43,8.43,0,0,0-2.17,2v15.86Z" transform="translate(0 73.35)"/><path class="cls-16" d="M911.41,156.64a2,2,0,0,1-.47.67,1.28,1.28,0,0,1-.87.25h-2.77l3.89-8.44-8.78-20h3.23a1.1,1.1,0,0,1,.76.24,1.51,1.51,0,0,1,.4.54l5.69,13.4a9.57,9.57,0,0,1,.33.92q.14.46.24.94l.29-.94q.15-.46.34-.95l5.52-13.38a1.19,1.19,0,0,1,.43-.56,1.1,1.1,0,0,1,.66-.22h3Z" transform="translate(0 73.35)"/><path class="cls-16" d="M934.78,150.36V129.09H937a1,1,0,0,1,1,.78l.29,2.31a11.91,11.91,0,0,1,3.1-2.48,8,8,0,0,1,4-.95,7.69,7.69,0,0,1,3.08.58,6,6,0,0,1,2.23,1.64,7.22,7.22,0,0,1,1.35,2.55,11.08,11.08,0,0,1,.46,3.3v13.54h-3.74V136.82a5.73,5.73,0,0,0-1.1-3.75,4.12,4.12,0,0,0-3.37-1.33,6.29,6.29,0,0,0-3.1.8,10.22,10.22,0,0,0-2.66,2.16v15.67Z" transform="translate(0 73.35)"/><path class="cls-16" d="M966.56,128.75a9.48,9.48,0,0,1,3.53.64,7.92,7.92,0,0,1,2.79,1.85,8.42,8.42,0,0,1,1.84,3,11.51,11.51,0,0,1,.66,4,2.44,2.44,0,0,1-.19,1.18.79.79,0,0,1-.71.29H960.32a11.76,11.76,0,0,0,.55,3.51,7.17,7.17,0,0,0,1.39,2.49,5.54,5.54,0,0,0,2.1,1.49,7.19,7.19,0,0,0,2.73.49,8,8,0,0,0,2.43-.33,11.55,11.55,0,0,0,1.75-.7,13.53,13.53,0,0,0,1.23-.7,1.63,1.63,0,0,1,.85-.33.82.82,0,0,1,.71.36l1,1.37a7.07,7.07,0,0,1-1.66,1.46,10.34,10.34,0,0,1-2.07,1,13.18,13.18,0,0,1-2.28.6,13.94,13.94,0,0,1-2.33.2,10.81,10.81,0,0,1-4.06-.75,8.9,8.9,0,0,1-3.21-2.18,10,10,0,0,1-2.11-3.56,14.48,14.48,0,0,1-.76-4.87,12.4,12.4,0,0,1,.68-4.16,9.8,9.8,0,0,1,2-3.35,9,9,0,0,1,3.13-2.23A10.27,10.27,0,0,1,966.56,128.75Zm.08,2.75a5.74,5.74,0,0,0-4.26,1.56,7.36,7.36,0,0,0-1.93,4.34H972a7.56,7.56,0,0,0-.36-2.38,5.31,5.31,0,0,0-1-1.87,4.71,4.71,0,0,0-1.69-1.22A5.7,5.7,0,0,0,966.64,131.5Z" transform="translate(0 73.35)"/><path class="cls-16" d="M983.86,139.46l-7.16-10.37h3.59a1.2,1.2,0,0,1,.67.15,1.4,1.4,0,0,1,.38.42l5.21,8a5.54,5.54,0,0,1,.55-1.18l4.58-6.72a2.59,2.59,0,0,1,.42-.47.78.78,0,0,1,.52-.18h3.44l-7.16,10.16,7.46,11.11h-3.59a1,1,0,0,1-.72-.24,2.19,2.19,0,0,1-.43-.54l-5.36-8.34a3.81,3.81,0,0,1-.44,1.09l-5,7.25a4.28,4.28,0,0,1-.45.54.89.89,0,0,1-.66.24h-3.34Z" transform="translate(0 73.35)"/><path class="cls-16" d="M1006.5,150.7a5.12,5.12,0,0,1-3.87-1.41,5.61,5.61,0,0,1-1.35-4.05v-13h-2.56a.84.84,0,0,1-.57-.2.77.77,0,0,1-.23-.62v-1.49l3.49-.44.86-6.57a.79.79,0,0,1,.27-.51.87.87,0,0,1,.59-.2H1005v7.33h6.09v2.71H1005V145a2.72,2.72,0,0,0,.65,2,2.27,2.27,0,0,0,1.68.65,3,3,0,0,0,1-.16,4.34,4.34,0,0,0,.75-.35c.21-.13.39-.24.54-.35a.7.7,0,0,1,.39-.16.64.64,0,0,1,.53.36l1.09,1.78a6.94,6.94,0,0,1-2.33,1.42A7.9,7.9,0,0,1,1006.5,150.7Z" transform="translate(0 73.35)"/><path class="cls-16" d="M1024.66,150.36V132.28l-2.35-.27a1.87,1.87,0,0,1-.72-.33.76.76,0,0,1-.28-.64v-1.53h3.36v-1.18a10.13,10.13,0,0,1,.61-3.58,7.51,7.51,0,0,1,1.83-2.8,8.35,8.35,0,0,1,3-1.83,13.52,13.52,0,0,1,5.86-.54,7.05,7.05,0,0,1,1.44.32l-.13,2a.38.38,0,0,1-.25.34,2,2,0,0,1-.61.07h-1q-3.72,0-5.41,1.54a6,6,0,0,0-1.69,4.64v1.07h12.85v20.85h-3.74V132.22h-9v18.14Z" transform="translate(0 73.35)"/><path class="cls-16" d="M1045.07,129.09h3.07a1.16,1.16,0,0,1,.73.23,1.3,1.3,0,0,1,.42.55l5.4,13.69a10.51,10.51,0,0,1,.46,1.51q.17.76.32,1.49.17-.74.36-1.49a12.55,12.55,0,0,1,.48-1.51l5.46-13.69a1.24,1.24,0,0,1,.41-.56,1.11,1.11,0,0,1,.7-.22h2.92l-8.67,21.27h-3.38Z" transform="translate(0 73.35)"/><path class="cls-16" d="M1077.14,128.75a9.48,9.48,0,0,1,3.53.64,7.92,7.92,0,0,1,2.79,1.85,8.42,8.42,0,0,1,1.84,3,11.51,11.51,0,0,1,.66,4,2.44,2.44,0,0,1-.19,1.18.79.79,0,0,1-.71.29H1070.9a11.76,11.76,0,0,0,.55,3.51,7.17,7.17,0,0,0,1.39,2.49,5.54,5.54,0,0,0,2.1,1.49,7.19,7.19,0,0,0,2.73.49,8,8,0,0,0,2.43-.33,11.55,11.55,0,0,0,1.75-.7,13.53,13.53,0,0,0,1.23-.7,1.63,1.63,0,0,1,.85-.33.82.82,0,0,1,.71.36l1,1.37a7.07,7.07,0,0,1-1.66,1.46,10.34,10.34,0,0,1-2.07,1,13.18,13.18,0,0,1-2.28.6,13.94,13.94,0,0,1-2.33.2,10.81,10.81,0,0,1-4.06-.75,8.9,8.9,0,0,1-3.21-2.18,10,10,0,0,1-2.11-3.56,14.48,14.48,0,0,1-.76-4.87,12.4,12.4,0,0,1,.68-4.16,9.8,9.8,0,0,1,2-3.35,9,9,0,0,1,3.13-2.23A10.27,10.27,0,0,1,1077.14,128.75Zm.08,2.75a5.74,5.74,0,0,0-4.26,1.56,7.36,7.36,0,0,0-1.93,4.34h11.57a7.56,7.56,0,0,0-.36-2.38,5.31,5.31,0,0,0-1-1.87,4.71,4.71,0,0,0-1.69-1.22A5.7,5.7,0,0,0,1077.23,131.5Z" transform="translate(0 73.35)"/><path class="cls-16" d="M497.4,183.27a1.68,1.68,0,0,1-.34.36.8.8,0,0,1-.48.13,1.19,1.19,0,0,1-.68-.26,10.21,10.21,0,0,0-.93-.58,7.9,7.9,0,0,0-1.38-.58,7.3,7.3,0,0,0-4.74.29,5.33,5.33,0,0,0-2,1.61,7.26,7.26,0,0,0-1.22,2.54,12.6,12.6,0,0,0-.41,3.34,12.19,12.19,0,0,0,.44,3.43,7.43,7.43,0,0,0,1.24,2.52,5.29,5.29,0,0,0,1.94,1.55,6,6,0,0,0,2.57.54,6.56,6.56,0,0,0,2.25-.33,6.86,6.86,0,0,0,1.47-.72,11,11,0,0,0,1-.72,1.17,1.17,0,0,1,.76-.33.79.79,0,0,1,.71.36l1,1.37a8.09,8.09,0,0,1-3.46,2.49,12.28,12.28,0,0,1-4.39.79,9.31,9.31,0,0,1-3.71-.73,8.46,8.46,0,0,1-3-2.13,10.11,10.11,0,0,1-2-3.43,13.81,13.81,0,0,1-.72-4.64,14,14,0,0,1,.66-4.39,10,10,0,0,1,1.93-3.48,8.76,8.76,0,0,1,3.14-2.28,10.58,10.58,0,0,1,4.28-.82,10.08,10.08,0,0,1,3.95.72,9.42,9.42,0,0,1,3,2Z" transform="translate(0 73.35)"/><path class="cls-16" d="M518.13,200.76h-1.66a2,2,0,0,1-.88-.17.93.93,0,0,1-.44-.71l-.42-2q-.84.76-1.64,1.36a9.46,9.46,0,0,1-1.68,1,8.72,8.72,0,0,1-1.88.62,10.8,10.8,0,0,1-2.22.21,7.55,7.55,0,0,1-2.32-.35,5.28,5.28,0,0,1-1.88-1,5,5,0,0,1-1.27-1.76,6.17,6.17,0,0,1-.47-2.52,4.71,4.71,0,0,1,.69-2.43,6.1,6.1,0,0,1,2.24-2.08,14.54,14.54,0,0,1,4-1.49,27.49,27.49,0,0,1,6.11-.58v-1.67a5.79,5.79,0,0,0-1.06-3.77,3.85,3.85,0,0,0-3.14-1.28,6.64,6.64,0,0,0-2.3.35,8.67,8.67,0,0,0-1.62.78q-.68.43-1.18.78a1.69,1.69,0,0,1-1,.35,1.12,1.12,0,0,1-.66-.2,1.52,1.52,0,0,1-.45-.49l-.67-1.2a12.18,12.18,0,0,1,3.8-2.54,11.76,11.76,0,0,1,4.51-.84,8.08,8.08,0,0,1,3.17.59,6.51,6.51,0,0,1,2.33,1.64,6.94,6.94,0,0,1,1.43,2.54,10.57,10.57,0,0,1,.48,3.28Zm-9.7-2.29a7.64,7.64,0,0,0,1.81-.2,7.16,7.16,0,0,0,1.54-.57,8.09,8.09,0,0,0,1.39-.89,11.81,11.81,0,0,0,1.29-1.2v-4.39a25,25,0,0,0-4.39.33,12.3,12.3,0,0,0-2.94.86,4.09,4.09,0,0,0-1.65,1.25,2.69,2.69,0,0,0-.51,1.61,3.56,3.56,0,0,0,.27,1.46,2.77,2.77,0,0,0,.73,1,2.91,2.91,0,0,0,1.09.57A5,5,0,0,0,508.43,198.47Z" transform="translate(0 73.35)"/><path class="cls-16" d="M523.8,200.76V179.49h2.14a1.18,1.18,0,0,1,.84.23,1.42,1.42,0,0,1,.31.8l.25,3.32a9.73,9.73,0,0,1,2.7-3.48,6.36,6.36,0,0,1,5.37-1.05,5.64,5.64,0,0,1,1.32.56l-.48,2.79a.63.63,0,0,1-.65.53,3.27,3.27,0,0,1-.9-.2,5.71,5.71,0,0,0-1.7-.2,4.81,4.81,0,0,0-3.27,1.13,8.51,8.51,0,0,0-2.19,3.3v13.54Z" transform="translate(0 73.35)"/><path class="cls-16" d="M549.15,179.15a9.48,9.48,0,0,1,3.53.64,7.91,7.91,0,0,1,2.79,1.85,8.43,8.43,0,0,1,1.84,3,11.53,11.53,0,0,1,.66,4,2.44,2.44,0,0,1-.19,1.18.79.79,0,0,1-.71.29H542.91a11.72,11.72,0,0,0,.55,3.51,7.18,7.18,0,0,0,1.39,2.49,5.55,5.55,0,0,0,2.1,1.49,7.21,7.21,0,0,0,2.73.49,8,8,0,0,0,2.43-.33,11.54,11.54,0,0,0,1.75-.7,13.4,13.4,0,0,0,1.23-.7,1.63,1.63,0,0,1,.85-.33.82.82,0,0,1,.71.36l1.05,1.37a7.12,7.12,0,0,1-1.66,1.46,10.39,10.39,0,0,1-2.07,1,13.08,13.08,0,0,1-2.28.6,13.93,13.93,0,0,1-2.33.2,10.8,10.8,0,0,1-4.06-.75,8.91,8.91,0,0,1-3.21-2.18,10,10,0,0,1-2.11-3.56,14.48,14.48,0,0,1-.76-4.87,12.4,12.4,0,0,1,.68-4.16,9.81,9.81,0,0,1,2-3.35A9,9,0,0,1,545,180,10.26,10.26,0,0,1,549.15,179.15Zm.08,2.75a5.74,5.74,0,0,0-4.26,1.56A7.36,7.36,0,0,0,543,187.8h11.57a7.57,7.57,0,0,0-.36-2.38,5.32,5.32,0,0,0-1-1.87,4.71,4.71,0,0,0-1.69-1.22A5.72,5.72,0,0,0,549.23,181.9Z" transform="translate(0 73.35)"/><path class="cls-16" d="M571.15,179.15a9.49,9.49,0,0,1,3.53.64,7.92,7.92,0,0,1,2.79,1.85,8.43,8.43,0,0,1,1.84,3,11.51,11.51,0,0,1,.66,4,2.44,2.44,0,0,1-.19,1.18.78.78,0,0,1-.71.29H564.92a11.75,11.75,0,0,0,.55,3.51,7.18,7.18,0,0,0,1.39,2.49,5.55,5.55,0,0,0,2.1,1.49,7.21,7.21,0,0,0,2.73.49,8,8,0,0,0,2.42-.33,11.55,11.55,0,0,0,1.75-.7,13.53,13.53,0,0,0,1.23-.7,1.63,1.63,0,0,1,.85-.33.82.82,0,0,1,.71.36l1,1.37a7.1,7.1,0,0,1-1.66,1.46,10.34,10.34,0,0,1-2.07,1,13.07,13.07,0,0,1-2.28.6,13.94,13.94,0,0,1-2.33.2,10.8,10.8,0,0,1-4.06-.75,8.91,8.91,0,0,1-3.21-2.18,10,10,0,0,1-2.11-3.56,14.48,14.48,0,0,1-.76-4.87,12.4,12.4,0,0,1,.68-4.16,9.81,9.81,0,0,1,2-3.35A9,9,0,0,1,567,180,10.27,10.27,0,0,1,571.15,179.15Zm.08,2.75a5.74,5.74,0,0,0-4.26,1.56A7.36,7.36,0,0,0,565,187.8h11.57a7.56,7.56,0,0,0-.36-2.38,5.32,5.32,0,0,0-1-1.87,4.71,4.71,0,0,0-1.69-1.22A5.72,5.72,0,0,0,571.24,181.9Z" transform="translate(0 73.35)"/><path class="cls-16" d="M584.74,200.76V179.49h2.14a1.18,1.18,0,0,1,.84.23,1.42,1.42,0,0,1,.31.8l.25,3.32a9.73,9.73,0,0,1,2.7-3.48,6.36,6.36,0,0,1,5.37-1.05,5.64,5.64,0,0,1,1.32.56l-.48,2.79a.63.63,0,0,1-.65.53,3.27,3.27,0,0,1-.9-.2,5.71,5.71,0,0,0-1.7-.2,4.81,4.81,0,0,0-3.27,1.13,8.51,8.51,0,0,0-2.19,3.3v13.54Z" transform="translate(0 73.35)"/><path class="cls-16" d="M609.77,200.76V179.49H612a1,1,0,0,1,1,.78l.27,2.18a10.87,10.87,0,0,1,2.63-2.37,6.2,6.2,0,0,1,3.39-.92,5,5,0,0,1,3.5,1.2,6.73,6.73,0,0,1,1.92,3.23,6.66,6.66,0,0,1,1.17-2,6.78,6.78,0,0,1,1.63-1.39,6.9,6.9,0,0,1,1.92-.8,8.58,8.58,0,0,1,2.07-.25,7.86,7.86,0,0,1,3,.54,5.94,5.94,0,0,1,2.23,1.56,7,7,0,0,1,1.4,2.53,11.23,11.23,0,0,1,.48,3.43v13.54h-3.74V187.22a5.73,5.73,0,0,0-1.09-3.79,3.92,3.92,0,0,0-3.17-1.29,4.76,4.76,0,0,0-1.75.33,4.22,4.22,0,0,0-1.46,1,4.48,4.48,0,0,0-1,1.59,6.15,6.15,0,0,0-.37,2.22v13.54h-3.74V187.22a6,6,0,0,0-1-3.82,3.65,3.65,0,0,0-3-1.26,4.75,4.75,0,0,0-2.57.75,8.44,8.44,0,0,0-2.17,2v15.85Z" transform="translate(0 73.35)"/><path class="cls-16" d="M652.86,179.15a10.93,10.93,0,0,1,4.21.78,8.89,8.89,0,0,1,3.19,2.21,9.77,9.77,0,0,1,2,3.45,15,15,0,0,1,0,9.06,9.78,9.78,0,0,1-2,3.44,8.76,8.76,0,0,1-3.19,2.19,11.95,11.95,0,0,1-8.42,0,8.86,8.86,0,0,1-3.2-2.19,9.79,9.79,0,0,1-2-3.44,14.74,14.74,0,0,1,0-9.06,9.79,9.79,0,0,1,2-3.45,9,9,0,0,1,3.2-2.21A10.93,10.93,0,0,1,652.86,179.15Zm0,19a5.46,5.46,0,0,0,4.7-2.11,12,12,0,0,0,0-11.81,5.45,5.45,0,0,0-4.7-2.12,6.52,6.52,0,0,0-2.77.55,5.2,5.2,0,0,0-2,1.58,7,7,0,0,0-1.18,2.53,14.95,14.95,0,0,0,0,6.77,6.9,6.9,0,0,0,1.18,2.51,5.22,5.22,0,0,0,2,1.56A6.52,6.52,0,0,0,652.86,198.14Z" transform="translate(0 73.35)"/><path class="cls-16" d="M664.37,179.49h3.07a1.15,1.15,0,0,1,.74.23,1.32,1.32,0,0,1,.42.55L674,194a10.38,10.38,0,0,1,.46,1.51q.17.76.32,1.49.17-.74.36-1.49a12.55,12.55,0,0,1,.48-1.51l5.46-13.69a1.25,1.25,0,0,1,.41-.56,1.11,1.11,0,0,1,.7-.22h2.92l-8.67,21.27H673Z" transform="translate(0 73.35)"/><path class="cls-16" d="M696.44,179.15a9.48,9.48,0,0,1,3.53.64,7.91,7.91,0,0,1,2.79,1.85,8.43,8.43,0,0,1,1.84,3,11.51,11.51,0,0,1,.66,4,2.44,2.44,0,0,1-.19,1.18.78.78,0,0,1-.71.29H690.2a11.72,11.72,0,0,0,.55,3.51,7.18,7.18,0,0,0,1.39,2.49,5.55,5.55,0,0,0,2.1,1.49,7.21,7.21,0,0,0,2.73.49,8,8,0,0,0,2.43-.33,11.55,11.55,0,0,0,1.75-.7,13.53,13.53,0,0,0,1.23-.7,1.63,1.63,0,0,1,.85-.33.82.82,0,0,1,.71.36l1,1.37a7.1,7.1,0,0,1-1.66,1.46,10.39,10.39,0,0,1-2.07,1,13.06,13.06,0,0,1-2.28.6,13.93,13.93,0,0,1-2.33.2,10.8,10.8,0,0,1-4.06-.75,8.91,8.91,0,0,1-3.21-2.18,10,10,0,0,1-2.11-3.56,14.48,14.48,0,0,1-.76-4.87,12.4,12.4,0,0,1,.68-4.16,9.81,9.81,0,0,1,2-3.35,9,9,0,0,1,3.13-2.22A10.26,10.26,0,0,1,696.44,179.15Zm.08,2.75a5.74,5.74,0,0,0-4.26,1.56,7.36,7.36,0,0,0-1.93,4.34H701.9a7.56,7.56,0,0,0-.36-2.38,5.32,5.32,0,0,0-1-1.87,4.71,4.71,0,0,0-1.69-1.22A5.72,5.72,0,0,0,696.52,181.9Z" transform="translate(0 73.35)"/><path class="cls-16" d="M722.21,183a.83.83,0,0,1-.78.46,1.46,1.46,0,0,1-.71-.23q-.4-.23-1-.51a9.36,9.36,0,0,0-1.37-.53,6.6,6.6,0,0,0-1.89-.24,5.61,5.61,0,0,0-1.7.24,4.13,4.13,0,0,0-1.29.66,2.93,2.93,0,0,0-.82,1,2.63,2.63,0,0,0-.28,1.21,2,2,0,0,0,.47,1.37,4.09,4.09,0,0,0,1.25.95,11,11,0,0,0,1.76.7l2,.65q1,.35,2,.77a7.35,7.35,0,0,1,1.76,1,4.8,4.8,0,0,1,1.25,1.54,4.73,4.73,0,0,1,.47,2.19,7,7,0,0,1-.53,2.72,5.93,5.93,0,0,1-1.55,2.16,7.49,7.49,0,0,1-2.52,1.44,10.36,10.36,0,0,1-3.44.52,10.74,10.74,0,0,1-4-.72,10.23,10.23,0,0,1-3.07-1.86l.88-1.43a1.28,1.28,0,0,1,.4-.42,1.13,1.13,0,0,1,.61-.15,1.41,1.41,0,0,1,.8.29q.42.29,1,.65a7.83,7.83,0,0,0,1.45.65,6.63,6.63,0,0,0,2.13.29,5.83,5.83,0,0,0,1.91-.28,4,4,0,0,0,1.37-.77,3.06,3.06,0,0,0,.81-1.11,3.46,3.46,0,0,0,.26-1.34,2.23,2.23,0,0,0-.47-1.46,4,4,0,0,0-1.25-1,10.14,10.14,0,0,0-1.77-.71l-2-.64q-1-.34-2-.77a7.14,7.14,0,0,1-1.77-1.08,4.91,4.91,0,0,1-1.25-1.61,5.19,5.19,0,0,1-.47-2.32,5.66,5.66,0,0,1,.5-2.34,5.75,5.75,0,0,1,1.47-2,7.25,7.25,0,0,1,2.37-1.35,9.49,9.49,0,0,1,3.21-.5,10.15,10.15,0,0,1,3.77.66,8.91,8.91,0,0,1,2.89,1.82Z" transform="translate(0 73.35)"/><path class="cls-16" d="M727,198.45a2.66,2.66,0,0,1,.2-1,2.63,2.63,0,0,1,.55-.84,2.62,2.62,0,0,1,2.89-.57,2.69,2.69,0,0,1,.84.57,2.58,2.58,0,0,1,.56.84,2.78,2.78,0,0,1,0,2.07,2.62,2.62,0,0,1-.56.83,2.57,2.57,0,0,1-.84.56,2.76,2.76,0,0,1-2.06,0,2.44,2.44,0,0,1-.83-.56,2.67,2.67,0,0,1-.55-.83A2.63,2.63,0,0,1,727,198.45Z" transform="translate(0 73.35)"/><path class="cls-16" d="M758.7,170.67h3.38a1.44,1.44,0,0,1,.9.27,1.34,1.34,0,0,1,.48.69l6.22,20.92q.17.57.3,1.22t.26,1.37q.15-.71.29-1.37a10.92,10.92,0,0,1,.34-1.21L778,171.63a1.54,1.54,0,0,1,.49-.66,1.35,1.35,0,0,1,.89-.3h1.18a1.4,1.4,0,0,1,.89.27,1.49,1.49,0,0,1,.49.69l7,20.92a20.58,20.58,0,0,1,.67,2.5q.13-.69.23-1.32a9.08,9.08,0,0,1,.27-1.18l6.24-20.92a1.31,1.31,0,0,1,.47-.67,1.38,1.38,0,0,1,.89-.29h3.17l-9.39,30.09h-3.65l-7.62-23a12.6,12.6,0,0,1-.42-1.51l-.2.81q-.09.39-.2.7l-7.67,23h-3.65Z" transform="translate(0 73.35)"/><path class="cls-16" d="M804.27,200.76V169.83H808v12.52a11.48,11.48,0,0,1,3-2.32,8.1,8.1,0,0,1,3.82-.87,7.69,7.69,0,0,1,3.08.58,6,6,0,0,1,2.23,1.64,7.22,7.22,0,0,1,1.35,2.55,11.08,11.08,0,0,1,.46,3.3v13.54h-3.74V187.22a5.73,5.73,0,0,0-1.1-3.75,4.12,4.12,0,0,0-3.37-1.33,6.29,6.29,0,0,0-3.1.8A10.22,10.22,0,0,0,808,185.1v15.67Z" transform="translate(0 73.35)"/><path class="cls-16" d="M836,179.15a9.48,9.48,0,0,1,3.53.64,7.91,7.91,0,0,1,2.79,1.85,8.43,8.43,0,0,1,1.84,3,11.51,11.51,0,0,1,.66,4,2.44,2.44,0,0,1-.19,1.18.78.78,0,0,1-.71.29H829.81a11.75,11.75,0,0,0,.55,3.51,7.18,7.18,0,0,0,1.39,2.49,5.55,5.55,0,0,0,2.1,1.49,7.21,7.21,0,0,0,2.73.49,8,8,0,0,0,2.43-.33,11.55,11.55,0,0,0,1.75-.7,13.53,13.53,0,0,0,1.23-.7,1.63,1.63,0,0,1,.85-.33.82.82,0,0,1,.71.36l1,1.37a7.1,7.1,0,0,1-1.66,1.46,10.39,10.39,0,0,1-2.07,1,13.09,13.09,0,0,1-2.28.6,13.94,13.94,0,0,1-2.33.2,10.79,10.79,0,0,1-4.06-.75,8.9,8.9,0,0,1-3.21-2.18,10,10,0,0,1-2.11-3.56,14.48,14.48,0,0,1-.76-4.87,12.4,12.4,0,0,1,.68-4.16,9.81,9.81,0,0,1,2-3.35,9,9,0,0,1,3.13-2.22A10.27,10.27,0,0,1,836,179.15Zm.08,2.75a5.74,5.74,0,0,0-4.26,1.56,7.36,7.36,0,0,0-1.93,4.34H841.5a7.56,7.56,0,0,0-.36-2.38,5.32,5.32,0,0,0-1-1.87,4.71,4.71,0,0,0-1.69-1.22A5.72,5.72,0,0,0,836.13,181.9Z" transform="translate(0 73.35)"/><path class="cls-16" d="M849.63,200.76V179.49h2.14a1.18,1.18,0,0,1,.84.23,1.42,1.42,0,0,1,.32.8l.25,3.32a9.73,9.73,0,0,1,2.7-3.48,6.36,6.36,0,0,1,5.37-1.05,5.64,5.64,0,0,1,1.32.56l-.48,2.79a.63.63,0,0,1-.65.53,3.27,3.27,0,0,1-.9-.2,5.7,5.7,0,0,0-1.7-.2,4.81,4.81,0,0,0-3.27,1.13,8.51,8.51,0,0,0-2.19,3.3v13.54Z" transform="translate(0 73.35)"/><path class="cls-16" d="M875,179.15a9.48,9.48,0,0,1,3.53.64,7.91,7.91,0,0,1,2.79,1.85,8.43,8.43,0,0,1,1.84,3,11.51,11.51,0,0,1,.66,4,2.44,2.44,0,0,1-.19,1.18.78.78,0,0,1-.71.29H868.74a11.75,11.75,0,0,0,.55,3.51,7.18,7.18,0,0,0,1.39,2.49,5.55,5.55,0,0,0,2.1,1.49,7.21,7.21,0,0,0,2.73.49,8,8,0,0,0,2.43-.33,11.55,11.55,0,0,0,1.75-.7,13.53,13.53,0,0,0,1.23-.7,1.63,1.63,0,0,1,.85-.33.82.82,0,0,1,.71.36l1,1.37a7.1,7.1,0,0,1-1.66,1.46,10.39,10.39,0,0,1-2.07,1,13.09,13.09,0,0,1-2.28.6,13.94,13.94,0,0,1-2.33.2,10.79,10.79,0,0,1-4.06-.75,8.9,8.9,0,0,1-3.21-2.18,10,10,0,0,1-2.11-3.56,14.48,14.48,0,0,1-.76-4.87,12.4,12.4,0,0,1,.68-4.16,9.81,9.81,0,0,1,2-3.35,9,9,0,0,1,3.13-2.22A10.27,10.27,0,0,1,875,179.15Zm.08,2.75a5.74,5.74,0,0,0-4.26,1.56,7.36,7.36,0,0,0-1.93,4.34h11.57a7.56,7.56,0,0,0-.36-2.38,5.32,5.32,0,0,0-1-1.87,4.71,4.71,0,0,0-1.69-1.22A5.72,5.72,0,0,0,875.06,181.9Z" transform="translate(0 73.35)"/><path class="cls-16" d="M911.64,200.76a1,1,0,0,1-1-.78l-.34-2.58a11.18,11.18,0,0,1-3.12,2.66,8,8,0,0,1-4,1,7.68,7.68,0,0,1-3.32-.7,6.87,6.87,0,0,1-2.54-2.07,9.86,9.86,0,0,1-1.62-3.4,17.51,17.51,0,0,1-.57-4.68,14.68,14.68,0,0,1,.63-4.38,10.66,10.66,0,0,1,1.82-3.52,8.34,8.34,0,0,1,6.75-3.19,7.69,7.69,0,0,1,3.34.66,8,8,0,0,1,2.48,1.86v-11.8h3.74v30.93ZM904.4,198a6,6,0,0,0,3.2-.84,9.26,9.26,0,0,0,2.53-2.37V184.53a5.92,5.92,0,0,0-2.26-1.94,6.52,6.52,0,0,0-2.72-.56,5.38,5.38,0,0,0-4.58,2.12,9.91,9.91,0,0,0-1.6,6,15.37,15.37,0,0,0,.36,3.56,6.84,6.84,0,0,0,1,2.44,4.12,4.12,0,0,0,1.7,1.4A5.71,5.71,0,0,0,904.4,198Z" transform="translate(0 73.35)"/><path class="cls-16" d="M928.76,179.15a10.93,10.93,0,0,1,4.21.78,8.88,8.88,0,0,1,3.19,2.21,9.78,9.78,0,0,1,2,3.45,15,15,0,0,1,0,9.06,9.78,9.78,0,0,1-2,3.44,8.76,8.76,0,0,1-3.19,2.19,11.95,11.95,0,0,1-8.42,0,8.85,8.85,0,0,1-3.2-2.19,9.82,9.82,0,0,1-2-3.44,14.74,14.74,0,0,1,0-9.06,9.82,9.82,0,0,1,2-3.45,9,9,0,0,1,3.2-2.21A10.93,10.93,0,0,1,928.76,179.15Zm0,19a5.46,5.46,0,0,0,4.7-2.11,12,12,0,0,0,0-11.81,5.45,5.45,0,0,0-4.7-2.12,6.52,6.52,0,0,0-2.77.55,5.2,5.2,0,0,0-2,1.58,7,7,0,0,0-1.18,2.53,14.95,14.95,0,0,0,0,6.77A6.89,6.89,0,0,0,924,196a5.22,5.22,0,0,0,2,1.56A6.52,6.52,0,0,0,928.76,198.14Z" transform="translate(0 73.35)"/><path class="cls-16" d="M957,200.76h-4.07V170.67H957Z" transform="translate(0 73.35)"/><path class="cls-16" d="M984.78,183a.83.83,0,0,1-.78.46,1.46,1.46,0,0,1-.71-.23q-.4-.23-1-.51a9.36,9.36,0,0,0-1.37-.53,6.6,6.6,0,0,0-1.89-.24,5.61,5.61,0,0,0-1.7.24,4.13,4.13,0,0,0-1.29.66,2.93,2.93,0,0,0-.82,1A2.63,2.63,0,0,0,975,185a2,2,0,0,0,.47,1.37,4.09,4.09,0,0,0,1.25.95,11,11,0,0,0,1.76.7l2,.65q1,.35,2,.77a7.35,7.35,0,0,1,1.76,1,4.8,4.8,0,0,1,1.25,1.54,4.73,4.73,0,0,1,.47,2.19,7,7,0,0,1-.53,2.72,5.93,5.93,0,0,1-1.55,2.16,7.49,7.49,0,0,1-2.52,1.44,10.36,10.36,0,0,1-3.44.52,10.74,10.74,0,0,1-4-.72,10.23,10.23,0,0,1-3.07-1.86l.88-1.43a1.28,1.28,0,0,1,.4-.42,1.13,1.13,0,0,1,.61-.15,1.41,1.41,0,0,1,.8.29q.42.29,1,.65a7.83,7.83,0,0,0,1.45.65,6.63,6.63,0,0,0,2.13.29,5.83,5.83,0,0,0,1.91-.28,4,4,0,0,0,1.37-.77,3.06,3.06,0,0,0,.81-1.11,3.46,3.46,0,0,0,.26-1.34,2.23,2.23,0,0,0-.47-1.46,4,4,0,0,0-1.25-1,10.14,10.14,0,0,0-1.77-.71l-2-.64q-1-.34-2-.77a7.14,7.14,0,0,1-1.77-1.08,4.91,4.91,0,0,1-1.25-1.61,5.19,5.19,0,0,1-.47-2.32,5.66,5.66,0,0,1,.5-2.34,5.75,5.75,0,0,1,1.47-2,7.25,7.25,0,0,1,2.37-1.35,9.49,9.49,0,0,1,3.21-.5,10.15,10.15,0,0,1,3.77.66,8.91,8.91,0,0,1,2.89,1.82Z" transform="translate(0 73.35)"/><path class="cls-16" d="M997.28,201.1a5.12,5.12,0,0,1-3.87-1.41,5.61,5.61,0,0,1-1.35-4.05v-13h-2.56a.84.84,0,0,1-.57-.2.78.78,0,0,1-.23-.62v-1.49l3.49-.44.86-6.57a.79.79,0,0,1,.27-.51.87.87,0,0,1,.59-.2h1.89v7.33h6.09v2.71h-6.09v12.77a2.72,2.72,0,0,0,.65,2,2.27,2.27,0,0,0,1.68.65,3,3,0,0,0,1-.16,4.49,4.49,0,0,0,.75-.35c.21-.13.39-.24.54-.35a.7.7,0,0,1,.39-.16.64.64,0,0,1,.53.36l1.09,1.78a6.94,6.94,0,0,1-2.33,1.42A7.9,7.9,0,0,1,997.28,201.1Z" transform="translate(0 73.35)"/><path class="cls-16" d="M1022.12,200.76h-1.66a2,2,0,0,1-.88-.17.93.93,0,0,1-.44-.71l-.42-2q-.84.76-1.64,1.36a9.45,9.45,0,0,1-1.68,1,8.73,8.73,0,0,1-1.88.62,10.81,10.81,0,0,1-2.22.21,7.55,7.55,0,0,1-2.32-.35,5.27,5.27,0,0,1-1.88-1,5,5,0,0,1-1.27-1.76,6.18,6.18,0,0,1-.47-2.52,4.71,4.71,0,0,1,.69-2.43,6.1,6.1,0,0,1,2.24-2.08,14.53,14.53,0,0,1,4-1.49,27.47,27.47,0,0,1,6.11-.58v-1.67a5.79,5.79,0,0,0-1.06-3.77,3.85,3.85,0,0,0-3.14-1.28,6.64,6.64,0,0,0-2.3.35,8.67,8.67,0,0,0-1.62.78q-.68.43-1.18.78a1.69,1.69,0,0,1-1,.35,1.12,1.12,0,0,1-.66-.2,1.52,1.52,0,0,1-.45-.49l-.67-1.2a12.18,12.18,0,0,1,3.8-2.54,11.77,11.77,0,0,1,4.52-.84,8.08,8.08,0,0,1,3.17.59,6.51,6.51,0,0,1,2.33,1.64,6.94,6.94,0,0,1,1.43,2.54,10.57,10.57,0,0,1,.48,3.28Zm-9.7-2.29a7.64,7.64,0,0,0,1.81-.2,7.18,7.18,0,0,0,1.54-.57,8.13,8.13,0,0,0,1.39-.89,11.89,11.89,0,0,0,1.29-1.2v-4.39a25,25,0,0,0-4.39.33,12.32,12.32,0,0,0-2.94.86,4.1,4.1,0,0,0-1.65,1.25,2.69,2.69,0,0,0-.51,1.61,3.57,3.57,0,0,0,.27,1.46,2.77,2.77,0,0,0,.74,1,2.91,2.91,0,0,0,1.09.57A5,5,0,0,0,1012.42,198.47Z" transform="translate(0 73.35)"/><path class="cls-16" d="M1027.79,200.76V179.49h2.14a1.18,1.18,0,0,1,.84.23,1.42,1.42,0,0,1,.32.8l.25,3.32a9.73,9.73,0,0,1,2.7-3.48,6.36,6.36,0,0,1,5.37-1.05,5.64,5.64,0,0,1,1.32.56l-.48,2.79a.63.63,0,0,1-.65.53,3.27,3.27,0,0,1-.9-.2,5.7,5.7,0,0,0-1.7-.2,4.81,4.81,0,0,0-3.27,1.13,8.51,8.51,0,0,0-2.19,3.3v13.54Z" transform="translate(0 73.35)"/><path class="cls-16" d="M1051.16,201.1a5.12,5.12,0,0,1-3.87-1.41,5.61,5.61,0,0,1-1.35-4.05v-13h-2.56a.84.84,0,0,1-.57-.2.78.78,0,0,1-.23-.62v-1.49l3.49-.44.86-6.57a.79.79,0,0,1,.27-.51.87.87,0,0,1,.59-.2h1.89v7.33h6.09v2.71h-6.09v12.77a2.72,2.72,0,0,0,.65,2,2.27,2.27,0,0,0,1.68.65,3,3,0,0,0,1-.16,4.49,4.49,0,0,0,.75-.35c.21-.13.39-.24.54-.35a.7.7,0,0,1,.39-.16.64.64,0,0,1,.53.36l1.09,1.78a6.94,6.94,0,0,1-2.33,1.42A7.9,7.9,0,0,1,1051.16,201.1Z" transform="translate(0 73.35)"/><path class="cls-16" d="M1058,173.36a12.56,12.56,0,0,1,1.44-1.15,10.83,10.83,0,0,1,1.72-1,10.52,10.52,0,0,1,2-.66,10.72,10.72,0,0,1,2.34-.24,9.48,9.48,0,0,1,3.08.48,7.36,7.36,0,0,1,2.45,1.37,6.3,6.3,0,0,1,1.62,2.14,6.63,6.63,0,0,1,.59,2.83,7.24,7.24,0,0,1-.47,2.75,7.67,7.67,0,0,1-1.2,2,9.14,9.14,0,0,1-1.58,1.51l-1.61,1.21a10.54,10.54,0,0,0-1.28,1.13,2.2,2.2,0,0,0-.62,1.26l-.38,3.21h-2.56l-.25-3.49v-.23a2.68,2.68,0,0,1,.47-1.57,6.42,6.42,0,0,1,1.2-1.28q.72-.6,1.55-1.2a12.79,12.79,0,0,0,1.55-1.32,6.47,6.47,0,0,0,1.2-1.65,4.73,4.73,0,0,0,.47-2.18,3.7,3.7,0,0,0-.36-1.64,3.78,3.78,0,0,0-1-1.25,4.29,4.29,0,0,0-1.44-.79,5.62,5.62,0,0,0-1.77-.27,6.76,6.76,0,0,0-2.19.31,8.22,8.22,0,0,0-1.54.69,9,9,0,0,0-1,.69,1.14,1.14,0,0,1-.64.32.91.91,0,0,1-.82-.48Zm4.12,25.1a2.67,2.67,0,0,1,.2-1,2.64,2.64,0,0,1,.55-.84,2.62,2.62,0,0,1,2.89-.57,2.68,2.68,0,0,1,.84.57,2.54,2.54,0,0,1,.56.84,2.78,2.78,0,0,1,0,2.07,2.56,2.56,0,0,1-1.4,1.39,2.76,2.76,0,0,1-2.06,0,2.45,2.45,0,0,1-.83-.56,2.69,2.69,0,0,1-.55-.83A2.65,2.65,0,0,1,1062.14,198.45Z" transform="translate(0 73.35)"/></g></g></g></svg>