<?xml version="1.0" encoding="iso-8859-1"?>
<!-- Generator: Adobe Illustrator 19.0.0, SVG Export Plug-In . SVG Version: 6.00 Build 0)  -->
<svg version="1.1" id="Layer_1" xmlns="http://www.w3.org/2000/svg" xmlns:xlink="http://www.w3.org/1999/xlink" x="0px" y="0px"
	 viewBox="0 0 512 512" style="enable-background:new 0 0 512 512;" xml:space="preserve">
<path style="fill:#5DDDD3;" d="M256,511.999c140.998,0,256-114.999,256-255.997c0-141.001-114.999-256-256-256S0,115.001,0,256.001
	C0,396.999,114.999,511.999,256,511.999z"/>
<path style="fill:#666666;" d="M170.512,301.998c-21.348-53.858-66.191-102.6-9.763-200.781
	c23.24-40.436,58.739-67.104,95.411-58.075c36.672-9.028,72.171,17.64,95.411,58.075c56.426,98.181,11.586,146.923-9.765,200.781
	l-85.643,0.212l-85.648-0.212H170.512z"/>
<path style="fill:#FED198;" d="M111.909,386.193c-2.678,4.323-9.359,41.086-16.748,68.958
	c43.958,35.544,99.907,56.845,160.836,56.845c60.932,0,116.88-21.301,160.838-56.845c-7.392-27.869-14.072-64.638-16.75-68.958
	c-41.126-66.406-104.518-37.417-108.84-113.407c0,0-20.394,15.219-35.966,15.358c-15.573,0.139-34.55-14.398-34.55-14.398
	C216.417,349.67,153.006,319.837,111.909,386.193z"/>
<path style="fill:#F0B97D;" d="M292.349,283.519c-0.511-3.331-0.887-6.893-1.104-10.731c0,0-20.394,15.219-35.966,15.358
	c-15.573,0.139-34.55-14.398-34.55-14.398c-0.22,3.908-0.606,7.523-1.133,10.898c0.399,0.315,0.795,0.635,1.201,0.947l-0.005,0.055
	c1.199,1.044,19.428,16.719,34.484,16.561c15.056,0.157,33.283-15.52,34.484-16.561l-0.003-0.055
	c0.884-0.677,1.742-1.374,2.589-2.072L292.349,283.519z"/>
<path style="fill:#FED198;" d="M220.794,273.796c1.199,0.905,19.428,14.484,34.484,14.348c15.056,0.136,33.283-13.445,34.484-14.348
	c22.757-13.267,41.43-52.383,37.215-94.776c-3.452-34.726-41.018,16.192-67.182-55.458c-37.031,77.572-72.203,31.686-76.213,61.084
	c-4.42,32.391,13.765,73.147,37.212,89.152V273.796z"/>
<path style="fill:#FBB429;" d="M190.916,328.112c-22.411,11.971-63.408,12.333-79.007,37.412
	c-2.717,4.367-9.537,57.868-17.039,89.394c43.998,35.683,100.061,57.079,161.124,57.079c61.068,0,117.126-21.393,161.127-57.079
	c-7.502-31.526-15.142-84.612-17.039-89.394c-10.358-26.125-58.306-27.216-80.74-39.263
	c-34.88,126.546-86.868,135.173-128.424,1.862l-0.008-0.01H190.916z"/>
<g>
	<path style="fill:#FFFFFF;" d="M205.859,315.535c-1.456,39.371,5.238,95.148,49.414,109.402
		c-41.59,1.739-68.578-58.186-99.322-73.881l49.907-35.518V315.535z"/>
	<path style="fill:#FFFFFF;" d="M307.164,315.535c1.527,39.371-5.5,95.148-51.89,109.402c43.673,1.739,72.014-58.186,104.292-73.881
		l-52.404-35.518L307.164,315.535z"/>
</g>
<g>
</g>
<g>
</g>
<g>
</g>
<g>
</g>
<g>
</g>
<g>
</g>
<g>
</g>
<g>
</g>
<g>
</g>
<g>
</g>
<g>
</g>
<g>
</g>
<g>
</g>
<g>
</g>
<g>
</g>
</svg>
